<svg xmlns="http://www.w3.org/2000/svg" xmlns:xlink="http://www.w3.org/1999/xlink" width="108" height="108" viewBox="0 0 108 108">
  <defs>
    <filter id="Trazado_904820" x="0" y="0" width="108" height="108" filterUnits="userSpaceOnUse">
      <feOffset dy="3" input="SourceAlpha"/>
      <feGaussianBlur stdDeviation="3" result="blur"/>
      <feFlood flood-opacity="0.161"/>
      <feComposite operator="in" in2="blur"/>
      <feComposite in="SourceGraphic"/>
    </filter>
  </defs>
  <g id="Grupo_1207337" data-name="Grupo 1207337" transform="translate(-215 -1034.282)">
    <g id="Grupo_1207285" data-name="Grupo 1207285" transform="translate(224 1040.282)">
      <g id="Grupo_1173585" data-name="Grupo 1173585" transform="translate(0 0)">
        <g id="Grupo_1173428" data-name="Grupo 1173428">
          <g id="Grupo_1171958" data-name="Grupo 1171958">
            <g id="Grupo_1167341" data-name="Grupo 1167341">
              <g id="Grupo_1166792" data-name="Grupo 1166792">
                <g transform="matrix(1, 0, 0, 1, -9, -6)" filter="url(#Trazado_904820)">
                  <g id="Trazado_904820-2" data-name="Trazado 904820" transform="translate(9 6)" fill="#f2f7e5">
                    <path d="M 44.99999618530273 88.49999237060547 C 39.12687301635742 88.49999237060547 33.43022155761719 87.35006713867188 28.06829643249512 85.08216857910156 C 22.88852119445801 82.89130401611328 18.23629570007324 79.75457763671875 14.24084663391113 75.75914001464844 C 10.24540901184082 71.76369476318359 7.108683586120605 67.11146545410156 4.917821407318115 61.93169403076172 C 2.649921178817749 56.56976699829102 1.499996185302734 50.87311553955078 1.499996185302734 44.99999237060547 C 1.499996185302734 39.12686920166016 2.649921178817749 33.43021774291992 4.917821407318115 28.06829261779785 C 7.108683586120605 22.88851737976074 10.24540901184082 18.23630523681641 14.24084663391113 14.24085521697998 C 18.23629570007324 10.24540519714355 22.88852119445801 7.108692169189453 28.06829643249512 4.917829990386963 C 33.43022155761719 2.649929761886597 39.12687301635742 1.500004887580872 44.99999618530273 1.500004887580872 C 50.87311935424805 1.500004887580872 56.56977081298828 2.649929761886597 61.93169784545898 4.917829990386963 C 67.11147308349609 7.108692169189453 71.76369476318359 10.24540519714355 75.75914764404297 14.24085521697998 C 79.75458526611328 18.23630523681641 82.89131164550781 22.88851737976074 85.08216857910156 28.06829261779785 C 87.35007476806641 33.43021774291992 88.5 39.12686920166016 88.5 44.99999237060547 C 88.5 50.87311553955078 87.35007476806641 56.56976699829102 85.08216857910156 61.93169403076172 C 82.89131164550781 67.11146545410156 79.75458526611328 71.76369476318359 75.75914764404297 75.75914001464844 C 71.76369476318359 79.75457763671875 67.11147308349609 82.89130401611328 61.93169784545898 85.08216857910156 C 56.56977081298828 87.35006713867188 50.87311935424805 88.49999237060547 44.99999618530273 88.49999237060547 Z" stroke="none"/>
                    <path d="M 44.99999618530273 2.999992370605469 C 39.32870864868164 2.999992370605469 33.82865142822266 4.11004638671875 28.65262603759766 6.299331665039062 C 23.65165710449219 8.414566040039062 19.15968322753906 11.44333648681641 15.301513671875 15.30150604248047 C 11.44333648681641 19.15967559814453 8.414566040039062 23.65164947509766 6.299339294433594 28.65262222290039 C 4.110054016113281 33.82864761352539 2.999992370605469 39.32870483398438 2.999992370605469 44.99999237060547 C 2.999992370605469 50.67127990722656 4.110054016113281 56.17132186889648 6.299339294433594 61.34736633300781 C 8.414566040039062 66.34833526611328 11.44333648681641 70.84029388427734 15.301513671875 74.69846343994141 C 19.15968322753906 78.55663299560547 23.65165710449219 81.58540344238281 28.65262603759766 83.70063781738281 C 33.82865142822266 85.88992309570312 39.32870864868164 86.99997711181641 44.99999618530273 86.99997711181641 C 50.67128372192383 86.99997711181641 56.17134094238281 85.88992309570312 61.34736633300781 83.70063781738281 C 66.34834289550781 81.58540344238281 70.84030914306641 78.55663299560547 74.69847869873047 74.69846343994141 C 78.55665588378906 70.84029388427734 81.58542633056641 66.34833526611328 83.70065307617188 61.34736633300781 C 85.88993835449219 56.17132186889648 87 50.67127990722656 87 44.99999237060547 C 87 39.32870483398438 85.88993835449219 33.82864761352539 83.70065307617188 28.65262222290039 C 81.58542633056641 23.65164947509766 78.55665588378906 19.15967559814453 74.69847869873047 15.30150604248047 C 70.84030914306641 11.44333648681641 66.34834289550781 8.414566040039062 61.34736633300781 6.299331665039062 C 56.17134094238281 4.11004638671875 50.67128372192383 2.999992370605469 44.99999618530273 2.999992370605469 M 44.99999618530273 -7.62939453125e-06 C 69.85281372070312 -7.62939453125e-06 90 20.14717864990234 90 44.99999237060547 C 90 69.85279083251953 69.85281372070312 89.99997711181641 44.99999618530273 89.99997711181641 C 20.14717864990234 89.99997711181641 -7.62939453125e-06 69.85279083251953 -7.62939453125e-06 44.99999237060547 C -7.62939453125e-06 20.14717864990234 20.14717864990234 -7.62939453125e-06 44.99999618530273 -7.62939453125e-06 Z" stroke="none" fill="#86b60c"/>
                  </g>
                </g>
              </g>
            </g>
          </g>
        </g>
      </g>
    </g>
    <g id="Search" transform="translate(237.979 1054.244)">
      <path id="Trazado_1051256" data-name="Trazado 1051256" d="M30.046,3a27,27,0,1,0,19.14,7.91A27.058,27.058,0,0,0,30.046,3Z" transform="translate(-0.066 -0.065)" fill="#2488ff"/>
      <path id="Trazado_1051257" data-name="Trazado 1051257" d="M10.76,40.972l.466,2.332a2.815,2.815,0,0,0,.765,1.427L13.53,46.27a.933.933,0,0,0,1.595-.653V38.23a1.836,1.836,0,0,1,.373-1.119l6.426-6.7-.27-6.8H12.327a1.865,1.865,0,1,1,0-3.731h1.865a1.871,1.871,0,0,0,1.865-1.865V13.356a1.879,1.879,0,0,1,1.865-1.865A3.731,3.731,0,0,0,21.653,7.76V4.431a27.07,27.07,0,0,0-17,35.04h4.28a1.865,1.865,0,0,1,1.828,1.5Z" transform="translate(-0.067 -0.161)" fill="#4e901e"/>
      <path id="Trazado_1051258" data-name="Trazado 1051258" d="M32,3V8.036a1.865,1.865,0,0,0,1.46,1.821l5.473,1.213a1.865,1.865,0,0,1,1.461,1.817V29.115a1.865,1.865,0,0,0,1.865,1.865h9.327a1.871,1.871,0,0,1,1.865,1.865v.933a1.871,1.871,0,0,0,1.865,1.865h3.148A27.058,27.058,0,0,0,32,3Z" transform="translate(-2.02 -0.065)" fill="#7ed63e"/>
      <path id="Trazado_1051259" data-name="Trazado 1051259" d="M39.262,54.731h-1.7a1.877,1.877,0,0,1-1.492-.746l-1.119-1.492A3.731,3.731,0,0,0,31.968,51H27.146a1.871,1.871,0,0,0-1.324.55l-1.7,1.7a1.871,1.871,0,0,1-1.324.55H20.9a1.865,1.865,0,0,0-1.595.9l-1.63,2.089a27.037,27.037,0,0,0,24.809.994L40.9,55.691A1.852,1.852,0,0,0,39.262,54.731Z" transform="translate(-1.055 -3.297)" fill="#5eac24"/>
      <path id="Trazado_1051260" data-name="Trazado 1051260" d="M44.449,41.81l-.056.056a13.664,13.664,0,0,1-2.528,2.528l-.056.056,3.768,3.768,2.639-2.639Z" transform="translate(-2.68 -2.678)" fill="#ff9811"/>
      <circle id="Elipse_13396" data-name="Elipse 13396" cx="14.918" cy="14.918" r="14.918" transform="translate(15.062 15.064)" fill="#ed1c24"/>
      <circle id="Elipse_13397" data-name="Elipse 13397" cx="11.192" cy="11.192" r="11.192" transform="matrix(1, -0.025, 0.025, 1, 18.517, 19.069)" fill="#ffcd00"/>
      <path id="Trazado_1051261" data-name="Trazado 1051261" d="M41.624,25.6a11.192,11.192,0,0,0-10.607-5.545,11.177,11.177,0,0,1-.035,22.282A11.178,11.178,0,0,0,41.624,25.6Z" transform="translate(-1.951 -1.211)" fill="#e5b800"/>
      <rect id="Rectángulo_419411" data-name="Rectángulo 419411" width="3.733" height="0.002" transform="translate(42.897 45.538) rotate(-45)" fill="#9bc9ff"/>
      <path id="Trazado_1051262" data-name="Trazado 1051262" d="M49.711,44.435l-1.319,1.318h0l-2.639,2.639h0l-1.318,1.319,9.12,9.12a3.731,3.731,0,0,0,5.276-5.276Z" transform="translate(-2.857 -2.855)" fill="#58595b"/>
      <path id="Trazado_1051263" data-name="Trazado 1051263" d="M33.529,35.125H29.8a.933.933,0,0,1-.933-.933.933.933,0,1,0-1.865,0,2.8,2.8,0,0,0,2.8,2.8h.933v1.865a.933.933,0,0,0,1.865,0V36.99h.933a2.8,2.8,0,0,0,2.8-2.8v-.933a2.8,2.8,0,0,0-2.8-2.8H29.8a.933.933,0,0,1-.933-.933V28.6a.933.933,0,0,1,.933-.933h3.731a.933.933,0,0,1,.933.933.933.933,0,1,0,1.865,0,2.8,2.8,0,0,0-2.8-2.8H32.6V23.933a.933.933,0,0,0-1.865,0V25.8H29.8A2.8,2.8,0,0,0,27,28.6v.933a2.8,2.8,0,0,0,2.8,2.8h3.731a.933.933,0,0,1,.933.933v.933A.933.933,0,0,1,33.529,35.125Z" transform="translate(-1.683 -1.412)" fill="#231f20"/>
      <path id="Trazado_1051264" data-name="Trazado 1051264" d="M31.144,43.25a12.125,12.125,0,1,0-10.521-6.062A12.125,12.125,0,0,0,31.144,43.25ZM25.995,22.24a10.194,10.194,0,1,1-4.806,6.222,10.259,10.259,0,0,1,4.806-6.222Z" transform="translate(-1.144 -1.142)" fill="#231f20"/>
      <path id="Trazado_1051265" data-name="Trazado 1051265" d="M56.633,50.041l-3.854-3.854a27.551,27.551,0,0,0,4.582-10.415A27.99,27.99,0,1,0,29.98,57.963a27.567,27.567,0,0,0,11.485-2.468,26.62,26.62,0,0,0,4.719-2.712l3.854,3.853a4.663,4.663,0,1,0,6.595-6.595Zm-9.119-9.12a.933.933,0,0,0-1.319,0l-.659.659-2.548-2.551a15.669,15.669,0,0,0,2.728-7.182h3.85a.933.933,0,0,1,.933.933v.933a2.8,2.8,0,0,0,2.8,2.8h1.972a25.69,25.69,0,0,1-3.824,8.339ZM22.519,7.6V4.973A25.811,25.811,0,0,1,29.048,3.9V7.971A2.781,2.781,0,0,0,31.239,10.7l5.472,1.212a.927.927,0,0,1,.73.907V15.98a15.892,15.892,0,0,0-21.46,6.541H12.259a.912.912,0,0,1-.665-.285.9.9,0,0,1-.268-.647.933.933,0,0,1,.933-.933h1.865a2.8,2.8,0,0,0,2.8-2.8V13.194a.912.912,0,0,1,.285-.664.893.893,0,0,1,.647-.269A4.669,4.669,0,0,0,22.519,7.6ZM15.99,29.983a13.99,13.99,0,1,1,4.1,9.892A13.99,13.99,0,0,1,15.99,29.983Zm25.2,11.212c.221-.222.421-.46.628-.693l2.4,2.4L42.9,44.219l-2.4-2.4C40.731,41.615,40.969,41.416,41.192,41.194ZM56.1,29.983a26.255,26.255,0,0,1-.422,4.663H53.3a.933.933,0,0,1-.933-.933v-.933a2.8,2.8,0,0,0-2.8-2.8H45.836a15.756,15.756,0,0,0-4.644-11.212,16.135,16.135,0,0,0-1.93-1.625.878.878,0,0,0,.045-.221v-4.1a2.781,2.781,0,0,0-2.192-2.731L31.643,8.878a.927.927,0,0,1-.73-.907V3.891A26.143,26.143,0,0,1,56.1,29.983ZM20.653,5.608V7.6a2.8,2.8,0,0,1-2.8,2.8,2.814,2.814,0,0,0-2.8,2.8v4.663a.933.933,0,0,1-.933.933H12.259a2.8,2.8,0,1,0,0,5.6h2.891a15.746,15.746,0,0,0,.046,11.32l-.509.675a2.747,2.747,0,0,0-.562,1.687v7.38L12.586,43.91a1.874,1.874,0,0,1-.509-.95l-.466-2.332a2.81,2.81,0,0,0-2.746-2.251h-3.6A26.054,26.054,0,0,1,20.653,5.608ZM29.98,56.1a26.194,26.194,0,0,1-11.773-2.809l.839-1.4a.933.933,0,0,1,.8-.455h1.9a2.784,2.784,0,0,0,1.984-.824l1.7-1.7a.933.933,0,0,1,.665-.28h4.822a2.779,2.779,0,0,1,2.238,1.119l1.119,1.492a2.826,2.826,0,0,0,2.238,1.122h1.7a.926.926,0,0,1,.817.481l.746,1.34A25.759,25.759,0,0,1,29.98,56.1Zm11.5-2.675-.821-1.476a2.79,2.79,0,0,0-2.45-1.445h-1.7a.947.947,0,0,1-.746-.373l-1.119-1.492a4.69,4.69,0,0,0-3.731-1.865H26.091a2.784,2.784,0,0,0-1.984.824l-1.7,1.7a.933.933,0,0,1-.665.28h-1.9a2.81,2.81,0,0,0-2.4,1.358l-.868,1.45a26.148,26.148,0,0,1-10.6-12.138H8.864a.939.939,0,0,1,.914.752l.466,2.337a3.746,3.746,0,0,0,1.018,1.9l1.54,1.542a1.865,1.865,0,0,0,3.187-1.315V38.069a.9.9,0,0,1,.114-.422,15.84,15.84,0,0,0,22.923,5.344l2.547,2.546-.658.659a.933.933,0,0,0,0,1.319l3.933,3.933a25.23,25.23,0,0,1-3.372,1.974Zm13.837,1.894a2.8,2.8,0,0,1-3.957,0l-8.46-8.46.653-.653.009-.007L46.2,43.558l.006-.008.653-.653,8.46,8.46a2.8,2.8,0,0,1,0,3.957Z" transform="translate(0 0)" fill="#231f20"/>
    </g>
  </g>
</svg>
