<svg xmlns="http://www.w3.org/2000/svg" xmlns:xlink="http://www.w3.org/1999/xlink" width="113" height="113" viewBox="0 0 113 113">
  <defs>
    <filter id="Trazado_982547" x="0" y="0" width="113" height="113" filterUnits="userSpaceOnUse">
      <feOffset dy="3" input="SourceAlpha"/>
      <feGaussianBlur stdDeviation="3" result="blur"/>
      <feFlood flood-opacity="0.161"/>
      <feComposite operator="in" in2="blur"/>
      <feComposite in="SourceGraphic"/>
    </filter>
  </defs>
  <g id="Grupo_1207342" data-name="Grupo 1207342" transform="translate(-792 -1366.494)">
    <g id="Grupo_1202547" data-name="Grupo 1202547" transform="translate(0 -2721)">
      <g id="Grupo_1202372" data-name="Grupo 1202372" transform="translate(-1.49 2625.871)">
        <g id="Grupo_1177632" data-name="Grupo 1177632" transform="translate(-4493 -458.649)">
          <g id="Grupo_1176928" data-name="Grupo 1176928" transform="translate(5295.49 1926.273)">
            <g id="Grupo_1172322" data-name="Grupo 1172322" transform="translate(0 0)">
              <g id="Grupo_1164700" data-name="Grupo 1164700">
                <g id="Grupo_1160931" data-name="Grupo 1160931">
                  <g id="Grupo_1160749" data-name="Grupo 1160749">
                    <g id="Grupo_1158891" data-name="Grupo 1158891">
                      <g id="Grupo_1157406" data-name="Grupo 1157406">
                        <g id="Grupo_1155793" data-name="Grupo 1155793">
                          <g id="Grupo_1154704" data-name="Grupo 1154704">
                            <g id="Grupo_1150790" data-name="Grupo 1150790">
                              <g id="Grupo_1154214" data-name="Grupo 1154214">
                                <g id="Grupo_1152583" data-name="Grupo 1152583">
                                  <g id="Grupo_1146973" data-name="Grupo 1146973">
                                    <g id="Grupo_1146954" data-name="Grupo 1146954">
                                      <g transform="matrix(1, 0, 0, 1, -9, -6)" filter="url(#Trazado_982547)">
                                        <g id="Trazado_982547-2" data-name="Trazado 982547" transform="translate(9 6)" fill="#f2f7e5">
                                          <path d="M 47.5000114440918 93.49987030029297 C 41.28938293457031 93.49987030029297 35.26534652709961 92.28384399414062 29.5951976776123 89.88558959960938 C 24.11773109436035 87.56881713867188 19.19814491271973 84.25183868408203 14.97310447692871 80.02680206298828 C 10.74805164337158 75.80176544189453 7.43107795715332 70.88218688964844 5.114304542541504 65.40472412109375 C 2.716038227081299 59.73458862304688 1.500011444091797 53.71054840087891 1.500011444091797 47.49993515014648 C 1.500011444091797 41.28932189941406 2.716038227081299 35.26528167724609 5.114304542541504 29.59514808654785 C 7.43107795715332 24.1176815032959 10.74805164337158 19.1981086730957 14.97310447692871 14.97306823730469 C 19.19814491271973 10.74802875518799 24.11773109436035 7.431055068969727 29.5951976776123 5.11428165435791 C 35.26534652709961 2.716028451919556 41.28938293457031 1.500001788139343 47.5000114440918 1.500001788139343 C 53.71063995361328 1.500001788139343 59.73467636108398 2.716028451919556 65.40482330322266 5.11428165435791 C 70.88229370117188 7.431055068969727 75.8018798828125 10.74802875518799 80.02691650390625 14.97306823730469 C 84.25196838378906 19.1981086730957 87.56894683837891 24.1176815032959 89.88571929931641 29.59514808654785 C 92.28398132324219 35.26528167724609 93.50001525878906 41.28932189941406 93.50001525878906 47.49993515014648 C 93.50001525878906 53.71054840087891 92.28398132324219 59.73458862304688 89.88571929931641 65.40472412109375 C 87.56894683837891 70.88218688964844 84.25196838378906 75.80176544189453 80.02691650390625 80.02680206298828 C 75.8018798828125 84.25183868408203 70.88229370117188 87.56881713867188 65.40482330322266 89.88558959960938 C 59.73467636108398 92.28384399414062 53.71063995361328 93.49987030029297 47.5000114440918 93.49987030029297 Z" stroke="none"/>
                                          <path d="M 47.5000114440918 3 C 41.49122619628906 3 35.66378021240234 4.1761474609375 30.17951965332031 6.495796203613281 C 24.880859375 8.7369384765625 20.12153625488281 11.94596862792969 16.03376770019531 16.03373718261719 C 11.94598388671875 20.12149047851562 8.736968994140625 24.88081359863281 6.495811462402344 30.17947387695312 C 4.176162719726562 35.66371917724609 3.000007629394531 41.49116516113281 3.000007629394531 47.49993515014648 C 3.000007629394531 53.50870513916016 4.176162719726562 59.33615112304688 6.495811462402344 64.82039642333984 C 8.736968994140625 70.11905670166016 11.94598388671875 74.87837982177734 16.03376770019531 78.96613311767578 C 20.12153625488281 83.05390167236328 24.880859375 86.26293182373047 30.17951965332031 88.50407409667969 C 35.66378021240234 90.82372283935547 41.49122619628906 91.99987030029297 47.5000114440918 91.99987030029297 C 53.50879669189453 91.99987030029297 59.33624267578125 90.82372283935547 64.82050323486328 88.50407409667969 C 70.11916351318359 86.26293182373047 74.87848663330078 83.05390167236328 78.96625518798828 78.96613311767578 C 83.05403900146484 74.87837982177734 86.2630615234375 70.11905670166016 88.50421142578125 64.82039642333984 C 90.82386016845703 59.33615112304688 92.00001525878906 53.50870513916016 92.00001525878906 47.49993515014648 C 92.00001525878906 41.49116516113281 90.82386016845703 35.66371917724609 88.50421142578125 30.17947387695312 C 86.2630615234375 24.88081359863281 83.05403900146484 20.12149047851562 78.96625518798828 16.03373718261719 C 74.87848663330078 11.94596862792969 70.11916351318359 8.7369384765625 64.82050323486328 6.495796203613281 C 59.33624267578125 4.1761474609375 53.50879669189453 3 47.5000114440918 3 M 47.5000114440918 0 C 73.73353576660156 0 95.00001525878906 21.26644134521484 95.00001525878906 47.49993515014648 C 95.00001525878906 73.73342895507812 73.73353576660156 94.99987030029297 47.5000114440918 94.99987030029297 C 21.26648712158203 94.99987030029297 7.62939453125e-06 73.73342895507812 7.62939453125e-06 47.49993515014648 C 7.62939453125e-06 21.26644134521484 21.26648712158203 0 47.5000114440918 0 Z" stroke="none" fill="#86b60c"/>
                                        </g>
                                      </g>
                                    </g>
                                  </g>
                                </g>
                              </g>
                            </g>
                          </g>
                        </g>
                      </g>
                    </g>
                  </g>
                </g>
              </g>
            </g>
          </g>
        </g>
      </g>
    </g>
    <g id="interest-rate_18096338" transform="translate(818.731 1388.574)">
      <g id="Grupo_1207381" data-name="Grupo 1207381" transform="translate(1.495 2.796)">
        <g id="Grupo_1207350" data-name="Grupo 1207350" transform="translate(19.889 5.411)">
          <path id="Trazado_1051294" data-name="Trazado 1051294" d="M183.333,66.606V87.451h8.49V66.606h3.587l-7.832-9.83-7.835,9.83Z" transform="translate(-179.743 -56.776)" fill="#c9ef6c" fill-rule="evenodd"/>
        </g>
        <g id="Grupo_1207351" data-name="Grupo 1207351" transform="translate(26.804 5.411)">
          <path id="Trazado_1051295" data-name="Trazado 1051295" d="M242.418,87.451h1.838V66.606h-1.838ZM246,66.606h1.838l-7.832-9.83-.92,1.153Z" transform="translate(-239.09 -56.776)" fill="#9ec737" fill-rule="evenodd"/>
        </g>
        <g id="Grupo_1207352" data-name="Grupo 1207352" transform="translate(0 0)">
          <path id="Trazado_1051296" data-name="Trazado 1051296" d="M12.63,20.163V41.008h8.49V20.163h3.587l-7.832-9.83L9.04,20.163Z" transform="translate(-9.04 -10.333)" fill="#c9ef6c" fill-rule="evenodd"/>
        </g>
        <g id="Grupo_1207353" data-name="Grupo 1207353" transform="translate(6.915 0)">
          <path id="Trazado_1051297" data-name="Trazado 1051297" d="M71.715,41.008h1.838V20.163H71.715ZM75.3,20.163h1.838l-7.832-9.83-.92,1.153Z" transform="translate(-68.387 -10.333)" fill="#9ec737" fill-rule="evenodd"/>
        </g>
        <g id="Grupo_1207354" data-name="Grupo 1207354" transform="translate(0 48.078)">
          <path id="Trazado_1051298" data-name="Trazado 1051298" d="M9.04,422.978H28.018v7.563H9.04Z" transform="translate(-9.04 -422.978)" fill="#f99608" fill-rule="evenodd"/>
        </g>
        <g id="Grupo_1207355" data-name="Grupo 1207355" transform="translate(0 40.515)">
          <path id="Trazado_1051299" data-name="Trazado 1051299" d="M9.04,358.065H28.018v7.563H9.04Z" transform="translate(-9.04 -358.065)" fill="#ffd039" fill-rule="evenodd"/>
        </g>
        <g id="Grupo_1207356" data-name="Grupo 1207356" transform="translate(0 32.955)">
          <path id="Trazado_1051300" data-name="Trazado 1051300" d="M9.04,293.18H28.018v7.56H9.04Z" transform="translate(-9.04 -293.18)" fill="#f99608" fill-rule="evenodd"/>
        </g>
        <g id="Grupo_1207357" data-name="Grupo 1207357" transform="translate(0 25.392)">
          <path id="Trazado_1051301" data-name="Trazado 1051301" d="M9.04,228.266H28.018v7.563H9.04Z" transform="translate(-9.04 -228.266)" fill="#ffd039" fill-rule="evenodd"/>
        </g>
        <g id="Grupo_1207358" data-name="Grupo 1207358" transform="translate(18.978 48.078)">
          <path id="Trazado_1051302" data-name="Trazado 1051302" d="M171.927,422.978h18.978v7.563H171.927Z" transform="translate(-171.927 -422.978)" fill="#f99608" fill-rule="evenodd"/>
        </g>
        <g id="Grupo_1207359" data-name="Grupo 1207359" transform="translate(18.978 40.515)">
          <path id="Trazado_1051303" data-name="Trazado 1051303" d="M171.927,358.065h18.978v7.563H171.927Z" transform="translate(-171.927 -358.065)" fill="#ffd039" fill-rule="evenodd"/>
        </g>
        <g id="Grupo_1207360" data-name="Grupo 1207360" transform="translate(18.978 32.955)">
          <path id="Trazado_1051304" data-name="Trazado 1051304" d="M171.927,293.18h18.978v7.56H171.927Z" transform="translate(-171.927 -293.18)" fill="#f99608" fill-rule="evenodd"/>
        </g>
        <g id="Grupo_1207361" data-name="Grupo 1207361" transform="translate(38.72 11.654)">
          <path id="Trazado_1051305" data-name="Trazado 1051305" d="M350.5,110.36a9.135,9.135,0,1,1-9.135,9.136A9.137,9.137,0,0,1,350.5,110.36Z" transform="translate(-341.366 -110.36)" fill="#cc2f44" fill-rule="evenodd"/>
        </g>
        <g id="Grupo_1207362" data-name="Grupo 1207362" transform="translate(40.332 13.266)">
          <path id="Trazado_1051306" data-name="Trazado 1051306" d="M362.721,139.239a7.524,7.524,0,1,0-7.524-7.524A7.539,7.539,0,0,0,362.721,139.239Z" transform="translate(-355.197 -124.191)" fill="#ec5a6e" fill-rule="evenodd"/>
        </g>
        <g id="Grupo_1207363" data-name="Grupo 1207363" transform="translate(42.922 16.424)">
          <path id="Trazado_1051307" data-name="Trazado 1051307" d="M380.163,151.682a1.669,1.669,0,1,1-2.348.223A1.669,1.669,0,0,1,380.163,151.682Z" transform="translate(-377.43 -151.299)" fill="#e9eef2" fill-rule="evenodd"/>
        </g>
        <g id="Grupo_1207364" data-name="Grupo 1207364" transform="translate(49.45 21.817)">
          <path id="Trazado_1051308" data-name="Trazado 1051308" d="M436.187,197.966a1.669,1.669,0,1,1-2.352.226A1.672,1.672,0,0,1,436.187,197.966Z" transform="translate(-433.454 -197.585)" fill="#e9eef2" fill-rule="evenodd"/>
        </g>
        <g id="Grupo_1207365" data-name="Grupo 1207365" transform="translate(15.818 25.392)">
          <path id="Trazado_1051309" data-name="Trazado 1051309" d="M144.8,228.266h3.161v7.563H144.8Z" transform="translate(-144.798 -228.266)" fill="#f99608" fill-rule="evenodd"/>
        </g>
        <g id="Grupo_1207366" data-name="Grupo 1207366" transform="translate(15.818 32.955)">
          <path id="Trazado_1051310" data-name="Trazado 1051310" d="M144.8,293.18h3.161v7.56H144.8Z" transform="translate(-144.798 -293.18)" fill="#e07f00" fill-rule="evenodd"/>
        </g>
        <g id="Grupo_1207367" data-name="Grupo 1207367" transform="translate(15.818 40.515)">
          <path id="Trazado_1051311" data-name="Trazado 1051311" d="M144.8,358.065h3.161v7.563H144.8Z" transform="translate(-144.798 -358.065)" fill="#f99608" fill-rule="evenodd"/>
        </g>
        <g id="Grupo_1207368" data-name="Grupo 1207368" transform="translate(15.818 48.078)">
          <path id="Trazado_1051312" data-name="Trazado 1051312" d="M144.8,422.978h3.161v7.563H144.8Z" transform="translate(-144.798 -422.978)" fill="#e07f00" fill-rule="evenodd"/>
        </g>
        <g id="Grupo_1207369" data-name="Grupo 1207369" transform="translate(25.752 48.078)">
          <path id="Trazado_1051313" data-name="Trazado 1051313" d="M230.066,425.792v-2.814h12.2v7.563h-5.483l-6.721-3.881Z" transform="translate(-230.066 -422.978)" fill="#e07f00" fill-rule="evenodd"/>
        </g>
        <g id="Grupo_1207370" data-name="Grupo 1207370" transform="translate(25.752 40.515)">
          <path id="Trazado_1051314" data-name="Trazado 1051314" d="M230.066,365.628v-4.212l5.706-3.351h6.5v7.563Z" transform="translate(-230.066 -358.065)" fill="#f99608" fill-rule="evenodd"/>
        </g>
        <g id="Grupo_1207371" data-name="Grupo 1207371" transform="translate(31.458 36.702)">
          <path id="Trazado_1051315" data-name="Trazado 1051315" d="M279.039,329.154l6.5-3.813v3.813Z" transform="translate(-279.039 -325.341)" fill="#e07f00" fill-rule="evenodd"/>
        </g>
        <g id="Grupo_1207372" data-name="Grupo 1207372" transform="translate(27.252 33.43)">
          <path id="Trazado_1051316" data-name="Trazado 1051316" d="M242.941,314.718l11.006,6.354,19.29-11.281v-6.165l-11.048-6.371-19.247,11.3Z" transform="translate(-242.941 -297.256)" fill="#6c9" fill-rule="evenodd"/>
        </g>
        <g id="Grupo_1207373" data-name="Grupo 1207373" transform="translate(27.252 33.43)">
          <path id="Trazado_1051317" data-name="Trazado 1051317" d="M253.947,314.908l19.29-11.281-11.048-6.371-19.247,11.3Z" transform="translate(-242.941 -297.256)" fill="#6c9" fill-rule="evenodd"/>
        </g>
        <g id="Grupo_1207374" data-name="Grupo 1207374" transform="translate(34.878 37.564)">
          <path id="Trazado_1051318" data-name="Trazado 1051318" d="M308.389,335.421l10.577,6.623,4.582-2.679-10.583-6.63Z" transform="translate(-308.389 -332.735)" fill="#e6e2e6" fill-rule="evenodd"/>
        </g>
        <g id="Grupo_1207375" data-name="Grupo 1207375" transform="translate(45.455 44.194)">
          <path id="Trazado_1051319" data-name="Trazado 1051319" d="M403.748,392.718v-3.082l-4.582,2.679v6.164l4.582-2.679Z" transform="translate(-399.166 -389.636)" fill="#e6e2e6" fill-rule="evenodd"/>
        </g>
        <g id="Grupo_1207376" data-name="Grupo 1207376" transform="translate(27.252 44.728)">
          <path id="Trazado_1051320" data-name="Trazado 1051320" d="M261.143,396.364l-7.2,4.209-11.006-6.355V397.3l11.006,6.355,7.2-4.209Z" transform="translate(-242.941 -394.218)" fill="#396" fill-rule="evenodd"/>
        </g>
        <g id="Grupo_1207377" data-name="Grupo 1207377" transform="translate(50.037 39.801)">
          <path id="Trazado_1051321" data-name="Trazado 1051321" d="M438.5,356.329v3.082l7.511-4.392v-3.082Z" transform="translate(-438.496 -351.936)" fill="#396" fill-rule="evenodd"/>
        </g>
        <g id="Grupo_1207378" data-name="Grupo 1207378" transform="translate(45.396 33.43)">
          <path id="Trazado_1051322" data-name="Trazado 1051322" d="M409.705,304.276l1.107-.649-11.048-6.371-1.1.648Z" transform="translate(-398.66 -297.256)" fill="#396" fill-rule="evenodd"/>
        </g>
        <g id="Grupo_1207379" data-name="Grupo 1207379" transform="translate(50.037 39.801)">
          <path id="Trazado_1051323" data-name="Trazado 1051323" d="M444.9,355.667l1.107-.648v-3.082l-7.511,4.393,6.4-3.744Z" transform="translate(-438.496 -351.936)" fill="#1c7a4b" fill-rule="evenodd"/>
        </g>
        <g id="Grupo_1207380" data-name="Grupo 1207380" transform="translate(50.037 42.883)">
          <path id="Trazado_1051324" data-name="Trazado 1051324" d="M444.9,382.122l1.107-.649v-3.082l-7.511,4.392,6.4-3.744Z" transform="translate(-438.496 -378.391)" fill="#396" fill-rule="evenodd"/>
        </g>
      </g>
      <path id="Trazado_1051325" data-name="Trazado 1051325" d="M20.595,18.306a.814.814,0,0,1,.1-.861l7.884-9.892a.814.814,0,0,1,.637-.307h0a.814.814,0,0,1,.637.307l7.881,9.892a.814.814,0,0,1-.637,1.321H34.3v14.1a.814.814,0,0,1-1.628,0V17.953a.814.814,0,0,1,.814-.814H35.4L29.212,9.368l-6.194,7.771h1.923a.814.814,0,0,1,.814.814V32.871a.814.814,0,0,1-1.628,0v-14.1h-2.8A.814.814,0,0,1,20.595,18.306ZM1.314,13.322h2.8V25.26a.814.814,0,0,0,1.628,0V12.508a.814.814,0,0,0-.814-.814H3L9.2,3.923l6.192,7.771H13.47a.814.814,0,0,0-.814.814V25.26a.814.814,0,0,0,1.628,0V13.322h2.8A.814.814,0,0,0,17.716,12L9.835,2.109A.814.814,0,0,0,9.2,1.8h0a.815.815,0,0,0-.637.307L.677,12a.814.814,0,0,0,.637,1.322ZM60.038,42.667v6.2a.814.814,0,0,1-.4.7l-7.557,4.419h0l-1,.583L40.224,60.925a.814.814,0,0,1-.818,0l-2.614-1.509H1.314A.814.814,0,0,1,.5,58.6V28.168a.814.814,0,0,1,.814-.814h19.1a.814.814,0,0,1,.814.814v6.8H39.51a.814.814,0,0,1,.814.814v4.1l.28-.164.021-.01,7.069-4.149a.814.814,0,0,1,.819,0l11.118,6.411a.813.813,0,0,1,.408.705ZM19.6,36.592H2.128v5.979H19.6ZM2.128,50.183H19.6V44.2H2.128Zm19.1,0h6.7V47.625a.814.814,0,0,1,.4-.7L32.964,44.2H21.226ZM36.181,44.2l-5.823,3.418,9.453,5.459,5.673-3.317L36.6,44.2ZM47.869,54.568l2.983-1.744V48.507l-2.983,1.744Zm2.225-7.5L41,41.369l-3.021,1.773,9.086,5.69ZM39.81,56.179l6.43-3.761V51.2l-6.016,3.518a.814.814,0,0,1-.818,0l-9.853-5.691v1.223ZM52.48,48.77,58.41,45.3V44.087l-5.93,3.468Zm-9.893-8.33,9.093,5.7L57.6,42.672,48.11,37.2ZM38.7,36.592H21.226v5.979H35.738l.241-.141.02-.014,2.7-1.583ZM2.128,34.964H19.6V28.982H2.128Zm0,22.826H19.6V51.811H2.128Zm31.843,0-5.641-3.257a.814.814,0,0,1-.407-.705V51.811h-6.7V57.79ZM46.24,55.521V54.3l-6.016,3.519a.814.814,0,0,1-.818,0l-9.854-5.689v1.222l7.823,4.517a.821.821,0,0,1,.1.056l2.337,1.349ZM58.41,48.4V47.188l-5.93,3.468v1.215ZM39.464,23.537A10.007,10.007,0,1,1,49.471,33.544,10.018,10.018,0,0,1,39.464,23.537Zm1.628,0a8.379,8.379,0,1,0,8.379-8.379A8.388,8.388,0,0,0,41.092,23.537Zm2.5-2.467a2.61,2.61,0,0,1,4.259-2.258h0a2.61,2.61,0,0,1-1.415,4.611c-.084.008-.167.012-.25.012a2.611,2.611,0,0,1-2.595-2.364Zm1.851-.175a.751.751,0,1,0,.17-.55.744.744,0,0,0-.17.55Zm8.977,3.343,0,0A2.609,2.609,0,1,1,50.157,26.5a2.59,2.59,0,0,1,.584-1.909,2.618,2.618,0,0,1,3.675-.353ZM53.232,25.67a.745.745,0,0,0-.475-.169.758.758,0,0,0-.584.274.749.749,0,0,0,.1,1.053.75.75,0,1,0,.955-1.158Zm-6.987,3.453a.814.814,0,0,0,1.112-.3l5.636-9.763a.814.814,0,1,0-1.41-.814l-5.636,9.763a.814.814,0,0,0,.3,1.112Z" transform="translate(0 0)"/>
    </g>
  </g>
</svg>
