<svg xmlns="http://www.w3.org/2000/svg" xmlns:xlink="http://www.w3.org/1999/xlink" width="113" height="113" viewBox="0 0 113 113">
  <defs>
    <filter id="Trazado_982547" x="0" y="0" width="113" height="113" filterUnits="userSpaceOnUse">
      <feOffset dy="3" input="SourceAlpha"/>
      <feGaussianBlur stdDeviation="3" result="blur"/>
      <feFlood flood-opacity="0.161"/>
      <feComposite operator="in" in2="blur"/>
      <feComposite in="SourceGraphic"/>
    </filter>
  </defs>
  <g id="Grupo_1207348" data-name="Grupo 1207348" transform="translate(-1111 -1366.494)">
    <g id="Grupo_1202549" data-name="Grupo 1202549" transform="translate(0 -2721)">
      <g id="Grupo_1202373" data-name="Grupo 1202373" transform="translate(317.51 2625.871)">
        <g id="Grupo_1177632" data-name="Grupo 1177632" transform="translate(-4493 -458.649)">
          <g id="Grupo_1176928" data-name="Grupo 1176928" transform="translate(5295.49 1926.273)">
            <g id="Grupo_1172322" data-name="Grupo 1172322" transform="translate(0 0)">
              <g id="Grupo_1164700" data-name="Grupo 1164700">
                <g id="Grupo_1160931" data-name="Grupo 1160931">
                  <g id="Grupo_1160749" data-name="Grupo 1160749">
                    <g id="Grupo_1158891" data-name="Grupo 1158891">
                      <g id="Grupo_1157406" data-name="Grupo 1157406">
                        <g id="Grupo_1155793" data-name="Grupo 1155793">
                          <g id="Grupo_1154704" data-name="Grupo 1154704">
                            <g id="Grupo_1150790" data-name="Grupo 1150790">
                              <g id="Grupo_1154214" data-name="Grupo 1154214">
                                <g id="Grupo_1152583" data-name="Grupo 1152583">
                                  <g id="Grupo_1146973" data-name="Grupo 1146973">
                                    <g id="Grupo_1146954" data-name="Grupo 1146954">
                                      <g transform="matrix(1, 0, 0, 1, -9, -6)" filter="url(#Trazado_982547)">
                                        <g id="Trazado_982547-2" data-name="Trazado 982547" transform="translate(9 6)" fill="#f2f7e5">
                                          <path d="M 47.5000114440918 93.49987030029297 C 41.28938293457031 93.49987030029297 35.26534652709961 92.28384399414062 29.5951976776123 89.88558959960938 C 24.11773109436035 87.56881713867188 19.19814491271973 84.25183868408203 14.97310447692871 80.02680206298828 C 10.74805164337158 75.80176544189453 7.43107795715332 70.88218688964844 5.114304542541504 65.40472412109375 C 2.716038227081299 59.73458862304688 1.500011444091797 53.71054840087891 1.500011444091797 47.49993515014648 C 1.500011444091797 41.28932189941406 2.716038227081299 35.26528167724609 5.114304542541504 29.59514808654785 C 7.43107795715332 24.1176815032959 10.74805164337158 19.1981086730957 14.97310447692871 14.97306823730469 C 19.19814491271973 10.74802875518799 24.11773109436035 7.431055068969727 29.5951976776123 5.11428165435791 C 35.26534652709961 2.716028451919556 41.28938293457031 1.500001788139343 47.5000114440918 1.500001788139343 C 53.71063995361328 1.500001788139343 59.73467636108398 2.716028451919556 65.40482330322266 5.11428165435791 C 70.88229370117188 7.431055068969727 75.8018798828125 10.74802875518799 80.02691650390625 14.97306823730469 C 84.25196838378906 19.1981086730957 87.56894683837891 24.1176815032959 89.88571929931641 29.59514808654785 C 92.28398132324219 35.26528167724609 93.50001525878906 41.28932189941406 93.50001525878906 47.49993515014648 C 93.50001525878906 53.71054840087891 92.28398132324219 59.73458862304688 89.88571929931641 65.40472412109375 C 87.56894683837891 70.88218688964844 84.25196838378906 75.80176544189453 80.02691650390625 80.02680206298828 C 75.8018798828125 84.25183868408203 70.88229370117188 87.56881713867188 65.40482330322266 89.88558959960938 C 59.73467636108398 92.28384399414062 53.71063995361328 93.49987030029297 47.5000114440918 93.49987030029297 Z" stroke="none"/>
                                          <path d="M 47.5000114440918 3 C 41.49122619628906 3 35.66378021240234 4.1761474609375 30.17951965332031 6.495796203613281 C 24.880859375 8.7369384765625 20.12153625488281 11.94596862792969 16.03376770019531 16.03373718261719 C 11.94598388671875 20.12149047851562 8.736968994140625 24.88081359863281 6.495811462402344 30.17947387695312 C 4.176162719726562 35.66371917724609 3.000007629394531 41.49116516113281 3.000007629394531 47.49993515014648 C 3.000007629394531 53.50870513916016 4.176162719726562 59.33615112304688 6.495811462402344 64.82039642333984 C 8.736968994140625 70.11905670166016 11.94598388671875 74.87837982177734 16.03376770019531 78.96613311767578 C 20.12153625488281 83.05390167236328 24.880859375 86.26293182373047 30.17951965332031 88.50407409667969 C 35.66378021240234 90.82372283935547 41.49122619628906 91.99987030029297 47.5000114440918 91.99987030029297 C 53.50879669189453 91.99987030029297 59.33624267578125 90.82372283935547 64.82050323486328 88.50407409667969 C 70.11916351318359 86.26293182373047 74.87848663330078 83.05390167236328 78.96625518798828 78.96613311767578 C 83.05403900146484 74.87837982177734 86.2630615234375 70.11905670166016 88.50421142578125 64.82039642333984 C 90.82386016845703 59.33615112304688 92.00001525878906 53.50870513916016 92.00001525878906 47.49993515014648 C 92.00001525878906 41.49116516113281 90.82386016845703 35.66371917724609 88.50421142578125 30.17947387695312 C 86.2630615234375 24.88081359863281 83.05403900146484 20.12149047851562 78.96625518798828 16.03373718261719 C 74.87848663330078 11.94596862792969 70.11916351318359 8.7369384765625 64.82050323486328 6.495796203613281 C 59.33624267578125 4.1761474609375 53.50879669189453 3 47.5000114440918 3 M 47.5000114440918 0 C 73.73353576660156 0 95.00001525878906 21.26644134521484 95.00001525878906 47.49993515014648 C 95.00001525878906 73.73342895507812 73.73353576660156 94.99987030029297 47.5000114440918 94.99987030029297 C 21.26648712158203 94.99987030029297 7.62939453125e-06 73.73342895507812 7.62939453125e-06 47.49993515014648 C 7.62939453125e-06 21.26644134521484 21.26648712158203 0 47.5000114440918 0 Z" stroke="none" fill="#86b60c"/>
                                        </g>
                                      </g>
                                    </g>
                                  </g>
                                </g>
                              </g>
                            </g>
                          </g>
                        </g>
                      </g>
                    </g>
                  </g>
                </g>
              </g>
            </g>
          </g>
        </g>
      </g>
    </g>
    <g id="interest-rate_11073409_1_" data-name="interest-rate_11073409 (1)" transform="translate(802.729 1150.729)">
      <g id="Icon" transform="translate(337 241)">
        <path id="Trazado_1051283" data-name="Trazado 1051283" d="M386.584,282.458A2.459,2.459,0,0,0,384.125,280H364.458A2.459,2.459,0,0,0,362,282.458v2.458a2.459,2.459,0,0,0,2.458,2.458h19.667a2.459,2.459,0,0,0,2.458-2.458Z" transform="translate(-331.27 -232.061)" fill="#fec107" fill-rule="evenodd"/>
        <g id="Grupo_1207343" data-name="Grupo 1207343" transform="translate(1.229 47.939)">
          <path id="Trazado_1051284" data-name="Trazado 1051284" d="M391.5,282.458A2.459,2.459,0,0,0,389.042,280H364.458A2.459,2.459,0,0,0,362,282.458v2.458a2.459,2.459,0,0,0,2.458,2.458h24.584a2.459,2.459,0,0,0,2.458-2.458Z" transform="translate(-362 -280)" fill="#fec107" fill-rule="evenodd"/>
        </g>
        <g id="Grupo_1207344" data-name="Grupo 1207344" transform="translate(30.73 40.562)">
          <path id="Trazado_1051285" data-name="Trazado 1051285" d="M386.584,282.458A2.459,2.459,0,0,0,384.125,280H364.458A2.459,2.459,0,0,0,362,282.458v2.458a2.459,2.459,0,0,0,2.458,2.458h19.667a2.459,2.459,0,0,0,2.458-2.458Z" transform="translate(-362 -280)" fill="#ffc928" fill-rule="evenodd"/>
        </g>
        <g id="Grupo_1207345" data-name="Grupo 1207345" transform="translate(1.229 40.562)">
          <path id="Trazado_1051286" data-name="Trazado 1051286" d="M391.5,282.458A2.459,2.459,0,0,0,389.042,280H364.458A2.459,2.459,0,0,0,362,282.458v2.458a2.459,2.459,0,0,0,2.458,2.458h24.584a2.459,2.459,0,0,0,2.458-2.458Z" transform="translate(-362 -280)" fill="#ffc928" fill-rule="evenodd"/>
        </g>
        <g id="Grupo_1207346" data-name="Grupo 1207346" transform="translate(30.73 33.187)">
          <path id="Trazado_1051287" data-name="Trazado 1051287" d="M386.584,282.458A2.459,2.459,0,0,0,384.125,280H364.458A2.459,2.459,0,0,0,362,282.458v2.458a2.459,2.459,0,0,0,2.458,2.458h19.667a2.459,2.459,0,0,0,2.458-2.458Z" transform="translate(-362 -280)" fill="#ffd54f" fill-rule="evenodd"/>
        </g>
        <ellipse id="Elipse_13399" data-name="Elipse 13399" cx="15" cy="14.5" rx="15" ry="14.5" transform="translate(1.271 11.271)" fill="#ffd54f"/>
        <path id="Trazado_1051288" data-name="Trazado 1051288" d="M375.8,242.983a2.458,2.458,0,0,0-3.933,0l-7.375,9.832a2.458,2.458,0,0,0,1.967,3.933h2.458v9.835a2.458,2.458,0,0,0,2.458,2.458h4.917a2.458,2.458,0,0,0,2.458-2.458v-9.835h2.458a2.458,2.458,0,0,0,1.967-3.933Z" transform="translate(-330.812 -240.771)" fill="#80c783" fill-rule="evenodd"/>
        <path id="Trazado_1051289" data-name="Trazado 1051289" d="M344.465,278.5h-3.777A3.689,3.689,0,0,0,337,282.187v2.458a3.689,3.689,0,0,0,.939,2.46,3.684,3.684,0,0,0-.939,2.458v2.458a3.689,3.689,0,0,0,3.688,3.688h24.584a3.684,3.684,0,0,0,2.458-.939,3.684,3.684,0,0,0,2.458.939h19.667a3.689,3.689,0,0,0,3.688-3.688v-2.458a3.684,3.684,0,0,0-.939-2.458,3.689,3.689,0,0,0,.939-2.46v-2.458a3.686,3.686,0,0,0-.939-2.458,3.684,3.684,0,0,0,.939-2.458v-2.458a3.689,3.689,0,0,0-3.688-3.688H370.188a3.689,3.689,0,0,0-3.688,3.688v2.458a3.7,3.7,0,0,0,.36,1.591,3.671,3.671,0,0,0-1.589-.361h-3.777a15.98,15.98,0,1,0-17.029,0Zm24.494,13.522v-2.458a1.23,1.23,0,0,1,1.229-1.229h19.667a1.229,1.229,0,0,1,1.229,1.229v2.458a1.23,1.23,0,0,1-1.229,1.229H370.188a1.23,1.23,0,0,1-1.229-1.229Zm-2.458-2.458v2.458a1.23,1.23,0,0,1-1.229,1.229H340.688a1.23,1.23,0,0,1-1.229-1.229v-2.458a1.23,1.23,0,0,1,1.229-1.229h24.584a1.23,1.23,0,0,1,1.229,1.229Zm2.458-4.918v-2.458a1.23,1.23,0,0,1,1.229-1.229h19.667a1.23,1.23,0,0,1,1.229,1.229v2.458a1.228,1.228,0,0,1-1.229,1.229H370.188a1.228,1.228,0,0,1-1.229-1.229Zm-2.458-2.458v2.458a1.228,1.228,0,0,1-1.229,1.229H340.688a1.228,1.228,0,0,1-1.229-1.229v-2.458a1.23,1.23,0,0,1,1.229-1.229h24.584a1.23,1.23,0,0,1,1.229,1.229Zm-13.521-30.73a13.521,13.521,0,1,1-13.521,13.521A13.528,13.528,0,0,1,352.98,251.457Zm38.105,23.355v2.458a1.23,1.23,0,0,1-1.229,1.229H370.188a1.23,1.23,0,0,1-1.229-1.229v-2.458a1.23,1.23,0,0,1,1.229-1.229h19.667a1.23,1.23,0,0,1,1.229,1.229Z" transform="translate(-337 -239.167)" fill-rule="evenodd"/>
        <g id="Grupo_1207347" data-name="Grupo 1207347" transform="translate(7.375 17.209)">
          <path id="Trazado_1051290" data-name="Trazado 1051290" d="M346.688,257a3.688,3.688,0,1,0,3.688,3.688A3.689,3.689,0,0,0,346.688,257Zm0,2.458a1.229,1.229,0,1,1-1.229,1.229A1.23,1.23,0,0,1,346.688,259.458Z" transform="translate(-343 -257)" fill-rule="evenodd"/>
        </g>
        <path id="Trazado_1051291" data-name="Trazado 1051291" d="M354.688,263a3.688,3.688,0,1,0,3.688,3.688A3.689,3.689,0,0,0,354.688,263Zm0,2.458a1.229,1.229,0,1,1-1.229,1.229A1.23,1.23,0,0,1,354.688,265.458Z" transform="translate(-333.791 -235.958)" fill-rule="evenodd"/>
        <path id="Trazado_1051292" data-name="Trazado 1051292" d="M345.1,271.848l14.75-14.75a1.229,1.229,0,1,0-1.738-1.738l-14.75,14.75a1.229,1.229,0,1,0,1.738,1.738Z" transform="translate(-335.625 -237.791)" fill-rule="evenodd"/>
        <path id="Trazado_1051293" data-name="Trazado 1051293" d="M377.013,242.475a3.688,3.688,0,0,0-5.9,0l-7.375,9.832a3.688,3.688,0,0,0,2.95,5.9h1.229v8.606A3.687,3.687,0,0,0,371.6,270.5h4.917a3.687,3.687,0,0,0,3.688-3.688v-8.606h1.229a3.688,3.688,0,0,0,2.95-5.9l-7.375-9.832Zm-1.967,1.475,7.375,9.832a1.229,1.229,0,0,1-.983,1.967h-2.458a1.23,1.23,0,0,0-1.229,1.229v9.835a1.23,1.23,0,0,1-1.229,1.229H371.6a1.23,1.23,0,0,1-1.229-1.229v-9.835a1.23,1.23,0,0,0-1.229-1.229h-2.458a1.229,1.229,0,0,1-.983-1.967l7.375-9.832a1.229,1.229,0,0,1,1.967,0Z" transform="translate(-331.041 -241)" fill-rule="evenodd"/>
      </g>
    </g>
  </g>
</svg>
