<svg xmlns="http://www.w3.org/2000/svg" xmlns:xlink="http://www.w3.org/1999/xlink" width="113" height="113" viewBox="0 0 113 113">
  <defs>
    <filter id="Trazado_982547" x="0" y="0" width="113" height="113" filterUnits="userSpaceOnUse">
      <feOffset dy="3" input="SourceAlpha"/>
      <feGaussianBlur stdDeviation="3" result="blur"/>
      <feFlood flood-opacity="0.161"/>
      <feComposite operator="in" in2="blur"/>
      <feComposite in="SourceGraphic"/>
    </filter>
  </defs>
  <g id="Grupo_1207383" data-name="Grupo 1207383" transform="translate(-4062 -1341.236)">
    <g id="Grupo_1207287" data-name="Grupo 1207287" transform="translate(3270 -2746.258)">
      <g id="Grupo_1202372" data-name="Grupo 1202372" transform="translate(-1.49 2625.871)">
        <g id="Grupo_1177632" data-name="Grupo 1177632" transform="translate(-4493 -458.649)">
          <g id="Grupo_1176928" data-name="Grupo 1176928" transform="translate(5295.49 1926.273)">
            <g id="Grupo_1172322" data-name="Grupo 1172322" transform="translate(0 0)">
              <g id="Grupo_1164700" data-name="Grupo 1164700">
                <g id="Grupo_1160931" data-name="Grupo 1160931">
                  <g id="Grupo_1160749" data-name="Grupo 1160749">
                    <g id="Grupo_1158891" data-name="Grupo 1158891">
                      <g id="Grupo_1157406" data-name="Grupo 1157406">
                        <g id="Grupo_1155793" data-name="Grupo 1155793">
                          <g id="Grupo_1154704" data-name="Grupo 1154704">
                            <g id="Grupo_1150790" data-name="Grupo 1150790">
                              <g id="Grupo_1154214" data-name="Grupo 1154214">
                                <g id="Grupo_1152583" data-name="Grupo 1152583">
                                  <g id="Grupo_1146973" data-name="Grupo 1146973">
                                    <g id="Grupo_1146954" data-name="Grupo 1146954">
                                      <g transform="matrix(1, 0, 0, 1, -9, -6)" filter="url(#Trazado_982547)">
                                        <g id="Trazado_982547-2" data-name="Trazado 982547" transform="translate(9 6)" fill="#f2f7e5">
                                          <path d="M 47.5000114440918 93.49987030029297 C 41.28938293457031 93.49987030029297 35.26534652709961 92.28384399414062 29.5951976776123 89.88558959960938 C 24.11773109436035 87.56881713867188 19.19814491271973 84.25183868408203 14.97310447692871 80.02680206298828 C 10.74805164337158 75.80176544189453 7.43107795715332 70.88218688964844 5.114304542541504 65.40472412109375 C 2.716038227081299 59.73458862304688 1.500011444091797 53.71054840087891 1.500011444091797 47.49993515014648 C 1.500011444091797 41.28932189941406 2.716038227081299 35.26528167724609 5.114304542541504 29.59514808654785 C 7.43107795715332 24.1176815032959 10.74805164337158 19.1981086730957 14.97310447692871 14.97306823730469 C 19.19814491271973 10.74802875518799 24.11773109436035 7.431055068969727 29.5951976776123 5.11428165435791 C 35.26534652709961 2.716028451919556 41.28938293457031 1.500001788139343 47.5000114440918 1.500001788139343 C 53.71063995361328 1.500001788139343 59.73467636108398 2.716028451919556 65.40482330322266 5.11428165435791 C 70.88229370117188 7.431055068969727 75.8018798828125 10.74802875518799 80.02691650390625 14.97306823730469 C 84.25196838378906 19.1981086730957 87.56894683837891 24.1176815032959 89.88571929931641 29.59514808654785 C 92.28398132324219 35.26528167724609 93.50001525878906 41.28932189941406 93.50001525878906 47.49993515014648 C 93.50001525878906 53.71054840087891 92.28398132324219 59.73458862304688 89.88571929931641 65.40472412109375 C 87.56894683837891 70.88218688964844 84.25196838378906 75.80176544189453 80.02691650390625 80.02680206298828 C 75.8018798828125 84.25183868408203 70.88229370117188 87.56881713867188 65.40482330322266 89.88558959960938 C 59.73467636108398 92.28384399414062 53.71063995361328 93.49987030029297 47.5000114440918 93.49987030029297 Z" stroke="none"/>
                                          <path d="M 47.5000114440918 3 C 41.49122619628906 3 35.66378021240234 4.1761474609375 30.17951965332031 6.495796203613281 C 24.880859375 8.7369384765625 20.12153625488281 11.94596862792969 16.03376770019531 16.03373718261719 C 11.94598388671875 20.12149047851562 8.736968994140625 24.88081359863281 6.495811462402344 30.17947387695312 C 4.176162719726562 35.66371917724609 3.000007629394531 41.49116516113281 3.000007629394531 47.49993515014648 C 3.000007629394531 53.50870513916016 4.176162719726562 59.33615112304688 6.495811462402344 64.82039642333984 C 8.736968994140625 70.11905670166016 11.94598388671875 74.87837982177734 16.03376770019531 78.96613311767578 C 20.12153625488281 83.05390167236328 24.880859375 86.26293182373047 30.17951965332031 88.50407409667969 C 35.66378021240234 90.82372283935547 41.49122619628906 91.99987030029297 47.5000114440918 91.99987030029297 C 53.50879669189453 91.99987030029297 59.33624267578125 90.82372283935547 64.82050323486328 88.50407409667969 C 70.11916351318359 86.26293182373047 74.87848663330078 83.05390167236328 78.96625518798828 78.96613311767578 C 83.05403900146484 74.87837982177734 86.2630615234375 70.11905670166016 88.50421142578125 64.82039642333984 C 90.82386016845703 59.33615112304688 92.00001525878906 53.50870513916016 92.00001525878906 47.49993515014648 C 92.00001525878906 41.49116516113281 90.82386016845703 35.66371917724609 88.50421142578125 30.17947387695312 C 86.2630615234375 24.88081359863281 83.05403900146484 20.12149047851562 78.96625518798828 16.03373718261719 C 74.87848663330078 11.94596862792969 70.11916351318359 8.7369384765625 64.82050323486328 6.495796203613281 C 59.33624267578125 4.1761474609375 53.50879669189453 3 47.5000114440918 3 M 47.5000114440918 0 C 73.73353576660156 0 95.00001525878906 21.26644134521484 95.00001525878906 47.49993515014648 C 95.00001525878906 73.73342895507812 73.73353576660156 94.99987030029297 47.5000114440918 94.99987030029297 C 21.26648712158203 94.99987030029297 7.62939453125e-06 73.73342895507812 7.62939453125e-06 47.49993515014648 C 7.62939453125e-06 21.26644134521484 21.26648712158203 0 47.5000114440918 0 Z" stroke="none" fill="#86b60c"/>
                                        </g>
                                      </g>
                                    </g>
                                  </g>
                                </g>
                              </g>
                            </g>
                          </g>
                        </g>
                      </g>
                    </g>
                  </g>
                </g>
              </g>
            </g>
          </g>
        </g>
      </g>
    </g>
    <g id="unemployment-rate_18153049" transform="translate(4053.382 1363.378)">
      <g id="Grupo_1207382" data-name="Grupo 1207382" transform="translate(40.599 20.47)">
        <path id="Trazado_1051326" data-name="Trazado 1051326" d="M379.678,414.28h6.234v11.4h-6.234Z" transform="translate(-340.234 -386.432)" fill="#98ca3c"/>
        <path id="Trazado_1051327" data-name="Trazado 1051327" d="M266.954,356.365h6.234v18.153h-6.234Z" transform="translate(-240.658 -335.272)" fill="#98ca3c"/>
        <path id="Trazado_1051328" data-name="Trazado 1051328" d="M154.229,301.4h6.234v24.564h-6.234Z" transform="translate(-141.081 -286.723)" fill="#98ca3c"/>
        <path id="Trazado_1051329" data-name="Trazado 1051329" d="M41.5,175.529h6.234v39.246H41.5Z" transform="translate(-41.504 -175.529)" fill="#98ca3c"/>
      </g>
      <path id="Trazado_1051330" data-name="Trazado 1051330" d="M149.778,122.191v11.96a3.052,3.052,0,0,1-3.052,3.052H126.24a3.052,3.052,0,0,1-3.052-3.052v-11.96Z" transform="translate(-73.061 -107.943)" fill="#c36245"/>
      <path id="Trazado_1051331" data-name="Trazado 1051331" d="M352.542,179.013H356.1a.367.367,0,0,1,.294.588l-7.161,9.531a.368.368,0,0,1-.588,0l-7.159-9.531a.367.367,0,0,1,.294-.588h3.559a.368.368,0,0,0,.368-.367V166.183a.368.368,0,0,1,.368-.367h5.729a.368.368,0,0,1,.368.367v12.462a.368.368,0,0,0,.368.367Z" transform="translate(-265.835 -146.479)" fill="#3371a5"/>
      <path id="Trazado_1051332" data-name="Trazado 1051332" d="M41.5,512H87.182" transform="translate(-0.905 -452.285)" fill="none" stroke="#4b4d58" stroke-linecap="round" stroke-linejoin="round" stroke-width="6"/>
      <path id="Trazado_1051333" data-name="Trazado 1051333" d="M142.526,75.269a7,7,0,0,1-6.975,6.434h-14.8a7,7,0,0,1-7-7V72.427a1.6,1.6,0,0,1,1.6-1.6H141.78Z" transform="translate(-64.731 -62.57)" fill="#964c36"/>
      <ellipse id="Elipse_13400" data-name="Elipse 13400" cx="2.842" cy="2.842" rx="2.842" ry="2.842" transform="translate(60.581 16.291)" fill="#faa719"/>
      <ellipse id="Elipse_13401" data-name="Elipse 13401" cx="7.119" cy="7.126" rx="7.119" ry="7.126" transform="translate(66.244 -0.004)" fill="#f493ad"/>
      <path id="Trazado_1051334" data-name="Trazado 1051334" d="M86.088,47.751H79.911a.35.35,0,0,0-.35.35V59.015h-6.15V41.425a.35.35,0,0,0-.35-.35H66.884a.35.35,0,0,0-.35.35V59.015h-6.15V35.09a.35.35,0,0,0-.35-.35H53.857a.35.35,0,0,0-.35.35V59.015h-6.15V20.58a.35.35,0,0,0-.35-.35H40.83a.35.35,0,0,0-.35.35V59.365a.35.35,0,0,0,.35.35H86.088a.35.35,0,0,0,.35-.35V48.1a.35.35,0,0,0-.35-.35ZM67.234,41.775h5.477V59.015H67.234ZM54.207,35.439h5.477V59.015H54.207Zm-7.55-14.51V59.015H41.18V20.929ZM85.738,59.015H80.261V48.451h5.477ZM49.92,26.251a3.374,3.374,0,0,0,3.374,3.367h20.3a3.374,3.374,0,0,0,3.374-3.366V16.168a7.156,7.156,0,0,0,1.052-3.092A7.394,7.394,0,1,0,67.052,3.418H58.61a2.094,2.094,0,0,0-2.094,2.089V8.161H50.765a1.935,1.935,0,0,0-1.935,1.931v2.251a7.237,7.237,0,0,0,1.09,3.823Zm26.345,0a2.673,2.673,0,0,1-2.674,2.667h-20.3a2.673,2.673,0,0,1-2.674-2.667V17.109c.024.028.048.057.073.085a7.3,7.3,0,0,0,5.42,2.414H60.3a3.166,3.166,0,0,0,6.291,0h4.184a7.3,7.3,0,0,0,5.42-2.414c.025-.028.049-.056.073-.084ZM65.908,19.261a2.465,2.465,0,1,1-4.931,0v0a2.465,2.465,0,0,1,4.931,0v0ZM80,7.389a6.7,6.7,0,0,1-10.29,5.65L77.739,2.386a6.672,6.672,0,0,1,2.257,5ZM73.293.7a6.673,6.673,0,0,1,3.9,1.254L69.136,12.634A6.686,6.686,0,0,1,73.293.7ZM57.215,5.507A1.393,1.393,0,0,1,58.61,4.118h8.045a7.337,7.337,0,0,0-.766,3.27,7.435,7.435,0,0,0,.04.772H57.215ZM49.53,10.091a1.234,1.234,0,0,1,1.235-1.23H66.036a7.4,7.4,0,0,0,11.189,4.787,6.486,6.486,0,0,1-1.554,3.079,6.6,6.6,0,0,1-4.9,2.183H66.588a3.166,3.166,0,0,0-6.291,0H56.113a6.576,6.576,0,0,1-6.583-6.567ZM90.681,32.548a.711.711,0,0,0-.64-.4H86.513a.014.014,0,0,1-.015-.013V19.823a.714.714,0,0,0-.714-.713H80.108a.714.714,0,0,0-.714.713V32.139a.014.014,0,0,1-.015.013H75.853a.713.713,0,0,0-.571,1.141l7.093,9.419a.715.715,0,0,0,1.142,0l7.095-9.419a.708.708,0,0,0,.069-.746Zm-.628.325-7.1,9.419a.023.023,0,0,1-.024,0l-7.093-9.419s0-.006,0-.013a.012.012,0,0,1,.013-.008h3.526a.714.714,0,0,0,.714-.713V19.823a.014.014,0,0,1,.014-.013h5.676a.014.014,0,0,1,.014.013V32.139a.715.715,0,0,0,.714.713h3.528a.012.012,0,0,1,.013.008C90.058,32.867,90.057,32.868,90.053,32.873Z" transform="translate(0 0)"/>
    </g>
  </g>
</svg>
