<svg xmlns="http://www.w3.org/2000/svg" xmlns:xlink="http://www.w3.org/1999/xlink" width="113" height="113" viewBox="0 0 113 113">
  <defs>
    <filter id="Trazado_982547" x="0" y="0" width="113" height="113" filterUnits="userSpaceOnUse">
      <feOffset dy="3" input="SourceAlpha"/>
      <feGaussianBlur stdDeviation="3" result="blur"/>
      <feFlood flood-opacity="0.161"/>
      <feComposite operator="in" in2="blur"/>
      <feComposite in="SourceGraphic"/>
    </filter>
  </defs>
  <g id="Grupo_1207384" data-name="Grupo 1207384" transform="translate(-792 -1366.494)">
    <g id="Grupo_1202547" data-name="Grupo 1202547" transform="translate(0 -2721)">
      <g id="Grupo_1202372" data-name="Grupo 1202372" transform="translate(-1.49 2625.871)">
        <g id="Grupo_1177632" data-name="Grupo 1177632" transform="translate(-4493 -458.649)">
          <g id="Grupo_1176928" data-name="Grupo 1176928" transform="translate(5295.49 1926.273)">
            <g id="Grupo_1172322" data-name="Grupo 1172322" transform="translate(0 0)">
              <g id="Grupo_1164700" data-name="Grupo 1164700">
                <g id="Grupo_1160931" data-name="Grupo 1160931">
                  <g id="Grupo_1160749" data-name="Grupo 1160749">
                    <g id="Grupo_1158891" data-name="Grupo 1158891">
                      <g id="Grupo_1157406" data-name="Grupo 1157406">
                        <g id="Grupo_1155793" data-name="Grupo 1155793">
                          <g id="Grupo_1154704" data-name="Grupo 1154704">
                            <g id="Grupo_1150790" data-name="Grupo 1150790">
                              <g id="Grupo_1154214" data-name="Grupo 1154214">
                                <g id="Grupo_1152583" data-name="Grupo 1152583">
                                  <g id="Grupo_1146973" data-name="Grupo 1146973">
                                    <g id="Grupo_1146954" data-name="Grupo 1146954">
                                      <g transform="matrix(1, 0, 0, 1, -9, -6)" filter="url(#Trazado_982547)">
                                        <g id="Trazado_982547-2" data-name="Trazado 982547" transform="translate(9 6)" fill="#f2f7e5">
                                          <path d="M 47.5000114440918 93.49987030029297 C 41.28938293457031 93.49987030029297 35.26534652709961 92.28384399414062 29.5951976776123 89.88558959960938 C 24.11773109436035 87.56881713867188 19.19814491271973 84.25183868408203 14.97310447692871 80.02680206298828 C 10.74805164337158 75.80176544189453 7.43107795715332 70.88218688964844 5.114304542541504 65.40472412109375 C 2.716038227081299 59.73458862304688 1.500011444091797 53.71054840087891 1.500011444091797 47.49993515014648 C 1.500011444091797 41.28932189941406 2.716038227081299 35.26528167724609 5.114304542541504 29.59514808654785 C 7.43107795715332 24.1176815032959 10.74805164337158 19.1981086730957 14.97310447692871 14.97306823730469 C 19.19814491271973 10.74802875518799 24.11773109436035 7.431055068969727 29.5951976776123 5.11428165435791 C 35.26534652709961 2.716028451919556 41.28938293457031 1.500001788139343 47.5000114440918 1.500001788139343 C 53.71063995361328 1.500001788139343 59.73467636108398 2.716028451919556 65.40482330322266 5.11428165435791 C 70.88229370117188 7.431055068969727 75.8018798828125 10.74802875518799 80.02691650390625 14.97306823730469 C 84.25196838378906 19.1981086730957 87.56894683837891 24.1176815032959 89.88571929931641 29.59514808654785 C 92.28398132324219 35.26528167724609 93.50001525878906 41.28932189941406 93.50001525878906 47.49993515014648 C 93.50001525878906 53.71054840087891 92.28398132324219 59.73458862304688 89.88571929931641 65.40472412109375 C 87.56894683837891 70.88218688964844 84.25196838378906 75.80176544189453 80.02691650390625 80.02680206298828 C 75.8018798828125 84.25183868408203 70.88229370117188 87.56881713867188 65.40482330322266 89.88558959960938 C 59.73467636108398 92.28384399414062 53.71063995361328 93.49987030029297 47.5000114440918 93.49987030029297 Z" stroke="none"/>
                                          <path d="M 47.5000114440918 3 C 41.49122619628906 3 35.66378021240234 4.1761474609375 30.17951965332031 6.495796203613281 C 24.880859375 8.7369384765625 20.12153625488281 11.94596862792969 16.03376770019531 16.03373718261719 C 11.94598388671875 20.12149047851562 8.736968994140625 24.88081359863281 6.495811462402344 30.17947387695312 C 4.176162719726562 35.66371917724609 3.000007629394531 41.49116516113281 3.000007629394531 47.49993515014648 C 3.000007629394531 53.50870513916016 4.176162719726562 59.33615112304688 6.495811462402344 64.82039642333984 C 8.736968994140625 70.11905670166016 11.94598388671875 74.87837982177734 16.03376770019531 78.96613311767578 C 20.12153625488281 83.05390167236328 24.880859375 86.26293182373047 30.17951965332031 88.50407409667969 C 35.66378021240234 90.82372283935547 41.49122619628906 91.99987030029297 47.5000114440918 91.99987030029297 C 53.50879669189453 91.99987030029297 59.33624267578125 90.82372283935547 64.82050323486328 88.50407409667969 C 70.11916351318359 86.26293182373047 74.87848663330078 83.05390167236328 78.96625518798828 78.96613311767578 C 83.05403900146484 74.87837982177734 86.2630615234375 70.11905670166016 88.50421142578125 64.82039642333984 C 90.82386016845703 59.33615112304688 92.00001525878906 53.50870513916016 92.00001525878906 47.49993515014648 C 92.00001525878906 41.49116516113281 90.82386016845703 35.66371917724609 88.50421142578125 30.17947387695312 C 86.2630615234375 24.88081359863281 83.05403900146484 20.12149047851562 78.96625518798828 16.03373718261719 C 74.87848663330078 11.94596862792969 70.11916351318359 8.7369384765625 64.82050323486328 6.495796203613281 C 59.33624267578125 4.1761474609375 53.50879669189453 3 47.5000114440918 3 M 47.5000114440918 0 C 73.73353576660156 0 95.00001525878906 21.26644134521484 95.00001525878906 47.49993515014648 C 95.00001525878906 73.73342895507812 73.73353576660156 94.99987030029297 47.5000114440918 94.99987030029297 C 21.26648712158203 94.99987030029297 7.62939453125e-06 73.73342895507812 7.62939453125e-06 47.49993515014648 C 7.62939453125e-06 21.26644134521484 21.26648712158203 0 47.5000114440918 0 Z" stroke="none" fill="#86b60c"/>
                                        </g>
                                      </g>
                                    </g>
                                  </g>
                                </g>
                              </g>
                            </g>
                          </g>
                        </g>
                      </g>
                    </g>
                  </g>
                </g>
              </g>
            </g>
          </g>
        </g>
      </g>
    </g>
    <g id="business_13145389" transform="translate(804.003 1374.996)">
      <path id="Trazado_1051266" data-name="Trazado 1051266" d="M24,360h7.733v15.465H24Z" transform="translate(-7.034 -302.437)" fill="#f2d061"/>
      <path id="Trazado_1051267" data-name="Trazado 1051267" d="M88,320h7.733v20.3H88Z" transform="translate(-63.301 -267.27)" fill="#e65c79"/>
      <path id="Trazado_1051268" data-name="Trazado 1051268" d="M152,280h7.733v25.131H152Z" transform="translate(-119.569 -232.103)" fill="#5cb3e6"/>
      <path id="Trazado_1051269" data-name="Trazado 1051269" d="M216,240h7.733v29.964H216Z" transform="translate(-175.836 -196.935)" fill="#f2d061"/>
      <path id="Trazado_1051270" data-name="Trazado 1051270" d="M280,192h7.733v35.764H280Z" transform="translate(-232.103 -154.735)" fill="#e65c79"/>
      <path id="Trazado_1051271" data-name="Trazado 1051271" d="M344,152h7.733v40.6H344Z" transform="translate(-288.37 -119.568)" fill="#5cb3e6"/>
      <path id="Trazado_1051272" data-name="Trazado 1051272" d="M70.351,36.106,73.1,24.038,60.726,24l2.406,3.026L60.6,29.041a44.17,44.17,0,0,1-29.926,9.747L24,38.38l2.589,1.07c13.169,5.444,29.081,2.964,41.348-6.38Z" transform="translate(-7.034 -7.033)" fill="#5cb3e6"/>
      <path id="Trazado_1051273" data-name="Trazado 1051273" d="M263.672,217.5l.593-.712a1,1,0,0,1,1.7.269l.344.86a1,1,0,0,0,1.465.476l.784-.494a1,1,0,0,1,1.534.782l.062.925a1,1,0,0,0,1.246.905l.9-.227a1,1,0,0,1,1.218,1.218l-.227.9a1,1,0,0,0,.905,1.246l.925.062a1,1,0,0,1,.782,1.534l-.494.784a1,1,0,0,0,.476,1.465l.86.344a1,1,0,0,1,.269,1.7l-.712.593a1,1,0,0,0,0,1.54l.712.593a1,1,0,0,1-.269,1.7l-.86.344a1,1,0,0,0-.476,1.465l.494.784a1,1,0,0,1-.782,1.534l-.925.062a1,1,0,0,0-.905,1.246l.227.9a1,1,0,0,1-1.218,1.218l-.9-.227a1,1,0,0,0-1.246.905l-.062.925a1,1,0,0,1-1.534.782l-.784-.494a1,1,0,0,0-1.465.476l-.344.86a1,1,0,0,1-1.7.269l-.593-.712a1,1,0,0,0-1.54,0l-.593.712a1,1,0,0,1-1.7-.269l-.344-.86a1,1,0,0,0-1.465-.476l-.784.494a1,1,0,0,1-1.534-.782l-.062-.925a1,1,0,0,0-1.246-.905l-.9.227a1,1,0,0,1-1.218-1.218l.227-.9a1,1,0,0,0-.905-1.246l-.925-.062a1,1,0,0,1-.782-1.534l.494-.784a1,1,0,0,0-.476-1.465l-.86-.344a1,1,0,0,1-.269-1.7l.712-.593a1,1,0,0,0,0-1.54l-.712-.593a1,1,0,0,1,.269-1.7l.86-.344a1,1,0,0,0,.476-1.465l-.494-.784a1,1,0,0,1,.782-1.534l.925-.062a1,1,0,0,0,.905-1.246l-.227-.9a1,1,0,0,1,1.218-1.218l.9.227a1,1,0,0,0,1.246-.905l.062-.925a1,1,0,0,1,1.534-.782l.784.494a1,1,0,0,0,1.465-.476l.344-.86a1,1,0,0,1,1.7-.269l.593.712A1,1,0,0,0,263.672,217.5Z" transform="translate(-204.347 -176.213)" fill="#3e799c"/>
      <circle id="Elipse_13398" data-name="Elipse 13398" cx="9.692" cy="9.692" r="9.692" transform="translate(48.863 44.998)" fill="#f2d061"/>
      <g id="Grupo_1207338" data-name="Grupo 1207338" transform="translate(52.73 48.864)">
        <path id="Trazado_1051274" data-name="Trazado 1051274" d="M320.966,299.6a.967.967,0,0,1-.684-1.65l9.666-9.666a.967.967,0,1,1,1.367,1.367l-9.666,9.666A.963.963,0,0,1,320.966,299.6Z" transform="translate(-319.999 -288.001)" fill="#e65c79"/>
      </g>
      <g id="Grupo_1207339" data-name="Grupo 1207339" transform="translate(51.763 48.864)">
        <path id="Trazado_1051275" data-name="Trazado 1051275" d="M314.9,293.8a2.9,2.9,0,1,1,2.9-2.9A2.9,2.9,0,0,1,314.9,293.8Zm0-3.866a.967.967,0,1,0,.967.967A.968.968,0,0,0,314.9,289.933Z" transform="translate(-312 -288)" fill="#e65c79"/>
      </g>
      <g id="Grupo_1207340" data-name="Grupo 1207340" transform="translate(59.496 54.664)">
        <path id="Trazado_1051276" data-name="Trazado 1051276" d="M378.9,341.8a2.9,2.9,0,1,1,2.9-2.9A2.9,2.9,0,0,1,378.9,341.8Zm0-3.866a.967.967,0,1,0,.967.967A.968.968,0,0,0,378.9,337.933Z" transform="translate(-376 -336)" fill="#e65c79"/>
      </g>
      <g id="Grupo_1207341" data-name="Grupo 1207341" transform="translate(15.999 16)">
        <path id="Trazado_1051277" data-name="Trazado 1051277" d="M16.6,32.24l2.589,1.07A39.269,39.269,0,0,0,34.2,36.233a42.618,42.618,0,0,0,6.514-.5A46,46,0,0,0,60.73,27.372l1.83,2.3a.967.967,0,0,0,1.7-.387l2.754-12.068a.966.966,0,0,0-.939-1.182L53.7,16h0a.967.967,0,0,0-.757,1.568l1.8,2.27-1.778,1.414a44.571,44.571,0,0,1-13.969,7.533A41.113,41.113,0,0,1,23.7,30.79l-6.672-.408A.967.967,0,0,0,16.6,32.24Zm6.982.48a43.045,43.045,0,0,0,16.013-2.1,46.5,46.5,0,0,0,14.573-7.858L56.7,20.75a.967.967,0,0,0,.155-1.358L55.7,17.939l9.159.028L62.822,26.9,61.66,25.436a.967.967,0,0,0-1.342-.167,44.131,44.131,0,0,1-19.9,8.549A38.867,38.867,0,0,1,23.212,32.7Z" transform="translate(-15.999 -16)"/>
        <path id="Trazado_1051278" data-name="Trazado 1051278" d="M73.287,167.845l-.712-.593a.036.036,0,0,1,0-.055l.712-.593a1.969,1.969,0,0,0-.529-3.341l-.86-.344a.036.036,0,0,1-.017-.053l.494-.784a1.969,1.969,0,0,0-1.536-3.014l-.924-.062a.036.036,0,0,1-.033-.045l.227-.9a1.969,1.969,0,0,0-2.392-2.392l-.9.227a.032.032,0,0,1-.03-.006.032.032,0,0,1-.015-.027l-.062-.925a1.971,1.971,0,0,0-2.383-1.794v-8.181a.967.967,0,0,0-.967-.967H55.63a.967.967,0,0,0-.967.967v3.866H47.9a.967.967,0,0,0-.967.967v4.833H40.165a.967.967,0,0,0-.967.967v3.866H32.432a.967.967,0,0,0-.967.967V164.3H24.7a.967.967,0,0,0-.967.967v3.866H16.967A.967.967,0,0,0,16,170.1v15.465a.967.967,0,0,0,.967.967h46.4a.967.967,0,0,0,.967-.967V181.3a1.971,1.971,0,0,0,2.383-1.795l.062-.924a.031.031,0,0,1,.015-.027.032.032,0,0,1,.03-.006l.9.227a1.969,1.969,0,0,0,2.392-2.392l-.227-.9a.036.036,0,0,1,.033-.045l.924-.062a1.969,1.969,0,0,0,1.536-3.014l-.494-.784a.032.032,0,0,1,0-.03.032.032,0,0,1,.021-.022l.86-.344a1.969,1.969,0,0,0,.529-3.341ZM23.733,184.6h-5.8V171.064h5.8Zm7.733,0h-5.8V166.232h5.8Zm7.733,0H33.4V161.4h5.8Zm17.4-38.664h5.8v6.839a1.969,1.969,0,0,0-3.219-.279l-.593.712h0a.036.036,0,0,1-.055,0l-.593-.712a1.95,1.95,0,0,0-1.338-.7v-5.859ZM48.864,155.6v-4.833h5.8v2.1c-.025.05-.048.1-.069.152l-.344.86a.036.036,0,0,1-.053.017l-.784-.494a1.969,1.969,0,0,0-3.014,1.536l-.062.925a.031.031,0,0,1-.015.027.032.032,0,0,1-.03.006l-.9-.227a1.993,1.993,0,0,0-.531-.061Zm-1.933,29h-5.8V156.566h5.8v2.458l-.657.044a1.969,1.969,0,0,0-1.536,3.014l.494.784a.032.032,0,0,1,0,.03.032.032,0,0,1-.021.022l-.86.344a1.969,1.969,0,0,0-.529,3.341l.712.593a.036.036,0,0,1,0,.055l-.712.593a1.969,1.969,0,0,0,.529,3.341l.86.344a.032.032,0,0,1,.021.022.031.031,0,0,1,0,.03l-.494.784a1.969,1.969,0,0,0,1.536,3.014l.657.044V184.6Zm7.733,0h-5.8v-5.76a1.993,1.993,0,0,0,.531-.06l.9-.227a.036.036,0,0,1,.045.033l.062.924a1.969,1.969,0,0,0,3.014,1.536l.784-.494a.036.036,0,0,1,.053.017l.344.86c.021.052.044.1.069.152Zm7.733,0H56.6v-1.942a1.95,1.95,0,0,0,1.338-.7l.593-.712a.036.036,0,0,1,.055,0l.593.712a1.969,1.969,0,0,0,3.22-.279V184.6Zm8.941-15.86.712.593a.036.036,0,0,1-.01.061l-.86.344a1.969,1.969,0,0,0-.935,2.877l.494.784a.036.036,0,0,1-.028.055l-.925.062a1.969,1.969,0,0,0-1.778,2.448l.227.9a.029.029,0,0,1-.009.034.029.029,0,0,1-.034.009l-.9-.227a1.969,1.969,0,0,0-2.447,1.778l-.062.924a.036.036,0,0,1-.055.028l-.784-.494a1.969,1.969,0,0,0-2.877.935l-.344.86a.029.029,0,0,1-.028.022.028.028,0,0,1-.033-.013l-.593-.712a1.969,1.969,0,0,0-3.025,0l-.593.712a.028.028,0,0,1-.033.013.029.029,0,0,1-.028-.022l-.344-.86a1.968,1.968,0,0,0-2.877-.935l-.784.494a.028.028,0,0,1-.035,0,.029.029,0,0,1-.02-.03l-.062-.924a1.969,1.969,0,0,0-2.447-1.778l-.9.227a.029.029,0,0,1-.034-.009.029.029,0,0,1-.009-.034l.227-.9a1.969,1.969,0,0,0-1.778-2.448l-.925-.062a.036.036,0,0,1-.028-.055l.494-.784a1.969,1.969,0,0,0-.935-2.877l-.86-.344a.036.036,0,0,1-.01-.061l.712-.593a1.969,1.969,0,0,0,0-3.025l-.712-.593a.036.036,0,0,1,.01-.061l.86-.344a1.969,1.969,0,0,0,.935-2.877l-.494-.784a.029.029,0,0,1,0-.036A.029.029,0,0,1,46.4,161l.925-.062a1.969,1.969,0,0,0,1.778-2.448l-.227-.9a.036.036,0,0,1,.044-.044l.9.227a1.969,1.969,0,0,0,2.447-1.778l.062-.925a.036.036,0,0,1,.055-.028l.784.494a1.969,1.969,0,0,0,2.877-.935l.344-.86a.029.029,0,0,1,.028-.022.028.028,0,0,1,.033.012l.593.712a1.969,1.969,0,0,0,3.025,0l.593-.712a.029.029,0,0,1,.033-.012.029.029,0,0,1,.028.022l.344.86a1.969,1.969,0,0,0,2.877.935l.784-.494a.036.036,0,0,1,.055.028l.062.924a1.969,1.969,0,0,0,2.448,1.778l.9-.227a.036.036,0,0,1,.043.044l-.227.9a1.969,1.969,0,0,0,1.778,2.448l.924.061a.036.036,0,0,1,.028.055l-.493.784a1.969,1.969,0,0,0,.935,2.877l.86.344a.036.036,0,0,1,.01.061l-.712.593a1.969,1.969,0,0,0,0,3.025Z" transform="translate(-16 -128.535)"/>
        <path id="Trazado_1051279" data-name="Trazado 1051279" d="M290.658,248a10.659,10.659,0,1,0,10.658,10.658A10.671,10.671,0,0,0,290.658,248Zm0,19.384a8.725,8.725,0,1,1,8.725-8.725A8.735,8.735,0,0,1,290.658,267.384Z" transform="translate(-248.102 -219.969)"/>
        <path id="Trazado_1051280" data-name="Trazado 1051280" d="M331.316,288.284a.967.967,0,0,0-1.367,0l-9.666,9.666a.967.967,0,0,0,1.367,1.367l9.666-9.666A.967.967,0,0,0,331.316,288.284Z" transform="translate(-283.27 -255.137)"/>
        <path id="Trazado_1051281" data-name="Trazado 1051281" d="M317.8,290.9a2.9,2.9,0,1,0-2.9,2.9A2.9,2.9,0,0,0,317.8,290.9Zm-3.866,0a.967.967,0,1,1,.967.967A.968.968,0,0,1,313.933,290.9Z" transform="translate(-276.236 -255.136)"/>
        <path id="Trazado_1051282" data-name="Trazado 1051282" d="M378.9,336a2.9,2.9,0,1,0,2.9,2.9A2.9,2.9,0,0,0,378.9,336Zm0,3.866a.967.967,0,1,1,.967-.967A.968.968,0,0,1,378.9,339.866Z" transform="translate(-332.503 -297.336)"/>
      </g>
    </g>
  </g>
</svg>
