<svg xmlns="http://www.w3.org/2000/svg" xmlns:xlink="http://www.w3.org/1999/xlink" width="113" height="113" viewBox="0 0 113 113">
  <defs>
    <filter id="Trazado_982547" x="0" y="0" width="113" height="113" filterUnits="userSpaceOnUse">
      <feOffset dy="3" input="SourceAlpha"/>
      <feGaussianBlur stdDeviation="3" result="blur"/>
      <feFlood flood-opacity="0.161"/>
      <feComposite operator="in" in2="blur"/>
      <feComposite in="SourceGraphic"/>
    </filter>
    <clipPath id="clip-path">
      <path id="path3591" d="M0-682.665H65.7v65.7H0Z" transform="translate(0 682.665)"/>
    </clipPath>
  </defs>
  <g id="Grupo_1207385" data-name="Grupo 1207385" transform="translate(-4062 -1757.236)">
    <g id="Grupo_1207289" data-name="Grupo 1207289" transform="translate(3270 -2330.258)">
      <g id="Grupo_1202372" data-name="Grupo 1202372" transform="translate(-1.49 2625.871)">
        <g id="Grupo_1177632" data-name="Grupo 1177632" transform="translate(-4493 -458.649)">
          <g id="Grupo_1176928" data-name="Grupo 1176928" transform="translate(5295.49 1926.273)">
            <g id="Grupo_1172322" data-name="Grupo 1172322" transform="translate(0 0)">
              <g id="Grupo_1164700" data-name="Grupo 1164700">
                <g id="Grupo_1160931" data-name="Grupo 1160931">
                  <g id="Grupo_1160749" data-name="Grupo 1160749">
                    <g id="Grupo_1158891" data-name="Grupo 1158891">
                      <g id="Grupo_1157406" data-name="Grupo 1157406">
                        <g id="Grupo_1155793" data-name="Grupo 1155793">
                          <g id="Grupo_1154704" data-name="Grupo 1154704">
                            <g id="Grupo_1150790" data-name="Grupo 1150790">
                              <g id="Grupo_1154214" data-name="Grupo 1154214">
                                <g id="Grupo_1152583" data-name="Grupo 1152583">
                                  <g id="Grupo_1146973" data-name="Grupo 1146973">
                                    <g id="Grupo_1146954" data-name="Grupo 1146954">
                                      <g transform="matrix(1, 0, 0, 1, -9, -6)" filter="url(#Trazado_982547)">
                                        <g id="Trazado_982547-2" data-name="Trazado 982547" transform="translate(9 6)" fill="#f2f7e5">
                                          <path d="M 47.5000114440918 93.49987030029297 C 41.28938293457031 93.49987030029297 35.26534652709961 92.28384399414062 29.5951976776123 89.88558959960938 C 24.11773109436035 87.56881713867188 19.19814491271973 84.25183868408203 14.97310447692871 80.02680206298828 C 10.74805164337158 75.80176544189453 7.43107795715332 70.88218688964844 5.114304542541504 65.40472412109375 C 2.716038227081299 59.73458862304688 1.500011444091797 53.71054840087891 1.500011444091797 47.49993515014648 C 1.500011444091797 41.28932189941406 2.716038227081299 35.26528167724609 5.114304542541504 29.59514808654785 C 7.43107795715332 24.1176815032959 10.74805164337158 19.1981086730957 14.97310447692871 14.97306823730469 C 19.19814491271973 10.74802875518799 24.11773109436035 7.431055068969727 29.5951976776123 5.11428165435791 C 35.26534652709961 2.716028451919556 41.28938293457031 1.500001788139343 47.5000114440918 1.500001788139343 C 53.71063995361328 1.500001788139343 59.73467636108398 2.716028451919556 65.40482330322266 5.11428165435791 C 70.88229370117188 7.431055068969727 75.8018798828125 10.74802875518799 80.02691650390625 14.97306823730469 C 84.25196838378906 19.1981086730957 87.56894683837891 24.1176815032959 89.88571929931641 29.59514808654785 C 92.28398132324219 35.26528167724609 93.50001525878906 41.28932189941406 93.50001525878906 47.49993515014648 C 93.50001525878906 53.71054840087891 92.28398132324219 59.73458862304688 89.88571929931641 65.40472412109375 C 87.56894683837891 70.88218688964844 84.25196838378906 75.80176544189453 80.02691650390625 80.02680206298828 C 75.8018798828125 84.25183868408203 70.88229370117188 87.56881713867188 65.40482330322266 89.88558959960938 C 59.73467636108398 92.28384399414062 53.71063995361328 93.49987030029297 47.5000114440918 93.49987030029297 Z" stroke="none"/>
                                          <path d="M 47.5000114440918 3 C 41.49122619628906 3 35.66378021240234 4.1761474609375 30.17951965332031 6.495796203613281 C 24.880859375 8.7369384765625 20.12153625488281 11.94596862792969 16.03376770019531 16.03373718261719 C 11.94598388671875 20.12149047851562 8.736968994140625 24.88081359863281 6.495811462402344 30.17947387695312 C 4.176162719726562 35.66371917724609 3.000007629394531 41.49116516113281 3.000007629394531 47.49993515014648 C 3.000007629394531 53.50870513916016 4.176162719726562 59.33615112304688 6.495811462402344 64.82039642333984 C 8.736968994140625 70.11905670166016 11.94598388671875 74.87837982177734 16.03376770019531 78.96613311767578 C 20.12153625488281 83.05390167236328 24.880859375 86.26293182373047 30.17951965332031 88.50407409667969 C 35.66378021240234 90.82372283935547 41.49122619628906 91.99987030029297 47.5000114440918 91.99987030029297 C 53.50879669189453 91.99987030029297 59.33624267578125 90.82372283935547 64.82050323486328 88.50407409667969 C 70.11916351318359 86.26293182373047 74.87848663330078 83.05390167236328 78.96625518798828 78.96613311767578 C 83.05403900146484 74.87837982177734 86.2630615234375 70.11905670166016 88.50421142578125 64.82039642333984 C 90.82386016845703 59.33615112304688 92.00001525878906 53.50870513916016 92.00001525878906 47.49993515014648 C 92.00001525878906 41.49116516113281 90.82386016845703 35.66371917724609 88.50421142578125 30.17947387695312 C 86.2630615234375 24.88081359863281 83.05403900146484 20.12149047851562 78.96625518798828 16.03373718261719 C 74.87848663330078 11.94596862792969 70.11916351318359 8.7369384765625 64.82050323486328 6.495796203613281 C 59.33624267578125 4.1761474609375 53.50879669189453 3 47.5000114440918 3 M 47.5000114440918 0 C 73.73353576660156 0 95.00001525878906 21.26644134521484 95.00001525878906 47.49993515014648 C 95.00001525878906 73.73342895507812 73.73353576660156 94.99987030029297 47.5000114440918 94.99987030029297 C 21.26648712158203 94.99987030029297 7.62939453125e-06 73.73342895507812 7.62939453125e-06 47.49993515014648 C 7.62939453125e-06 21.26644134521484 21.26648712158203 0 47.5000114440918 0 Z" stroke="none" fill="#86b60c"/>
                                        </g>
                                      </g>
                                    </g>
                                  </g>
                                </g>
                              </g>
                            </g>
                          </g>
                        </g>
                      </g>
                    </g>
                  </g>
                </g>
              </g>
            </g>
          </g>
        </g>
      </g>
    </g>
    <g id="g3585" transform="translate(4086.15 2458.551)">
      <g id="g3587" transform="translate(0 -682.665)">
        <g id="g3589" clip-path="url(#clip-path)">
          <g id="g3595" transform="translate(13.08 9.006)">
            <path id="path3597" d="M-371.3-126.665l-2.361-8.362a2.237,2.237,0,0,0-1.654-1.573l-15.537-3.554h-15.574a2.237,2.237,0,0,0-2.153,1.629l-2.261,8.009" transform="translate(410.84 140.153)" fill="none" stroke="#000" stroke-linecap="round" stroke-linejoin="round" stroke-miterlimit="10" stroke-width="1.5"/>
          </g>
          <g id="g3599" transform="translate(44.652 28.936)">
            <path id="path3601" d="M-149.643-74.822a7.968,7.968,0,0,1-7.968,7.968,7.968,7.968,0,0,1-7.968-7.968,7.968,7.968,0,0,1,7.968-7.968,7.968,7.968,0,0,1,7.968,7.968" transform="translate(165.578 82.789)" fill="#ffe270"/>
          </g>
          <g id="g3603" transform="translate(45.382 40.234)">
            <path id="path3605" d="M0,0A7.967,7.967,0,0,0,7.238,4.637,7.967,7.967,0,0,0,14.475,0Z" fill="#ffd250"/>
          </g>
          <g id="g3607" transform="translate(51.174 34.139)">
            <path id="path3609" d="M-26.409-.978a3.7,3.7,0,0,0-1.842.028A1.144,1.144,0,0,0-28.737.935a5.523,5.523,0,0,0,1.513.716,1.392,1.392,0,0,1-.586,2.683,2.063,2.063,0,0,1-1.411-.38" transform="translate(29.221 1.082)" fill="none" stroke="#000" stroke-linecap="round" stroke-linejoin="round" stroke-miterlimit="10" stroke-width="1.5"/>
          </g>
          <g id="g3611" transform="translate(52.585 39.62)">
            <path id="path3613" d="M0,0V.715" fill="none" stroke="#000" stroke-linecap="round" stroke-linejoin="round" stroke-miterlimit="10" stroke-width="1.5"/>
          </g>
          <g id="g3615" transform="translate(52.585 33.472)">
            <path id="path3617" d="M0,0V.656" fill="none" stroke="#000" stroke-linecap="round" stroke-linejoin="round" stroke-miterlimit="10" stroke-width="1.5"/>
          </g>
          <g id="g3619" transform="translate(44.652 28.936)">
            <path id="path3621" d="M-149.643-74.822a7.968,7.968,0,0,1-7.968,7.968,7.968,7.968,0,0,1-7.968-7.968,7.968,7.968,0,0,1,7.968-7.968A7.968,7.968,0,0,1-149.643-74.822Z" transform="translate(165.578 82.789)" fill="none" stroke="#000" stroke-linecap="round" stroke-linejoin="round" stroke-miterlimit="10" stroke-width="1.5"/>
          </g>
          <g id="g3623" transform="translate(4.326 30.982)">
            <path id="path3625" d="M-134.55-75.252l-6.059,2.986-5.089-2.986-3.138-7.293a.516.516,0,0,1,.474-.72h16.474a.516.516,0,0,1,.474.72Z" transform="translate(148.878 83.265)" fill="#64caff"/>
          </g>
          <g id="g3627" transform="translate(6.401 36.427)">
            <path id="path3629" d="M-115.062-24.12l1.1-2.568h-13.358l1.1,2.568Z" transform="translate(127.314 26.688)" fill="#00b8ff"/>
          </g>
          <g id="g3631" transform="translate(4.326 30.982)">
            <path id="path3633" d="M-134.55-75.252H-145.7l-3.138-7.293a.516.516,0,0,1,.474-.72h16.474a.516.516,0,0,1,.474.72Z" transform="translate(148.878 83.265)" fill="none" stroke="#000" stroke-linecap="round" stroke-linejoin="round" stroke-miterlimit="10" stroke-width="1.5"/>
          </g>
          <g id="g3635" transform="translate(8.227 24.86)">
            <path id="path3637" d="M-91.143-57.49h-9.706v-2.993a3.13,3.13,0,0,1,3.13-3.129h3.447a3.129,3.129,0,0,1,3.129,3.129Z" transform="translate(100.849 63.612)" fill="none" stroke="#000" stroke-linecap="round" stroke-linejoin="round" stroke-miterlimit="10" stroke-width="1.5"/>
          </g>
          <g id="g3639" transform="translate(0.962 38.591)">
            <path id="path3641" d="M-173.26-77.736h-12.665a4.076,4.076,0,0,1-3.848-2.732l-1.937-5.546h24.236l-1.937,5.546a4.076,4.076,0,0,1-3.848,2.732" transform="translate(191.71 86.014)" fill="#6c5e69"/>
          </g>
          <g id="g3643" transform="translate(16.587 38.592)">
            <path id="path3645" d="M-54.33,0l-1.937,5.546a4.076,4.076,0,0,1-3.848,2.732h2.825a4.076,4.076,0,0,0,3.848-2.732L-51.5,0Z" transform="translate(60.116)" fill="#574d56"/>
          </g>
          <g id="g3647" transform="translate(29.521 0.995)">
            <path id="path3649" d="M-62.523-509.6l-3.329,3.021-3.329-3.021v-50.937a3.329,3.329,0,0,1,3.329-3.329,3.329,3.329,0,0,1,3.329,3.329Z" transform="translate(69.181 563.861)" fill="#6c5e69"/>
          </g>
          <path id="path3651" d="M313.4-133.774h-6.658v2.436H313.4Z" transform="translate(-277.221 186.599)" fill="#574d56"/>
          <g id="g3653" transform="translate(11.047 42.731)">
            <path id="path3655" d="M0,0H4.067" fill="none" stroke="#000" stroke-linecap="round" stroke-linejoin="round" stroke-miterlimit="10" stroke-width="1.5"/>
          </g>
          <g id="g3657" transform="translate(1.951 18.322)">
            <path id="path3659" d="M-49.79,0l-5.3,3.729V20.27h22.258V3.729L-38.136,0Z" transform="translate(55.092)" fill="none" stroke="#000" stroke-linecap="round" stroke-linejoin="round" stroke-miterlimit="10" stroke-width="1.5"/>
          </g>
          <g id="g3661" transform="translate(40.501 42.441)">
            <path id="path3663" d="M-173.259-77.736h-12.664a4.076,4.076,0,0,1-3.848-2.732l-1.937-5.546h24.236l-1.937,5.546a4.076,4.076,0,0,1-3.848,2.732" transform="translate(191.709 86.014)" fill="#6c5e69"/>
          </g>
          <g id="g3665" transform="translate(56.126 42.441)">
            <path id="path3667" d="M-54.329,0l-1.937,5.546a4.076,4.076,0,0,1-3.848,2.732h2.825a4.076,4.076,0,0,0,3.848-2.732L-51.5,0Z" transform="translate(60.115)" fill="#574d56"/>
          </g>
          <g id="g3669" transform="translate(40.501 42.441)">
            <path id="path3671" d="M-173.259-77.736h-12.664a4.076,4.076,0,0,1-3.848-2.732l-1.937-5.546h24.236l-1.937,5.546A4.076,4.076,0,0,1-173.259-77.736Z" transform="translate(191.709 86.014)" fill="none" stroke="#000" stroke-linecap="round" stroke-linejoin="round" stroke-miterlimit="10" stroke-width="1.5"/>
          </g>
          <g id="g3673" transform="translate(50.586 46.58)">
            <path id="path3675" d="M0,0H4.067" fill="none" stroke="#000" stroke-linecap="round" stroke-linejoin="round" stroke-miterlimit="10" stroke-width="1.5"/>
          </g>
          <g id="g3677" transform="translate(41.49 22.171)">
            <path id="path3679" d="M-49.79,0l-5.3,3.729V20.27h22.258V3.729L-38.136,0Z" transform="translate(55.092)" fill="none" stroke="#000" stroke-linecap="round" stroke-linejoin="round" stroke-miterlimit="10" stroke-width="1.5"/>
          </g>
          <g id="g3681" transform="translate(10.325 15.89)">
            <path id="path3683" d="M-51.74-25.869a2.755,2.755,0,0,1-2.755,2.755,2.755,2.755,0,0,1-2.755-2.755,2.755,2.755,0,0,1,2.755-2.755,2.755,2.755,0,0,1,2.755,2.755" transform="translate(57.249 28.624)" fill="#ff94be"/>
          </g>
          <g id="g3685" transform="translate(10.325 15.89)">
            <path id="path3687" d="M-51.74-25.869a2.755,2.755,0,0,1-2.755,2.755,2.755,2.755,0,0,1-2.755-2.755,2.755,2.755,0,0,1,2.755-2.755A2.755,2.755,0,0,1-51.74-25.869Z" transform="translate(57.249 28.624)" fill="none" stroke="#000" stroke-linecap="round" stroke-linejoin="round" stroke-miterlimit="10" stroke-width="1.5"/>
          </g>
          <g id="g3689" transform="translate(49.831 19.739)">
            <path id="path3691" d="M-51.738-25.869a2.755,2.755,0,0,1-2.755,2.755,2.755,2.755,0,0,1-2.755-2.755,2.755,2.755,0,0,1,2.755-2.755,2.755,2.755,0,0,1,2.755,2.755" transform="translate(57.248 28.624)" fill="#5ddfb6"/>
          </g>
          <g id="g3693" transform="translate(49.831 19.739)">
            <path id="path3695" d="M-51.738-25.869a2.755,2.755,0,0,1-2.755,2.755,2.755,2.755,0,0,1-2.755-2.755,2.755,2.755,0,0,1,2.755-2.755A2.755,2.755,0,0,1-51.738-25.869Z" transform="translate(57.248 28.624)" fill="none" stroke="#000" stroke-linecap="round" stroke-linejoin="round" stroke-miterlimit="10" stroke-width="1.5"/>
          </g>
          <g id="g3697" transform="translate(13.709 55.261)">
            <path id="path3699" d="M-55.506-3.623-60.839.887a1.632,1.632,0,0,0-.578,1.245v3.3h38.282v-3.3A1.632,1.632,0,0,0-23.713.887l-5.333-4.511A1.632,1.632,0,0,0-30.1-4.009H-54.453a1.632,1.632,0,0,0-1.054.386" transform="translate(61.417 4.009)" fill="#ffc25e"/>
          </g>
          <g id="g3701" transform="translate(41.184 55.261)">
            <path id="path3703" d="M-96.057-45.982l-5.333-4.511a1.631,1.631,0,0,0-1.054-.386h-3.842a1.631,1.631,0,0,1,1.053.386l5.333,4.511a1.631,1.631,0,0,1,.578,1.245v3.3h3.843v-3.3a1.632,1.632,0,0,0-.578-1.245" transform="translate(106.286 50.879)" fill="#ffb532"/>
          </g>
          <g id="g3705" transform="translate(32.85 12.567)">
            <path id="path3707" d="M0,0V7.172" fill="none" stroke="#000" stroke-linecap="round" stroke-linejoin="round" stroke-miterlimit="10" stroke-width="1.5"/>
          </g>
          <g id="g3709" transform="translate(28.277 60.825)">
            <path id="path3711" d="M0,0H9.146" fill="none" stroke="#000" stroke-linecap="round" stroke-linejoin="round" stroke-miterlimit="10" stroke-width="1.5"/>
          </g>
          <g id="g3713" transform="translate(13.709 55.261)">
            <path id="path3715" d="M-292.4-88.679h7.145v-3.3a1.631,1.631,0,0,0-.578-1.245l-5.333-4.511a1.632,1.632,0,0,0-1.054-.386H-316.57a1.632,1.632,0,0,0-1.054.386l-5.333,4.511a1.631,1.631,0,0,0-.578,1.245v3.3h27.415" transform="translate(323.534 98.122)" fill="none" stroke="#000" stroke-linecap="round" stroke-linejoin="round" stroke-miterlimit="10" stroke-width="1.5"/>
          </g>
          <g id="g3717" transform="translate(0.962 38.591)">
            <path id="path3719" d="M-105.4-77.736h7.226a4.076,4.076,0,0,0,3.848-2.732l1.937-5.546h-24.236l1.937,5.546a4.076,4.076,0,0,0,3.848,2.732h1.717" transform="translate(116.621 86.014)" fill="none" stroke="#000" stroke-linecap="round" stroke-linejoin="round" stroke-miterlimit="10" stroke-width="1.5"/>
          </g>
          <g id="g3721" transform="translate(29.521 0.995)">
            <path id="path3723" d="M0-51.736V-2.979H6.658V-53.916a3.329,3.329,0,0,0-3.329-3.329h0a3.328,3.328,0,0,0-2.96,1.806" transform="translate(0 57.245)" fill="none" stroke="#000" stroke-linecap="round" stroke-linejoin="round" stroke-miterlimit="10" stroke-width="1.5"/>
          </g>
        </g>
      </g>
    </g>
  </g>
</svg>
