<svg xmlns="http://www.w3.org/2000/svg" xmlns:xlink="http://www.w3.org/1999/xlink" width="113" height="113" viewBox="0 0 113 113">
  <defs>
    <filter id="Trazado_982547" x="0" y="0" width="113" height="113" filterUnits="userSpaceOnUse">
      <feOffset dy="3" input="SourceAlpha"/>
      <feGaussianBlur stdDeviation="3" result="blur"/>
      <feFlood flood-opacity="0.161"/>
      <feComposite operator="in" in2="blur"/>
      <feComposite in="SourceGraphic"/>
    </filter>
  </defs>
  <g id="Grupo_1207411" data-name="Grupo 1207411" transform="translate(-4381.5 -1765.236)">
    <g id="Grupo_1207290" data-name="Grupo 1207290" transform="translate(3589.5 -2322.258)">
      <g id="Grupo_1202372" data-name="Grupo 1202372" transform="translate(-1.49 2625.871)">
        <g id="Grupo_1177632" data-name="Grupo 1177632" transform="translate(-4493 -458.649)">
          <g id="Grupo_1176928" data-name="Grupo 1176928" transform="translate(5295.49 1926.273)">
            <g id="Grupo_1172322" data-name="Grupo 1172322" transform="translate(0 0)">
              <g id="Grupo_1164700" data-name="Grupo 1164700">
                <g id="Grupo_1160931" data-name="Grupo 1160931">
                  <g id="Grupo_1160749" data-name="Grupo 1160749">
                    <g id="Grupo_1158891" data-name="Grupo 1158891">
                      <g id="Grupo_1157406" data-name="Grupo 1157406">
                        <g id="Grupo_1155793" data-name="Grupo 1155793">
                          <g id="Grupo_1154704" data-name="Grupo 1154704">
                            <g id="Grupo_1150790" data-name="Grupo 1150790">
                              <g id="Grupo_1154214" data-name="Grupo 1154214">
                                <g id="Grupo_1152583" data-name="Grupo 1152583">
                                  <g id="Grupo_1146973" data-name="Grupo 1146973">
                                    <g id="Grupo_1146954" data-name="Grupo 1146954">
                                      <g transform="matrix(1, 0, 0, 1, -9, -6)" filter="url(#Trazado_982547)">
                                        <g id="Trazado_982547-2" data-name="Trazado 982547" transform="translate(9 6)" fill="#f2f7e5">
                                          <path d="M 47.5000114440918 93.49987030029297 C 41.28938293457031 93.49987030029297 35.26534652709961 92.28384399414062 29.5951976776123 89.88558959960938 C 24.11773109436035 87.56881713867188 19.19814491271973 84.25183868408203 14.97310447692871 80.02680206298828 C 10.74805164337158 75.80176544189453 7.43107795715332 70.88218688964844 5.114304542541504 65.40472412109375 C 2.716038227081299 59.73458862304688 1.500011444091797 53.71054840087891 1.500011444091797 47.49993515014648 C 1.500011444091797 41.28932189941406 2.716038227081299 35.26528167724609 5.114304542541504 29.59514808654785 C 7.43107795715332 24.1176815032959 10.74805164337158 19.1981086730957 14.97310447692871 14.97306823730469 C 19.19814491271973 10.74802875518799 24.11773109436035 7.431055068969727 29.5951976776123 5.11428165435791 C 35.26534652709961 2.716028451919556 41.28938293457031 1.500001788139343 47.5000114440918 1.500001788139343 C 53.71063995361328 1.500001788139343 59.73467636108398 2.716028451919556 65.40482330322266 5.11428165435791 C 70.88229370117188 7.431055068969727 75.8018798828125 10.74802875518799 80.02691650390625 14.97306823730469 C 84.25196838378906 19.1981086730957 87.56894683837891 24.1176815032959 89.88571929931641 29.59514808654785 C 92.28398132324219 35.26528167724609 93.50001525878906 41.28932189941406 93.50001525878906 47.49993515014648 C 93.50001525878906 53.71054840087891 92.28398132324219 59.73458862304688 89.88571929931641 65.40472412109375 C 87.56894683837891 70.88218688964844 84.25196838378906 75.80176544189453 80.02691650390625 80.02680206298828 C 75.8018798828125 84.25183868408203 70.88229370117188 87.56881713867188 65.40482330322266 89.88558959960938 C 59.73467636108398 92.28384399414062 53.71063995361328 93.49987030029297 47.5000114440918 93.49987030029297 Z" stroke="none"/>
                                          <path d="M 47.5000114440918 3 C 41.49122619628906 3 35.66378021240234 4.1761474609375 30.17951965332031 6.495796203613281 C 24.880859375 8.7369384765625 20.12153625488281 11.94596862792969 16.03376770019531 16.03373718261719 C 11.94598388671875 20.12149047851562 8.736968994140625 24.88081359863281 6.495811462402344 30.17947387695312 C 4.176162719726562 35.66371917724609 3.000007629394531 41.49116516113281 3.000007629394531 47.49993515014648 C 3.000007629394531 53.50870513916016 4.176162719726562 59.33615112304688 6.495811462402344 64.82039642333984 C 8.736968994140625 70.11905670166016 11.94598388671875 74.87837982177734 16.03376770019531 78.96613311767578 C 20.12153625488281 83.05390167236328 24.880859375 86.26293182373047 30.17951965332031 88.50407409667969 C 35.66378021240234 90.82372283935547 41.49122619628906 91.99987030029297 47.5000114440918 91.99987030029297 C 53.50879669189453 91.99987030029297 59.33624267578125 90.82372283935547 64.82050323486328 88.50407409667969 C 70.11916351318359 86.26293182373047 74.87848663330078 83.05390167236328 78.96625518798828 78.96613311767578 C 83.05403900146484 74.87837982177734 86.2630615234375 70.11905670166016 88.50421142578125 64.82039642333984 C 90.82386016845703 59.33615112304688 92.00001525878906 53.50870513916016 92.00001525878906 47.49993515014648 C 92.00001525878906 41.49116516113281 90.82386016845703 35.66371917724609 88.50421142578125 30.17947387695312 C 86.2630615234375 24.88081359863281 83.05403900146484 20.12149047851562 78.96625518798828 16.03373718261719 C 74.87848663330078 11.94596862792969 70.11916351318359 8.7369384765625 64.82050323486328 6.495796203613281 C 59.33624267578125 4.1761474609375 53.50879669189453 3 47.5000114440918 3 M 47.5000114440918 0 C 73.73353576660156 0 95.00001525878906 21.26644134521484 95.00001525878906 47.49993515014648 C 95.00001525878906 73.73342895507812 73.73353576660156 94.99987030029297 47.5000114440918 94.99987030029297 C 21.26648712158203 94.99987030029297 7.62939453125e-06 73.73342895507812 7.62939453125e-06 47.49993515014648 C 7.62939453125e-06 21.26644134521484 21.26648712158203 0 47.5000114440918 0 Z" stroke="none" fill="#86b60c"/>
                                        </g>
                                      </g>
                                    </g>
                                  </g>
                                </g>
                              </g>
                            </g>
                          </g>
                        </g>
                      </g>
                    </g>
                  </g>
                </g>
              </g>
            </g>
          </g>
        </g>
      </g>
    </g>
    <g id="currency-exchange_6102091_1_" data-name="currency-exchange_6102091 (1)" transform="translate(4406.476 1788.476)">
      <g id="Grupo_1207405" data-name="Grupo 1207405" transform="translate(1 1)">
        <g id="Grupo_1207401" data-name="Grupo 1207401">
          <g id="Grupo_1207400" data-name="Grupo 1207400">
            <g id="Grupo_1207394" data-name="Grupo 1207394">
              <g id="Grupo_1207386" data-name="Grupo 1207386" transform="translate(0.925 0.925)">
                <path id="Trazado_1051335" data-name="Trazado 1051335" d="M31.56,16.765A14.795,14.795,0,1,1,9.239,4.03a14.623,14.623,0,0,1,7.526-2.06A14.79,14.79,0,0,1,31.56,16.765Z" transform="translate(-1.97 -1.97)" fill="#ffab03"/>
              </g>
              <g id="Grupo_1207387" data-name="Grupo 1207387" transform="translate(7.583 0.935)" opacity="0.3">
                <path id="Trazado_1051336" data-name="Trazado 1051336" d="M31.881,16.765A14.81,14.81,0,0,1,31.271,21,14.8,14.8,0,0,1,9.56,4.04a14.623,14.623,0,0,1,7.526-2.06A14.776,14.776,0,0,1,31.881,16.765Z" transform="translate(-8.95 -1.98)" fill="#fff"/>
              </g>
              <g id="Grupo_1207388" data-name="Grupo 1207388">
                <path id="Trazado_1051337" data-name="Trazado 1051337" d="M16.73,32.45A15.726,15.726,0,1,1,30.466,24.37a.925.925,0,1,1-1.612-.906,13.871,13.871,0,1,0-2.432,3.186.924.924,0,0,1,1.288,1.326A15.663,15.663,0,0,1,16.73,32.45Z" transform="translate(-1 -1)"/>
              </g>
              <g id="Grupo_1207389" data-name="Grupo 1207389" transform="translate(4.216 4.207)">
                <path id="Trazado_1051338" data-name="Trazado 1051338" d="M16.933,28.446A11.527,11.527,0,0,1,5.42,16.933a.925.925,0,0,1,1.851,0,9.633,9.633,0,1,0,.353-2.623A.927.927,0,0,1,5.84,13.8,11.515,11.515,0,1,1,16.933,28.446Z" transform="translate(-5.42 -5.41)"/>
              </g>
              <g id="Grupo_1207393" data-name="Grupo 1207393" transform="translate(12.477 8.528)">
                <g id="Grupo_1207390" data-name="Grupo 1207390" transform="translate(0 1.622)">
                  <path id="Trazado_1051339" data-name="Trazado 1051339" d="M17.333,22.8a3.257,3.257,0,0,1-3.253-3.253.925.925,0,0,1,1.851,0,1.4,1.4,0,1,0,1.4-1.4,3.253,3.253,0,1,1,3.253-3.253.925.925,0,1,1-1.851,0,1.4,1.4,0,1,0-1.4,1.4,3.253,3.253,0,1,1,0,6.506Z" transform="translate(-14.08 -11.64)"/>
                </g>
                <g id="Grupo_1207391" data-name="Grupo 1207391" transform="translate(2.327)">
                  <path id="Trazado_1051340" data-name="Trazado 1051340" d="M17.445,13.4a.92.92,0,0,1-.925-.925V10.865a.925.925,0,1,1,1.851,0v1.612a.939.939,0,0,1-.925.925Z" transform="translate(-16.52 -9.94)"/>
                </g>
                <g id="Grupo_1207392" data-name="Grupo 1207392" transform="translate(2.327 10.932)">
                  <path id="Trazado_1051341" data-name="Trazado 1051341" d="M17.445,24.863a.92.92,0,0,1-.925-.925V22.325a.925.925,0,1,1,1.851,0v1.612A.939.939,0,0,1,17.445,24.863Z" transform="translate(-16.52 -21.4)"/>
                </g>
              </g>
            </g>
            <g id="Grupo_1207399" data-name="Grupo 1207399" transform="translate(29.599 29.609)">
              <g id="Grupo_1207395" data-name="Grupo 1207395" transform="translate(0.925 0.916)">
                <path id="Trazado_1051342" data-name="Trazado 1051342" d="M56.981,59.413a14.77,14.77,0,1,1,5-7.383,14.894,14.894,0,0,1-5,7.383" transform="translate(-33 -33)" fill="#7ca444"/>
              </g>
              <g id="Grupo_1207396" data-name="Grupo 1207396" transform="translate(7.583 0.925)" opacity="0.3">
                <path id="Trazado_1051343" data-name="Trazado 1051343" d="M62.911,47.8a14.81,14.81,0,0,1-.61,4.235A14.8,14.8,0,0,1,40.59,35.07a14.623,14.623,0,0,1,7.526-2.06A14.782,14.782,0,0,1,62.911,47.8Z" transform="translate(-39.98 -33.01)" fill="#fff"/>
              </g>
              <g id="Grupo_1207397" data-name="Grupo 1207397">
                <path id="Trazado_1051344" data-name="Trazado 1051344" d="M47.75,63.48A15.721,15.721,0,1,1,60.618,56.8a.924.924,0,1,1-1.507-1.068,13.8,13.8,0,1,0-3.692,3.606.922.922,0,1,1,1.021,1.536,15.77,15.77,0,0,1-8.69,2.6Z" transform="translate(-32.03 -32.04)"/>
              </g>
              <g id="Grupo_1207398" data-name="Grupo 1207398" transform="translate(4.207 4.207)">
                <path id="Trazado_1051345" data-name="Trazado 1051345" d="M47.953,59.477A11.513,11.513,0,1,1,59.467,47.963,11.527,11.527,0,0,1,47.953,59.477Zm0-21.186a9.663,9.663,0,1,0,9.663,9.663A9.675,9.675,0,0,0,47.953,38.291Z" transform="translate(-36.44 -36.45)"/>
              </g>
            </g>
          </g>
        </g>
        <g id="Grupo_1207404" data-name="Grupo 1207404" transform="translate(39.186 39.314)">
          <g id="Grupo_1207402" data-name="Grupo 1207402" transform="translate(1.741)">
            <path id="Trazado_1051346" data-name="Trazado 1051346" d="M49.919,54.248a6.018,6.018,0,1,1,4.254-10.273.924.924,0,0,1-1.307,1.307,4.168,4.168,0,0,0-5.9,5.9,4.168,4.168,0,0,0,5.9,0,.924.924,0,0,1,1.307,1.307A5.99,5.99,0,0,1,49.919,54.248Z" transform="translate(-43.905 -42.215)"/>
          </g>
          <g id="Grupo_1207403" data-name="Grupo 1207403" transform="translate(0 5.089)">
            <path id="Trazado_1051347" data-name="Trazado 1051347" d="M48.776,49.4H43.005a.925.925,0,0,1,0-1.851h5.771a.925.925,0,0,1,0,1.851Z" transform="translate(-42.08 -47.55)"/>
          </g>
        </g>
      </g>
      <g id="Grupo_1207410" data-name="Grupo 1207410" transform="translate(4.677 3.554)">
        <g id="Grupo_1207406" data-name="Grupo 1207406" transform="translate(0.94 30.451)">
          <path id="Trazado_1051348" data-name="Trazado 1051348" d="M16.514,43.584H13.471a12.2,12.2,0,0,0,11.056,11.99v4.588A16.757,16.757,0,0,1,8.892,43.575H5.84L11.182,35.6Z" transform="translate(-5.84 -35.6)" fill="#4e6575"/>
        </g>
        <g id="Grupo_1207407" data-name="Grupo 1207407" transform="translate(34.068 0.928)">
          <path id="Trazado_1051349" data-name="Trazado 1051349" d="M48.583,21.238h3.043A12.2,12.2,0,0,0,40.57,9.248V4.65A16.757,16.757,0,0,1,56.2,21.238h3.052l-5.342,7.975Z" transform="translate(-40.57 -4.65)" fill="#4e6575"/>
        </g>
        <g id="Grupo_1207408" data-name="Grupo 1207408" transform="translate(0 29.535)">
          <path id="Trazado_1051350" data-name="Trazado 1051350" d="M24.481,61.044h-.057A17.752,17.752,0,0,1,7.95,44.465H5.785a.939.939,0,0,1-.82-.486.927.927,0,0,1,.048-.954l5.342-7.975a.921.921,0,0,1,.773-.41.934.934,0,0,1,.773.41l5.342,7.975a.924.924,0,0,1-.773,1.44H14.4A11.223,11.223,0,0,0,24.567,54.614a.924.924,0,0,1,.839.925v4.588a.925.925,0,0,1-.3.677.957.957,0,0,1-.63.238ZM7.521,42.615H8.847a.916.916,0,0,1,.916.916A15.9,15.9,0,0,0,23.556,59.1V56.341A13.063,13.063,0,0,1,12.5,43.54a.931.931,0,0,1,.267-.658.908.908,0,0,1,.649-.267h1.316l-3.606-5.389Z" transform="translate(-4.855 -34.64)"/>
        </g>
        <g id="Grupo_1207409" data-name="Grupo 1207409" transform="translate(33.143)">
          <path id="Trazado_1051351" data-name="Trazado 1051351" d="M53.88,30.084a.934.934,0,0,1-.773-.41L47.765,21.7a.924.924,0,0,1,.773-1.44h2.07A11.223,11.223,0,0,0,40.439,10.109a.924.924,0,0,1-.839-.925V4.605a.925.925,0,0,1,.3-.677.939.939,0,0,1,.7-.248A17.768,17.768,0,0,1,57.066,20.258h2.165a.939.939,0,0,1,.82.486A.928.928,0,0,1,60,21.7l-5.342,7.975a.977.977,0,0,1-.782.41Zm-3.606-7.965,3.606,5.389,3.606-5.389H56.159a.93.93,0,0,1-.925-.916A15.9,15.9,0,0,0,41.441,5.635V8.392A13.063,13.063,0,0,1,52.5,21.193a.928.928,0,0,1-.925.935h-1.3Z" transform="translate(-39.6 -3.677)"/>
        </g>
      </g>
    </g>
  </g>
</svg>
