<svg xmlns="http://www.w3.org/2000/svg" xmlns:xlink="http://www.w3.org/1999/xlink" width="103" height="103" viewBox="0 0 103 103">
  <defs>
    <filter id="Trazado_982547" x="0" y="0" width="103" height="103" filterUnits="userSpaceOnUse">
      <feOffset dy="3" input="SourceAlpha"/>
      <feGaussianBlur stdDeviation="3" result="blur"/>
      <feFlood flood-opacity="0.161"/>
      <feComposite operator="in" in2="blur"/>
      <feComposite in="SourceGraphic"/>
    </filter>
  </defs>
  <g id="Grupo_1207429" data-name="Grupo 1207429" transform="translate(-611 -3927.5)">
    <g id="Grupo_1207296" data-name="Grupo 1207296" transform="translate(0 3183.5)">
      <g id="Grupo_1202210" data-name="Grupo 1202210" transform="translate(340 -126.414)">
        <g id="Grupo_1174813" data-name="Grupo 1174813" transform="translate(280 876.414)">
          <g id="Grupo_1201680" data-name="Grupo 1201680">
            <g id="Grupo_1201330" data-name="Grupo 1201330">
              <g id="Grupo_1172010" data-name="Grupo 1172010">
                <g id="Grupo_1171046" data-name="Grupo 1171046">
                  <g id="Grupo_1148525" data-name="Grupo 1148525">
                    <g transform="matrix(1, 0, 0, 1, -9, -6)" filter="url(#Trazado_982547)">
                      <g id="Trazado_982547-2" data-name="Trazado 982547" transform="translate(9 6)" fill="#f2f7e5">
                        <path d="M 42.5 83.5 C 36.96437835693359 83.5 31.59512901306152 82.41617584228516 26.54141235351562 80.27863311767578 C 21.65934181213379 78.21369171142578 17.27447128295898 75.25723266601562 13.50862312316895 71.49137878417969 C 9.742764472961426 67.72553253173828 6.786305904388428 63.34066009521484 4.721364498138428 58.45858764648438 C 2.583823442459106 53.40486907958984 1.5 48.03562164306641 1.5 42.5 C 1.5 36.96437835693359 2.583823442459106 31.59512901306152 4.721364498138428 26.54141235351562 C 6.786305904388428 21.65934181213379 9.742764472961426 17.27448272705078 13.50862312316895 13.50862312316895 C 17.27447128295898 9.742776870727539 21.65934181213379 6.786305904388428 26.54141235351562 4.721364498138428 C 31.59512901306152 2.583823442459106 36.96437835693359 1.5 42.5 1.5 C 48.03562164306641 1.5 53.40486907958984 2.583823442459106 58.45858764648438 4.721364498138428 C 63.34066009521484 6.786305904388428 67.72553253173828 9.742776870727539 71.49137878417969 13.50862312316895 C 75.25723266601562 17.27448272705078 78.21369171142578 21.65934181213379 80.27863311767578 26.54141235351562 C 82.41617584228516 31.59512901306152 83.5 36.96437835693359 83.5 42.5 C 83.5 48.03562164306641 82.41617584228516 53.40486907958984 80.27863311767578 58.45858764648438 C 78.21369171142578 63.34066009521484 75.25723266601562 67.72553253173828 71.49137878417969 71.49137878417969 C 67.72553253173828 75.25723266601562 63.34066009521484 78.21369171142578 58.45858764648438 80.27863311767578 C 53.40486907958984 82.41617584228516 48.03562164306641 83.5 42.5 83.5 Z" stroke="none"/>
                        <path d="M 42.5 3 C 37.16621398925781 3 31.99356079101562 4.043960571289062 27.125732421875 6.102882385253906 C 22.42246627807617 8.092185974121094 18.19785308837891 10.94070434570312 14.56928253173828 14.56928253173828 C 10.94070434570312 18.19785308837891 8.092185974121094 22.42246627807617 6.102882385253906 27.125732421875 C 4.043960571289062 31.99356079101562 3 37.16621398925781 3 42.5 C 3 47.83378601074219 4.043960571289062 53.00643920898438 6.102882385253906 57.874267578125 C 8.092185974121094 62.57753372192383 10.94070434570312 66.80214691162109 14.56928253173828 70.43071746826172 C 18.19785308837891 74.05929565429688 22.42246627807617 76.90781402587891 27.125732421875 78.89711761474609 C 31.99356079101562 80.95603942871094 37.16621398925781 82 42.5 82 C 47.83378601074219 82 53.00643920898438 80.95603942871094 57.874267578125 78.89711761474609 C 62.57753372192383 76.90781402587891 66.80214691162109 74.05929565429688 70.43071746826172 70.43071746826172 C 74.05929565429688 66.80214691162109 76.90781402587891 62.57753372192383 78.89711761474609 57.874267578125 C 80.95603942871094 53.00643920898438 82 47.83378601074219 82 42.5 C 82 37.16621398925781 80.95603942871094 31.99356079101562 78.89711761474609 27.125732421875 C 76.90781402587891 22.42246627807617 74.05929565429688 18.19785308837891 70.43071746826172 14.56928253173828 C 66.80214691162109 10.94070434570312 62.57753372192383 8.092185974121094 57.874267578125 6.102882385253906 C 53.00643920898438 4.043960571289062 47.83378601074219 3 42.5 3 M 42.5 0 C 65.97210693359375 0 85 19.02789306640625 85 42.5 C 85 65.97210693359375 65.97210693359375 85 42.5 85 C 19.02789306640625 85 0 65.97210693359375 0 42.5 C 0 19.02789306640625 19.02789306640625 0 42.5 0 Z" stroke="none" fill="#1d7083"/>
                      </g>
                    </g>
                  </g>
                </g>
              </g>
            </g>
          </g>
        </g>
      </g>
    </g>
    <g id="employees_1713272" transform="translate(636.047 3950.547)">
      <path id="Trazado_1051404" data-name="Trazado 1051404" d="M56,384H67.757v12.6H56Zm0,0" transform="translate(-50.122 -343.691)" fill="#79787d"/>
      <path id="Trazado_1051405" data-name="Trazado 1051405" d="M93.039,440H88v1.68h2.519v5.039H92.2V441.68h.84Zm0,0" transform="translate(-78.763 -393.812)" fill="#626169"/>
      <path id="Trazado_1051406" data-name="Trazado 1051406" d="M67.757,384H56v12.6h1.68V386.519H67.757Zm0,0" transform="translate(-50.122 -343.691)" fill="#626169"/>
      <path id="Trazado_1051407" data-name="Trazado 1051407" d="M96,456h1.68v5.039H96Zm0,0" transform="translate(-85.923 -408.133)" fill="#9b9a9e"/>
      <path id="Trazado_1051408" data-name="Trazado 1051408" d="M152,384h1.68v12.6H152Zm0,0" transform="translate(-136.044 -343.691)" fill="#9b9a9e"/>
      <path id="Trazado_1051409" data-name="Trazado 1051409" d="M73.68,224l2.519,2.519-.857.218-2.5.622L72,224Zm0,0" transform="translate(-64.442 -200.486)" fill="#62d2f5"/>
      <path id="Trazado_1051410" data-name="Trazado 1051410" d="M112,226.519,114.519,224h1.68l-.84,3.359-2.5-.622Zm0,0" transform="translate(-100.243 -200.486)" fill="#62d2f5"/>
      <path id="Trazado_1051411" data-name="Trazado 1051411" d="M98.536,248.218l.823,9.019-1.68,1.68L96,257.237l.823-9.019.857-.218Zm0,0" transform="translate(-85.923 -221.967)" fill="#62d2f5"/>
      <path id="Trazado_1051412" data-name="Trazado 1051412" d="M61.436,48l-1.68,3.359,1.68.84-1.68,2.519h-4.2L52.2,51.359,49.68,53.878,48,52.2v-1.68L50.519,48Zm0,0" transform="translate(-42.962 -42.961)" fill="#626169"/>
      <path id="Trazado_1051413" data-name="Trazado 1051413" d="M42.519,120v4.2a4.526,4.526,0,0,0,.075.832l-.075.008a2.519,2.519,0,1,1,0-5.039Zm0,0" transform="translate(-35.801 -107.403)" fill="#ffb680"/>
      <path id="Trazado_1051414" data-name="Trazado 1051414" d="M161.876,122.519a2.519,2.519,0,0,1-2.519,2.519l-.075-.008a4.525,4.525,0,0,0,.075-.832V120A2.519,2.519,0,0,1,161.876,122.519Zm0,0" transform="translate(-142.561 -107.403)" fill="#ffb680"/>
      <path id="Trazado_1051415" data-name="Trazado 1051415" d="M93.039,201.52v2.36L90.519,206.4,88,203.88v-2.36A5.005,5.005,0,0,0,93.039,201.52Zm0,0" transform="translate(-78.763 -180.366)" fill="#ffb680"/>
      <path id="Trazado_1051416" data-name="Trazado 1051416" d="M71.558,92.757a5.032,5.032,0,0,1-7.483-3.527A4.526,4.526,0,0,1,64,88.4V82.52L66.519,80l3.359,3.359h4.2V88.4A4.526,4.526,0,0,1,74,89.23a4.924,4.924,0,0,1-1.4,2.729A4.839,4.839,0,0,1,71.558,92.757Zm0,0" transform="translate(-57.282 -71.603)" fill="#ffdaaa"/>
      <path id="Trazado_1051417" data-name="Trazado 1051417" d="M12.2,369.68h.84V372.2h-1.68A3.359,3.359,0,0,1,8,368.84V368h3.359v.84A.84.84,0,0,0,12.2,369.68Zm0,0" transform="translate(-7.16 -329.37)" fill="#ffdaaa"/>
      <path id="Trazado_1051418" data-name="Trazado 1051418" d="M168.84,369.68a.84.84,0,0,0,.84-.84V368h3.359v.84a3.359,3.359,0,0,1-3.359,3.359H168V369.68Zm0,0" transform="translate(-150.365 -329.37)" fill="#ffdaaa"/>
      <path id="Trazado_1051419" data-name="Trazado 1051419" d="M11.359,239.116H8V227.359L11.359,224h3.359l.84,3.359,2.5-.622-.823,9.019,1.68,1.68,1.68-1.68-.823-9.019,2.5.622.84-3.359h3.359l3.359,3.359v11.757H26.475v.84a.84.84,0,0,1-.84.84H12.2a.84.84,0,0,1-.84-.84Zm0,0" transform="translate(-7.16 -200.486)" fill="#fefcff"/>
      <path id="Trazado_1051420" data-name="Trazado 1051420" d="M65.017,48H54.1L52,50.1H62.917l-1.68,3.359,1.68.84-.28.42h.7l1.68-2.519-1.68-.84Zm0,0" transform="translate(-46.542 -42.961)" fill="#79787d"/>
      <path id="Trazado_1051421" data-name="Trazado 1051421" d="M90.519,202.2A4.92,4.92,0,0,1,88,201.52v1.68a5.005,5.005,0,0,0,5.039,0v-1.68A4.92,4.92,0,0,1,90.519,202.2Zm0,0" transform="translate(-78.763 -180.366)" fill="#eb975d"/>
      <path id="Trazado_1051422" data-name="Trazado 1051422" d="M69.878,83.359,66.519,80,64,82.519v2.519l2.519-2.519,3.359,3.359h4.2V83.359Zm0,0" transform="translate(-57.282 -71.602)" fill="#eb975d"/>
      <path id="Trazado_1051423" data-name="Trazado 1051423" d="M112.856,248.218,112,248v10.917l1.68-1.68Zm0,0" transform="translate(-100.243 -221.967)" fill="#cbf0fc"/>
      <path id="Trazado_1051424" data-name="Trazado 1051424" d="M24,264h1.68v10.917H24Zm0,0" transform="translate(-21.481 -236.287)" fill="#dedddf"/>
      <path id="Trazado_1051425" data-name="Trazado 1051425" d="M148.2,240l-4.2,4.2v10.917h3.359a.84.84,0,0,0,.84-.84v-.84h3.359V241.68l-1.68-1.68Zm0,0" transform="translate(-128.884 -214.807)" fill="#dedddf"/>
      <path id="Trazado_1051426" data-name="Trazado 1051426" d="M304,8V26.475h10.077v5.039l5.039-5.039h5.039V8Zm0,0" transform="translate(-272.089 -7.16)" fill="#96e1f8"/>
      <path id="Trazado_1051427" data-name="Trazado 1051427" d="M321.635,8H304v2.519h17.635V26.475h2.519V8Zm0,0" transform="translate(-272.089 -7.16)" fill="#2dc2f1"/>
      <path id="Trazado_1051428" data-name="Trazado 1051428" d="M304,8h1.68V26.475H304Zm0,0" transform="translate(-272.089 -7.16)" fill="#62d2f5"/>
      <path id="Trazado_1051429" data-name="Trazado 1051429" d="M253.039,241.52v2.36l-2.519,2.519L248,243.88v-2.36A5.005,5.005,0,0,0,253.039,241.52Zm0,0" transform="translate(-221.967 -216.167)" fill="#ffb680"/>
      <path id="Trazado_1051430" data-name="Trazado 1051430" d="M216,424h11.757v8.4H216Zm0,0" transform="translate(-193.326 -379.492)" fill="#ff8f5b"/>
      <path id="Trazado_1051431" data-name="Trazado 1051431" d="M253.039,480H248v1.68h2.519v.84h1.68v-.84h.84Zm0,0" transform="translate(-221.967 -429.613)" fill="#fd7732"/>
      <path id="Trazado_1051432" data-name="Trazado 1051432" d="M227.757,424H216v8.4h1.68v-5.878h10.077Zm0,0" transform="translate(-193.326 -379.492)" fill="#fd7732"/>
      <path id="Trazado_1051433" data-name="Trazado 1051433" d="M256,496h1.68v.84H256Zm0,0" transform="translate(-229.127 -443.934)" fill="#ffa980"/>
      <path id="Trazado_1051434" data-name="Trazado 1051434" d="M312,424h1.68v8.4H312Zm0,0" transform="translate(-279.249 -379.492)" fill="#ffa980"/>
      <path id="Trazado_1051435" data-name="Trazado 1051435" d="M221.436,88l-1.68,3.359,1.68.84-1.68,2.519h-4.2L212.2,91.359l-2.519,2.519L208,92.2v-1.68L210.519,88Zm0,0" transform="translate(-186.166 -78.762)" fill="#b25e1e"/>
      <path id="Trazado_1051436" data-name="Trazado 1051436" d="M225.017,88H214.1L212,90.1h10.917l-1.68,3.359,1.68.84-.28.42h.7l1.68-2.519-1.68-.84Zm0,0" transform="translate(-189.746 -78.762)" fill="#c46322"/>
      <path id="Trazado_1051437" data-name="Trazado 1051437" d="M258.536,288.218l.823,9.019-1.68,1.68-1.68-1.68.823-9.019.857-.218Zm0,0" transform="translate(-229.127 -257.768)" fill="#ff8f5b"/>
      <path id="Trazado_1051438" data-name="Trazado 1051438" d="M233.68,264l2.519,2.519-.857.218-2.5.622L232,264Zm0,0" transform="translate(-207.647 -236.287)" fill="#ff8f5b"/>
      <path id="Trazado_1051439" data-name="Trazado 1051439" d="M272,266.519,274.519,264h1.68l-.84,3.359-2.5-.622Zm0,0" transform="translate(-243.448 -236.287)" fill="#ff8f5b"/>
      <path id="Trazado_1051440" data-name="Trazado 1051440" d="M250.519,242.2a4.92,4.92,0,0,1-2.519-.68v1.68a5.005,5.005,0,0,0,5.039,0v-1.68A4.92,4.92,0,0,1,250.519,242.2Zm0,0" transform="translate(-221.967 -216.167)" fill="#eb975d"/>
      <path id="Trazado_1051441" data-name="Trazado 1051441" d="M202.519,160v4.2a4.528,4.528,0,0,0,.075.832l-.075.008a2.519,2.519,0,0,1,0-5.039Zm0,0" transform="translate(-179.006 -143.204)" fill="#ffb680"/>
      <path id="Trazado_1051442" data-name="Trazado 1051442" d="M321.876,162.519a2.519,2.519,0,0,1-2.519,2.519l-.075-.008a4.523,4.523,0,0,0,.075-.832V160A2.519,2.519,0,0,1,321.876,162.519Zm0,0" transform="translate(-285.766 -143.204)" fill="#ffb680"/>
      <path id="Trazado_1051443" data-name="Trazado 1051443" d="M231.558,132.757a5.032,5.032,0,0,1-7.483-3.527A4.525,4.525,0,0,1,224,128.4V122.52L226.519,120l3.359,3.359h4.2V128.4a4.528,4.528,0,0,1-.075.832,4.924,4.924,0,0,1-1.4,2.729,4.839,4.839,0,0,1-1.042.8Zm0,0" transform="translate(-200.486 -107.404)" fill="#ffdaaa"/>
      <path id="Trazado_1051444" data-name="Trazado 1051444" d="M229.878,123.359,226.519,120,224,122.519v2.519l2.519-2.519,3.359,3.359h4.2v-2.519Zm0,0" transform="translate(-200.486 -107.403)" fill="#eb975d"/>
      <path id="Trazado_1051445" data-name="Trazado 1051445" d="M172.2,409.68h.84V412.2h-1.68A3.359,3.359,0,0,1,168,408.84V408h3.359v.84A.84.84,0,0,0,172.2,409.68Zm0,0" transform="translate(-150.365 -365.171)" fill="#ffdaaa"/>
      <path id="Trazado_1051446" data-name="Trazado 1051446" d="M422.718,241.68l-1.68,1.68v3.359l-1.68,1.68L416,245.039,421.039,240Zm0,0" transform="translate(-372.332 -214.807)" fill="#ffdaaa"/>
      <path id="Trazado_1051447" data-name="Trazado 1051447" d="M435.359,240l-1.68,1.68v3.359l-1.68,1.68,1.68,1.68,1.68-1.68v-3.359l1.68-1.68Zm0,0" transform="translate(-386.652 -214.807)" fill="#ffb680"/>
      <path id="Trazado_1051448" data-name="Trazado 1051448" d="M171.359,279.116H168V267.359L171.359,264h3.359l.84,3.359,2.5-.622-.823,9.019,1.68,1.68,1.68-1.68-.823-9.019,2.5.622.84-3.359h3.359l5.039,5.039,2.519-2.519,3.359,3.359-5.878,5.878-5.039-5.039v9.238a.84.84,0,0,1-.84.84H172.2a.84.84,0,0,1-.84-.84Zm0,0" transform="translate(-150.365 -236.287)" fill="#fefcff"/>
      <path id="Trazado_1051449" data-name="Trazado 1051449" d="M171.359,279.116H168V267.359L171.359,264h3.359l.84,3.359,2.5-.622-.823,9.019,1.68,1.68,1.68-1.68-.823-9.019,2.5.622.84-3.359h3.359l5.039,5.039,2.519-2.519,3.359,3.359-5.878,5.878-5.039-5.039v9.238a.84.84,0,0,1-.84.84H172.2a.84.84,0,0,1-.84-.84Zm0,0" transform="translate(-150.365 -236.287)" fill="#fefcff"/>
      <path id="Trazado_1051450" data-name="Trazado 1051450" d="M349.039,304.4,344,299.359V296l5.039,5.039,4.2-4.2,1.68,1.68Zm0,0" transform="translate(-307.89 -264.928)" fill="#dedddf"/>
      <path id="Trazado_1051451" data-name="Trazado 1051451" d="M184,304h1.68v10.917H184Zm0,0" transform="translate(-164.685 -272.088)" fill="#dedddf"/>
      <path id="Trazado_1051452" data-name="Trazado 1051452" d="M272.856,288.218,272,288v10.917l1.68-1.68Zm0,0" transform="translate(-243.448 -257.768)" fill="#fd7732"/>
      <g id="Grupo_1207428" data-name="Grupo 1207428" transform="translate(0)">
        <path id="Trazado_1051453" data-name="Trazado 1051453" d="M248,473.68h1.68v1.68h1.68v-1.68h1.68V472H248Zm0,0" transform="translate(-221.967 -422.453)" fill="#24131a"/>
        <path id="Trazado_1051454" data-name="Trazado 1051454" d="M49.3,60.4a.84.84,0,0,0-1.187,0l-6.964,6.964L36.7,62.92a.84.84,0,0,0-.594-.246h-4.2V61.612a5.893,5.893,0,0,0,2.288-3.2,3.346,3.346,0,0,0,.306-6.514l1.464-2.2a.84.84,0,0,0-.324-1.218l-.928-.463,1.308-2.609A.84.84,0,0,0,35.27,44.2H24.353a.84.84,0,0,0-.594.246L21.24,46.964a.84.84,0,0,0-.246.594v1.68a.84.84,0,0,0,.246.594l1.434,1.434v.611a3.347,3.347,0,0,0,.232,6.537,5.893,5.893,0,0,0,2.288,3.2v1.062h-1.68a.84.84,0,0,0-.246-.594l-3.359-3.359a.84.84,0,0,0-.594-.246h-4.2V57.413a5.893,5.893,0,0,0,2.288-3.2A3.346,3.346,0,0,0,17.71,47.7l1.464-2.2a.84.84,0,0,0-.324-1.218l-.928-.463,1.308-2.609A.84.84,0,0,0,18.475,40H7.558a.84.84,0,0,0-.594.246L4.445,42.765a.84.84,0,0,0-.246.594v1.68a.84.84,0,0,0,.246.594l1.434,1.434v.611a3.347,3.347,0,0,0,.232,6.537,5.893,5.893,0,0,0,2.288,3.2v1.062H4.2a.84.84,0,0,0-.594.246L.246,62.08A.84.84,0,0,0,0,62.674v12.6a4.2,4.2,0,0,0,4.2,4.2h.84v9.238h1.68V76.95H16.8V79.47a4.2,4.2,0,0,0,4.2,4.2h.84v5.039h1.68V81.149H33.591v7.558h1.68V81.149a1.68,1.68,0,0,0,1.68-1.68v-7.21l3.605,3.605a.84.84,0,0,0,1.187,0L49.3,68.306a.84.84,0,0,0,.246-.594V64.7l1.434-1.434a.84.84,0,0,0,0-1.187ZM29.36,74.955l-.808.808-.808-.808.732-8.037.076-.02.076.02Zm-3.675-10.6,1.224,1.224-1.105.276-.376-1.5Zm4.51,1.224,1.224-1.224h.252l-.375,1.5ZM35.27,55.116a1.674,1.674,0,0,1-.84,1.446V53.67a1.674,1.674,0,0,1,.84,1.446Zm-13.436,0a1.674,1.674,0,0,1,.84-1.446v2.892a1.674,1.674,0,0,1-.84-1.446Zm.84-6.226v-.984L24.7,45.878h9.21l-1.076,2.144a.84.84,0,0,0,.376,1.127l.829.414-.9,1.354h-3.4L26.627,47.8a.84.84,0,0,0-1.187,0L23.514,49.73Zm1.68,7.906V51.265l1.68-1.68L28.8,52.351a.84.84,0,0,0,.594.246h3.359v4.2a4.2,4.2,0,1,1-8.4,0Zm4.2,5.878a5.842,5.842,0,0,0,1.68-.252v.74l-1.68,1.68-1.68-1.68v-.74A5.842,5.842,0,0,0,28.552,62.674ZM12.564,70.756l-.808.808-.808-.808.732-8.037.076-.02.076.02ZM8.89,60.155l1.224,1.224-1.105.276-.376-1.5Zm4.51,1.224,1.224-1.224h.252l-.375,1.5Zm5.076-10.462a1.674,1.674,0,0,1-.84,1.446V49.471a1.674,1.674,0,0,1,.84,1.446Zm-13.436,0a1.674,1.674,0,0,1,.84-1.446v2.892a1.674,1.674,0,0,1-.84-1.446Zm.84-6.226v-.984L7.905,41.68h9.21l-1.072,2.144a.84.84,0,0,0,.376,1.127l.829.414-.9,1.354h-3.4L9.831,43.605a.84.84,0,0,0-1.187,0L6.718,45.531ZM7.558,52.6V47.066l1.68-1.68L12,48.152a.84.84,0,0,0,.594.246h3.359v4.2a4.2,4.2,0,1,1-8.4,0Zm4.2,5.878a5.842,5.842,0,0,0,1.68-.252v.74l-1.68,1.68-1.68-1.68v-.74A5.842,5.842,0,0,0,11.757,58.475ZM5.038,77.79H4.2a2.519,2.519,0,0,1-2.519-2.519h1.68a1.68,1.68,0,0,0,1.68,1.68Zm0-2.519V63.514H3.359V73.591H1.679V63.022l2.867-2.867H6.9l.68,2.724a.84.84,0,0,0,.815.636.817.817,0,0,0,.2-.025l1.353-.336L9.237,71a.841.841,0,0,0,.243.672l1.68,1.68a.839.839,0,0,0,1.187,0l1.68-1.68A.841.841,0,0,0,14.269,71l-.713-7.846,1.353.336a.82.82,0,0,0,.207.028.84.84,0,0,0,.814-.636l.681-2.724h2.357l2.519,2.519h-.492a.84.84,0,0,0-.594.246l-3.359,3.359a.84.84,0,0,0-.246.594v8.4Zm16.8,6.718h-.84a2.519,2.519,0,0,1-2.519-2.519h1.68a1.68,1.68,0,0,0,1.68,1.68Zm19.315-7.906-4.2-4.2V67.713H35.27V79.47H21.834V67.713h-1.68V77.79h-1.68V67.221l2.867-2.867H23.7l.68,2.724a.84.84,0,0,0,.815.636.817.817,0,0,0,.2-.025l1.353-.336L26.033,75.2a.841.841,0,0,0,.243.672l1.68,1.68a.839.839,0,0,0,1.187,0l1.68-1.68a.841.841,0,0,0,.243-.672l-.713-7.846,1.353.336a.82.82,0,0,0,.207.028.84.84,0,0,0,.814-.636l.681-2.724h2.357l4.793,4.793a.84.84,0,0,0,1.188,0l1.926-1.926,2.172,2.172ZM48.113,63.76a.84.84,0,0,0-.246.594v3.011l-.84.84-2.172-2.172,3.851-3.851.492.492Zm0,0" transform="translate(0 -35.801)" fill="#24131a"/>
        <path id="Trazado_1051455" data-name="Trazado 1051455" d="M160,456h1.68v5.039H160Zm0,0" transform="translate(-143.204 -408.133)" fill="#24131a"/>
        <path id="Trazado_1051456" data-name="Trazado 1051456" d="M88,433.68h1.68v5.878h1.68V433.68h1.68V432H88Zm0,0" transform="translate(-78.762 -386.652)" fill="#24131a"/>
        <path id="Trazado_1051457" data-name="Trazado 1051457" d="M316.994,0H296.84a.84.84,0,0,0-.84.84V6.718h1.68V1.68h18.475v16.8h-4.2a.84.84,0,0,0-.594.246l-3.605,3.605V19.315a.84.84,0,0,0-.84-.84h-3.359v1.68h2.519v4.2a.84.84,0,0,0,1.434.594l4.793-4.793h4.691a.84.84,0,0,0,.84-.84V.84A.84.84,0,0,0,316.994,0Zm0,0" transform="translate(-264.928)" fill="#24131a"/>
        <path id="Trazado_1051458" data-name="Trazado 1051458" d="M358.3,58.5a.84.84,0,0,0,.594-.246l6.718-6.718-1.187-1.187L358.3,56.468,355.531,53.7l-1.187,1.188,3.359,3.359A.84.84,0,0,0,358.3,58.5Zm0,0" transform="translate(-317.147 -45.059)" fill="#24131a"/>
      </g>
    </g>
  </g>
</svg>
