<svg xmlns="http://www.w3.org/2000/svg" xmlns:xlink="http://www.w3.org/1999/xlink" width="103" height="103" viewBox="0 0 103 103">
  <defs>
    <filter id="Trazado_982547" x="0" y="0" width="103" height="103" filterUnits="userSpaceOnUse">
      <feOffset dy="3" input="SourceAlpha"/>
      <feGaussianBlur stdDeviation="3" result="blur"/>
      <feFlood flood-opacity="0.161"/>
      <feComposite operator="in" in2="blur"/>
      <feComposite in="SourceGraphic"/>
    </filter>
  </defs>
  <g id="Grupo_1207455" data-name="Grupo 1207455" transform="translate(-611 -4093)">
    <g id="Grupo_1202419" data-name="Grupo 1202419" transform="translate(0 3349)">
      <g id="Grupo_1202210" data-name="Grupo 1202210" transform="translate(340 -126.414)">
        <g id="Grupo_1174813" data-name="Grupo 1174813" transform="translate(280 876.414)">
          <g id="Grupo_1201680" data-name="Grupo 1201680">
            <g id="Grupo_1201330" data-name="Grupo 1201330">
              <g id="Grupo_1172010" data-name="Grupo 1172010">
                <g id="Grupo_1171046" data-name="Grupo 1171046">
                  <g id="Grupo_1148525" data-name="Grupo 1148525">
                    <g transform="matrix(1, 0, 0, 1, -9, -6)" filter="url(#Trazado_982547)">
                      <g id="Trazado_982547-2" data-name="Trazado 982547" transform="translate(9 6)" fill="#f2f7e5">
                        <path d="M 42.5 83.5 C 36.96437835693359 83.5 31.59512901306152 82.41617584228516 26.54141235351562 80.27863311767578 C 21.65934181213379 78.21369171142578 17.27447128295898 75.25723266601562 13.50862312316895 71.49137878417969 C 9.742764472961426 67.72553253173828 6.786305904388428 63.34066009521484 4.721364498138428 58.45858764648438 C 2.583823442459106 53.40486907958984 1.5 48.03562164306641 1.5 42.5 C 1.5 36.96437835693359 2.583823442459106 31.59512901306152 4.721364498138428 26.54141235351562 C 6.786305904388428 21.65934181213379 9.742764472961426 17.27448272705078 13.50862312316895 13.50862312316895 C 17.27447128295898 9.742776870727539 21.65934181213379 6.786305904388428 26.54141235351562 4.721364498138428 C 31.59512901306152 2.583823442459106 36.96437835693359 1.5 42.5 1.5 C 48.03562164306641 1.5 53.40486907958984 2.583823442459106 58.45858764648438 4.721364498138428 C 63.34066009521484 6.786305904388428 67.72553253173828 9.742776870727539 71.49137878417969 13.50862312316895 C 75.25723266601562 17.27448272705078 78.21369171142578 21.65934181213379 80.27863311767578 26.54141235351562 C 82.41617584228516 31.59512901306152 83.5 36.96437835693359 83.5 42.5 C 83.5 48.03562164306641 82.41617584228516 53.40486907958984 80.27863311767578 58.45858764648438 C 78.21369171142578 63.34066009521484 75.25723266601562 67.72553253173828 71.49137878417969 71.49137878417969 C 67.72553253173828 75.25723266601562 63.34066009521484 78.21369171142578 58.45858764648438 80.27863311767578 C 53.40486907958984 82.41617584228516 48.03562164306641 83.5 42.5 83.5 Z" stroke="none"/>
                        <path d="M 42.5 3 C 37.16621398925781 3 31.99356079101562 4.043960571289062 27.125732421875 6.102882385253906 C 22.42246627807617 8.092185974121094 18.19785308837891 10.94070434570312 14.56928253173828 14.56928253173828 C 10.94070434570312 18.19785308837891 8.092185974121094 22.42246627807617 6.102882385253906 27.125732421875 C 4.043960571289062 31.99356079101562 3 37.16621398925781 3 42.5 C 3 47.83378601074219 4.043960571289062 53.00643920898438 6.102882385253906 57.874267578125 C 8.092185974121094 62.57753372192383 10.94070434570312 66.80214691162109 14.56928253173828 70.43071746826172 C 18.19785308837891 74.05929565429688 22.42246627807617 76.90781402587891 27.125732421875 78.89711761474609 C 31.99356079101562 80.95603942871094 37.16621398925781 82 42.5 82 C 47.83378601074219 82 53.00643920898438 80.95603942871094 57.874267578125 78.89711761474609 C 62.57753372192383 76.90781402587891 66.80214691162109 74.05929565429688 70.43071746826172 70.43071746826172 C 74.05929565429688 66.80214691162109 76.90781402587891 62.57753372192383 78.89711761474609 57.874267578125 C 80.95603942871094 53.00643920898438 82 47.83378601074219 82 42.5 C 82 37.16621398925781 80.95603942871094 31.99356079101562 78.89711761474609 27.125732421875 C 76.90781402587891 22.42246627807617 74.05929565429688 18.19785308837891 70.43071746826172 14.56928253173828 C 66.80214691162109 10.94070434570312 62.57753372192383 8.092185974121094 57.874267578125 6.102882385253906 C 53.00643920898438 4.043960571289062 47.83378601074219 3 42.5 3 M 42.5 0 C 65.97210693359375 0 85 19.02789306640625 85 42.5 C 85 65.97210693359375 65.97210693359375 85 42.5 85 C 19.02789306640625 85 0 65.97210693359375 0 42.5 C 0 19.02789306640625 19.02789306640625 0 42.5 0 Z" stroke="none" fill="#1d7083"/>
                      </g>
                    </g>
                  </g>
                </g>
              </g>
            </g>
          </g>
        </g>
      </g>
    </g>
    <g id="stakeholder_1875700" transform="translate(635.411 4114.411)">
      <path id="Trazado_1051499" data-name="Trazado 1051499" d="M11.435,40a9.435,9.435,0,0,1,0,18.87H2V49.435A9.429,9.429,0,0,1,11.435,40Z" transform="translate(-0.142 -5.549)" fill="#fcd770"/>
      <path id="Trazado_1051500" data-name="Trazado 1051500" d="M21.744,38.271l1.818,1.818-1.132,1.835a12.567,12.567,0,0,1,1.484,3.585l2.1.5v5.146l-2.1.5a12.567,12.567,0,0,1-1.484,3.585l1.012,1.921v.858H11.435A9.435,9.435,0,1,0,2,48.581V36.573h.858l1.921,1.012A12.567,12.567,0,0,1,8.364,36.1l.5-2.1h5.146l.5,2.1a12.567,12.567,0,0,1,3.585,1.484l1.835-1.132Z" transform="translate(-0.142 -4.696)" fill="#ffc729"/>
      <circle id="Elipse_13402" data-name="Elipse 13402" cx="9.5" cy="9.5" r="9.5" transform="translate(34.589 1.589)" fill="#e6e9ed"/>
      <circle id="Elipse_13403" data-name="Elipse 13403" cx="9.5" cy="9.5" r="9.5" transform="translate(1.589 1.589)" fill="#e6e9ed"/>
      <path id="Trazado_1051501" data-name="Trazado 1051501" d="M18.008,20.416v.009A9.448,9.448,0,0,1,6,20.424V20a6,6,0,1,1,12.008,0Z" transform="translate(-0.711 -1.85)" fill="#b4dd7f"/>
      <path id="Trazado_1051502" data-name="Trazado 1051502" d="M56.008,20.416v.009a9.448,9.448,0,0,1-12.008,0V20a6,6,0,1,1,12.008,0Z" transform="translate(-6.119 -1.85)" fill="#3bafda"/>
      <circle id="Elipse_13404" data-name="Elipse 13404" cx="9.5" cy="9.5" r="9.5" transform="translate(34.589 34.589)" fill="#e6e9ed"/>
      <path id="Trazado_1051503" data-name="Trazado 1051503" d="M56.008,58.416v.009a9.448,9.448,0,0,1-12.008,0V58a6,6,0,1,1,12.008,0Z" transform="translate(-6.119 -7.257)" fill="#b4dd7f"/>
      <g id="Grupo_1207454" data-name="Grupo 1207454" transform="translate(7.862 5.289)">
        <circle id="Elipse_13405" data-name="Elipse 13405" cx="3.5" cy="3.5" r="3.5" transform="translate(32.727 32.3)" fill="#f0d0b4"/>
        <circle id="Elipse_13406" data-name="Elipse 13406" cx="3.5" cy="3.5" r="3.5" transform="translate(-0.273 0.3)" fill="#f0d0b4"/>
        <circle id="Elipse_13407" data-name="Elipse 13407" cx="3.5" cy="3.5" r="3.5" transform="translate(32.727 0.3)" fill="#f0d0b4"/>
      </g>
      <path id="Trazado_1051504" data-name="Trazado 1051504" d="M43.885,33.593a10.3,10.3,0,0,0-10.249,9.435H26.731V40.633l-2.26-.532a13.641,13.641,0,0,0-1.184-2.858l1.222-1.974-1.693-1.693L37.247,19.145a10.308,10.308,0,1,0-1.214-1.213L21.6,32.362,19.91,30.669l-1.974,1.222a13.644,13.644,0,0,0-2.858-1.185l-.533-2.259H12.15V21.541a10.292,10.292,0,1,0-1.715,0v6.905H8.04l-.532,2.259a13.656,13.656,0,0,0-2.893,1.2l-1.687-.89H1V54.178H24.158V52.25l-.891-1.688a13.619,13.619,0,0,0,1.2-2.893l2.26-.531V44.743h6.905a10.289,10.289,0,1,0,10.249-11.15ZM38.74,18.139a5.145,5.145,0,0,1,10.291,0,8.513,8.513,0,0,1-10.291,0Zm2.572-9.419a2.573,2.573,0,1,1,2.573,2.573A2.576,2.576,0,0,1,41.312,8.719Zm2.573-6a8.567,8.567,0,0,1,6.689,13.932,6.881,6.881,0,0,0-3.855-4.735,4.288,4.288,0,1,0-5.669,0A6.881,6.881,0,0,0,37.2,16.647a8.568,8.568,0,0,1,6.69-13.932Zm-35.166,6a2.573,2.573,0,1,1,2.573,2.573A2.576,2.576,0,0,1,8.719,8.719Zm2.573,11.15a8.52,8.52,0,0,1-5.145-1.731,5.145,5.145,0,0,1,10.291,0A8.52,8.52,0,0,1,11.292,19.87ZM2.715,11.292a8.577,8.577,0,1,1,15.266,5.355,6.881,6.881,0,0,0-3.855-4.735,4.288,4.288,0,1,0-5.669,0A6.881,6.881,0,0,0,4.6,16.647,8.535,8.535,0,0,1,2.715,11.292Zm0,41.17V43.885a8.577,8.577,0,1,1,8.577,8.577Zm22.3-6.683-1.949.459-.125.51A11.914,11.914,0,0,1,21.553,50.1l-.252.415,1.029,1.95H16.97A10.287,10.287,0,1,0,2.715,38.208V32.847l1.95,1.029.415-.252a11.929,11.929,0,0,1,3.348-1.389l.51-.125.46-1.949h3.788l.459,1.949.51.125A11.914,11.914,0,0,1,17.5,33.625l.449.273,1.7-1.054,2.679,2.679-1.054,1.7.273.449a11.933,11.933,0,0,1,1.389,3.348l.125.51,1.948.458ZM38.74,50.731a5.145,5.145,0,0,1,10.291,0,8.513,8.513,0,0,1-10.291,0Zm2.572-9.419a2.573,2.573,0,1,1,2.573,2.573A2.576,2.576,0,0,1,41.312,41.312Zm9.262,7.928a6.881,6.881,0,0,0-3.855-4.735,4.288,4.288,0,1,0-5.669,0A6.881,6.881,0,0,0,37.2,49.24a8.577,8.577,0,1,1,13.379,0Z"/>
      <path id="Trazado_1051505" data-name="Trazado 1051505" d="M8,56H9.715v1.715H8Z" transform="translate(-0.996 -7.826)"/>
      <path id="Trazado_1051506" data-name="Trazado 1051506" d="M12,56h1.715v1.715H12Z" transform="translate(-1.565 -7.826)"/>
      <path id="Trazado_1051507" data-name="Trazado 1051507" d="M16,56h1.715v1.715H16Z" transform="translate(-2.134 -7.826)"/>
      <path id="Trazado_1051508" data-name="Trazado 1051508" d="M8,52h8.577v1.715H8Z" transform="translate(-0.996 -7.257)"/>
      <path id="Trazado_1051509" data-name="Trazado 1051509" d="M8,48h8.577v1.715H8Z" transform="translate(-0.996 -6.688)"/>
      <path id="Trazado_1051510" data-name="Trazado 1051510" d="M8,44h8.577v1.715H8Z" transform="translate(-0.996 -6.119)"/>
    </g>
  </g>
</svg>
