<svg xmlns="http://www.w3.org/2000/svg" xmlns:xlink="http://www.w3.org/1999/xlink" width="113" height="113" viewBox="0 0 113 113">
  <defs>
    <filter id="Trazado_982547" x="0" y="0" width="113" height="113" filterUnits="userSpaceOnUse">
      <feOffset dy="3" input="SourceAlpha"/>
      <feGaussianBlur stdDeviation="3" result="blur"/>
      <feFlood flood-opacity="0.161"/>
      <feComposite operator="in" in2="blur"/>
      <feComposite in="SourceGraphic"/>
    </filter>
  </defs>
  <g id="Grupo_1207466" data-name="Grupo 1207466" transform="translate(-320 -636.072)">
    <g id="Grupo_1202423" data-name="Grupo 1202423" transform="translate(0 -677.451)">
      <g id="Grupo_1202352" data-name="Grupo 1202352" transform="translate(49 443.108)">
        <g id="Grupo_1174813" data-name="Grupo 1174813" transform="translate(280 876.414)">
          <g id="Grupo_1201680" data-name="Grupo 1201680">
            <g id="Grupo_1201330" data-name="Grupo 1201330">
              <g id="Grupo_1172010" data-name="Grupo 1172010">
                <g id="Grupo_1171046" data-name="Grupo 1171046">
                  <g id="Grupo_1148525" data-name="Grupo 1148525">
                    <g transform="matrix(1, 0, 0, 1, -9, -6)" filter="url(#Trazado_982547)">
                      <g id="Trazado_982547-2" data-name="Trazado 982547" transform="translate(9 6)" fill="#e9f9fd">
                        <path d="M 47.5 93.5 C 41.28937149047852 93.5 35.26533508300781 92.28397369384766 29.59518623352051 89.88570404052734 C 24.11771965026855 87.56893157958984 19.19813346862793 84.25196075439453 14.97309303283691 80.02691650390625 C 10.74804019927979 75.80186462402344 7.431066513061523 70.88229370117188 5.114293098449707 65.40481567382812 C 2.716026782989502 59.73468017578125 1.5 53.71062850952148 1.5 47.5 C 1.5 41.28937149047852 2.716026782989502 35.26533508300781 5.114293098449707 29.59518623352051 C 7.431066513061523 24.11771965026855 10.74804019927979 19.19813346862793 14.97309303283691 14.97309303283691 C 19.19813346862793 10.74804019927979 24.11771965026855 7.431066513061523 29.59518623352051 5.114293098449707 C 35.26533508300781 2.716026782989502 41.28937149047852 1.5 47.5 1.5 C 53.71062850952148 1.5 59.73468017578125 2.716026782989502 65.40481567382812 5.114293098449707 C 70.88229370117188 7.431066513061523 75.80186462402344 10.74804019927979 80.02691650390625 14.97309303283691 C 84.25196075439453 19.19813346862793 87.56893157958984 24.11771965026855 89.88570404052734 29.59518623352051 C 92.28397369384766 35.26533508300781 93.5 41.28937149047852 93.5 47.5 C 93.5 53.71062850952148 92.28397369384766 59.73468017578125 89.88570404052734 65.40481567382812 C 87.56893157958984 70.88229370117188 84.25196075439453 75.80186462402344 80.02691650390625 80.02691650390625 C 75.80186462402344 84.25196075439453 70.88229370117188 87.56893157958984 65.40481567382812 89.88570404052734 C 59.73468017578125 92.28397369384766 53.71062850952148 93.5 47.5 93.5 Z" stroke="none"/>
                        <path d="M 47.5 3 C 41.49121475219727 3 35.66376876831055 4.176155090332031 30.17950439453125 6.495796203613281 C 24.88084411621094 8.736953735351562 20.12152099609375 11.94598388671875 16.03375244140625 16.03375244140625 C 11.94598388671875 20.12152099609375 8.736953735351562 24.88084411621094 6.495796203613281 30.17950439453125 C 4.176155090332031 35.66376876831055 3 41.49121475219727 3 47.5 C 3 53.50878524780273 4.176155090332031 59.33623123168945 6.495796203613281 64.82049560546875 C 8.736953735351562 70.11915588378906 11.94598388671875 74.87847900390625 16.03375244140625 78.96624755859375 C 20.12152099609375 83.05401611328125 24.88084411621094 86.26304626464844 30.17950439453125 88.50419616699219 C 35.66376876831055 90.82384490966797 41.49121475219727 92 47.5 92 C 53.50878524780273 92 59.33623123168945 90.82384490966797 64.82049560546875 88.50419616699219 C 70.11915588378906 86.26304626464844 74.87847900390625 83.05401611328125 78.96624755859375 78.96624755859375 C 83.05401611328125 74.87847900390625 86.26304626464844 70.11915588378906 88.50419616699219 64.82049560546875 C 90.82384490966797 59.33623123168945 92 53.50878524780273 92 47.5 C 92 41.49121475219727 90.82384490966797 35.66376876831055 88.50419616699219 30.17950439453125 C 86.26304626464844 24.88084411621094 83.05401611328125 20.12152099609375 78.96624755859375 16.03375244140625 C 74.87847900390625 11.94598388671875 70.11915588378906 8.736953735351562 64.82049560546875 6.495796203613281 C 59.33623123168945 4.176155090332031 53.50878524780273 3 47.5 3 M 47.5 0 C 73.7335205078125 0 95 21.2664794921875 95 47.5 C 95 73.7335205078125 73.7335205078125 95 47.5 95 C 21.2664794921875 95 0 73.7335205078125 0 47.5 C 0 21.2664794921875 21.2664794921875 0 47.5 0 Z" stroke="none" fill="#1d7083"/>
                      </g>
                    </g>
                  </g>
                </g>
              </g>
            </g>
          </g>
        </g>
      </g>
    </g>
    <g id="segment_18614058" transform="translate(326.056 642.681)">
      <g id="Grupo_1207457" data-name="Grupo 1207457" transform="translate(23.823 23.568)">
        <path id="Trazado_1051547" data-name="Trazado 1051547" d="M303.914,93.743a25.676,25.676,0,0,1,24.135,25.552,25.351,25.351,0,0,1-1.562,8.778L303.914,115.04v-21.3Z" transform="translate(-273.125 -91.305)" fill="#21b3eb" fill-rule="evenodd"/>
        <path id="Trazado_1051548" data-name="Trazado 1051548" d="M303.915,93.743a25.676,25.676,0,0,1,24.135,25.552,25.373,25.373,0,0,1-1.043,7.214l-23.092-13.332Z" transform="translate(-273.126 -91.305)" fill="#3bc7f5" fill-rule="evenodd"/>
        <path id="Trazado_1051549" data-name="Trazado 1051549" d="M67.144,111.211a25.357,25.357,0,0,1-2.435-10.86A25.676,25.676,0,0,1,88.844,74.8V98.683Z" transform="translate(-64.709 -74.8)" fill="#f7b84e" fill-rule="evenodd"/>
        <path id="Trazado_1051550" data-name="Trazado 1051550" d="M66.47,109.653a25.349,25.349,0,0,1-1.761-9.3A25.676,25.676,0,0,1,88.844,74.8V96.735L66.47,109.653Z" transform="translate(-64.709 -74.8)" fill="#ffcb5b" fill-rule="evenodd"/>
        <path id="Trazado_1051551" data-name="Trazado 1051551" d="M145.253,332.706a25.638,25.638,0,0,1-21.764-12.17L142.941,309.3l22.765,13.143A25.594,25.594,0,0,1,145.253,332.706Z" transform="translate(-115.923 -279.121)" fill="#d62733" fill-rule="evenodd"/>
        <path id="Trazado_1051552" data-name="Trazado 1051552" d="M152.834,340.5a25.6,25.6,0,0,1-20.644-10.512l20.327-11.736,20.769,11.991A25.6,25.6,0,0,1,152.834,340.5Z" transform="translate(-123.505 -286.92)" fill="#ee2b39" fill-rule="evenodd"/>
        <path id="Trazado_1051553" data-name="Trazado 1051553" d="M224.62,425.508a11.079,11.079,0,0,0-20.728-.94,25.446,25.446,0,0,0,20.728.94Z" transform="translate(-185.977 -373.689)" fill="#7985eb" fill-rule="evenodd"/>
        <path id="Trazado_1051554" data-name="Trazado 1051554" d="M235.786,425.975a11.086,11.086,0,0,0-9.3-7.6c-4.113.524-8.026,3.962-9.777,7.413a25.45,25.45,0,0,0,19.079.183Z" transform="translate(-197.143 -374.156)" fill="#8691ed" fill-rule="evenodd"/>
      </g>
      <circle id="Elipse_13412" data-name="Elipse 13412" cx="4.561" cy="4.561" r="4.561" transform="translate(46.436 66.354) rotate(-76.7)" fill="#e2b698"/>
      <path id="Trazado_1051555" data-name="Trazado 1051555" d="M261.832,345.664a4.561,4.561,0,1,1-3.9,4.512A4.561,4.561,0,0,1,261.832,345.664Z" transform="translate(-209.242 -287.232)" fill="#e8c4ab" fill-rule="evenodd"/>
      <path id="Trazado_1051556" data-name="Trazado 1051556" d="M86.124,139.344l-3.3,11.67H69.958l-3.291-11.67Z" transform="translate(-42.592 -107.468)" fill="#3cb54b" fill-rule="evenodd"/>
      <path id="Trazado_1051557" data-name="Trazado 1051557" d="M98.956,140.084l-3.3,11.67h-11.9l-3.291-11.67Z" transform="translate(-54.614 -108.113)" fill="#50bc5d" fill-rule="evenodd"/>
      <g id="Grupo_1207458" data-name="Grupo 1207458" transform="translate(23.348 41.875)">
        <path id="Trazado_1051558" data-name="Trazado 1051558" d="M63.785,222.559a2.764,2.764,0,1,0-2.764-2.764A2.77,2.77,0,0,0,63.785,222.559Z" transform="translate(-61.021 -217.03)" fill="#21b3eb" fill-rule="evenodd"/>
        <path id="Trazado_1051559" data-name="Trazado 1051559" d="M68.978,217.208a2.765,2.765,0,0,1,0,5.483,2.765,2.765,0,0,1,0-5.483Z" transform="translate(-65.857 -217.185)" fill="#3bc7f5" fill-rule="evenodd"/>
      </g>
      <g id="Grupo_1207463" data-name="Grupo 1207463" transform="translate(57.808 16.629)">
        <g id="Grupo_1207459" data-name="Grupo 1207459" transform="translate(0 0)">
          <path id="Trazado_1051560" data-name="Trazado 1051560" d="M336.535,30.142h5.522C371.076,60.825,307.517,60.825,336.535,30.142ZM335.1,20.889h8.389a.906.906,0,0,1,.822,1.286l-2.256,4.883h-5.522l-2.256-4.883a.906.906,0,0,1,.822-1.286Z" transform="translate(-328.747 -20.889)" fill="#c97629" fill-rule="evenodd"/>
          <path id="Trazado_1051561" data-name="Trazado 1051561" d="M374.6,68.815h6.606a1.542,1.542,0,1,1,0,3.084H374.6a1.542,1.542,0,1,1,0-3.084Z" transform="translate(-367.357 -62.646)" fill="#ffb336"/>
        </g>
        <g id="Grupo_1207460" data-name="Grupo 1207460" transform="translate(1.359 0)">
          <path id="Trazado_1051562" data-name="Trazado 1051562" d="M347.092,30.143h4.163c14.128,14.939,6.311,22.6-2.082,22.993-8.393-.392-16.21-8.055-2.082-22.993Zm0-3.084-2.256-4.883a.906.906,0,0,1,.822-1.286h7.03a.906.906,0,0,1,.822,1.286l-2.256,4.883h-4.163Z" transform="translate(-339.304 -20.89)" fill="#ce843e" fill-rule="evenodd"/>
          <path id="Trazado_1051563" data-name="Trazado 1051563" d="M385.159,68.815h5.247a1.542,1.542,0,0,1,0,3.084h-5.247a1.542,1.542,0,1,1,0-3.084Z" transform="translate(-377.913 -62.646)" fill="#ffbb4a"/>
        </g>
        <g id="Grupo_1207462" data-name="Grupo 1207462" transform="translate(4.037 15.855)">
          <circle id="Elipse_13413" data-name="Elipse 13413" cx="6.512" cy="6.512" r="6.512" fill="#fec66f"/>
          <g id="Grupo_1207461" data-name="Grupo 1207461" transform="translate(1.504 0.044)">
            <path id="Trazado_1051564" data-name="Trazado 1051564" d="M377.557,144.41a6.512,6.512,0,1,1-5.76,6.469A6.513,6.513,0,0,1,377.557,144.41Z" transform="translate(-371.797 -144.41)" fill="#ffce7b" fill-rule="evenodd"/>
            <path id="Trazado_1051565" data-name="Trazado 1051565" d="M396.045,165.144a.633.633,0,1,1-1.267,0v-.8a2.57,2.57,0,0,1-1.319-.755.632.632,0,0,1,.915-.871,1.291,1.291,0,0,0,1.371.351,1.113,1.113,0,0,0,.406-.24.75.75,0,0,0,.242-.485.6.6,0,0,0-.189-.465,1.968,1.968,0,0,0-.881-.468,2.709,2.709,0,0,1-2.122-1.8,1.832,1.832,0,0,1,.255-1.424,2.317,2.317,0,0,1,1.115-.9c.067-.026.136-.049.206-.07V156.4a.633.633,0,1,1,1.267,0v.795a3.078,3.078,0,0,1,1.43.8.632.632,0,1,1-.871.915,1.493,1.493,0,0,0-1.577-.434,1.045,1.045,0,0,0-.507.4.59.59,0,0,0-.092.454c.075.314.442.644,1.246.878a3.193,3.193,0,0,1,1.441.8,1.832,1.832,0,0,1,.54,1.44,2,2,0,0,1-.633,1.3,2.392,2.392,0,0,1-.871.522l-.106.034v.84Z" transform="translate(-390.403 -154.301)" fill="#ffb336" fill-rule="evenodd"/>
          </g>
        </g>
      </g>
      <g id="Grupo_1207464" data-name="Grupo 1207464" transform="translate(36.555 41.875)">
        <path id="Trazado_1051566" data-name="Trazado 1051566" d="M166.4,222.559a2.764,2.764,0,1,0-2.764-2.764A2.77,2.77,0,0,0,166.4,222.559Z" transform="translate(-163.632 -217.03)" fill="#21b3eb" fill-rule="evenodd"/>
        <path id="Trazado_1051567" data-name="Trazado 1051567" d="M171.589,217.208a2.765,2.765,0,1,1-2.407,2.742A2.765,2.765,0,0,1,171.589,217.208Z" transform="translate(-168.468 -217.185)" fill="#3bc7f5" fill-rule="evenodd"/>
      </g>
      <g id="Grupo_1207465" data-name="Grupo 1207465" transform="translate(17.783 16)">
        <path id="Trazado_1051568" data-name="Trazado 1051568" d="M316.592,124.044a.884.884,0,0,1-.444-.118L293.767,111a.887.887,0,0,1-.444-.769V89.12a.888.888,0,0,1,.939-.887,25.974,25.974,0,0,1,9.168,2.234.889.889,0,0,1-.726,1.622,24.181,24.181,0,0,0-7.6-2.01v19.644l21,12.125A24.368,24.368,0,0,0,316.3,107.7.889.889,0,0,1,318,107.2a26.14,26.14,0,0,1-.579,16.259.9.9,0,0,1-.532.529.915.915,0,0,1-.3.052Z" transform="translate(-257.858 -78.935)" fill-rule="evenodd"/>
        <path id="Trazado_1051569" data-name="Trazado 1051569" d="M59.469,107.329a.906.906,0,0,1-.265-.041.884.884,0,0,1-.538-.468,25.891,25.891,0,0,1-2.5-11.146c0-.716.029-1.438.088-2.149a.888.888,0,1,1,1.771.145c-.054.662-.081,1.337-.081,2a24.118,24.118,0,0,0,1.933,9.505L80.093,93.506V71.3a24.45,24.45,0,0,0-14.981,7.105.888.888,0,0,1-1.258-1.255,26.215,26.215,0,0,1,17.077-7.7.888.888,0,0,1,.938.887V94.019a.888.888,0,0,1-.444.77L59.913,107.21A.9.9,0,0,1,59.469,107.329Z" transform="translate(-51.226 -62.573)" fill-rule="evenodd"/>
        <path id="Trazado_1051570" data-name="Trazado 1051570" d="M116.583,314.275a24.362,24.362,0,0,0,20.324,10.875,24.642,24.642,0,0,0,18.947-9.023l-21.239-12.262-18.032,10.41Zm20.324,12.652a26.158,26.158,0,0,1-12.955-3.44,26.6,26.6,0,0,1-9.377-9.046.888.888,0,0,1,.311-1.237l19.285-11.135a.888.888,0,0,1,.888,0L157.629,315.1a.888.888,0,0,1,.265,1.3,26.67,26.67,0,0,1-9.085,7.652,25.848,25.848,0,0,1-11.9,2.871Z" transform="translate(-102 -265.145)" fill-rule="evenodd"/>
        <path id="Trazado_1051571" data-name="Trazado 1051571" d="M23.512,79.358a.89.89,0,0,1-.855-.647L21.29,73.866a1.807,1.807,0,0,0-.08-.24l-.019-.01L18.227,71.9a.888.888,0,1,1,.888-1.538l2.931,1.692A1.967,1.967,0,0,1,23,73.383l1.366,4.845a.889.889,0,0,1-.615,1.1A.931.931,0,0,1,23.512,79.358Z" transform="translate(-17.783 -63.264)" fill-rule="evenodd"/>
        <path id="Trazado_1051572" data-name="Trazado 1051572" d="M74.647,140.515a.9.9,0,0,1-.243-.034.889.889,0,0,1-.613-1.1l2.935-10.375H57.455l2.525,8.952a.889.889,0,0,1-1.711.482l-2.842-10.081a.887.887,0,0,1,.854-1.13H77.9a.888.888,0,0,1,.854,1.13L75.5,139.868a.888.888,0,0,1-.854.647Zm-6.007,1.461a.888.888,0,0,0,0-1.777H61.9a.888.888,0,1,0,0,1.777h6.743Z" transform="translate(-50.552 -112.916)" fill-rule="evenodd"/>
        <path id="Trazado_1051573" data-name="Trazado 1051573" d="M52.2,207.038a2.4,2.4,0,1,0,2.4,2.4A2.407,2.407,0,0,0,52.2,207.038Zm0,6.583a4.18,4.18,0,1,1,4.18-4.18A4.185,4.185,0,0,1,52.2,213.621Z" transform="translate(-44.13 -180.901)" fill-rule="evenodd"/>
        <path id="Trazado_1051574" data-name="Trazado 1051574" d="M155.426,207.038a2.4,2.4,0,1,0,2.4,2.4A2.406,2.406,0,0,0,155.426,207.038Zm0,6.583a4.18,4.18,0,1,1,4.181-4.18A4.184,4.184,0,0,1,155.426,213.621Z" transform="translate(-134.068 -180.901)" fill-rule="evenodd"/>
        <path id="Trazado_1051575" data-name="Trazado 1051575" d="M329.328,113.743a12.648,12.648,0,0,1-8.8-3.21c-2.265-2.224-6.274-8.734,5.421-21.1l1.291,1.221c-7.473,7.9-9.465,14.684-5.467,18.609,3.673,3.606,11.443,3.606,15.116,0,4-3.926,2.005-10.708-5.467-18.609l1.291-1.221c11.695,12.365,7.686,18.875,5.419,21.1A12.642,12.642,0,0,1,329.328,113.743Z" transform="translate(-279.346 -79.983)" fill-rule="evenodd"/>
        <path id="Trazado_1051576" data-name="Trazado 1051576" d="M356.381,139.9a5.568,5.568,0,1,0,5.568,5.568,5.574,5.574,0,0,0-5.568-5.568Zm0,12.913a7.345,7.345,0,1,1,7.345-7.345,7.353,7.353,0,0,1-7.345,7.345Z" transform="translate(-306.4 -122.409)" fill-rule="evenodd"/>
        <path id="Trazado_1051577" data-name="Trazado 1051577" d="M389.155,165.044a.888.888,0,0,1-.889-.889v-.585a2.852,2.852,0,0,1-1.237-.772.888.888,0,1,1,1.288-1.224,1.012,1.012,0,0,0,1.092.277.63.63,0,0,0,.459-.489c.019-.232-.332-.495-.874-.652-1.986-.578-2.295-1.784-2.335-2.277a2.3,2.3,0,0,1,1.38-2.224c.073-.034.149-.066.229-.1v-.633a.888.888,0,0,1,1.777,0v.59a3.355,3.355,0,0,1,1.336.8.888.888,0,1,1-1.222,1.29,1.167,1.167,0,0,0-1.352-.349c-.227.109-.39.314-.376.475.017.208.352.512,1.06.717,1.692.492,2.22,1.613,2.15,2.5a2.363,2.363,0,0,1-1.6,2.008v.644a.889.889,0,0,1-.889.888Z" transform="translate(-339.173 -136.754)" fill-rule="evenodd"/>
        <path id="Trazado_1051578" data-name="Trazado 1051578" d="M363.653,66.577h7.831V65.3h-7.831Zm8.72,1.777h-9.608a.888.888,0,0,1-.889-.889V64.408a.888.888,0,0,1,.888-.889h9.608a.888.888,0,0,1,.888.889v3.058A.889.889,0,0,1,372.373,68.354Z" transform="translate(-317.587 -57.403)" fill-rule="evenodd"/>
        <path id="Trazado_1051579" data-name="Trazado 1051579" d="M365.172,23.893a.89.89,0,0,1-.806-1.262l2.243-4.855h-8.347l2.243,4.855a.889.889,0,0,1-1.613.745l-2.825-6.115A.889.889,0,0,1,356.873,16H368a.889.889,0,0,1,.807,1.262l-2.825,6.115a.888.888,0,0,1-.807.517Z" transform="translate(-312.454 -16)" fill-rule="evenodd"/>
        <path id="Trazado_1051580" data-name="Trazado 1051580" d="M215.595,418.937a.891.891,0,0,1-.845-.615,10.1,10.1,0,0,0-18.888-.855.888.888,0,1,1-1.633-.7,11.873,11.873,0,0,1,22.213,1.008.887.887,0,0,1-.571,1.118.865.865,0,0,1-.274.044Z" transform="translate(-171.454 -358.904)" fill-rule="evenodd"/>
        <path id="Trazado_1051581" data-name="Trazado 1051581" d="M242.919,339.4a3.633,3.633,0,1,0,3.633,3.634,3.637,3.637,0,0,0-3.633-3.634Zm0,9.043a5.41,5.41,0,1,1,5.41-5.409,5.416,5.416,0,0,1-5.41,5.409Z" transform="translate(-209.228 -296.227)" fill-rule="evenodd"/>
      </g>
    </g>
  </g>
</svg>
