<svg xmlns="http://www.w3.org/2000/svg" xmlns:xlink="http://www.w3.org/1999/xlink" width="113" height="113" viewBox="0 0 113 113">
  <defs>
    <filter id="Trazado_982547" x="0" y="0" width="113" height="113" filterUnits="userSpaceOnUse">
      <feOffset dy="3" input="SourceAlpha"/>
      <feGaussianBlur stdDeviation="3" result="blur"/>
      <feFlood flood-opacity="0.161"/>
      <feComposite operator="in" in2="blur"/>
      <feComposite in="SourceGraphic"/>
    </filter>
  </defs>
  <g id="Grupo_1207470" data-name="Grupo 1207470" transform="translate(-1167.406 -636.072)">
    <g id="Grupo_1202477" data-name="Grupo 1202477" transform="translate(0 -677.451)">
      <g id="Grupo_1202354" data-name="Grupo 1202354" transform="translate(896.406 443.108)">
        <g id="Grupo_1174813" data-name="Grupo 1174813" transform="translate(280 876.414)">
          <g id="Grupo_1201680" data-name="Grupo 1201680">
            <g id="Grupo_1201330" data-name="Grupo 1201330">
              <g id="Grupo_1172010" data-name="Grupo 1172010">
                <g id="Grupo_1171046" data-name="Grupo 1171046">
                  <g id="Grupo_1148525" data-name="Grupo 1148525">
                    <g transform="matrix(1, 0, 0, 1, -9, -6)" filter="url(#Trazado_982547)">
                      <g id="Trazado_982547-2" data-name="Trazado 982547" transform="translate(9 6)" fill="#e9f9fd">
                        <path d="M 47.5 93.5 C 41.28937149047852 93.5 35.26533508300781 92.28397369384766 29.59518623352051 89.88570404052734 C 24.11771965026855 87.56893157958984 19.19813346862793 84.25196075439453 14.97309303283691 80.02691650390625 C 10.74804019927979 75.80186462402344 7.431066513061523 70.88229370117188 5.114293098449707 65.40481567382812 C 2.716026782989502 59.73468017578125 1.5 53.71062850952148 1.5 47.5 C 1.5 41.28937149047852 2.716026782989502 35.26533508300781 5.114293098449707 29.59518623352051 C 7.431066513061523 24.11771965026855 10.74804019927979 19.19813346862793 14.97309303283691 14.97309303283691 C 19.19813346862793 10.74804019927979 24.11771965026855 7.431066513061523 29.59518623352051 5.114293098449707 C 35.26533508300781 2.716026782989502 41.28937149047852 1.5 47.5 1.5 C 53.71062850952148 1.5 59.73468017578125 2.716026782989502 65.40481567382812 5.114293098449707 C 70.88229370117188 7.431066513061523 75.80186462402344 10.74804019927979 80.02691650390625 14.97309303283691 C 84.25196075439453 19.19813346862793 87.56893157958984 24.11771965026855 89.88570404052734 29.59518623352051 C 92.28397369384766 35.26533508300781 93.5 41.28937149047852 93.5 47.5 C 93.5 53.71062850952148 92.28397369384766 59.73468017578125 89.88570404052734 65.40481567382812 C 87.56893157958984 70.88229370117188 84.25196075439453 75.80186462402344 80.02691650390625 80.02691650390625 C 75.80186462402344 84.25196075439453 70.88229370117188 87.56893157958984 65.40481567382812 89.88570404052734 C 59.73468017578125 92.28397369384766 53.71062850952148 93.5 47.5 93.5 Z" stroke="none"/>
                        <path d="M 47.5 3 C 41.49121475219727 3 35.66376876831055 4.176155090332031 30.17950439453125 6.495796203613281 C 24.88084411621094 8.736953735351562 20.12152099609375 11.94598388671875 16.03375244140625 16.03375244140625 C 11.94598388671875 20.12152099609375 8.736953735351562 24.88084411621094 6.495796203613281 30.17950439453125 C 4.176155090332031 35.66376876831055 3 41.49121475219727 3 47.5 C 3 53.50878524780273 4.176155090332031 59.33623123168945 6.495796203613281 64.82049560546875 C 8.736953735351562 70.11915588378906 11.94598388671875 74.87847900390625 16.03375244140625 78.96624755859375 C 20.12152099609375 83.05401611328125 24.88084411621094 86.26304626464844 30.17950439453125 88.50419616699219 C 35.66376876831055 90.82384490966797 41.49121475219727 92 47.5 92 C 53.50878524780273 92 59.33623123168945 90.82384490966797 64.82049560546875 88.50419616699219 C 70.11915588378906 86.26304626464844 74.87847900390625 83.05401611328125 78.96624755859375 78.96624755859375 C 83.05401611328125 74.87847900390625 86.26304626464844 70.11915588378906 88.50419616699219 64.82049560546875 C 90.82384490966797 59.33623123168945 92 53.50878524780273 92 47.5 C 92 41.49121475219727 90.82384490966797 35.66376876831055 88.50419616699219 30.17950439453125 C 86.26304626464844 24.88084411621094 83.05401611328125 20.12152099609375 78.96624755859375 16.03375244140625 C 74.87847900390625 11.94598388671875 70.11915588378906 8.736953735351562 64.82049560546875 6.495796203613281 C 59.33623123168945 4.176155090332031 53.50878524780273 3 47.5 3 M 47.5 0 C 73.7335205078125 0 95 21.2664794921875 95 47.5 C 95 73.7335205078125 73.7335205078125 95 47.5 95 C 21.2664794921875 95 0 73.7335205078125 0 47.5 C 0 21.2664794921875 21.2664794921875 0 47.5 0 Z" stroke="none" fill="#1d7083"/>
                      </g>
                    </g>
                  </g>
                </g>
              </g>
            </g>
          </g>
        </g>
      </g>
    </g>
    <g id="idea_1713053" transform="translate(1191.095 656.277)">
      <path id="Trazado_1051592" data-name="Trazado 1051592" d="M211.141,272.043v9.363H208.02l6.242,6.242,6.242-6.242h-3.121v-9.363" transform="translate(-180.951 -236.665)" fill="#62d2f5"/>
      <path id="Trazado_1051593" data-name="Trazado 1051593" d="M331.141,88.043v15.605H328.02l6.242,6.242,6.242-6.242h-3.121V88.043" transform="translate(-285.345 -76.593)" fill="#cbf0fc"/>
      <path id="Trazado_1051594" data-name="Trazado 1051594" d="M91.141,88.043v15.605H88.02l6.242,6.242,6.242-6.242H97.383V88.043" transform="translate(-76.556 -76.593)" fill="#cbf0fc"/>
      <path id="Trazado_1051595" data-name="Trazado 1051595" d="M232.02,192.043v7.283h6.242v-7.283" transform="translate(-201.829 -167.068)" fill="#c5d1db"/>
      <path id="Trazado_1051596" data-name="Trazado 1051596" d="M256.02,192.043h3.121v7.283H256.02Zm0,0" transform="translate(-222.708 -167.068)" fill="#a8bbc9"/>
      <path id="Trazado_1051597" data-name="Trazado 1051597" d="M184.989,20.527A12.484,12.484,0,1,1,172.5,8.043,12.484,12.484,0,0,1,184.989,20.527Zm0,0" transform="translate(-139.193 -6.997)" fill="#ffead2"/>
      <path id="Trazado_1051598" data-name="Trazado 1051598" d="M202.747,41.406a9.363,9.363,0,1,1-9.363-9.363A9.363,9.363,0,0,1,202.747,41.406Zm0,0" transform="translate(-160.072 -27.876)" fill="#fbac42"/>
      <path id="Trazado_1051599" data-name="Trazado 1051599" d="M182.549,65.787A9.355,9.355,0,1,1,164.733,71.4a7.243,7.243,0,0,0-2.458-.312,5.02,5.02,0,0,0-.767.125,12.476,12.476,0,1,0,23.617-7.343,4.174,4.174,0,0,0-.673.221,4.7,4.7,0,0,0-1.9,1.691Zm0,0" transform="translate(-140.487 -55.568)" fill="#ffd6a4"/>
      <path id="Trazado_1051600" data-name="Trazado 1051600" d="M195.361,91.253a9.343,9.343,0,0,0,8.75-12.675,8.2,8.2,0,0,0-.739,1.353c-.55,1.259-.871,2.61-1.44,3.861a5.447,5.447,0,0,1-2.735,2.949,5.587,5.587,0,0,1-2.214.312c-3.529-.1-6.81-1.708-10.2-2.717-.164-.048-.33-.093-.5-.138a9.357,9.357,0,0,0,9.068,7.055Zm0,0" transform="translate(-162.05 -68.359)" fill="#e58900"/>
      <path id="Trazado_1051601" data-name="Trazado 1051601" d="M256.02,24.043v2.081a8.332,8.332,0,0,1,8.323,8.323h2.081A10.415,10.415,0,0,0,256.02,24.043Zm0,0" transform="translate(-222.708 -20.916)" fill="#4b6276"/>
      <path id="Trazado_1051602" data-name="Trazado 1051602" d="M216.02,216.043h10.4v2.081h-10.4Zm0,0" transform="translate(-187.91 -187.947)" fill="#4b6276"/>
      <path id="Trazado_1051603" data-name="Trazado 1051603" d="M248.02,248.043H250.1v2.081H248.02Zm0,0" transform="translate(-215.749 -215.786)" fill="#4b6276"/>
      <path id="Trazado_1051604" data-name="Trazado 1051604" d="M225.383,117.245a1.04,1.04,0,0,0,1.04-1.04v-4.161h-2.081v3.121H218.1v-3.121H216.02V116.2a1.04,1.04,0,0,0,1.04,1.04h3.121v6.19c.344.028.689.052,1.04.052s.7-.024,1.04-.052v-6.19Zm0,0" transform="translate(-187.91 -97.472)" fill="#4b6276"/>
      <path id="Trazado_1051605" data-name="Trazado 1051605" d="M212.181,90.124a2.081,2.081,0,1,1-2.081-2.081A2.081,2.081,0,0,1,212.181,90.124Zm0,0" transform="translate(-180.951 -76.593)" fill="#e58900"/>
      <path id="Trazado_1051606" data-name="Trazado 1051606" d="M218.1,97.083a1.04,1.04,0,1,1-1.04-1.04A1.04,1.04,0,0,1,218.1,97.083Zm0,0" transform="translate(-187.91 -83.553)" fill="#ffead2"/>
      <path id="Trazado_1051607" data-name="Trazado 1051607" d="M276.181,90.124a2.081,2.081,0,1,1-2.081-2.081A2.081,2.081,0,0,1,276.181,90.124Zm0,0" transform="translate(-236.628 -76.593)" fill="#e58900"/>
      <path id="Trazado_1051608" data-name="Trazado 1051608" d="M282.1,97.083a1.04,1.04,0,1,1-1.04-1.04A1.04,1.04,0,0,1,282.1,97.083Zm0,0" transform="translate(-243.587 -83.553)" fill="#ffead2"/>
      <path id="Trazado_1051609" data-name="Trazado 1051609" d="M44.8,281.7a2.073,2.073,0,0,1,0,2.934L42.1,287.326l-2.081-2.081v-2.081l3.121-3.121Zm0,0" transform="translate(-34.798 -243.625)" fill="#f2b083"/>
      <path id="Trazado_1051610" data-name="Trazado 1051610" d="M436.005,283.164v2.081l-2.081,2.081-2.694-2.694a2.073,2.073,0,0,1,0-2.934l1.654-1.654Zm0,0" transform="translate(-374.604 -243.624)" fill="#f2b083"/>
      <path id="Trazado_1051611" data-name="Trazado 1051611" d="M43.755,241.7a2.073,2.073,0,0,1,0,2.934l-.614.614-3.121,3.121v-6.242l2.081-2.081Zm0,0" transform="translate(-34.798 -208.827)" fill="#ffbb87"/>
      <path id="Trazado_1051612" data-name="Trazado 1051612" d="M442.965,242.124v6.242l-3.735-3.735a2.073,2.073,0,0,1,0-2.934l1.654-1.654Zm0,0" transform="translate(-381.563 -208.826)" fill="#ffbb87"/>
      <path id="Trazado_1051613" data-name="Trazado 1051613" d="M28.827,221.891l4.161,4.161v7.283H18.424v-4.161l-10.4-10.4V205.245l5.2-5.2,1.655,1.654a2.073,2.073,0,0,1,0,2.934l-.614.614-2.081,2.081v8.323L15.3,218.77h6.242v-5.722a2.6,2.6,0,0,1,5.2,0v4.827l2.081,2.226Zm0,0" transform="translate(-6.96 -174.028)" fill="#ffdaaa"/>
      <path id="Trazado_1051614" data-name="Trazado 1051614" d="M323.464,218.769h6.242l3.121-3.121v-8.323l-2.694-2.694a2.073,2.073,0,0,1,0-2.934l1.654-1.654,5.2,5.2v13.525l-10.4,10.4v4.161H312.02v-7.283l4.161-4.161V220.1l2.081-2.226v-4.827a2.6,2.6,0,1,1,5.2,0Zm0,0" transform="translate(-271.426 -174.028)" fill="#ffdaaa"/>
      <path id="Trazado_1051615" data-name="Trazado 1051615" d="M76.827,462.285H56.02v-6.242H76.827Zm0,0" transform="translate(-48.717 -396.736)" fill="#fe6840"/>
      <path id="Trazado_1051616" data-name="Trazado 1051616" d="M316.827,456.043v6.242H296.02v-6.242Zm0,0" transform="translate(-257.507 -396.736)" fill="#fe6840"/>
      <path id="Trazado_1051617" data-name="Trazado 1051617" d="M311.377,477.992c-3.027-.248-5.991-1.04-9.021-1.242a25.611,25.611,0,0,0-6.337.4v3.109h20.807v-2.675A15.875,15.875,0,0,1,311.377,477.992Zm0,0" transform="translate(-257.506 -414.709)" fill="#fd3501"/>
      <path id="Trazado_1051618" data-name="Trazado 1051618" d="M71.377,477.992c-3.027-.248-5.991-1.04-9.021-1.242a25.611,25.611,0,0,0-6.337.4v3.109H76.827v-2.675A15.875,15.875,0,0,1,71.377,477.992Zm0,0" transform="translate(-48.717 -414.709)" fill="#fd3501"/>
      <path id="Trazado_1051619" data-name="Trazado 1051619" d="M406.262,344.043l-2.69,2.69-3.552-1.471v-1.219Zm0,0" transform="translate(-347.982 -299.301)" fill="#ffbb87"/>
      <path id="Trazado_1051620" data-name="Trazado 1051620" d="M64.02,344.043l2.691,2.69,3.551-1.471v-1.219Zm0,0" transform="translate(-55.677 -299.301)" fill="#ffbb87"/>
      <path id="Trazado_1051621" data-name="Trazado 1051621" d="M382.262,10.124h-2.081V8.043H378.1v2.081H376.02V12.2H378.1v2.081h2.081V12.2h2.081Zm0,0" transform="translate(-327.103 -6.997)" fill="#62d2f5"/>
      <path id="Trazado_1051622" data-name="Trazado 1051622" d="M92.181,8.043H90.1v2.081H88.02V12.2H90.1v2.081h2.081V12.2h2.081V10.124H92.181Zm0,0" transform="translate(-76.556 -6.997)" fill="#62d2f5"/>
      <g id="Grupo_1207469" data-name="Grupo 1207469" transform="translate(0.02 0)">
        <path id="Trazado_1051623" data-name="Trazado 1051623" d="M28.11,225.335h-1.04v-6.242a1.04,1.04,0,0,0-.3-.736L22.908,214.5v-1.359a1.041,1.041,0,0,0-.279-.709l-1.8-1.929v-4.415a3.641,3.641,0,0,0-7.283,0v4.682H8.774l1.955-1.955a3.122,3.122,0,0,0,0-4.413l-.929-.927a3.121,3.121,0,0,0-.114-4.275l-.927-.927A3.121,3.121,0,0,0,8.646,194L7,192.348a1.039,1.039,0,0,0-1.471,0l-5.2,5.2a1.041,1.041,0,0,0-.305.736V211.81a1.041,1.041,0,0,0,.305.736l10.1,10.1v2.69H7.3a1.04,1.04,0,0,0-1.04,1.04v6.242a1.04,1.04,0,0,0,1.04,1.04H28.11a1.04,1.04,0,0,0,1.04-1.04v-6.242a1.04,1.04,0,0,0-1.04-1.04ZM9.258,207.344,7.3,209.3l-1.04-1.04v-1.219l2.081-2.081.914.914a1.04,1.04,0,0,1,0,1.471ZM7.3,199.756l.914.914a1.041,1.041,0,0,1,0,1.471L6.262,204.1v-3.3Zm4.9,21.722-10.1-10.1V198.716l4.161-4.161.914.914a1.041,1.041,0,0,1,0,1.471l-2.689,2.69a1.041,1.041,0,0,0-.305.736v8.323a1.041,1.041,0,0,0,.305.736l3.121,3.121a1.038,1.038,0,0,0,.735.3h5.2v3.121h2.081v-9.883a1.561,1.561,0,1,1,3.121,0v4.826a1.044,1.044,0,0,0,.28.709l1.8,1.929v5.54h2.081v-1.65l2.081,2.081v5.811H12.5v-3.121a1.041,1.041,0,0,0-.3-.736Zm-3.857,10.1v-4.161H27.069v1.04H10.424v2.081H27.069v1.04Zm0,0" transform="translate(-0.02 -167.069)" fill="#252340"/>
        <path id="Trazado_1051624" data-name="Trazado 1051624" d="M316.845,197.55l-5.2-5.2a1.039,1.039,0,0,0-1.471,0l-1.65,1.65a3.121,3.121,0,0,0-.113,4.275l-.927.927a3.121,3.121,0,0,0-.113,4.275l-.927.927a3.122,3.122,0,0,0,0,4.413l1.955,1.955h-4.772v-4.682a3.641,3.641,0,1,0-7.283,0V210.5l-1.8,1.931a1.041,1.041,0,0,0-.28.707V214.5l-3.856,3.857a1.041,1.041,0,0,0-.305.736v6.242h-1.04a1.04,1.04,0,0,0-1.04,1.04v6.242a1.04,1.04,0,0,0,1.04,1.04h20.807a1.04,1.04,0,0,0,1.04-1.04v-6.242a1.04,1.04,0,0,0-1.04-1.04h-3.121v-2.69l10.1-10.1a1.041,1.041,0,0,0,.3-.736V198.285a1.04,1.04,0,0,0-.3-.736Zm-5.937,6.547-1.954-1.955a1.041,1.041,0,0,1,0-1.471l.913-.914,1.04,1.04Zm-2.994,3.247a1.041,1.041,0,0,1,0-1.471l.913-.914,2.081,2.081v1.219l-1.04,1.04Zm.913,24.233H290.1v-1.04h16.646v-2.081H290.1v-1.04h18.727Zm6.242-20.2-10.1,10.1a1.041,1.041,0,0,0-.305.736v3.121H292.181v-5.811l2.081-2.081v1.65h2.081v-5.54l1.8-1.929a1.041,1.041,0,0,0,.279-.709v-4.826a1.561,1.561,0,0,1,3.121,0v9.883h2.081v-3.121h5.2a1.04,1.04,0,0,0,.736-.3l3.121-3.121a1.04,1.04,0,0,0,.3-.736v-8.323a1.04,1.04,0,0,0-.3-.736l-2.689-2.69a1.041,1.041,0,0,1,0-1.471l.913-.914,4.161,4.161Zm0,0" transform="translate(-250.567 -167.069)" fill="#252340"/>
        <path id="Trazado_1051625" data-name="Trazado 1051625" d="M161.377,26.393v1.7h-1.04v2.081h1.04v2.081a1.04,1.04,0,0,0,1.04,1.04H164.5v1.04h2.081V33.3h2.081a1.04,1.04,0,0,0,1.04-1.04V30.176h1.04V28.1H169.7v-1.7a13.525,13.525,0,1,0-8.323,0Zm6.242,4.823h-4.161v-1.04h4.161Zm0-3.121h-4.161V26.878a12.334,12.334,0,0,0,4.161,0ZM165.539,2.086a11.444,11.444,0,0,1,1.04,22.835V19.773H169.7a1.04,1.04,0,0,0,1.04-1.04V16.46a3.121,3.121,0,1,0-2.081,0v1.232h-6.242V16.46a3.121,3.121,0,1,0-2.081,0v2.272a1.04,1.04,0,0,0,1.04,1.04H164.5v5.148a11.444,11.444,0,0,1,1.04-22.835ZM168.66,13.53a1.04,1.04,0,1,1,1.04,1.04A1.04,1.04,0,0,1,168.66,13.53Zm-8.323,0a1.04,1.04,0,1,1,1.04,1.04A1.04,1.04,0,0,1,160.337,13.53Zm0,0" transform="translate(-132.247 0)" fill="#252340"/>
        <path id="Trazado_1051626" data-name="Trazado 1051626" d="M264.343,34.447h2.081a10.415,10.415,0,0,0-10.4-10.4v2.081A8.332,8.332,0,0,1,264.343,34.447Zm0,0" transform="translate(-222.728 -20.916)" fill="#252340"/>
        <path id="Trazado_1051627" data-name="Trazado 1051627" d="M224.02,272.043H226.1v2.081H224.02Zm0,0" transform="translate(-194.89 -236.665)" fill="#252340"/>
        <path id="Trazado_1051628" data-name="Trazado 1051628" d="M214.509,281.008a1.04,1.04,0,0,0-.962-.642h-2.081v-8.323h-2.081v9.363a1.04,1.04,0,0,0,1.04,1.04h.61l-3.731,3.731-3.731-3.731h.61a1.04,1.04,0,0,0,1.04-1.04v-5.2h-2.081v4.161h-2.081a1.04,1.04,0,0,0-.735,1.776l6.242,6.242a1.04,1.04,0,0,0,1.471,0l6.242-6.242A1.04,1.04,0,0,0,214.509,281.008Zm0,0" transform="translate(-174.014 -236.665)" fill="#252340"/>
        <path id="Trazado_1051629" data-name="Trazado 1051629" d="M324.185,132.527a1.04,1.04,0,0,0,1.04-1.04v-4.161h-2.081v3.121h-2.081a1.04,1.04,0,0,0-.735,1.776l6.242,6.242a1.04,1.04,0,0,0,1.471,0l6.242-6.242a1.04,1.04,0,0,0-.736-1.776h-2.081v-10.4h-2.081v11.444a1.04,1.04,0,0,0,1.04,1.04h.61l-3.731,3.731-3.731-3.731Zm0,0" transform="translate(-278.409 -104.432)" fill="#252340"/>
        <path id="Trazado_1051630" data-name="Trazado 1051630" d="M392.02,88.043H394.1v2.081H392.02Zm0,0" transform="translate(-341.042 -76.593)" fill="#252340"/>
        <path id="Trazado_1051631" data-name="Trazado 1051631" d="M86.57,138.465a1.04,1.04,0,0,0,1.471,0l6.242-6.242a1.04,1.04,0,0,0-.736-1.776H91.467v-3.121H89.386v4.161a1.04,1.04,0,0,0,1.04,1.04h.61l-3.731,3.731-3.731-3.731h.61a1.04,1.04,0,0,0,1.04-1.04V120.043H83.144v10.4H81.063a1.04,1.04,0,0,0-.735,1.776Zm0,0" transform="translate(-69.619 -104.432)" fill="#252340"/>
        <path id="Trazado_1051632" data-name="Trazado 1051632" d="M104.02,88.043H106.1v2.081H104.02Zm0,0" transform="translate(-90.495 -76.593)" fill="#252340"/>
        <path id="Trazado_1051633" data-name="Trazado 1051633" d="M378.1,14.285h2.081V12.2h2.081V10.124h-2.081V8.043H378.1v2.081H376.02V12.2H378.1Zm0,0" transform="translate(-327.123 -6.997)" fill="#252340"/>
        <path id="Trazado_1051634" data-name="Trazado 1051634" d="M90.1,14.285h2.081V12.2h2.081V10.124H92.181V8.043H90.1v2.081H88.02V12.2H90.1Zm0,0" transform="translate(-76.576 -6.997)" fill="#252340"/>
      </g>
    </g>
  </g>
</svg>
