<svg xmlns="http://www.w3.org/2000/svg" xmlns:xlink="http://www.w3.org/1999/xlink" width="103" height="103" viewBox="0 0 103 103">
  <defs>
    <filter id="Trazado_982547" x="0" y="0" width="103" height="103" filterUnits="userSpaceOnUse">
      <feOffset dy="3" input="SourceAlpha"/>
      <feGaussianBlur stdDeviation="3" result="blur"/>
      <feFlood flood-opacity="0.161"/>
      <feComposite operator="in" in2="blur"/>
      <feComposite in="SourceGraphic"/>
    </filter>
  </defs>
  <g id="Grupo_1207497" data-name="Grupo 1207497" transform="translate(-611 -3829)">
    <g id="Grupo_1207314" data-name="Grupo 1207314" transform="translate(0 3085)">
      <g id="Grupo_1202210" data-name="Grupo 1202210" transform="translate(340 -126.414)">
        <g id="Grupo_1174813" data-name="Grupo 1174813" transform="translate(280 876.414)">
          <g id="Grupo_1201680" data-name="Grupo 1201680">
            <g id="Grupo_1201330" data-name="Grupo 1201330">
              <g id="Grupo_1172010" data-name="Grupo 1172010">
                <g id="Grupo_1171046" data-name="Grupo 1171046">
                  <g id="Grupo_1148525" data-name="Grupo 1148525">
                    <g transform="matrix(1, 0, 0, 1, -9, -6)" filter="url(#Trazado_982547)">
                      <g id="Trazado_982547-2" data-name="Trazado 982547" transform="translate(9 6)" fill="#f2f7e5">
                        <path d="M 42.5 83.5 C 36.96437835693359 83.5 31.59512901306152 82.41617584228516 26.54141235351562 80.27863311767578 C 21.65934181213379 78.21369171142578 17.27447128295898 75.25723266601562 13.50862312316895 71.49137878417969 C 9.742764472961426 67.72553253173828 6.786305904388428 63.34066009521484 4.721364498138428 58.45858764648438 C 2.583823442459106 53.40486907958984 1.5 48.03562164306641 1.5 42.5 C 1.5 36.96437835693359 2.583823442459106 31.59512901306152 4.721364498138428 26.54141235351562 C 6.786305904388428 21.65934181213379 9.742764472961426 17.27448272705078 13.50862312316895 13.50862312316895 C 17.27447128295898 9.742776870727539 21.65934181213379 6.786305904388428 26.54141235351562 4.721364498138428 C 31.59512901306152 2.583823442459106 36.96437835693359 1.5 42.5 1.5 C 48.03562164306641 1.5 53.40486907958984 2.583823442459106 58.45858764648438 4.721364498138428 C 63.34066009521484 6.786305904388428 67.72553253173828 9.742776870727539 71.49137878417969 13.50862312316895 C 75.25723266601562 17.27448272705078 78.21369171142578 21.65934181213379 80.27863311767578 26.54141235351562 C 82.41617584228516 31.59512901306152 83.5 36.96437835693359 83.5 42.5 C 83.5 48.03562164306641 82.41617584228516 53.40486907958984 80.27863311767578 58.45858764648438 C 78.21369171142578 63.34066009521484 75.25723266601562 67.72553253173828 71.49137878417969 71.49137878417969 C 67.72553253173828 75.25723266601562 63.34066009521484 78.21369171142578 58.45858764648438 80.27863311767578 C 53.40486907958984 82.41617584228516 48.03562164306641 83.5 42.5 83.5 Z" stroke="none"/>
                        <path d="M 42.5 3 C 37.16621398925781 3 31.99356079101562 4.043960571289062 27.125732421875 6.102882385253906 C 22.42246627807617 8.092185974121094 18.19785308837891 10.94070434570312 14.56928253173828 14.56928253173828 C 10.94070434570312 18.19785308837891 8.092185974121094 22.42246627807617 6.102882385253906 27.125732421875 C 4.043960571289062 31.99356079101562 3 37.16621398925781 3 42.5 C 3 47.83378601074219 4.043960571289062 53.00643920898438 6.102882385253906 57.874267578125 C 8.092185974121094 62.57753372192383 10.94070434570312 66.80214691162109 14.56928253173828 70.43071746826172 C 18.19785308837891 74.05929565429688 22.42246627807617 76.90781402587891 27.125732421875 78.89711761474609 C 31.99356079101562 80.95603942871094 37.16621398925781 82 42.5 82 C 47.83378601074219 82 53.00643920898438 80.95603942871094 57.874267578125 78.89711761474609 C 62.57753372192383 76.90781402587891 66.80214691162109 74.05929565429688 70.43071746826172 70.43071746826172 C 74.05929565429688 66.80214691162109 76.90781402587891 62.57753372192383 78.89711761474609 57.874267578125 C 80.95603942871094 53.00643920898438 82 47.83378601074219 82 42.5 C 82 37.16621398925781 80.95603942871094 31.99356079101562 78.89711761474609 27.125732421875 C 76.90781402587891 22.42246627807617 74.05929565429688 18.19785308837891 70.43071746826172 14.56928253173828 C 66.80214691162109 10.94070434570312 62.57753372192383 8.092185974121094 57.874267578125 6.102882385253906 C 53.00643920898438 4.043960571289062 47.83378601074219 3 42.5 3 M 42.5 0 C 65.97210693359375 0 85 19.02789306640625 85 42.5 C 85 65.97210693359375 65.97210693359375 85 42.5 85 C 19.02789306640625 85 0 65.97210693359375 0 42.5 C 0 19.02789306640625 19.02789306640625 0 42.5 0 Z" stroke="none" fill="#1d7083"/>
                      </g>
                    </g>
                  </g>
                </g>
              </g>
            </g>
          </g>
        </g>
      </g>
    </g>
    <g id="search-engine-optimization_18275102" transform="translate(612.264 3830.341)">
      <g id="Grupo_1207496" data-name="Grupo 1207496" transform="translate(27.149 23.06)">
        <path id="Trazado_1051782" data-name="Trazado 1051782" d="M51.674,347.368h41.2a1.544,1.544,0,0,0,1.356-.841,2.081,2.081,0,0,0,.146-1.772L90.125,333h-35.7l-4.253,11.755a2.085,2.085,0,0,0,.146,1.772A1.546,1.546,0,0,0,51.674,347.368Z" transform="translate(-48.331 -301.823)" fill="#8ba7b4" fill-rule="evenodd"/>
        <path id="Trazado_1051783" data-name="Trazado 1051783" d="M127.247,347.368h34.9a1.544,1.544,0,0,0,1.356-.841,2.081,2.081,0,0,0,.146-1.772L159.393,333H139.424c-7.261,2.646-12.194,7.821-12.194,13.772,0,.2.006.4.017.6Z" transform="translate(-117.599 -301.823)" fill="#a6bcc9" fill-rule="evenodd"/>
        <path id="Trazado_1051784" data-name="Trazado 1051784" d="M93.863,433.57l-43.246.189L50.168,435a2.085,2.085,0,0,0,.146,1.772,1.546,1.546,0,0,0,1.359.841h41.2a1.544,1.544,0,0,0,1.356-.841A2.081,2.081,0,0,0,94.378,435Z" transform="translate(-48.331 -392.067)" fill="#6f8ea0" fill-rule="evenodd"/>
        <path id="Trazado_1051785" data-name="Trazado 1051785" d="M183.412,392.55h13.708l1.409,4.285H182Z" transform="translate(-166.746 -355.258)" fill="#54778b" fill-rule="evenodd"/>
        <path id="Trazado_1051786" data-name="Trazado 1051786" d="M94.9,102.6h31.383a2.168,2.168,0,0,1,2.159,2.162v21.493H92.74V104.762A2.168,2.168,0,0,1,94.9,102.6Z" transform="translate(-86.65 -95.078)" fill="#6f8ea0" fill-rule="evenodd"/>
        <path id="Trazado_1051787" data-name="Trazado 1051787" d="M123.07,148.147h29.476V130.4a.236.236,0,0,0-.2-.247H123.273a.235.235,0,0,0-.2.247Z" transform="translate(-113.866 -119.8)" fill="#b9d9f2" fill-rule="evenodd"/>
        <path id="Trazado_1051788" data-name="Trazado 1051788" d="M193.225,45.592l-5.189,8.993-3.856-2.227,7.285-12.619,7.367,3.95,5.163-8.944-2.284-1.321,7.975-4.083.449,8.947-2.284-1.318-7.389,12.8-7.234-4.174Z" transform="translate(-168.702 -29.34)" fill="#ffd122" fill-rule="evenodd"/>
        <path id="Trazado_1051789" data-name="Trazado 1051789" d="M212.662,45.592l-5.189,8.993-1.633-.943,6.415-11.112,7.364,3.947,5.163-8.944,4.339-8.193.449,8.947-2.285-1.318-7.389,12.8Z" transform="translate(-188.138 -29.34)" fill="#f8ed3f" fill-rule="evenodd"/>
        <path id="Trazado_1051790" data-name="Trazado 1051790" d="M57.1,163.553a12.123,12.123,0,0,0-11.662,21.065l-2.9,5.032,2.086,1.205,2.9-5.035c.133.062.268.119.4.175A12.122,12.122,0,0,0,57.1,163.553Z" transform="translate(-39.678 -148.962)" fill="#fccec1" fill-rule="evenodd"/>
        <path id="Trazado_1051791" data-name="Trazado 1051791" d="M38.32,390.99l2.02,1.167a.935.935,0,0,1,.341,1.269l-3.5,6.06a.931.931,0,0,1-1.269.341l-2.02-1.167a.931.931,0,0,1-.341-1.269l3.5-6.06A.931.931,0,0,1,38.32,390.99Z" transform="translate(-33.426 -353.747)" fill="#c86f5c" fill-rule="evenodd"/>
        <path id="Trazado_1051792" data-name="Trazado 1051792" d="M38.32,390.989l1.01.582L34.9,399.243l-1.01-.585a.931.931,0,0,1-.341-1.269l3.5-6.06a.932.932,0,0,1,1.269-.34Z" transform="translate(-33.426 -353.747)" fill="#a65143" fill-rule="evenodd"/>
        <path id="Trazado_1051793" data-name="Trazado 1051793" d="M76.671,186.194a9.779,9.779,0,1,0,5.355,12.753A9.779,9.779,0,0,0,76.671,186.194Z" transform="translate(-60.133 -169.435)" fill="#b9d9f2" fill-rule="evenodd"/>
        <path id="Trazado_1051794" data-name="Trazado 1051794" d="M71.115,187.21a9.78,9.78,0,0,0-1.842,18.656A9.908,9.908,0,0,0,71,206.4a9.781,9.781,0,0,0,1.842-18.658A9.562,9.562,0,0,0,71.115,187.21Z" transform="translate(-60.133 -171.001)" fill="#e5f0fa" fill-rule="evenodd"/>
        <path id="Trazado_1051795" data-name="Trazado 1051795" d="M92.177,216.746l-1.019.273a.557.557,0,0,0-.4.687l.1.4a.556.556,0,0,1-.262.631,5.787,5.787,0,0,0-1.2.92.554.554,0,0,1-.678.09l-.355-.206a.562.562,0,0,0-.766.206l-.53.914a.562.562,0,0,0,.206.766l.355.206a.553.553,0,0,1,.262.631,5.711,5.711,0,0,0-.2,1.5.555.555,0,0,1-.416.541l-.4.108a.56.56,0,0,0-.4.687l.273,1.019a.559.559,0,0,0,.687.4l.4-.1a.556.556,0,0,1,.631.262,5.787,5.787,0,0,0,.92,1.2.554.554,0,0,1,.09.678l-.206.355a.562.562,0,0,0,.206.766l.914.527a.562.562,0,0,0,.766-.2l.206-.355a.553.553,0,0,1,.631-.262,5.841,5.841,0,0,0,1.5.2.555.555,0,0,1,.541.416l.108.4a.559.559,0,0,0,.684.4l1.022-.273a.56.56,0,0,0,.4-.687l-.1-.4a.555.555,0,0,1,.262-.631,5.9,5.9,0,0,0,1.2-.92.551.551,0,0,1,.676-.09l.358.206a.562.562,0,0,0,.766-.206l.527-.914a.562.562,0,0,0-.2-.766l-.355-.206a.553.553,0,0,1-.262-.631,5.842,5.842,0,0,0,.2-1.5.555.555,0,0,1,.416-.541l.4-.108a.562.562,0,0,0,.4-.687l-.273-1.018a.557.557,0,0,0-.687-.4l-.4.1a.553.553,0,0,1-.631-.262,5.9,5.9,0,0,0-.92-1.2.554.554,0,0,1-.09-.678l.206-.355a.562.562,0,0,0-.206-.766l-.914-.527a.559.559,0,0,0-.766.2l-.206.355a.553.553,0,0,1-.631.262,5.71,5.71,0,0,0-1.5-.2.552.552,0,0,1-.541-.416l-.108-.4A.558.558,0,0,0,92.177,216.746Z" transform="translate(-81.03 -197.487)" fill="gray" fill-rule="evenodd"/>
        <path id="Trazado_1051796" data-name="Trazado 1051796" d="M123.438,251.21a3.491,3.491,0,1,0,4.275,2.468A3.489,3.489,0,0,0,123.438,251.21Z" transform="translate(-111.873 -228.322)" fill="#e6e6e6" fill-rule="evenodd"/>
      </g>
      <path id="Trazado_1051797" data-name="Trazado 1051797" d="M38.9,46.637a2.778,2.778,0,0,0-.669,5.084v0A2.775,2.775,0,0,0,41,46.911v0A2.77,2.77,0,0,0,38.9,46.637Zm-2.928.574a4.21,4.21,0,1,1,1.54,5.751l0,0A4.2,4.2,0,0,1,35.971,47.211Zm2.36-4.162-.716.192a1.443,1.443,0,0,1,.011,1.065c-.216.524-.611.614-1.1.987s-.666.728-1.234.8a1.463,1.463,0,0,1-1.028-.291l-.373.643a1.474,1.474,0,0,1,.766.747c.221.536,0,.873-.079,1.469s.041.99-.306,1.44a1.434,1.434,0,0,1-.928.524l.192.716a1.431,1.431,0,0,1,1.066-.011c.521.216.614.608.987,1.1s.728.663.8,1.234a1.424,1.424,0,0,1-.289,1.028l.643.373A1.45,1.45,0,0,1,37.5,54.3c.536-.221.873,0,1.469.079s.99-.044,1.44.3a1.454,1.454,0,0,1,.524.931l.716-.192a1.443,1.443,0,0,1-.014-1.065c.219-.524.611-.614,1.1-.987s.666-.728,1.237-.8a1.422,1.422,0,0,1,1.025.291l.376-.646-.224-.128a1.275,1.275,0,0,1-.6-1.434,4.967,4.967,0,0,0,.178-1.315,1.266,1.266,0,0,1,.946-1.234l.244-.067-.192-.716a1.452,1.452,0,0,1-1.068.011c-.521-.216-.611-.611-.984-1.1s-.728-.666-.8-1.234a1.418,1.418,0,0,1,.291-1.025l-.646-.376-.128.221v0a1.273,1.273,0,0,1-1.437.593,5.053,5.053,0,0,0-1.312-.175,1.273,1.273,0,0,1-1.237-.946Zm-1.2-1.164.981-.262a1.274,1.274,0,0,1,.972.128h0a1.425,1.425,0,0,1,.673,1.056A6.521,6.521,0,0,1,41.2,43a1.408,1.408,0,0,1,.92-.85,1.293,1.293,0,0,1,.969.128l.914.53a1.279,1.279,0,0,1,.468,1.746l0,0,0,.008h0l-.14.244a6.282,6.282,0,0,1,.89,1.158,1.434,1.434,0,0,1,1.255.055h0a1.277,1.277,0,0,1,.6.774l.289,1.077a1.285,1.285,0,0,1-.958,1.52l-.244.067a6.532,6.532,0,0,1-.189,1.45c.387.224.707.387.847.92a1.271,1.271,0,0,1-.128.969l-.527.917a1.283,1.283,0,0,1-1.746.466v0l-.251-.146a6.3,6.3,0,0,1-1.161.89,1.434,1.434,0,0,1-.052,1.255h0a1.266,1.266,0,0,1-.774.593l-1.077.289a1.281,1.281,0,0,1-1.516-.955l-.067-.247a6.593,6.593,0,0,1-1.45-.189,1.427,1.427,0,0,1-.92.85,1.28,1.28,0,0,1-.972-.131h0l-.917-.527a1.277,1.277,0,0,1-.466-1.746l.146-.251A6.323,6.323,0,0,1,34.04,52.7a1.423,1.423,0,0,1-1.255-.052,1.277,1.277,0,0,1-.6-.774l-.27-1.022a1.286,1.286,0,0,1,.906-1.566l.282-.076a6.665,6.665,0,0,1,.189-1.447,1.435,1.435,0,0,1-.847-.923,1.271,1.271,0,0,1,.128-.969h0l.527-.917a1.276,1.276,0,0,1,1.743-.466l.254.146a6.408,6.408,0,0,1,1.158-.888,1.423,1.423,0,0,1,.055-1.255A1.278,1.278,0,0,1,37.129,41.885Zm6.8-2.744c.017.008.035.014.052.024a9.673,9.673,0,1,1-.052-.024Zm-.515,1.336A9.066,9.066,0,1,0,48.377,52.3a9.073,9.073,0,0,0-4.961-11.822ZM32.985,60.017l.847.489.547-.949a.711.711,0,0,1,.914-.294v0l.379.166a11.344,11.344,0,0,0,7.762.311.709.709,0,0,1,.32-.1c.219-.076.433-.16.646-.251A11.4,11.4,0,1,0,33.332,58.13a.715.715,0,0,1,.168.995Zm2,1.366a1.639,1.639,0,0,1,.038,1.712h0l-.53.92,7.372-.032.841-2.561a12.778,12.778,0,0,1-7.4-.6Zm-1.319,4.066-1.406,2.436H71.692c.7,0,1.094-.914.83-1.653l-.346-.952-13.105.059a.735.735,0,0,1-.276,0ZM31.41,69.322a1.648,1.648,0,0,1-2.194.4l-1.962-1.136v0a1.648,1.648,0,0,1-.6-2.25l3.5-6.063a1.811,1.811,0,0,1,.262-.341l.66-1.824a12.852,12.852,0,0,1,1.447-19.691V32.741A2.887,2.887,0,0,1,35.4,29.86H60.8l.658-1.135L59.8,27.762A.717.717,0,0,1,59.83,26.5L67.8,22.421a.715.715,0,0,1,1.039.6l.416,8.26a2.745,2.745,0,0,1,.268.6,2.821,2.821,0,0,1,.133.861V54.116l4.209,11.63a2.585,2.585,0,0,1-2.177,3.577H31.41Zm2.251-7.259-1.98-1.144a.216.216,0,0,0-.289.079l-3.5,6.063a.217.217,0,0,0,.079.289v0l2.023,1.164c.227.131.329-.163.425-.314l3.335-5.78C33.864,62.22,33.8,62.153,33.661,62.063Zm.3-24.531a12.984,12.984,0,0,1,1.677-.742V33.655a.953.953,0,0,1,.923-.966H59.174l.8-1.391H35.4a1.451,1.451,0,0,0-1.444,1.444Zm3.114-1.167a12.84,12.84,0,0,1,9.485,1.475L48.7,34.126H37.071ZM47.746,38.64a12.7,12.7,0,0,1,2.235,2.165l1.071-1.856h0a.712.712,0,0,1,.975-.259l6.612,3.815,7.031-12.174a.713.713,0,0,1,.975-.265l1.147.66L67.471,24.2,61.653,27.18l1.144.66a.717.717,0,0,1,.265.977l-1.19,2.061a.588.588,0,0,1-.067.116l-1.566,2.713a.8.8,0,0,1-.067.116l-2.266,3.923a.718.718,0,0,1-.966.291l-6.755-3.62Zm3.147,3.452a12.6,12.6,0,0,1,.934,1.807,12.806,12.806,0,0,1,.871,6.787H65.111V34.167l-5.585,9.674a.712.712,0,0,1-.975.262l-6.612-3.815Zm1.513,10.032a12.279,12.279,0,0,1-.454,1.391H68.224V32.741c0-.038,0-.076,0-.114l-1.664-.963-.625,1.08a.979.979,0,0,1,.617.911V51.4a.717.717,0,0,1-.719.719H52.406Zm-1.115,2.829A12.785,12.785,0,0,1,47,59.63H57.523a.717.717,0,0,1,.7.538L59.447,63.9l12.215-.052-3.219-8.9H51.291Zm1.385-20.827L57,36.445l1.339-2.319Zm5.262,29.785L57,61.065H44.332l-.958,2.911Z" transform="translate(0 0)"/>
    </g>
  </g>
</svg>
