<svg xmlns="http://www.w3.org/2000/svg" xmlns:xlink="http://www.w3.org/1999/xlink" width="108" height="108" viewBox="0 0 108 108">
  <defs>
    <filter id="Trazado_904820" x="0" y="0" width="108" height="108" filterUnits="userSpaceOnUse">
      <feOffset dy="3" input="SourceAlpha"/>
      <feGaussianBlur stdDeviation="3" result="blur"/>
      <feFlood flood-opacity="0.161"/>
      <feComposite operator="in" in2="blur"/>
      <feComposite in="SourceGraphic"/>
    </filter>
  </defs>
  <g id="Grupo_1207336" data-name="Grupo 1207336" transform="translate(-215 -903.282)">
    <g id="Grupo_1207283" data-name="Grupo 1207283" transform="translate(224 909.282)">
      <g id="Grupo_1173585" data-name="Grupo 1173585" transform="translate(0 0)">
        <g id="Grupo_1173428" data-name="Grupo 1173428">
          <g id="Grupo_1171958" data-name="Grupo 1171958">
            <g id="Grupo_1167341" data-name="Grupo 1167341">
              <g id="Grupo_1166792" data-name="Grupo 1166792">
                <g transform="matrix(1, 0, 0, 1, -9, -6)" filter="url(#Trazado_904820)">
                  <g id="Trazado_904820-2" data-name="Trazado 904820" transform="translate(9 6)" fill="#f2f7e5">
                    <path d="M 44.99999618530273 88.49999237060547 C 39.12687301635742 88.49999237060547 33.43022155761719 87.35006713867188 28.06829643249512 85.08216857910156 C 22.88852119445801 82.89130401611328 18.23629570007324 79.75457763671875 14.24084663391113 75.75914001464844 C 10.24540901184082 71.76369476318359 7.108683586120605 67.11146545410156 4.917821407318115 61.93169403076172 C 2.649921178817749 56.56976699829102 1.499996185302734 50.87311553955078 1.499996185302734 44.99999237060547 C 1.499996185302734 39.12686920166016 2.649921178817749 33.43021774291992 4.917821407318115 28.06829261779785 C 7.108683586120605 22.88851737976074 10.24540901184082 18.23630523681641 14.24084663391113 14.24085521697998 C 18.23629570007324 10.24540519714355 22.88852119445801 7.108692169189453 28.06829643249512 4.917829990386963 C 33.43022155761719 2.649929761886597 39.12687301635742 1.500004887580872 44.99999618530273 1.500004887580872 C 50.87311935424805 1.500004887580872 56.56977081298828 2.649929761886597 61.93169784545898 4.917829990386963 C 67.11147308349609 7.108692169189453 71.76369476318359 10.24540519714355 75.75914764404297 14.24085521697998 C 79.75458526611328 18.23630523681641 82.89131164550781 22.88851737976074 85.08216857910156 28.06829261779785 C 87.35007476806641 33.43021774291992 88.5 39.12686920166016 88.5 44.99999237060547 C 88.5 50.87311553955078 87.35007476806641 56.56976699829102 85.08216857910156 61.93169403076172 C 82.89131164550781 67.11146545410156 79.75458526611328 71.76369476318359 75.75914764404297 75.75914001464844 C 71.76369476318359 79.75457763671875 67.11147308349609 82.89130401611328 61.93169784545898 85.08216857910156 C 56.56977081298828 87.35006713867188 50.87311935424805 88.49999237060547 44.99999618530273 88.49999237060547 Z" stroke="none"/>
                    <path d="M 44.99999618530273 2.999992370605469 C 39.32870864868164 2.999992370605469 33.82865142822266 4.11004638671875 28.65262603759766 6.299331665039062 C 23.65165710449219 8.414566040039062 19.15968322753906 11.44333648681641 15.301513671875 15.30150604248047 C 11.44333648681641 19.15967559814453 8.414566040039062 23.65164947509766 6.299339294433594 28.65262222290039 C 4.110054016113281 33.82864761352539 2.999992370605469 39.32870483398438 2.999992370605469 44.99999237060547 C 2.999992370605469 50.67127990722656 4.110054016113281 56.17132186889648 6.299339294433594 61.34736633300781 C 8.414566040039062 66.34833526611328 11.44333648681641 70.84029388427734 15.301513671875 74.69846343994141 C 19.15968322753906 78.55663299560547 23.65165710449219 81.58540344238281 28.65262603759766 83.70063781738281 C 33.82865142822266 85.88992309570312 39.32870864868164 86.99997711181641 44.99999618530273 86.99997711181641 C 50.67128372192383 86.99997711181641 56.17134094238281 85.88992309570312 61.34736633300781 83.70063781738281 C 66.34834289550781 81.58540344238281 70.84030914306641 78.55663299560547 74.69847869873047 74.69846343994141 C 78.55665588378906 70.84029388427734 81.58542633056641 66.34833526611328 83.70065307617188 61.34736633300781 C 85.88993835449219 56.17132186889648 87 50.67127990722656 87 44.99999237060547 C 87 39.32870483398438 85.88993835449219 33.82864761352539 83.70065307617188 28.65262222290039 C 81.58542633056641 23.65164947509766 78.55665588378906 19.15967559814453 74.69847869873047 15.30150604248047 C 70.84030914306641 11.44333648681641 66.34834289550781 8.414566040039062 61.34736633300781 6.299331665039062 C 56.17134094238281 4.11004638671875 50.67128372192383 2.999992370605469 44.99999618530273 2.999992370605469 M 44.99999618530273 -7.62939453125e-06 C 69.85281372070312 -7.62939453125e-06 90 20.14717864990234 90 44.99999237060547 C 90 69.85279083251953 69.85281372070312 89.99997711181641 44.99999618530273 89.99997711181641 C 20.14717864990234 89.99997711181641 -7.62939453125e-06 69.85279083251953 -7.62939453125e-06 44.99999237060547 C -7.62939453125e-06 20.14717864990234 20.14717864990234 -7.62939453125e-06 44.99999618530273 -7.62939453125e-06 Z" stroke="none" fill="#86b60c"/>
                  </g>
                </g>
              </g>
            </g>
          </g>
        </g>
      </g>
    </g>
    <g id="financial-analysis_13496220" transform="translate(223.311 889.847)">
      <path id="Trazado_1051230" data-name="Trazado 1051230" d="M23.38,75.687,22.1,76.827A2.824,2.824,0,0,1,18.12,76.6l-1.328-1.487h0l-.028-.034a2.824,2.824,0,0,1,.192-3.954l0,0,.034-.028,6.041-5.393a2.843,2.843,0,0,1,.352-.269V44.645a.787.787,0,0,1,.225-.532l5.273-6.389a.784.784,0,0,1,.607-.287v0H58.329a2.134,2.134,0,0,1,2.13,2.13v1.547h2.1a2.134,2.134,0,0,1,2.13,2.13V61.791a3.751,3.751,0,0,1,2.378-1.216c1.305.034,2.532,1.384,3.491,1.733a.787.787,0,0,1,.516.8h0a13.081,13.081,0,0,1-1.8,5.171,2.281,2.281,0,0,1,.613,3.072,24.329,24.329,0,0,1,4.543,7.886c1.02,2.962,1.26,5.813.255,7.554-3.429,5.939-17.051,6.151-21.357.808H29.742a2.137,2.137,0,0,1-2.13-2.13V83.922h-2.1a2.134,2.134,0,0,1-2.13-2.13Z" transform="translate(0 0)" fill="#121209" fill-rule="evenodd"/>
      <g id="Grupo_1207335" data-name="Grupo 1207335" transform="translate(25.84 40.22)">
        <path id="Trazado_1051231" data-name="Trazado 1051231" d="M95.324,63.635h2.467a.555.555,0,0,0,.552-.552V59.978Z" transform="translate(-95.324 -59.978)" fill="#cbcacd" fill-rule="evenodd"/>
        <path id="Trazado_1051232" data-name="Trazado 1051232" d="M145.668,415.853a6.586,6.586,0,0,1-.38-2.1H122.442V415.3a.553.553,0,0,0,.552.551Z" transform="translate(-119.092 -370.051)" fill="#cbcacd" fill-rule="evenodd"/>
        <path id="Trazado_1051233" data-name="Trazado 1051233" d="M375.564,97.709a8.487,8.487,0,0,1,2.653,1.431V80.525a.556.556,0,0,0-.552-.552h-2.1Z" transform="translate(-340.946 -77.503)" fill="#cbcacd" fill-rule="evenodd"/>
      </g>
      <path id="Trazado_1051234" data-name="Trazado 1051234" d="M370.625,296.469h-8.54a.707.707,0,1,0,0,1.414h8.54a.707.707,0,1,0,0-1.414Z" transform="translate(-302.672 -227.035)" fill="#435b37" fill-rule="evenodd"/>
      <path id="Trazado_1051235" data-name="Trazado 1051235" d="M335.082,319.812a2.271,2.271,0,0,1-.694.108h-8.54a2.275,2.275,0,0,1-.483-.052,22.761,22.761,0,0,0-4.588,7.541,12.63,12.63,0,0,0-.72,3.176l-.012.185a4.906,4.906,0,0,0,.527,2.726,6.155,6.155,0,0,0,2.3,2.167c3.9,2.251,10.675,2.256,14.575,0a6.134,6.134,0,0,0,2.307-2.172c.758-1.312.5-3.69-.384-6.253a22.621,22.621,0,0,0-4.293-7.432Zm-2.372,6.282a.789.789,0,0,1-1.578,0c0-1.494-2.609-1.494-2.609,0,0,1.971,4.187.2,4.187,3.851a2.6,2.6,0,0,1-2.094,2.6v.494a.789.789,0,1,1-1.578,0v-.494a2.6,2.6,0,0,1-2.093-2.6.789.789,0,0,1,1.578,0c0,1.495,2.609,1.495,2.609,0,0-1.989-4.187-.208-4.187-3.851a2.6,2.6,0,0,1,2.093-2.6V323a.789.789,0,1,1,1.578,0v.494a2.6,2.6,0,0,1,2.093,2.6Z" transform="translate(-266.434 -247.495)" fill="#4b7a3f" fill-rule="evenodd"/>
      <path id="Trazado_1051236" data-name="Trazado 1051236" d="M345.736,319.812a2.271,2.271,0,0,1-.694.108H336.5a2.276,2.276,0,0,1-.483-.052,23.1,23.1,0,0,0-3.829,5.7,40.9,40.9,0,0,0,6.3,2.575,2.286,2.286,0,0,1-.892-2.054,2.6,2.6,0,0,1,2.093-2.6V323a.789.789,0,1,1,1.578,0v.494a2.6,2.6,0,0,1,2.094,2.6.789.789,0,1,1-1.578,0c0-1.494-2.609-1.494-2.609,0,0,1.853,3.7.4,4.144,3.254a41.43,41.43,0,0,0,7.423.689,16.291,16.291,0,0,0-.715-2.793,22.614,22.614,0,0,0-4.293-7.432Z" transform="translate(-277.089 -247.495)" fill="#659462" fill-rule="evenodd"/>
      <path id="Trazado_1051237" data-name="Trazado 1051237" d="M356.759,241.936h7.92a12.546,12.546,0,0,0,1.743-4.34c-.7-.385-1.9-1.356-2.409-1.369-.7-.018-1.776,1.758-3.235,1.613a4.8,4.8,0,0,1-2.216-1.029c-.551-.374-1.246-.866-1.6-.74-.637.227-1.228,1.026-2.075,1.4A11.352,11.352,0,0,0,356.759,241.936Z" transform="translate(-296.984 -174.081)" fill="#659462" fill-rule="evenodd"/>
      <path id="Trazado_1051238" data-name="Trazado 1051238" d="M38.367,275.184c-.244-.273-1.324-1.515-1.514-1.666a1.262,1.262,0,0,0-1.607.045l-6.008,5.364h0a1.257,1.257,0,0,0-.164,1.759h0l.028.034,1.357,1.52a1.259,1.259,0,0,0,1.764.1l6.041-5.393A1.26,1.26,0,0,0,38.367,275.184Z" transform="translate(-11.17 -206.685)" fill="#f19d1e" fill-rule="evenodd"/>
      <path id="Trazado_1051239" data-name="Trazado 1051239" d="M130.236,117.532a10.817,10.817,0,1,0-16.659,8.488.809.809,0,0,1,.1.065,10.786,10.786,0,0,0,3.743,1.465,12.089,12.089,0,0,0,1.4.171,10.826,10.826,0,0,0,5.858-1.335.8.8,0,0,1,.111-.062,10.9,10.9,0,0,0,3.318-2.931.785.785,0,0,1,.074-.1,10.739,10.739,0,0,0,.965-1.6.8.8,0,0,1,.052-.107,10.841,10.841,0,0,0,1.038-4.055Zm-9.405-9.909a9.4,9.4,0,1,1-2.8,18.592l-.929-.188a9.349,9.349,0,0,1-4.427-2.573,9.65,9.65,0,0,1-.8-.951,9.4,9.4,0,0,1,8.956-14.88Z" transform="translate(-81.135 -60.19)" fill="#f19d1e" fill-rule="evenodd"/>
      <path id="Trazado_1051240" data-name="Trazado 1051240" d="M169.407,117.456a10.825,10.825,0,0,0-16.1-10.054q.11.761.246,1.513a9.4,9.4,0,1,1,7.391,17.032q.455.614.932,1.211a10.739,10.739,0,0,0,1.969-.848.8.8,0,0,1,.111-.062,10.905,10.905,0,0,0,3.318-2.931.783.783,0,0,1,.074-.1,10.739,10.739,0,0,0,.966-1.6.8.8,0,0,1,.052-.107A10.841,10.841,0,0,0,169.407,117.456Z" transform="translate(-120.306 -60.114)" fill="#f2ab47" fill-rule="evenodd"/>
      <path id="Trazado_1051241" data-name="Trazado 1051241" d="M154.7,284.721a12.365,12.365,0,0,1-2.549-.913v6.7H154.7Z" transform="translate(-119.293 -215.938)" fill="#80b6e3" fill-rule="evenodd"/>
      <path id="Trazado_1051242" data-name="Trazado 1051242" d="M187.642,293.436a12.444,12.444,0,0,1-2.08-.046v5.517h2.08Z" transform="translate(-148.575 -224.336)" fill="#e6e4e5" fill-rule="evenodd"/>
      <path id="Trazado_1051243" data-name="Trazado 1051243" d="M217.718,285.816a12.333,12.333,0,0,1-2.549.782v5.67h2.549Z" transform="translate(-174.524 -217.698)" fill="#77aedf" fill-rule="evenodd"/>
      <path id="Trazado_1051244" data-name="Trazado 1051244" d="M231.923,285.816q-.272.117-.547.22.27.311.547.616Z" transform="translate(-188.729 -217.698)" fill="#8fbfe8" fill-rule="evenodd"/>
      <path id="Trazado_1051245" data-name="Trazado 1051245" d="M250.66,266.214a12.476,12.476,0,0,1-2.08,1.6v7.272h2.08Z" transform="translate(-203.808 -200.518)" fill="#e6e4e5" fill-rule="evenodd"/>
      <path id="Trazado_1051246" data-name="Trazado 1051246" d="M250.66,266.214a12.476,12.476,0,0,1-2.08,1.6v3.307q1.007,1,2.08,1.927Z" transform="translate(-203.808 -200.518)" fill="#fff" fill-rule="evenodd"/>
      <path id="Trazado_1051247" data-name="Trazado 1051247" d="M278.99,241a12.3,12.3,0,0,1-.8,1.289v10.7h2.549V241Z" transform="translate(-229.764 -178.418)" fill="#afc8e9" fill-rule="evenodd"/>
      <path id="Trazado_1051248" data-name="Trazado 1051248" d="M278.99,241a12.3,12.3,0,0,1-.8,1.289v9.958q.485.379.982.742h1.567V241Z" transform="translate(-229.764 -178.418)" fill="#d7e8f8" fill-rule="evenodd"/>
      <path id="Trazado_1051249" data-name="Trazado 1051249" d="M106.531,259.732l1.718-1.431a12.528,12.528,0,0,1-1.376-1.442l-1.61,1.453Z" transform="translate(-78.195 -192.318)" fill="#f19d1e" fill-rule="evenodd"/>
      <path id="Trazado_1051250" data-name="Trazado 1051250" d="M94.512,78.2l-2.235,1.861a2.829,2.829,0,0,1-.9,2.568l-3.186,2.844v7.514a.556.556,0,0,0,.552.552h26.614c.5-3.78,2.956-8.057,5.462-10.833a2.281,2.281,0,0,1,.563-3.273A11.253,11.253,0,0,1,119.52,74a.786.786,0,0,1,.752-.788h0c.43-.02,1.246-.872,1.838-1.237V50.76a.556.556,0,0,0-.552-.552H93.667V54.52a2.134,2.134,0,0,1-2.13,2.13H88.189V76.186a2.843,2.843,0,0,1,.743.114l2.055-1.856A12.393,12.393,0,1,1,113.164,72.2H115a.789.789,0,0,1,.789.789V85.766h.753a.789.789,0,0,1,0,1.578H93.76a.789.789,0,1,1,0-1.578h.753Zm23.52-24.091a.789.789,0,1,1,0,1.578h-6.763a.789.789,0,1,1,0-1.578Zm0,3.272a.789.789,0,1,1,0,1.578h-4.364a.789.789,0,0,1,0-1.578Z" transform="translate(-63.23 -11.195)" fill="#e6e4e5" fill-rule="evenodd"/>
      <path id="Trazado_1051251" data-name="Trazado 1051251" d="M170.98,88.531a25.074,25.074,0,0,1,3.875-5.825,2.281,2.281,0,0,1,.563-3.273A11.253,11.253,0,0,1,173.559,74a.786.786,0,0,1,.752-.788h0c.43-.02,1.246-.872,1.838-1.237V50.76a.556.556,0,0,0-.552-.552H149.91c-.043.773-.067,1.551-.067,2.335a41.663,41.663,0,0,0,.22,4.273A12.4,12.4,0,0,1,167.2,72.2h1.834a.789.789,0,0,1,.789.789V85.766h.753a.789.789,0,0,1,0,1.578h-1.591Q169.965,87.965,170.98,88.531Zm1.09-34.422a.789.789,0,1,1,0,1.578h-6.763a.789.789,0,1,1,0-1.578Zm0,3.272a.789.789,0,1,1,0,1.578h-4.363a.789.789,0,1,1,0-1.578Z" transform="translate(-117.268 -11.195)" fill="#fff" fill-rule="evenodd"/>
      <path id="Trazado_1051252" data-name="Trazado 1051252" d="M215.173,222.208a7.821,7.821,0,0,0,2.548-1.362V217.72h-2.548Z" transform="translate(-174.528 -158.014)" fill="#8fbfe8" fill-rule="evenodd"/>
      <path id="Trazado_1051253" data-name="Trazado 1051253" d="M152.153,201.788a7.785,7.785,0,0,0,2.549,1.645V196.52h-2.549Z" transform="translate(-119.293 -139.433)" fill="#80b6e3" fill-rule="evenodd"/>
      <path id="Trazado_1051254" data-name="Trazado 1051254" d="M146.954,133.468a7.825,7.825,0,0,0-13.311,8.112v-3.9a.789.789,0,0,1,.789-.789h4.127a.789.789,0,0,1,.789.789v8.143a7.915,7.915,0,0,0,2.08.075v-5.6a.789.789,0,0,1,.789-.789h4.127a.789.789,0,0,1,.789.789v2.208a7.832,7.832,0,0,0-.179-9.044Z" transform="translate(-102.361 -81.387)" fill="#e6e4e5" fill-rule="evenodd"/>
      <path id="Trazado_1051255" data-name="Trazado 1051255" d="M169.077,133.46a7.829,7.829,0,0,0-10.943-1.647l-.059.044a40.887,40.887,0,0,0,1.482,5.031h1.124a.789.789,0,0,1,.789.789v3.614a41.114,41.114,0,0,0,2.081,3.643V140.3a.789.789,0,0,1,.789-.789h4.127a.789.789,0,0,1,.789.789V142.5a7.832,7.832,0,0,0-.179-9.044Z" transform="translate(-124.484 -81.379)" fill="#fff" fill-rule="evenodd"/>
    </g>
  </g>
</svg>
