<svg xmlns="http://www.w3.org/2000/svg" xmlns:xlink="http://www.w3.org/1999/xlink" width="103" height="103" viewBox="0 0 103 103">
  <defs>
    <filter id="Trazado_982547" x="0" y="0" width="103" height="103" filterUnits="userSpaceOnUse">
      <feOffset dy="3" input="SourceAlpha"/>
      <feGaussianBlur stdDeviation="3" result="blur"/>
      <feFlood flood-opacity="0.161"/>
      <feComposite operator="in" in2="blur"/>
      <feComposite in="SourceGraphic"/>
    </filter>
  </defs>
  <g id="Grupo_1207427" data-name="Grupo 1207427" transform="translate(-191 -3927.5)">
    <g id="Grupo_1207295" data-name="Grupo 1207295" transform="translate(0 3183.5)">
      <g id="Grupo_1202212" data-name="Grupo 1202212" transform="translate(-80 -126.414)">
        <g id="Grupo_1174813" data-name="Grupo 1174813" transform="translate(280 876.414)">
          <g id="Grupo_1201680" data-name="Grupo 1201680">
            <g id="Grupo_1201330" data-name="Grupo 1201330">
              <g id="Grupo_1172010" data-name="Grupo 1172010">
                <g id="Grupo_1171046" data-name="Grupo 1171046">
                  <g id="Grupo_1148525" data-name="Grupo 1148525">
                    <g transform="matrix(1, 0, 0, 1, -9, -6)" filter="url(#Trazado_982547)">
                      <g id="Trazado_982547-2" data-name="Trazado 982547" transform="translate(9 6)" fill="#f2f7e5">
                        <path d="M 42.5 83.5 C 36.96437835693359 83.5 31.59512901306152 82.41617584228516 26.54141235351562 80.27863311767578 C 21.65934181213379 78.21369171142578 17.27447128295898 75.25723266601562 13.50862312316895 71.49137878417969 C 9.742764472961426 67.72553253173828 6.786305904388428 63.34066009521484 4.721364498138428 58.45858764648438 C 2.583823442459106 53.40486907958984 1.5 48.03562164306641 1.5 42.5 C 1.5 36.96437835693359 2.583823442459106 31.59512901306152 4.721364498138428 26.54141235351562 C 6.786305904388428 21.65934181213379 9.742764472961426 17.27448272705078 13.50862312316895 13.50862312316895 C 17.27447128295898 9.742776870727539 21.65934181213379 6.786305904388428 26.54141235351562 4.721364498138428 C 31.59512901306152 2.583823442459106 36.96437835693359 1.5 42.5 1.5 C 48.03562164306641 1.5 53.40486907958984 2.583823442459106 58.45858764648438 4.721364498138428 C 63.34066009521484 6.786305904388428 67.72553253173828 9.742776870727539 71.49137878417969 13.50862312316895 C 75.25723266601562 17.27448272705078 78.21369171142578 21.65934181213379 80.27863311767578 26.54141235351562 C 82.41617584228516 31.59512901306152 83.5 36.96437835693359 83.5 42.5 C 83.5 48.03562164306641 82.41617584228516 53.40486907958984 80.27863311767578 58.45858764648438 C 78.21369171142578 63.34066009521484 75.25723266601562 67.72553253173828 71.49137878417969 71.49137878417969 C 67.72553253173828 75.25723266601562 63.34066009521484 78.21369171142578 58.45858764648438 80.27863311767578 C 53.40486907958984 82.41617584228516 48.03562164306641 83.5 42.5 83.5 Z" stroke="none"/>
                        <path d="M 42.5 3 C 37.16621398925781 3 31.99356079101562 4.043960571289062 27.125732421875 6.102882385253906 C 22.42246627807617 8.092185974121094 18.19785308837891 10.94070434570312 14.56928253173828 14.56928253173828 C 10.94070434570312 18.19785308837891 8.092185974121094 22.42246627807617 6.102882385253906 27.125732421875 C 4.043960571289062 31.99356079101562 3 37.16621398925781 3 42.5 C 3 47.83378601074219 4.043960571289062 53.00643920898438 6.102882385253906 57.874267578125 C 8.092185974121094 62.57753372192383 10.94070434570312 66.80214691162109 14.56928253173828 70.43071746826172 C 18.19785308837891 74.05929565429688 22.42246627807617 76.90781402587891 27.125732421875 78.89711761474609 C 31.99356079101562 80.95603942871094 37.16621398925781 82 42.5 82 C 47.83378601074219 82 53.00643920898438 80.95603942871094 57.874267578125 78.89711761474609 C 62.57753372192383 76.90781402587891 66.80214691162109 74.05929565429688 70.43071746826172 70.43071746826172 C 74.05929565429688 66.80214691162109 76.90781402587891 62.57753372192383 78.89711761474609 57.874267578125 C 80.95603942871094 53.00643920898438 82 47.83378601074219 82 42.5 C 82 37.16621398925781 80.95603942871094 31.99356079101562 78.89711761474609 27.125732421875 C 76.90781402587891 22.42246627807617 74.05929565429688 18.19785308837891 70.43071746826172 14.56928253173828 C 66.80214691162109 10.94070434570312 62.57753372192383 8.092185974121094 57.874267578125 6.102882385253906 C 53.00643920898438 4.043960571289062 47.83378601074219 3 42.5 3 M 42.5 0 C 65.97210693359375 0 85 19.02789306640625 85 42.5 C 85 65.97210693359375 65.97210693359375 85 42.5 85 C 19.02789306640625 85 0 65.97210693359375 0 42.5 C 0 19.02789306640625 19.02789306640625 0 42.5 0 Z" stroke="none" fill="#1d7083"/>
                      </g>
                    </g>
                  </g>
                </g>
              </g>
            </g>
          </g>
        </g>
      </g>
    </g>
    <g id="daily-routine_11719650" transform="translate(195.513 3938.8)">
      <g id="Grupo_1207425" data-name="Grupo 1207425" transform="translate(17.932 6.7)">
        <g id="Grupo_1207421" data-name="Grupo 1207421" transform="translate(0 0)">
          <g id="Grupo_1207413" data-name="Grupo 1207413" transform="translate(22.578)">
            <g id="Grupo_1207412" data-name="Grupo 1207412">
              <path id="Trazado_1051352" data-name="Trazado 1051352" d="M216.5,15.387H204.069a1.134,1.134,0,0,1-1.134-1.134V7.834A1.134,1.134,0,0,1,204.069,6.7H216.5a1.134,1.134,0,0,1,1.134,1.134v6.42A1.134,1.134,0,0,1,216.5,15.387Z" transform="translate(-202.935 -6.7)" fill="#888891"/>
              <path id="Trazado_1051353" data-name="Trazado 1051353" d="M285.316,6.7h-3.994a1.134,1.134,0,0,1,1.134,1.134v6.42a1.134,1.134,0,0,1-1.134,1.134h3.994a1.134,1.134,0,0,0,1.134-1.134V7.834A1.134,1.134,0,0,0,285.316,6.7Z" transform="translate(-271.755 -6.7)" fill="#73737f"/>
            </g>
          </g>
          <g id="Grupo_1207418" data-name="Grupo 1207418" transform="translate(2.195 11.427)">
            <g id="Grupo_1207415" data-name="Grupo 1207415">
              <g id="Grupo_1207414" data-name="Grupo 1207414" transform="translate(1.765)">
                <path id="Trazado_1051354" data-name="Trazado 1051354" d="M54.558,110.307h.985a4.078,4.078,0,0,0,3.957-4.271l.1-4.92a.6.6,0,0,0-.6-.6l-1.4-.185H50.986a.6.6,0,0,0-.6.6v5.2A4.175,4.175,0,0,0,54.558,110.307Z" transform="translate(-50.383 -100.327)" fill="#8ac9fe"/>
                <path id="Trazado_1051355" data-name="Trazado 1051355" d="M91.012,100.327H88.89a.6.6,0,0,1,.6.6v5.2a4.177,4.177,0,0,1-3.142,4.046,4.184,4.184,0,0,0,1.034.129h.054a4.176,4.176,0,0,0,4.176-4.176v-5.2A.6.6,0,0,0,91.012,100.327Z" transform="translate(-81.961 -100.327)" fill="#60b7ff"/>
              </g>
              <path id="Trazado_1051356" data-name="Trazado 1051356" d="M37.928,175.24h5.289l3.689-.439c1.109,0,1.875-.448,1.875-1.557l.009-.651a.374.374,0,0,0-.374-.374l-3.709-.205H36.294a.374.374,0,0,0-.374.374v.844A2.008,2.008,0,0,0,37.928,175.24Z" transform="translate(-35.92 -163.264)" fill="#60b7ff"/>
              <path id="Trazado_1051357" data-name="Trazado 1051357" d="M98.6,172.014H94.353a.374.374,0,0,1,.374.374v.844a2.008,2.008,0,0,1-2.008,2.008h4.244a2.008,2.008,0,0,0,2.008-2.008v-.844A.374.374,0,0,0,98.6,172.014Z" transform="translate(-85.788 -163.265)" fill="#26a6fe"/>
            </g>
            <g id="Grupo_1207416" data-name="Grupo 1207416" transform="translate(42.448 0.174)">
              <path id="Trazado_1051358" data-name="Trazado 1051358" d="M390.289,103.411l-.647-.647a3.461,3.461,0,0,0-4.9,0h0a3.461,3.461,0,0,0,0,4.9l3.6,3.6,1.793.867a.249.249,0,0,0,.353,0l5.348-4.611A3.02,3.02,0,0,0,395.92,103h0c-.594-.594-1.086-1.162-1.862-1.234a3.454,3.454,0,0,0-2.768,1l-.647.647A.249.249,0,0,1,390.289,103.411Z" transform="translate(-383.733 -101.75)" fill="#f28cc4"/>
            </g>
            <g id="Grupo_1207417" data-name="Grupo 1207417" transform="translate(46.377 0.189)">
              <path id="Trazado_1051359" data-name="Trazado 1051359" d="M415.925,102.013l.007.006a.248.248,0,0,0,.286.046C416.121,102.044,416.023,102.026,415.925,102.013Z" transform="translate(-415.925 -101.996)" fill="#ed74b7"/>
              <path id="Trazado_1051360" data-name="Trazado 1051360" d="M429.356,102.871h0a3.447,3.447,0,0,0-2.127-1,3.462,3.462,0,0,1-.494,4.272l-5.22,5.22,1.945,1.945a.25.25,0,0,0,.353,0l5.542-5.542A3.461,3.461,0,0,0,429.356,102.871Z" transform="translate(-420.833 -101.872)" fill="#ed74b7"/>
            </g>
          </g>
          <g id="Grupo_1207420" data-name="Grupo 1207420" transform="translate(0 31.954)">
            <g id="Grupo_1207419" data-name="Grupo 1207419" transform="translate(0 0.785)">
              <path id="Trazado_1051361" data-name="Trazado 1051361" d="M75.924,284.761h0a4.92,4.92,0,0,0-1.933-.412,6.779,6.779,0,0,0-4.536.786l-.313.179L67.893,280.4l1.248-4.356.313-.179a6.779,6.779,0,0,1,4.536-.786c.756.133,1.121.644,1.808,1.036l.207.118a.209.209,0,0,1,.106.182l.125,8.167A.209.209,0,0,1,75.924,284.761Z" transform="translate(-61.796 -274.971)" fill="#d8ecfe"/>
              <path id="Trazado_1051362" data-name="Trazado 1051362" d="M120.246,276.721l-.207-.118a6.773,6.773,0,0,0-2.183-.786v9.273a6.773,6.773,0,0,1,2.183.786h0a.209.209,0,0,0,.313-.182V276.9A.21.21,0,0,0,120.246,276.721Z" transform="translate(-105.661 -275.712)" fill="#c4e2ff"/>
              <path id="Trazado_1051363" data-name="Trazado 1051363" d="M25.277,285.3l-.313-.179a6.782,6.782,0,0,0-6.719,0h0a.209.209,0,0,1-.313-.182v-8.791a.21.21,0,0,1,.106-.182l.207-.118a6.782,6.782,0,0,1,6.719,0l.313.179Z" transform="translate(-17.932 -274.962)" fill="#eaf6ff"/>
            </g>
            <path id="Trazado_1051364" data-name="Trazado 1051364" d="M386.033,268.527h-4.567a3.4,3.4,0,0,0-3.4,3.4v3.178a3.4,3.4,0,0,0,3.4,3.4h4.787a.238.238,0,0,1,.156.058l1.9,1.526a.713.713,0,0,0,1.182-.538l.024-1.273a.235.235,0,0,1,.151-.221,3.108,3.108,0,0,0,2.143-3.019l-.33-3.122C391.478,270.042,387.913,268.527,386.033,268.527Z" transform="translate(-334.111 -268.527)" fill="#ffe177"/>
            <path id="Trazado_1051365" data-name="Trazado 1051365" d="M442.254,268.527h-3.12a3.4,3.4,0,0,1,3.4,3.4v3.178c0,1.522-1.275,3.4-2.666,3.4a.238.238,0,0,1,.156.058l2.072,1.8a.713.713,0,0,0,1.182-.538v-1.312a.235.235,0,0,1,.151-.221,3.4,3.4,0,0,0,2.226-3.194V271.93A3.4,3.4,0,0,0,442.254,268.527Z" transform="translate(-387.729 -268.527)" fill="#ffd15b"/>
          </g>
        </g>
        <g id="Grupo_1207424" data-name="Grupo 1207424" transform="translate(15.518 15.623)">
          <path id="Trazado_1051366" data-name="Trazado 1051366" d="M196.311,144.324a7.6,7.6,0,0,1-.235,1.737,8.642,8.642,0,0,1-.285,1.329l-.243.319a1.694,1.694,0,0,0-.874-.245l-1.382-.207-.23-.312a1.481,1.481,0,0,0-1.481-1.481h-2.865a1.835,1.835,0,0,1-.78-.191c-.011,0-.35.009-.361,0a4.219,4.219,0,0,1-.4.822,6.222,6.222,0,0,1-.726.576,4.809,4.809,0,0,1-3.138,1.158h-6.135c-.295,0-.34-.5-.578-.362a9.737,9.737,0,0,1-.814-3.354c0-5.194,4.773-9.4,10.661-9.4C190.769,134.713,196.311,139.13,196.311,144.324Z" transform="translate(-172.037 -134.713)" fill="#9a9aa5"/>
          <path id="Trazado_1051367" data-name="Trazado 1051367" d="M273.8,144.115a7.606,7.606,0,0,1-.235,1.737c-.142.588-.527,1.649-.527,1.649l-3.671.67.62-1.8v-3.455c0-5.859-6.848-8.2-6.848-8.2C269.022,134.711,273.8,138.921,273.8,144.115Z" transform="translate(-248.728 -134.711)" fill="#888891"/>
          <path id="Trazado_1051368" data-name="Trazado 1051368" d="M241.273,309.424v6.56l-3.529,3.874-3.53-3.874v-6.56Z" transform="translate(-223.336 -288.101)" fill="#dc8758"/>
          <path id="Trazado_1051369" data-name="Trazado 1051369" d="M173.454,369.983l-.38,10.175-2.276.512h-1.492l-.775-.6-.776.6h-7.486l-.775-.6-.776.6h-7.487l-.775-.6-.776.6H145.6a.517.517,0,0,1-.517-.517V369.478a4.854,4.854,0,0,1,3.806-4.739l7.071-1.562,3.53,3.874,3.529-3.874,5.879,1.3.968.64a4.845,4.845,0,0,1,2.737,1.7A5.06,5.06,0,0,1,173.454,369.983Z" transform="translate(-145.086 -335.293)" fill="#eaf6ff"/>
          <path id="Trazado_1051370" data-name="Trazado 1051370" d="M345.226,378.822v10.617a.576.576,0,0,1-.576.576h-2.526V377.963a5.476,5.476,0,0,0-1.069-3.273,5.042,5.042,0,0,0-.827-.871l1.192.264a4.853,4.853,0,0,1,3.806,4.739Z" transform="translate(-316.411 -344.637)" fill="#d8ecfe"/>
          <path id="Trazado_1051371" data-name="Trazado 1051371" d="M195.37,237.493a1.609,1.609,0,0,1,.874.246,1.656,1.656,0,0,1,.762,1.39V240a3.1,3.1,0,0,1-3.1,3.1H178.773a3.1,3.1,0,0,1-3.1-3.1v-.868a1.634,1.634,0,0,1,.828-1.422,2.135,2.135,0,0,1,.933-.214H179.5l5.555,1.769,6.572-1.769h3.744Z" transform="translate(-171.939 -224.949)" fill="#dc8758"/>
          <path id="Trazado_1051372" data-name="Trazado 1051372" d="M206.148,355.828l-4.135-3.745.893-1.635a1.721,1.721,0,0,1,2.882-.216l3.685,4.856-2.233.928A1.034,1.034,0,0,1,206.148,355.828Z" transform="translate(-195.065 -323.332)" fill="#9a9aa5"/>
          <path id="Trazado_1051373" data-name="Trazado 1051373" d="M266.46,355.828l4.135-3.745-.893-1.635a1.721,1.721,0,0,0-2.882-.216l-3.685,4.856,2.233.928A1.034,1.034,0,0,0,266.46,355.828Z" transform="translate(-248.729 -323.332)" fill="#9a9aa5"/>
          <g id="Grupo_1207423" data-name="Grupo 1207423" transform="translate(4.594 37.387)">
            <g id="Grupo_1207422" data-name="Grupo 1207422">
              <path id="Trazado_1051374" data-name="Trazado 1051374" d="M184.282,441.854v7.189h-1.551v-7.215a.776.776,0,0,1,.877-.769A.793.793,0,0,1,184.282,441.854Z" transform="translate(-182.731 -441.052)" fill="#d8ecfe"/>
            </g>
          </g>
          <path id="Trazado_1051375" data-name="Trazado 1051375" d="M219.239,216.737h-2.865a3.58,3.58,0,0,1-1.106-.174l-.036-.013a4.836,4.836,0,0,1-4.263,2.556h-3.945v4.207a6.443,6.443,0,0,0,2.484,5.083l1.668,1.3a4.388,4.388,0,0,0,5.393,0l1.668-1.3a6.443,6.443,0,0,0,2.484-5.083v-5.1A1.481,1.481,0,0,0,219.239,216.737Z" transform="translate(-199.465 -206.562)" fill="#e19974"/>
        </g>
      </g>
      <g id="Grupo_1207426" data-name="Grupo 1207426" transform="translate(17.976 6.798)">
        <path id="Trazado_1051376" data-name="Trazado 1051376" d="M85.412,285.505h0a6.771,6.771,0,0,0-6.709,0l-.313.178v-9.259l.313-.178a6.771,6.771,0,0,1,6.709,0l.207.118a.209.209,0,0,1,.106.182v8.777A.209.209,0,0,1,85.412,285.505Z" transform="translate(-71.056 -242.667)" fill="none" stroke="#000" stroke-linecap="round" stroke-linejoin="round" stroke-miterlimit="10" stroke-width="1"/>
        <path id="Trazado_1051377" data-name="Trazado 1051377" d="M85,369.506a25.732,25.732,0,0,1-8-9.128" transform="translate(-69.835 -317.312)" fill="none" stroke="#000" stroke-linecap="round" stroke-linejoin="round" stroke-miterlimit="10" stroke-width="1"/>
        <path id="Trazado_1051378" data-name="Trazado 1051378" d="M385.33,418.224a25.584,25.584,0,0,1-2.716,2.171" transform="translate(-338.151 -368.098)" fill="none" stroke="#000" stroke-linecap="round" stroke-linejoin="round" stroke-miterlimit="10" stroke-width="1"/>
        <path id="Trazado_1051379" data-name="Trazado 1051379" d="M431.766,357.412a25.647,25.647,0,0,1-2.655,4.212" transform="translate(-378.974 -314.707)" fill="none" stroke="#000" stroke-linecap="round" stroke-linejoin="round" stroke-miterlimit="10" stroke-width="1"/>
        <path id="Trazado_1051380" data-name="Trazado 1051380" d="M456.636,181.966a25.533,25.533,0,0,1,2,9.943q0,.3-.007.6" transform="translate(-403.139 -160.674)" fill="none" stroke="#000" stroke-linecap="round" stroke-linejoin="round" stroke-miterlimit="10" stroke-width="1"/>
        <path id="Trazado_1051381" data-name="Trazado 1051381" d="M325.58,63.006a25.565,25.565,0,0,1,8.958,4.934" transform="translate(-288.078 -56.232)" fill="none" stroke="#000" stroke-linecap="round" stroke-linejoin="round" stroke-miterlimit="10" stroke-width="1"/>
        <path id="Trazado_1051382" data-name="Trazado 1051382" d="M128.88,67.87a25.562,25.562,0,0,1,8.735-4.766" transform="translate(-115.384 -56.318)" fill="none" stroke="#000" stroke-linecap="round" stroke-linejoin="round" stroke-miterlimit="10" stroke-width="1"/>
        <path id="Trazado_1051383" data-name="Trazado 1051383" d="M58.142,200.789a25.122,25.122,0,0,0-.65,2.544" transform="translate(-52.708 -177.199)" fill="none" stroke="#000" stroke-linecap="round" stroke-linejoin="round" stroke-miterlimit="10" stroke-width="1"/>
        <path id="Trazado_1051384" data-name="Trazado 1051384" d="M53.336,258.982c-.015-.351-.021-.7-.021-1.058q0-.383.012-.765" transform="translate(-49.041 -226.69)" fill="none" stroke="#000" stroke-linecap="round" stroke-linejoin="round" stroke-miterlimit="10" stroke-width="1"/>
        <path id="Trazado_1051385" data-name="Trazado 1051385" d="M210.776,7.5h5.781a1.132,1.132,0,0,1,1.131,1.133v6.41a1.131,1.131,0,0,1-1.131,1.131H204.148a1.132,1.132,0,0,1-1.131-1.131V8.633A1.132,1.132,0,0,1,204.148,7.5h2.267" transform="translate(-180.473 -7.5)" fill="none" stroke="#000" stroke-linecap="round" stroke-linejoin="round" stroke-miterlimit="10" stroke-width="1"/>
        <line id="Línea_1261" data-name="Línea 1261" x2="6.029" transform="translate(26.865 11.895)" fill="none" stroke="#000" stroke-linecap="round" stroke-linejoin="round" stroke-miterlimit="10" stroke-width="1"/>
        <line id="Línea_1262" data-name="Línea 1262" y1="2.058" transform="translate(29.88 9.205)" fill="none" stroke="#000" stroke-linecap="round" stroke-linejoin="round" stroke-miterlimit="10" stroke-width="1"/>
        <path id="Trazado_1051386" data-name="Trazado 1051386" d="M26.752,116.541H25.622a1.809,1.809,0,0,0-1.809,1.809h0a1.809,1.809,0,0,0,1.809,1.809h1.1" transform="translate(-23.14 -103.233)" fill="none" stroke="#000" stroke-linecap="round" stroke-linejoin="round" stroke-miterlimit="10" stroke-width="1"/>
        <path id="Trazado_1051387" data-name="Trazado 1051387" d="M59.271,109.562a4.153,4.153,0,0,0,1.062-2.78v-5.194a.6.6,0,0,0-.6-.6H51.3a.6.6,0,0,0-.6.6v5.194a4.155,4.155,0,0,0,1.109,2.832" transform="translate(-46.741 -89.578)" fill="none" stroke="#000" stroke-linecap="round" stroke-linejoin="round" stroke-miterlimit="10" stroke-width="1"/>
        <path id="Trazado_1051388" data-name="Trazado 1051388" d="M38.26,175.786h9.154a2,2,0,0,0,2-2v-1.217H36.255v1.217A2,2,0,0,0,38.26,175.786Z" transform="translate(-34.063 -152.419)" fill="none" stroke="#000" stroke-linecap="round" stroke-linejoin="round" stroke-miterlimit="10" stroke-width="1"/>
        <path id="Trazado_1051389" data-name="Trazado 1051389" d="M390.261,104.243l-.823-.823a3.456,3.456,0,0,0-4.888,0h0a3.456,3.456,0,0,0,0,4.888l5.71,5.71,5.71-5.71a3.456,3.456,0,0,0,0-4.888h0a3.456,3.456,0,0,0-4.888,0Z" transform="translate(-338.963 -90.825)" fill="none" stroke="#000" stroke-linecap="round" stroke-linejoin="round" stroke-miterlimit="10" stroke-width="1"/>
        <path id="Trazado_1051390" data-name="Trazado 1051390" d="M25.629,285.685l-.313-.178a6.771,6.771,0,0,0-6.709,0h0a.209.209,0,0,1-.313-.182v-8.777a.209.209,0,0,1,.106-.182l.207-.118a6.771,6.771,0,0,1,6.709,0l.313.178" transform="translate(-18.295 -242.669)" fill="none" stroke="#000" stroke-linecap="round" stroke-linejoin="round" stroke-miterlimit="10" stroke-width="1"/>
        <path id="Trazado_1051391" data-name="Trazado 1051391" d="M388.436,268.932h-7.16a3.4,3.4,0,0,0-3.4,3.4V275.5a3.4,3.4,0,0,0,3.4,3.4h4.868l1.984,1.727a.8.8,0,0,0,1.332-.606v-1.279a3.4,3.4,0,0,0,2.373-3.24V272.33A3.4,3.4,0,0,0,388.436,268.932Z" transform="translate(-333.993 -237.026)" fill="none" stroke="#000" stroke-linecap="round" stroke-linejoin="round" stroke-miterlimit="10" stroke-width="1"/>
        <path id="Trazado_1051392" data-name="Trazado 1051392" d="M151.776,371.385l-3.029.669a4.859,4.859,0,0,0-3.811,4.745h0v10.832" transform="translate(-129.48 -326.975)" fill="none" stroke="#000" stroke-linecap="round" stroke-linejoin="round" stroke-miterlimit="10" stroke-width="1"/>
        <line id="Línea_1263" data-name="Línea 1263" y2="4.17" transform="translate(26.346 38.396)" fill="none" stroke="#000" stroke-linecap="round" stroke-linejoin="round" stroke-miterlimit="10" stroke-width="1"/>
        <line id="Línea_1264" data-name="Línea 1264" y1="3.951" transform="translate(33.414 38.629)" fill="none" stroke="#000" stroke-linecap="round" stroke-linejoin="round" stroke-miterlimit="10" stroke-width="1"/>
        <path id="Trazado_1051393" data-name="Trazado 1051393" d="M332.108,387.631V376.8h0a4.859,4.859,0,0,0-3.811-4.745l-3.029-.669" transform="translate(-287.804 -326.975)" fill="none" stroke="#000" stroke-linecap="round" stroke-linejoin="round" stroke-miterlimit="10" stroke-width="1"/>
        <line id="Línea_1265" data-name="Línea 1265" y2="13.263" transform="translate(29.88 47.393)" fill="none" stroke="#000" stroke-linecap="round" stroke-linejoin="round" stroke-miterlimit="10" stroke-width="1"/>
        <path id="Trazado_1051394" data-name="Trazado 1051394" d="M205.206,356.089l-4.239-3.839,1.122-1.9a1.538,1.538,0,0,1,2.549-.147l3.915,5.159-2.213.919A1.076,1.076,0,0,1,205.206,356.089Z" transform="translate(-178.673 -307.848)" fill="none" stroke="#000" stroke-linecap="round" stroke-linejoin="round" stroke-miterlimit="10" stroke-width="1"/>
        <path id="Trazado_1051395" data-name="Trazado 1051395" d="M266.472,356.089l4.239-3.839-1.122-1.9a1.538,1.538,0,0,0-2.549-.147l-3.915,5.159,2.213.919A1.076,1.076,0,0,0,266.472,356.089Z" transform="translate(-233.245 -307.848)" fill="none" stroke="#000" stroke-linecap="round" stroke-linejoin="round" stroke-miterlimit="10" stroke-width="1"/>
        <path id="Trazado_1051396" data-name="Trazado 1051396" d="M179.219,243.831h-.555a3.1,3.1,0,0,1-3.1-3.1v-.869a1.638,1.638,0,0,1,1.638-1.638h2.193" transform="translate(-156.367 -210.061)" fill="none" stroke="#000" stroke-linecap="round" stroke-linejoin="round" stroke-miterlimit="10" stroke-width="1"/>
        <path id="Trazado_1051397" data-name="Trazado 1051397" d="M319.822,238.219h1.657a1.638,1.638,0,0,1,1.638,1.638v.869a3.1,3.1,0,0,1-3.1,3.1H319.3" transform="translate(-282.564 -210.061)" fill="none" stroke="#000" stroke-linecap="round" stroke-linejoin="round" stroke-miterlimit="10" stroke-width="1"/>
        <path id="Trazado_1051398" data-name="Trazado 1051398" d="M346.175,204.73a8.442,8.442,0,0,1-.552,4.076" transform="translate(-305.675 -180.659)" fill="none" stroke="#000" stroke-linecap="round" stroke-linejoin="round" stroke-miterlimit="10" stroke-width="1"/>
        <path id="Trazado_1051399" data-name="Trazado 1051399" d="M176.283,147.879a8.4,8.4,0,0,1-.609-3.144c0-5.2,4.779-9.414,10.673-9.414a11.05,11.05,0,0,1,9.027,4.391" transform="translate(-156.467 -119.721)" fill="none" stroke="#000" stroke-linecap="round" stroke-linejoin="round" stroke-miterlimit="10" stroke-width="1"/>
        <path id="Trazado_1051400" data-name="Trazado 1051400" d="M220.661,239.206V243.3a6.45,6.45,0,0,1-2.487,5.089l-1.67,1.3a4.393,4.393,0,0,1-5.4,0l-1.67-1.3a6.45,6.45,0,0,1-2.487-5.089v-3.736" transform="translate(-183.925 -210.928)" fill="none" stroke="#000" stroke-linecap="round" stroke-linejoin="round" stroke-miterlimit="10" stroke-width="1"/>
        <path id="Trazado_1051401" data-name="Trazado 1051401" d="M248.7,288.841a3.554,3.554,0,0,0,3.521,0" transform="translate(-220.579 -254.505)" fill="none" stroke="#000" stroke-linecap="round" stroke-linejoin="round" stroke-miterlimit="10" stroke-width="1"/>
        <path id="Trazado_1051402" data-name="Trazado 1051402" d="M215.166,217.25a4.836,4.836,0,0,1-4.268,2.559h-3.95" transform="translate(-183.924 -191.651)" fill="none" stroke="#000" stroke-linecap="round" stroke-linejoin="round" stroke-miterlimit="10" stroke-width="1"/>
        <path id="Trazado_1051403" data-name="Trazado 1051403" d="M254.175,189.3a3.6,3.6,0,0,0,3.6,3.6h2.868a1.483,1.483,0,0,1,1.483,1.483v1.01" transform="translate(-225.387 -167.115)" fill="none" stroke="#000" stroke-linecap="round" stroke-linejoin="round" stroke-miterlimit="10" stroke-width="1"/>
        <line id="Línea_1266" data-name="Línea 1266" y2="6.849" transform="translate(38.928 53.806)" fill="none" stroke="#000" stroke-linecap="round" stroke-linejoin="round" stroke-miterlimit="10" stroke-width="1"/>
        <line id="Línea_1267" data-name="Línea 1267" y2="6.849" transform="translate(20.832 53.806)" fill="none" stroke="#000" stroke-linecap="round" stroke-linejoin="round" stroke-miterlimit="10" stroke-width="1"/>
        <line id="Línea_1268" data-name="Línea 1268" transform="translate(26.688 52.141)" fill="none" stroke="#000" stroke-linecap="round" stroke-linejoin="round" stroke-miterlimit="10" stroke-width="1"/>
        <line id="Línea_1269" data-name="Línea 1269" transform="translate(26.688 55.968)" fill="none" stroke="#000" stroke-linecap="round" stroke-linejoin="round" stroke-miterlimit="10" stroke-width="1"/>
        <line id="Línea_1270" data-name="Línea 1270" transform="translate(26.688 59.795)" fill="none" stroke="#000" stroke-linecap="round" stroke-linejoin="round" stroke-miterlimit="10" stroke-width="1"/>
      </g>
    </g>
  </g>
</svg>
