<svg xmlns="http://www.w3.org/2000/svg" xmlns:xlink="http://www.w3.org/1999/xlink" width="113" height="113" viewBox="0 0 113 113">
  <defs>
    <filter id="Trazado_982547" x="0" y="0" width="113" height="113" filterUnits="userSpaceOnUse">
      <feOffset dy="3" input="SourceAlpha"/>
      <feGaussianBlur stdDeviation="3" result="blur"/>
      <feFlood flood-opacity="0.161"/>
      <feComposite operator="in" in2="blur"/>
      <feComposite in="SourceGraphic"/>
    </filter>
  </defs>
  <g id="Grupo_1202185" data-name="Grupo 1202185" transform="translate(-271 -870.414)">
    <g id="Grupo_1174813" data-name="Grupo 1174813" transform="translate(280 876.414)">
      <g id="Grupo_1201680" data-name="Grupo 1201680">
        <g id="Grupo_1201330" data-name="Grupo 1201330">
          <g id="Grupo_1172010" data-name="Grupo 1172010">
            <g id="Grupo_1171046" data-name="Grupo 1171046">
              <g id="Grupo_1148525" data-name="Grupo 1148525">
                <g transform="matrix(1, 0, 0, 1, -9, -6)" filter="url(#Trazado_982547)">
                  <g id="Trazado_982547-2" data-name="Trazado 982547" transform="translate(9 6)" fill="#e9f9fd">
                    <path d="M 47.5 93.5 C 41.28937149047852 93.5 35.26533508300781 92.28397369384766 29.59518623352051 89.88570404052734 C 24.11771965026855 87.56893157958984 19.19813346862793 84.25196075439453 14.97309303283691 80.02691650390625 C 10.74804019927979 75.80186462402344 7.431066513061523 70.88229370117188 5.114293098449707 65.40481567382812 C 2.716026782989502 59.73468017578125 1.5 53.71062850952148 1.5 47.5 C 1.5 41.28937149047852 2.716026782989502 35.26533508300781 5.114293098449707 29.59518623352051 C 7.431066513061523 24.11771965026855 10.74804019927979 19.19813346862793 14.97309303283691 14.97309303283691 C 19.19813346862793 10.74804019927979 24.11771965026855 7.431066513061523 29.59518623352051 5.114293098449707 C 35.26533508300781 2.716026782989502 41.28937149047852 1.5 47.5 1.5 C 53.71062850952148 1.5 59.73468017578125 2.716026782989502 65.40481567382812 5.114293098449707 C 70.88229370117188 7.431066513061523 75.80186462402344 10.74804019927979 80.02691650390625 14.97309303283691 C 84.25196075439453 19.19813346862793 87.56893157958984 24.11771965026855 89.88570404052734 29.59518623352051 C 92.28397369384766 35.26533508300781 93.5 41.28937149047852 93.5 47.5 C 93.5 53.71062850952148 92.28397369384766 59.73468017578125 89.88570404052734 65.40481567382812 C 87.56893157958984 70.88229370117188 84.25196075439453 75.80186462402344 80.02691650390625 80.02691650390625 C 75.80186462402344 84.25196075439453 70.88229370117188 87.56893157958984 65.40481567382812 89.88570404052734 C 59.73468017578125 92.28397369384766 53.71062850952148 93.5 47.5 93.5 Z" stroke="none"/>
                    <path d="M 47.5 3 C 41.49121475219727 3 35.66376876831055 4.176155090332031 30.17950439453125 6.495796203613281 C 24.88084411621094 8.736953735351562 20.12152099609375 11.94598388671875 16.03375244140625 16.03375244140625 C 11.94598388671875 20.12152099609375 8.736953735351562 24.88084411621094 6.495796203613281 30.17950439453125 C 4.176155090332031 35.66376876831055 3 41.49121475219727 3 47.5 C 3 53.50878524780273 4.176155090332031 59.33623123168945 6.495796203613281 64.82049560546875 C 8.736953735351562 70.11915588378906 11.94598388671875 74.87847900390625 16.03375244140625 78.96624755859375 C 20.12152099609375 83.05401611328125 24.88084411621094 86.26304626464844 30.17950439453125 88.50419616699219 C 35.66376876831055 90.82384490966797 41.49121475219727 92 47.5 92 C 53.50878524780273 92 59.33623123168945 90.82384490966797 64.82049560546875 88.50419616699219 C 70.11915588378906 86.26304626464844 74.87847900390625 83.05401611328125 78.96624755859375 78.96624755859375 C 83.05401611328125 74.87847900390625 86.26304626464844 70.11915588378906 88.50419616699219 64.82049560546875 C 90.82384490966797 59.33623123168945 92 53.50878524780273 92 47.5 C 92 41.49121475219727 90.82384490966797 35.66376876831055 88.50419616699219 30.17950439453125 C 86.26304626464844 24.88084411621094 83.05401611328125 20.12152099609375 78.96624755859375 16.03375244140625 C 74.87847900390625 11.94598388671875 70.11915588378906 8.736953735351562 64.82049560546875 6.495796203613281 C 59.33623123168945 4.176155090332031 53.50878524780273 3 47.5 3 M 47.5 0 C 73.7335205078125 0 95 21.2664794921875 95 47.5 C 95 73.7335205078125 73.7335205078125 95 47.5 95 C 21.2664794921875 95 0 73.7335205078125 0 47.5 C 0 21.2664794921875 21.2664794921875 0 47.5 0 Z" stroke="none" fill="#1d7083"/>
                  </g>
                </g>
              </g>
            </g>
          </g>
        </g>
      </g>
    </g>
    <g id="sticky-note_4210644" transform="translate(293.508 890.26)">
      <g id="_21_Sticky_note" data-name="21 Sticky note" transform="translate(4.021 3.113)">
        <path id="Trazado_1041734" data-name="Trazado 1041734" d="M54.956,11.815,49.4,48.252A9.97,9.97,0,0,1,38.072,56.58L5.747,51.649A2.086,2.086,0,0,1,4,49.279L10.748,5.072a2.086,2.086,0,0,1,2.37-1.743l40.1,6.116A2.086,2.086,0,0,1,54.956,11.815Z" transform="translate(-3.981 -3.064)" fill="#29b6f6"/>
        <path id="Trazado_1041735" data-name="Trazado 1041735" d="M57.705,10.973l4.76,36.55a9.97,9.97,0,0,1-8.573,11.141L21.467,62.887a2.08,2.08,0,0,1-2.331-1.794L13.361,16.748a2.086,2.086,0,0,1,1.794-2.331L55.374,9.179a2.086,2.086,0,0,1,2.332,1.794Z" transform="translate(-3.607 -2.83)" fill="#ffd740"/>
        <path id="Trazado_1041736" data-name="Trazado 1041736" d="M61.078,46.217l-.571-4.381c-.232,2.223-6.075,1.637-8.673,2.934a4.921,4.921,0,0,0-3.1,4.023c-.45,3.87.988,7.748-.809,9.161l4.576-.6c4.819-.628,9.2-6.322,8.574-11.141Z" transform="translate(-2.225 -1.524)" fill="#f9c112"/>
        <path id="Trazado_1041737" data-name="Trazado 1041737" d="M47.43,10.083l2.411-2.411a1.473,1.473,0,0,0,0-2.084L47.758,3.505a1.473,1.473,0,0,0-2.084,0L43.339,5.84a4.458,4.458,0,0,0-4.323,1.425l7.066,7.065a4.615,4.615,0,0,0,1.349-4.247Z" transform="translate(-2.581 -3.074)" fill="#e53935"/>
      </g>
      <g id="Layer_32" data-name="Layer 32" transform="translate(2.986 2.097)">
        <path id="Trazado_1041738" data-name="Trazado 1041738" d="M63.912,47.672,59.149,11.117a3.13,3.13,0,0,0-3.494-2.683l-1.6.208a10.628,10.628,0,0,0-1.893-.364l-.025.026a2.491,2.491,0,0,0-.118-3.411L49.934,2.809a2.573,2.573,0,0,0-3.554,0L44.423,4.766A5.465,5.465,0,0,0,39.889,6.41v0L13.317,2.35A3.124,3.124,0,0,0,9.76,4.96L3.021,49.169a3.13,3.13,0,0,0,2.61,3.557l11.981,1.83.9,6.957a3.124,3.124,0,0,0,3.089,2.714c.478,0,32.011-4.15,32.167-4.17a11.045,11.045,0,0,0,10.14-12.386ZM44.554,6.894a1.033,1.033,0,0,0,.961-.28L47.85,4.28a.435.435,0,0,1,.613,0l2.084,2.083a.415.415,0,0,1,0,.613L48.136,9.387a1.04,1.04,0,0,0-.285.934,3.49,3.49,0,0,1-.421,2.484l-5.44-5.44a3.273,3.273,0,0,1,2.565-.471ZM5.944,50.667a1.051,1.051,0,0,1-.874-1.186L11.82,5.272a1.037,1.037,0,0,1,1.186-.863l27.246,4.16L41.9,10.222,15.439,13.665a3.154,3.154,0,0,0-2.694,3.5L17.331,52.4ZM20.576,61.244,14.8,16.9a1.042,1.042,0,0,1,.894-1.165c.058-.01,13.786-1.8,25.211-3.288L37,16.352c-.966.939.529,2.441,1.471,1.471l5.515-5.516,2.8,2.8a1.046,1.046,0,0,0,1.477-.006,5.761,5.761,0,0,0,1.726-3.838c1.424-.177,6.06-.78,6.071-.78a1.05,1.05,0,0,1,1.03.9l4.17,31.969c-.166.52-2.569.863-3.734,1.03-6.125.01-9.2,4.909-8.008,10.358.114,1.622.218,3.162-.27,3.817l-27.5,3.578a1.058,1.058,0,0,1-1.175-.894Zm34.049-3.411c-.264.081-2.731.374-3.058.426A14.743,14.743,0,0,0,51.6,54.6c-.562-5.325.25-7.55,6.219-8.153a15.835,15.835,0,0,0,3.723-.822c.034.295.332,2.47.343,2.714a8.888,8.888,0,0,1-7.259,9.495ZM20.675,30.806a1.042,1.042,0,0,1-.133-2.071L54.574,24.3a1.04,1.04,0,0,1,.269,2.063L20.811,30.8a1.019,1.019,0,0,1-.136.009Zm4.084-9.962,23.719-3.089a1.04,1.04,0,1,1,.268,2.063L25.027,22.906a1.006,1.006,0,0,1-.135.009,1.042,1.042,0,0,1-.133-2.071ZM21.616,38.025a1.042,1.042,0,0,1-.133-2.071l34.032-4.432a1.04,1.04,0,0,1,.269,2.063L21.751,38.016A1.036,1.036,0,0,1,21.616,38.025Zm.94,7.219a1.042,1.042,0,0,1-.133-2.071L56.454,38.74a1.04,1.04,0,1,1,.269,2.063L22.692,45.235a1.037,1.037,0,0,1-.136.009Zm11.388,5.867c-.185.015-10.28,1.356-10.449,1.352a1.042,1.042,0,0,1-.132-2.071l10.313-1.343a1.04,1.04,0,1,1,.268,2.063Z" transform="translate(-2.986 -2.097)"/>
      </g>
    </g>
  </g>
</svg>
