<svg xmlns="http://www.w3.org/2000/svg" xmlns:xlink="http://www.w3.org/1999/xlink" width="103" height="103" viewBox="0 0 103 103">
  <defs>
    <filter id="Trazado_982547" x="0" y="0" width="103" height="103" filterUnits="userSpaceOnUse">
      <feOffset dy="3" input="SourceAlpha"/>
      <feGaussianBlur stdDeviation="3" result="blur"/>
      <feFlood flood-opacity="0.161"/>
      <feComposite operator="in" in2="blur"/>
      <feComposite in="SourceGraphic"/>
    </filter>
  </defs>
  <g id="Grupo_1207433" data-name="Grupo 1207433" transform="translate(-1031 -3927.5)">
    <g id="Grupo_1207297" data-name="Grupo 1207297" transform="translate(0 3183.5)">
      <g id="Grupo_1202211" data-name="Grupo 1202211" transform="translate(760 -126.414)">
        <g id="Grupo_1174813" data-name="Grupo 1174813" transform="translate(280 876.414)">
          <g id="Grupo_1201680" data-name="Grupo 1201680">
            <g id="Grupo_1201330" data-name="Grupo 1201330">
              <g id="Grupo_1172010" data-name="Grupo 1172010">
                <g id="Grupo_1171046" data-name="Grupo 1171046">
                  <g id="Grupo_1148525" data-name="Grupo 1148525">
                    <g transform="matrix(1, 0, 0, 1, -9, -6)" filter="url(#Trazado_982547)">
                      <g id="Trazado_982547-2" data-name="Trazado 982547" transform="translate(9 6)" fill="#f2f7e5">
                        <path d="M 42.5 83.5 C 36.96437835693359 83.5 31.59512901306152 82.41617584228516 26.54141235351562 80.27863311767578 C 21.65934181213379 78.21369171142578 17.27447128295898 75.25723266601562 13.50862312316895 71.49137878417969 C 9.742764472961426 67.72553253173828 6.786305904388428 63.34066009521484 4.721364498138428 58.45858764648438 C 2.583823442459106 53.40486907958984 1.5 48.03562164306641 1.5 42.5 C 1.5 36.96437835693359 2.583823442459106 31.59512901306152 4.721364498138428 26.54141235351562 C 6.786305904388428 21.65934181213379 9.742764472961426 17.27448272705078 13.50862312316895 13.50862312316895 C 17.27447128295898 9.742776870727539 21.65934181213379 6.786305904388428 26.54141235351562 4.721364498138428 C 31.59512901306152 2.583823442459106 36.96437835693359 1.5 42.5 1.5 C 48.03562164306641 1.5 53.40486907958984 2.583823442459106 58.45858764648438 4.721364498138428 C 63.34066009521484 6.786305904388428 67.72553253173828 9.742776870727539 71.49137878417969 13.50862312316895 C 75.25723266601562 17.27448272705078 78.21369171142578 21.65934181213379 80.27863311767578 26.54141235351562 C 82.41617584228516 31.59512901306152 83.5 36.96437835693359 83.5 42.5 C 83.5 48.03562164306641 82.41617584228516 53.40486907958984 80.27863311767578 58.45858764648438 C 78.21369171142578 63.34066009521484 75.25723266601562 67.72553253173828 71.49137878417969 71.49137878417969 C 67.72553253173828 75.25723266601562 63.34066009521484 78.21369171142578 58.45858764648438 80.27863311767578 C 53.40486907958984 82.41617584228516 48.03562164306641 83.5 42.5 83.5 Z" stroke="none"/>
                        <path d="M 42.5 3 C 37.16621398925781 3 31.99356079101562 4.043960571289062 27.125732421875 6.102882385253906 C 22.42246627807617 8.092185974121094 18.19785308837891 10.94070434570312 14.56928253173828 14.56928253173828 C 10.94070434570312 18.19785308837891 8.092185974121094 22.42246627807617 6.102882385253906 27.125732421875 C 4.043960571289062 31.99356079101562 3 37.16621398925781 3 42.5 C 3 47.83378601074219 4.043960571289062 53.00643920898438 6.102882385253906 57.874267578125 C 8.092185974121094 62.57753372192383 10.94070434570312 66.80214691162109 14.56928253173828 70.43071746826172 C 18.19785308837891 74.05929565429688 22.42246627807617 76.90781402587891 27.125732421875 78.89711761474609 C 31.99356079101562 80.95603942871094 37.16621398925781 82 42.5 82 C 47.83378601074219 82 53.00643920898438 80.95603942871094 57.874267578125 78.89711761474609 C 62.57753372192383 76.90781402587891 66.80214691162109 74.05929565429688 70.43071746826172 70.43071746826172 C 74.05929565429688 66.80214691162109 76.90781402587891 62.57753372192383 78.89711761474609 57.874267578125 C 80.95603942871094 53.00643920898438 82 47.83378601074219 82 42.5 C 82 37.16621398925781 80.95603942871094 31.99356079101562 78.89711761474609 27.125732421875 C 76.90781402587891 22.42246627807617 74.05929565429688 18.19785308837891 70.43071746826172 14.56928253173828 C 66.80214691162109 10.94070434570312 62.57753372192383 8.092185974121094 57.874267578125 6.102882385253906 C 53.00643920898438 4.043960571289062 47.83378601074219 3 42.5 3 M 42.5 0 C 65.97210693359375 0 85 19.02789306640625 85 42.5 C 85 65.97210693359375 65.97210693359375 85 42.5 85 C 19.02789306640625 85 0 65.97210693359375 0 42.5 C 0 19.02789306640625 19.02789306640625 0 42.5 0 Z" stroke="none" fill="#1d7083"/>
                      </g>
                    </g>
                  </g>
                </g>
              </g>
            </g>
          </g>
        </g>
      </g>
    </g>
    <g id="direction_8723255" transform="translate(1056.257 3951.608)">
      <g id="Grupo_1207431" data-name="Grupo 1207431" transform="translate(2.825 0.825)">
        <g id="Grupo_1207430" data-name="Grupo 1207430" transform="translate(4.949 31.341)">
          <path id="Trazado_1051459" data-name="Trazado 1051459" d="M9.825,43.949A.825.825,0,0,1,9,43.124v-3.3a.825.825,0,0,1,1.65,0v3.3A.825.825,0,0,1,9.825,43.949Z" transform="translate(-9 -39)" fill="#ccd8e5"/>
          <path id="Trazado_1051460" data-name="Trazado 1051460" d="M19.825,43.949A.825.825,0,0,1,19,43.124v-3.3a.825.825,0,1,1,1.65,0v3.3A.825.825,0,0,1,19.825,43.949Z" transform="translate(-10.752 -39)" fill="#ccd8e5"/>
          <path id="Trazado_1051461" data-name="Trazado 1051461" d="M43.825,43.949A.825.825,0,0,1,43,43.124v-3.3a.825.825,0,0,1,1.65,0v3.3A.825.825,0,0,1,43.825,43.949Z" transform="translate(-14.958 -39)" fill="#ccd8e5"/>
          <path id="Trazado_1051462" data-name="Trazado 1051462" d="M53.825,43.949A.825.825,0,0,1,53,43.124v-3.3a.825.825,0,0,1,1.65,0v3.3A.825.825,0,0,1,53.825,43.949Z" transform="translate(-16.711 -39)" fill="#ccd8e5"/>
        </g>
        <path id="Trazado_1051463" data-name="Trazado 1051463" d="M26.3,58h8.248a3.3,3.3,0,0,1,3.3,3.3.825.825,0,0,1-.825.825h-13.2A.825.825,0,0,1,23,61.3,3.3,3.3,0,0,1,26.3,58Z" transform="translate(-6.505 -10.989)" fill="#156cdd"/>
        <path id="Trazado_1051464" data-name="Trazado 1051464" d="M28.65,54H33.6a1.65,1.65,0,0,1,1.65,1.65V57.3H27V55.65A1.65,1.65,0,0,1,28.65,54Z" transform="translate(-7.206 -10.288)" fill="#ccd8e5"/>
        <path id="Trazado_1051465" data-name="Trazado 1051465" d="M1.65,0H6.6a1.65,1.65,0,0,1,1.65,1.65V3.3H0V1.65A1.65,1.65,0,0,1,1.65,0Z" transform="translate(28.042 35.465) rotate(180)" fill="#ccd8e5"/>
        <path id="Trazado_1051466" data-name="Trazado 1051466" d="M29,44h4.949v8.248H29Z" transform="translate(-7.556 -8.535)" fill="#dfe8f4"/>
        <rect id="Rectángulo_419412" data-name="Rectángulo 419412" width="48" height="33" rx="2" transform="translate(-0.082 -0.432)" fill="#0795ff"/>
        <path id="Trazado_1051467" data-name="Trazado 1051467" d="M7,5H48.238V30.568H7Z" transform="translate(-3.701 -1.701)" fill="#dfe8f4"/>
        <path id="Trazado_1051468" data-name="Trazado 1051468" d="M23.371,23.6v5.773h-3.3V23.565a.792.792,0,0,0-.792-.792H15.949v2.474L11,21.124,15.949,17v2.474h3.3A4.124,4.124,0,0,1,23.371,23.6Z" transform="translate(-4.402 -3.804)" fill="#156cdd"/>
        <path id="Trazado_1051469" data-name="Trazado 1051469" d="M38,23.6v5.773h3.3V23.565a.792.792,0,0,1,.792-.792h3.332v2.474l4.949-4.124L45.423,17v2.474h-3.3A4.124,4.124,0,0,0,38,23.6Z" transform="translate(-9.133 -3.804)" fill="#156cdd"/>
        <path id="Trazado_1051470" data-name="Trazado 1051470" d="M35.248,13.949H32.773V27.969h-3.3V13.949H27L31.124,9Z" transform="translate(-7.206 -2.402)" fill="#156cdd"/>
        <rect id="Rectángulo_419413" data-name="Rectángulo 419413" width="5" height="3" rx="1" transform="translate(30.918 35.568)" fill="#0795ff"/>
        <rect id="Rectángulo_419414" data-name="Rectángulo 419414" width="5" height="3" rx="1" transform="translate(39.918 35.568)" fill="#0795ff"/>
        <rect id="Rectángulo_419415" data-name="Rectángulo 419415" width="5" height="3" rx="1" transform="translate(2.918 35.568)" fill="#0795ff"/>
        <rect id="Rectángulo_419416" data-name="Rectángulo 419416" width="5" height="3" rx="1" transform="translate(11.918 35.568)" fill="#0795ff"/>
      </g>
      <g id="Grupo_1207432" data-name="Grupo 1207432" transform="translate(2)">
        <path id="Trazado_1051471" data-name="Trazado 1051471" d="M49.011,0H4.474A2.474,2.474,0,0,0,2,2.474V31.341a2.474,2.474,0,0,0,2.474,2.474h3.3v1.65H6.949a1.65,1.65,0,0,0-1.65,1.65v1.65a1.65,1.65,0,0,0,1.65,1.65h3.3a1.65,1.65,0,0,0,1.65-1.65v-1.65a1.65,1.65,0,0,0-1.65-1.65H9.423v-1.65h6.6v1.65H15.2a1.65,1.65,0,0,0-1.65,1.65v1.65a1.65,1.65,0,0,0,1.65,1.65h3.3a1.65,1.65,0,0,0,1.65-1.65v-1.65a1.65,1.65,0,0,0-1.65-1.65H17.67v-1.65h4.124v.825a2.474,2.474,0,0,0,1.65,2.323v6.9a2.474,2.474,0,0,0-1.65,2.323v.907a4.131,4.131,0,0,0-3.3,4.041,1.65,1.65,0,0,0,1.65,1.65h13.2a1.65,1.65,0,0,0,1.65-1.65,4.131,4.131,0,0,0-3.3-4.041v-.907a2.474,2.474,0,0,0-1.65-2.323v-6.9a2.474,2.474,0,0,0,1.65-2.323v-.825h4.124v1.65H34.99a1.65,1.65,0,0,0-1.65,1.65v1.65a1.65,1.65,0,0,0,1.65,1.65h3.3a1.65,1.65,0,0,0,1.65-1.65v-1.65a1.65,1.65,0,0,0-1.65-1.65h-.825v-1.65h6.6v1.65h-.825a1.65,1.65,0,0,0-1.65,1.65v1.65a1.65,1.65,0,0,0,1.65,1.65h3.3a1.65,1.65,0,0,0,1.65-1.65v-1.65a1.65,1.65,0,0,0-1.65-1.65h-.825v-1.65h3.3a2.474,2.474,0,0,0,2.474-2.474V2.474A2.474,2.474,0,0,0,49.011,0ZM10.248,38.764h-3.3v-1.65h3.3Zm8.248,0H15.2v-1.65h3.3Zm19.794,0h-3.3v-1.65h3.3Zm8.248,0h-3.3v-1.65h3.3ZM28.392,43.712h-3.3v-6.6h3.3Zm-4.949,2.474a.825.825,0,0,1,.825-.825h4.949a.825.825,0,0,1,.825.825v.825h-6.6Zm9.9,4.949h-13.2a2.474,2.474,0,0,1,2.474-2.474h8.248a2.48,2.48,0,0,1,2.474,2.474Zm-3.3-16.5a.825.825,0,0,1-.825.825H24.269a.825.825,0,0,1-.825-.825v-.825h6.6Zm19.794-3.3a.825.825,0,0,1-.825.825H4.474a.825.825,0,0,1-.825-.825V2.474a.825.825,0,0,1,.825-.825H49.011a.825.825,0,0,1,.825.825Z" transform="translate(-2)"/>
        <path id="Trazado_1051472" data-name="Trazado 1051472" d="M48.063,4H6.825A.825.825,0,0,0,6,4.825V30.392a.825.825,0,0,0,.825.825H48.063a.825.825,0,0,0,.825-.825V4.825A.825.825,0,0,0,48.063,4Zm-.825,25.568H7.65V5.65H47.238Z" transform="translate(-2.701 -0.701)"/>
        <path id="Trazado_1051473" data-name="Trazado 1051473" d="M15.244,25.706a.825.825,0,0,0,1.353-.634V23.414l2.474-.025V29.2a.825.825,0,0,0,.825.825h3.3a.825.825,0,0,0,.825-.825V23.423a4.954,4.954,0,0,0-4.949-4.949H16.6v-1.65a.825.825,0,0,0-1.353-.634L10.3,20.314a.825.825,0,0,0,0,1.268Zm-.3-7.121V19.3a.825.825,0,0,0,.825.825h3.3a3.3,3.3,0,0,1,3.3,3.3v4.949h-1.65V23.39a1.618,1.618,0,0,0-1.617-1.617H15.773a.825.825,0,0,0-.825.825v.713l-2.836-2.363Z" transform="translate(-3.402 -2.804)"/>
        <path id="Trazado_1051474" data-name="Trazado 1051474" d="M37,29.2a.825.825,0,0,0,.825.825h3.3a.825.825,0,0,0,.825-.825l-.033-5.773h2.507v1.65a.825.825,0,0,0,1.353.634l4.949-4.124a.825.825,0,0,0,0-1.268L45.776,16.19a.825.825,0,0,0-1.353.634v1.65H41.949A4.954,4.954,0,0,0,37,23.423Zm1.65-5.773a3.3,3.3,0,0,1,3.3-3.3h3.3a.825.825,0,0,0,.825-.825v-.713l2.835,2.363-2.835,2.363V22.6a.825.825,0,0,0-.825-.825H41.916A1.618,1.618,0,0,0,40.3,23.39v4.982H38.65Z" transform="translate(-8.133 -2.804)"/>
        <path id="Trazado_1051475" data-name="Trazado 1051475" d="M26.825,14.6h1.65V27.8a.825.825,0,0,0,.825.825h3.3a.825.825,0,0,0,.825-.825V14.6h1.65a.825.825,0,0,0,.634-1.353L31.583,8.3a.855.855,0,0,0-1.268,0L26.19,13.248a.825.825,0,0,0,.634,1.353Zm4.124-4.484,2.363,2.835H32.6a.825.825,0,0,0-.825.825v13.2h-1.65v-13.2a.825.825,0,0,0-.825-.825h-.713Z" transform="translate(-6.205 -1.405)"/>
      </g>
    </g>
  </g>
</svg>
