<svg xmlns="http://www.w3.org/2000/svg" xmlns:xlink="http://www.w3.org/1999/xlink" width="103" height="103" viewBox="0 0 103 103">
  <defs>
    <filter id="Trazado_982547" x="0" y="0" width="103" height="103" filterUnits="userSpaceOnUse">
      <feOffset dy="3" input="SourceAlpha"/>
      <feGaussianBlur stdDeviation="3" result="blur"/>
      <feFlood flood-opacity="0.161"/>
      <feComposite operator="in" in2="blur"/>
      <feComposite in="SourceGraphic"/>
    </filter>
  </defs>
  <g id="Grupo_1207456" data-name="Grupo 1207456" transform="translate(-1031 -4093)">
    <g id="Grupo_1202421" data-name="Grupo 1202421" transform="translate(0 3349)">
      <g id="Grupo_1202211" data-name="Grupo 1202211" transform="translate(760 -126.414)">
        <g id="Grupo_1174813" data-name="Grupo 1174813" transform="translate(280 876.414)">
          <g id="Grupo_1201680" data-name="Grupo 1201680">
            <g id="Grupo_1201330" data-name="Grupo 1201330">
              <g id="Grupo_1172010" data-name="Grupo 1172010">
                <g id="Grupo_1171046" data-name="Grupo 1171046">
                  <g id="Grupo_1148525" data-name="Grupo 1148525">
                    <g transform="matrix(1, 0, 0, 1, -9, -6)" filter="url(#Trazado_982547)">
                      <g id="Trazado_982547-2" data-name="Trazado 982547" transform="translate(9 6)" fill="#f2f7e5">
                        <path d="M 42.5 83.5 C 36.96437835693359 83.5 31.59512901306152 82.41617584228516 26.54141235351562 80.27863311767578 C 21.65934181213379 78.21369171142578 17.27447128295898 75.25723266601562 13.50862312316895 71.49137878417969 C 9.742764472961426 67.72553253173828 6.786305904388428 63.34066009521484 4.721364498138428 58.45858764648438 C 2.583823442459106 53.40486907958984 1.5 48.03562164306641 1.5 42.5 C 1.5 36.96437835693359 2.583823442459106 31.59512901306152 4.721364498138428 26.54141235351562 C 6.786305904388428 21.65934181213379 9.742764472961426 17.27448272705078 13.50862312316895 13.50862312316895 C 17.27447128295898 9.742776870727539 21.65934181213379 6.786305904388428 26.54141235351562 4.721364498138428 C 31.59512901306152 2.583823442459106 36.96437835693359 1.5 42.5 1.5 C 48.03562164306641 1.5 53.40486907958984 2.583823442459106 58.45858764648438 4.721364498138428 C 63.34066009521484 6.786305904388428 67.72553253173828 9.742776870727539 71.49137878417969 13.50862312316895 C 75.25723266601562 17.27448272705078 78.21369171142578 21.65934181213379 80.27863311767578 26.54141235351562 C 82.41617584228516 31.59512901306152 83.5 36.96437835693359 83.5 42.5 C 83.5 48.03562164306641 82.41617584228516 53.40486907958984 80.27863311767578 58.45858764648438 C 78.21369171142578 63.34066009521484 75.25723266601562 67.72553253173828 71.49137878417969 71.49137878417969 C 67.72553253173828 75.25723266601562 63.34066009521484 78.21369171142578 58.45858764648438 80.27863311767578 C 53.40486907958984 82.41617584228516 48.03562164306641 83.5 42.5 83.5 Z" stroke="none"/>
                        <path d="M 42.5 3 C 37.16621398925781 3 31.99356079101562 4.043960571289062 27.125732421875 6.102882385253906 C 22.42246627807617 8.092185974121094 18.19785308837891 10.94070434570312 14.56928253173828 14.56928253173828 C 10.94070434570312 18.19785308837891 8.092185974121094 22.42246627807617 6.102882385253906 27.125732421875 C 4.043960571289062 31.99356079101562 3 37.16621398925781 3 42.5 C 3 47.83378601074219 4.043960571289062 53.00643920898438 6.102882385253906 57.874267578125 C 8.092185974121094 62.57753372192383 10.94070434570312 66.80214691162109 14.56928253173828 70.43071746826172 C 18.19785308837891 74.05929565429688 22.42246627807617 76.90781402587891 27.125732421875 78.89711761474609 C 31.99356079101562 80.95603942871094 37.16621398925781 82 42.5 82 C 47.83378601074219 82 53.00643920898438 80.95603942871094 57.874267578125 78.89711761474609 C 62.57753372192383 76.90781402587891 66.80214691162109 74.05929565429688 70.43071746826172 70.43071746826172 C 74.05929565429688 66.80214691162109 76.90781402587891 62.57753372192383 78.89711761474609 57.874267578125 C 80.95603942871094 53.00643920898438 82 47.83378601074219 82 42.5 C 82 37.16621398925781 80.95603942871094 31.99356079101562 78.89711761474609 27.125732421875 C 76.90781402587891 22.42246627807617 74.05929565429688 18.19785308837891 70.43071746826172 14.56928253173828 C 66.80214691162109 10.94070434570312 62.57753372192383 8.092185974121094 57.874267578125 6.102882385253906 C 53.00643920898438 4.043960571289062 47.83378601074219 3 42.5 3 M 42.5 0 C 65.97210693359375 0 85 19.02789306640625 85 42.5 C 85 65.97210693359375 65.97210693359375 85 42.5 85 C 19.02789306640625 85 0 65.97210693359375 0 42.5 C 0 19.02789306640625 19.02789306640625 0 42.5 0 Z" stroke="none" fill="#1d7083"/>
                      </g>
                    </g>
                  </g>
                </g>
              </g>
            </g>
          </g>
        </g>
      </g>
    </g>
    <g id="taxes_9483888" transform="translate(1049.773 4106.773)">
      <path id="Trazado_1051511" data-name="Trazado 1051511" d="M7.5,323.1H42.187V309.2a6.6,6.6,0,0,0-6.379-6.595h0c-.035,0-18.847,0-18.847,0L7.5,310.485Z" transform="translate(0 -265.145)" fill="#01c0fa"/>
      <circle id="Elipse_13408" data-name="Elipse 13408" cx="9.46" cy="9.46" r="9.46" transform="translate(7.5 37.91)" fill="#08a9f1"/>
      <path id="Trazado_1051512" data-name="Trazado 1051512" d="M36.328,303a6.576,6.576,0,0,1,1.8,4.527,1.285,1.285,0,0,1-1.285,1.285H35.028a7.938,7.938,0,0,0-7.938,7.938V317.8a3.627,3.627,0,0,1-3.627,3.627H7.5v2.03H42.187v-13.9A6.6,6.6,0,0,0,36.328,303Z" transform="translate(0 -265.5)" fill="#08a9f1"/>
      <path id="Trazado_1051513" data-name="Trazado 1051513" d="M310.847,186.227c-.362-4.42-3.739-7.883-7.851-7.883s-7.489,3.464-7.851,7.883Z" transform="translate(-258.444 -153.501)" fill="#fd6930"/>
      <path id="Trazado_1051514" data-name="Trazado 1051514" d="M357.458,180.459l1.283-1.9a7.246,7.246,0,0,0-3.5,0l1.283,1.9A.564.564,0,0,0,357.458,180.459Z" transform="translate(-312.44 -153.5)" fill="#fd5426"/>
      <path id="Trazado_1051515" data-name="Trazado 1051515" d="M267.272,392.863h-26.8v-7.538a5.076,5.076,0,0,1,5.076-5.076H262.2a5.076,5.076,0,0,1,5.076,5.076Z" transform="translate(-209.319 -334.91)" fill="#80d261"/>
      <path id="Trazado_1051516" data-name="Trazado 1051516" d="M262.2,380.25a5.054,5.054,0,0,1,1.015,3.046V387.2a3.63,3.63,0,0,1-3.63,3.63H240.469v2.03h26.8v-7.538A5.076,5.076,0,0,0,262.2,380.25Z" transform="translate(-209.319 -334.91)" fill="#68ca44"/>
      <path id="Trazado_1051517" data-name="Trazado 1051517" d="M290.452,228.09h-1.845a3.553,3.553,0,0,1-3.178-1.964l-.595-1.189-1.533,1.022a12.69,12.69,0,0,1-7.039,2.131h-3.153a1.577,1.577,0,1,0,0,3.153h1.085a7.717,7.717,0,0,0,15.173,0h1.085a1.577,1.577,0,1,0,0-3.153Z" transform="translate(-237.228 -195.364)" fill="#ffcebf"/>
      <path id="Trazado_1051518" data-name="Trazado 1051518" d="M385.868,185.707a9.588,9.588,0,0,1-.079,1.235H389.9a8.36,8.36,0,0,0-6.771-7.8A9.024,9.024,0,0,1,385.868,185.707Z" transform="translate(-337.496 -154.216)" fill="#fd5426"/>
      <path id="Trazado_1051519" data-name="Trazado 1051519" d="M335.5,241.174h-1.845a3.553,3.553,0,0,1-3.016-1.675q.01.219.01.44c0,4.785-3.528,8.665-7.881,8.665a7.241,7.241,0,0,1-1.1-.083,7.452,7.452,0,0,0,5.158,2.114,8.04,8.04,0,0,0,7.587-6.307H335.5a1.577,1.577,0,0,0,0-3.153Z" transform="translate(-282.28 -208.447)" fill="#ffb09e"/>
      <circle id="Elipse_13409" data-name="Elipse 13409" cx="9.46" cy="9.46" r="9.46" transform="translate(7.5 35.88)" fill="#e53950"/>
      <path id="Trazado_1051520" data-name="Trazado 1051520" d="M48.468,289.309a9.463,9.463,0,0,1-8.208,16.434,9.461,9.461,0,1,0,8.208-16.434Z" transform="translate(-29.434 -253.201)" fill="#ca2e43"/>
      <path id="Trazado_1051521" data-name="Trazado 1051521" d="M267.371,54.094a2.03,2.03,0,0,1,2.03,2.03v5.333l2.933-.653-4.509,6.681L263.316,60.8l2.932.653V57.248H256V54.094Z" transform="translate(-223.273 -41.864)" fill="#80d261"/>
      <path id="Trazado_1051522" data-name="Trazado 1051522" d="M64.439,138.651h-.657A3.045,3.045,0,0,1,60.8,136.2l-.413-2.063a2,2,0,0,1,2.588-2.285l1.468.489v6.307Z" transform="translate(-47.478 -111.637)" fill="#ffe5c2"/>
      <path id="Trazado_1051523" data-name="Trazado 1051523" d="M256,138.651h.657a3.045,3.045,0,0,0,2.986-2.448l.413-2.063a2,2,0,0,0-2.588-2.285l-1.467.489Z" transform="translate(-223.273 -111.637)" fill="#fed2a4"/>
      <path id="Trazado_1051524" data-name="Trazado 1051524" d="M99.684,48.258h0a8.391,8.391,0,0,1-8.375-7.868l-.495-7.917a8.887,8.887,0,0,1,8.87-9.442h0a8.887,8.887,0,0,1,8.87,9.442l-.495,7.917A8.392,8.392,0,0,1,99.684,48.258Z" transform="translate(-74.84 -13.954)" fill="#fff3de"/>
      <path id="Trazado_1051525" data-name="Trazado 1051525" d="M133.581,39.338q0,.065-.006.13l-.846,13.543a8.4,8.4,0,0,1-9.956,7.719,8.367,8.367,0,0,0,5.641,2.179h0a8.392,8.392,0,0,0,8.375-7.868l.495-7.917A8.876,8.876,0,0,0,133.581,39.338Z" transform="translate(-103.57 -28.606)" fill="#ffe5c2"/>
      <path id="Trazado_1051526" data-name="Trazado 1051526" d="M95.982,16.96a5.076,5.076,0,0,0,3.589-1.487l1.667-1.667,5.343,10.686.725-11.6A5.076,5.076,0,0,0,102.24,7.5H96.63a7.614,7.614,0,0,0-7.6,8.089l.557,8.9,3.766-7.533h2.628Z" transform="translate(-73.241 0)" fill="#fed402"/>
      <path id="Trazado_1051527" data-name="Trazado 1051527" d="M219.282,7.5a5.051,5.051,0,0,1,1,3.362l-.387,6.186,3.722,7.445.725-11.6A5.076,5.076,0,0,0,219.282,7.5Z" transform="translate(-190.283 0)" fill="#fed402"/>
      <line id="Línea_1283" data-name="Línea 1283" y2="3.692" transform="translate(13.807 54.262)" fill="none" stroke="#000" stroke-linecap="round" stroke-linejoin="round" stroke-miterlimit="10" stroke-width="1.5"/>
      <path id="Trazado_1051528" data-name="Trazado 1051528" d="M267.272,392.863h-26.8v-7.538a5.076,5.076,0,0,1,5.076-5.076H262.2a5.076,5.076,0,0,1,5.076,5.076Z" transform="translate(-209.319 -334.91)" fill="none" stroke="#000" stroke-linecap="round" stroke-linejoin="round" stroke-miterlimit="10" stroke-width="1.5"/>
      <line id="Línea_1284" data-name="Línea 1284" y2="4.73" transform="translate(35.88 53.224)" fill="none" stroke="#000" stroke-linecap="round" stroke-linejoin="round" stroke-miterlimit="10" stroke-width="1.5"/>
      <line id="Línea_1285" data-name="Línea 1285" y2="4.73" transform="translate(53.224 53.224)" fill="none" stroke="#000" stroke-linecap="round" stroke-linejoin="round" stroke-miterlimit="10" stroke-width="1.5"/>
      <path id="Trazado_1051529" data-name="Trazado 1051529" d="M342.276,301.778a5.511,5.511,0,0,1-7.8.083" transform="translate(-293.783 -264.404)" fill="none" stroke="#000" stroke-linecap="round" stroke-linejoin="round" stroke-miterlimit="10" stroke-width="1.5"/>
      <path id="Trazado_1051530" data-name="Trazado 1051530" d="M290.452,228.09h-1.845a3.553,3.553,0,0,1-3.178-1.964l-.595-1.189-1.533,1.022a12.69,12.69,0,0,1-7.039,2.131h-3.153a1.577,1.577,0,1,0,0,3.153h1.085a7.717,7.717,0,0,0,15.173,0h1.085a1.577,1.577,0,1,0,0-3.153Z" transform="translate(-237.228 -195.364)" fill="none" stroke="#000" stroke-linecap="round" stroke-linejoin="round" stroke-miterlimit="10" stroke-width="1.5"/>
      <path id="Trazado_1051531" data-name="Trazado 1051531" d="M356.953,411.312l1.577,1.577,1.577-1.577" transform="translate(-313.978 -362.818)" fill="none" stroke="#000" stroke-linecap="round" stroke-linejoin="round" stroke-miterlimit="10" stroke-width="1.5"/>
      <path id="Trazado_1051532" data-name="Trazado 1051532" d="M177.2,162.813V164.7a1.269,1.269,0,0,1-1.269,1.269h-.615" transform="translate(-150.777 -139.546)" fill="none" stroke="#000" stroke-linecap="round" stroke-linejoin="round" stroke-miterlimit="10" stroke-width="1.5"/>
      <path id="Trazado_1051533" data-name="Trazado 1051533" d="M152.086,211.291a4.73,4.73,0,0,1-6.689,0" transform="translate(-123.898 -183.103)" fill="none" stroke="#000" stroke-linecap="round" stroke-linejoin="round" stroke-miterlimit="10" stroke-width="1.5"/>
      <path id="Trazado_1051534" data-name="Trazado 1051534" d="M90.2,11.034a7.573,7.573,0,0,0-1.169,4.555l.557,8.9,3.766-7.533h2.628a5.076,5.076,0,0,0,3.589-1.487l1.667-1.667,5.343,10.686.725-11.6A5.076,5.076,0,0,0,102.241,7.5h-5.61a7.574,7.574,0,0,0-3.8,1.012" transform="translate(-73.242 0)" fill="none" stroke="#000" stroke-linecap="round" stroke-linejoin="round" stroke-miterlimit="10" stroke-width="1.5"/>
      <path id="Trazado_1051535" data-name="Trazado 1051535" d="M426.844,20.784v.532a1.833,1.833,0,0,0,1.833,1.833h1.065a1.833,1.833,0,0,0,1.833-1.833h0a1.832,1.832,0,0,0-1.253-1.738l-2.224-.741a1.833,1.833,0,0,1-1.253-1.738h0a1.833,1.833,0,0,1,1.833-1.833h1.065a1.833,1.833,0,0,1,1.833,1.833v.532" transform="translate(-376.774 -6.978)" fill="none" stroke="#000" stroke-linecap="round" stroke-linejoin="round" stroke-miterlimit="10" stroke-width="1.5"/>
      <line id="Línea_1286" data-name="Línea 1286" y1="9.46" transform="translate(52.435 7.5)" fill="none" stroke="#000" stroke-linecap="round" stroke-linejoin="round" stroke-miterlimit="10" stroke-width="1.5"/>
      <path id="Trazado_1051536" data-name="Trazado 1051536" d="M26.166,294.334a9.464,9.464,0,1,1-1.484-3.278" transform="translate(0 -251.182)" fill="none" stroke="#000" stroke-linecap="round" stroke-linejoin="round" stroke-miterlimit="10" stroke-width="1.5"/>
      <circle id="Elipse_13410" data-name="Elipse 13410" cx="1.577" cy="1.577" r="1.577" transform="translate(12.23 40.61)" fill="none" stroke="#000" stroke-linecap="round" stroke-linejoin="round" stroke-miterlimit="10" stroke-width="1.5"/>
      <circle id="Elipse_13411" data-name="Elipse 13411" cx="1.577" cy="1.577" r="1.577" transform="translate(17.912 48.135) rotate(-35.783)" fill="none" stroke="#000" stroke-linecap="round" stroke-linejoin="round" stroke-miterlimit="10" stroke-width="1.5"/>
      <line id="Línea_1287" data-name="Línea 1287" x1="7.883" y2="7.883" transform="translate(13.018 41.399)" fill="none" stroke="#000" stroke-linecap="round" stroke-linejoin="round" stroke-miterlimit="10" stroke-width="1.5"/>
      <path id="Trazado_1051537" data-name="Trazado 1051537" d="M260.291,138.651h.221A3.046,3.046,0,0,0,263.5,136.2l.413-2.063a2,2,0,0,0-2.588-2.285l-.6.2" transform="translate(-227.129 -111.637)" fill="none" stroke="#000" stroke-linecap="round" stroke-linejoin="round" stroke-miterlimit="10" stroke-width="1.5"/>
      <path id="Trazado_1051538" data-name="Trazado 1051538" d="M63.57,132.055l-.6-.2a2,2,0,0,0-2.588,2.285l.413,2.063a3.045,3.045,0,0,0,2.986,2.448H64" transform="translate(-47.478 -111.637)" fill="none" stroke="#000" stroke-linecap="round" stroke-linejoin="round" stroke-miterlimit="10" stroke-width="1.5"/>
      <path id="Trazado_1051539" data-name="Trazado 1051539" d="M94.648,174.892l.121,1.942a8.392,8.392,0,0,0,8.375,7.868h0a8.392,8.392,0,0,0,8.375-7.868l.121-1.942" transform="translate(-78.301 -150.399)" fill="none" stroke="#000" stroke-linecap="round" stroke-linejoin="round" stroke-miterlimit="10" stroke-width="1.5"/>
      <path id="Trazado_1051540" data-name="Trazado 1051540" d="M267.648,57.248h9.065v4.209l-2.932-.653,4.508,6.681L282.8,60.8l-2.933.653V56.124a2.03,2.03,0,0,0-2.03-2.03H267.8" transform="translate(-233.739 -41.864)" fill="none" stroke="#000" stroke-linecap="round" stroke-linejoin="round" stroke-miterlimit="10" stroke-width="1.5"/>
      <path id="Trazado_1051541" data-name="Trazado 1051541" d="M381.707,180.2a7.42,7.42,0,0,0-4.177-1.682" transform="translate(-332.466 -153.66)" fill="none" stroke="#000" stroke-linecap="round" stroke-linejoin="round" stroke-miterlimit="10" stroke-width="1.5"/>
      <path id="Trazado_1051542" data-name="Trazado 1051542" d="M442.061,227.161a9.265,9.265,0,0,0-.877-3.258" transform="translate(-389.658 -194.435)" fill="none" stroke="#000" stroke-linecap="round" stroke-linejoin="round" stroke-miterlimit="10" stroke-width="1.5"/>
      <path id="Trazado_1051543" data-name="Trazado 1051543" d="M302.483,178.522c-3.877.274-6.991,3.631-7.338,7.865" transform="translate(-258.444 -153.66)" fill="none" stroke="#000" stroke-linecap="round" stroke-linejoin="round" stroke-miterlimit="10" stroke-width="1.5"/>
      <path id="Trazado_1051544" data-name="Trazado 1051544" d="M7.5,380.25v12.613H31.15" transform="translate(0 -334.91)" fill="none" stroke="#000" stroke-linecap="round" stroke-linejoin="round" stroke-miterlimit="10" stroke-width="1.5"/>
      <path id="Trazado_1051545" data-name="Trazado 1051545" d="M345.046,347.236v-1.285a6.58,6.58,0,0,0-.468-2.445" transform="translate(-302.859 -301.896)" fill="none" stroke="#000" stroke-linecap="round" stroke-linejoin="round" stroke-miterlimit="10" stroke-width="1.5"/>
      <path id="Trazado_1051546" data-name="Trazado 1051546" d="M152.261,302.629h13.613a6.584,6.584,0,0,1,1.889.341" transform="translate(-130.065 -265.169)" fill="none" stroke="#000" stroke-linecap="round" stroke-linejoin="round" stroke-miterlimit="10" stroke-width="1.5"/>
    </g>
  </g>
</svg>
