<svg xmlns="http://www.w3.org/2000/svg" xmlns:xlink="http://www.w3.org/1999/xlink" width="113" height="113" viewBox="0 0 113 113">
  <defs>
    <filter id="Trazado_982547" x="0" y="0" width="113" height="113" filterUnits="userSpaceOnUse">
      <feOffset dy="3" input="SourceAlpha"/>
      <feGaussianBlur stdDeviation="3" result="blur"/>
      <feFlood flood-opacity="0.161"/>
      <feComposite operator="in" in2="blur"/>
      <feComposite in="SourceGraphic"/>
    </filter>
  </defs>
  <g id="Grupo_1207468" data-name="Grupo 1207468" transform="translate(-743.203 -636.072)">
    <g id="Grupo_1202450" data-name="Grupo 1202450" transform="translate(0 -677.451)">
      <g id="Grupo_1202353" data-name="Grupo 1202353" transform="translate(472.203 443.108)">
        <g id="Grupo_1174813" data-name="Grupo 1174813" transform="translate(280 876.414)">
          <g id="Grupo_1201680" data-name="Grupo 1201680">
            <g id="Grupo_1201330" data-name="Grupo 1201330">
              <g id="Grupo_1172010" data-name="Grupo 1172010">
                <g id="Grupo_1171046" data-name="Grupo 1171046">
                  <g id="Grupo_1148525" data-name="Grupo 1148525">
                    <g transform="matrix(1, 0, 0, 1, -9, -6)" filter="url(#Trazado_982547)">
                      <g id="Trazado_982547-2" data-name="Trazado 982547" transform="translate(9 6)" fill="#e9f9fd">
                        <path d="M 47.5 93.5 C 41.28937149047852 93.5 35.26533508300781 92.28397369384766 29.59518623352051 89.88570404052734 C 24.11771965026855 87.56893157958984 19.19813346862793 84.25196075439453 14.97309303283691 80.02691650390625 C 10.74804019927979 75.80186462402344 7.431066513061523 70.88229370117188 5.114293098449707 65.40481567382812 C 2.716026782989502 59.73468017578125 1.5 53.71062850952148 1.5 47.5 C 1.5 41.28937149047852 2.716026782989502 35.26533508300781 5.114293098449707 29.59518623352051 C 7.431066513061523 24.11771965026855 10.74804019927979 19.19813346862793 14.97309303283691 14.97309303283691 C 19.19813346862793 10.74804019927979 24.11771965026855 7.431066513061523 29.59518623352051 5.114293098449707 C 35.26533508300781 2.716026782989502 41.28937149047852 1.5 47.5 1.5 C 53.71062850952148 1.5 59.73468017578125 2.716026782989502 65.40481567382812 5.114293098449707 C 70.88229370117188 7.431066513061523 75.80186462402344 10.74804019927979 80.02691650390625 14.97309303283691 C 84.25196075439453 19.19813346862793 87.56893157958984 24.11771965026855 89.88570404052734 29.59518623352051 C 92.28397369384766 35.26533508300781 93.5 41.28937149047852 93.5 47.5 C 93.5 53.71062850952148 92.28397369384766 59.73468017578125 89.88570404052734 65.40481567382812 C 87.56893157958984 70.88229370117188 84.25196075439453 75.80186462402344 80.02691650390625 80.02691650390625 C 75.80186462402344 84.25196075439453 70.88229370117188 87.56893157958984 65.40481567382812 89.88570404052734 C 59.73468017578125 92.28397369384766 53.71062850952148 93.5 47.5 93.5 Z" stroke="none"/>
                        <path d="M 47.5 3 C 41.49121475219727 3 35.66376876831055 4.176155090332031 30.17950439453125 6.495796203613281 C 24.88084411621094 8.736953735351562 20.12152099609375 11.94598388671875 16.03375244140625 16.03375244140625 C 11.94598388671875 20.12152099609375 8.736953735351562 24.88084411621094 6.495796203613281 30.17950439453125 C 4.176155090332031 35.66376876831055 3 41.49121475219727 3 47.5 C 3 53.50878524780273 4.176155090332031 59.33623123168945 6.495796203613281 64.82049560546875 C 8.736953735351562 70.11915588378906 11.94598388671875 74.87847900390625 16.03375244140625 78.96624755859375 C 20.12152099609375 83.05401611328125 24.88084411621094 86.26304626464844 30.17950439453125 88.50419616699219 C 35.66376876831055 90.82384490966797 41.49121475219727 92 47.5 92 C 53.50878524780273 92 59.33623123168945 90.82384490966797 64.82049560546875 88.50419616699219 C 70.11915588378906 86.26304626464844 74.87847900390625 83.05401611328125 78.96624755859375 78.96624755859375 C 83.05401611328125 74.87847900390625 86.26304626464844 70.11915588378906 88.50419616699219 64.82049560546875 C 90.82384490966797 59.33623123168945 92 53.50878524780273 92 47.5 C 92 41.49121475219727 90.82384490966797 35.66376876831055 88.50419616699219 30.17950439453125 C 86.26304626464844 24.88084411621094 83.05401611328125 20.12152099609375 78.96624755859375 16.03375244140625 C 74.87847900390625 11.94598388671875 70.11915588378906 8.736953735351562 64.82049560546875 6.495796203613281 C 59.33623123168945 4.176155090332031 53.50878524780273 3 47.5 3 M 47.5 0 C 73.7335205078125 0 95 21.2664794921875 95 47.5 C 95 73.7335205078125 73.7335205078125 95 47.5 95 C 21.2664794921875 95 0 73.7335205078125 0 47.5 C 0 21.2664794921875 21.2664794921875 0 47.5 0 Z" stroke="none" fill="#1d7083"/>
                      </g>
                    </g>
                  </g>
                </g>
              </g>
            </g>
          </g>
        </g>
      </g>
    </g>
    <g id="procedure_8509805" transform="translate(767.983 618.751)">
      <path id="Trazado_1051582" data-name="Trazado 1051582" d="M174.453,103.056h34.6a3.33,3.33,0,0,0,3.323-3.323V60.98l-8.52-8.52h-29.4a3.33,3.33,0,0,0-3.323,3.323v43.95a3.33,3.33,0,0,0,3.323,3.323Z" transform="translate(-149.212 -5.938)" fill="#eaeaea" fill-rule="evenodd"/>
      <path id="Trazado_1051583" data-name="Trazado 1051583" d="M168.515,96.246h34.6a2.457,2.457,0,0,0,2.451-2.451V55.4l-8.009-8.008H168.515a2.457,2.457,0,0,0-2.451,2.451V93.8a2.457,2.457,0,0,0,2.451,2.451Zm34.6,1.744h-34.6a4.2,4.2,0,0,1-4.2-4.2V49.845a4.2,4.2,0,0,1,4.2-4.2h29.4a.871.871,0,0,1,.616.255l8.515,8.515a.866.866,0,0,1,.26.621V93.794a4.2,4.2,0,0,1-4.194,4.2Z" transform="translate(-143.274)" fill="#020202" fill-rule="evenodd"/>
      <path id="Trazado_1051584" data-name="Trazado 1051584" d="M419.85,50.752a.872.872,0,1,1,1.744,0v4.654a2.457,2.457,0,0,0,2.451,2.451h4.426a.872.872,0,0,1,0,1.744h-4.426a4.2,4.2,0,0,1-4.2-4.2Z" transform="translate(-366.079 -3.688)" fill="#020202" fill-rule="evenodd"/>
      <path id="Trazado_1051585" data-name="Trazado 1051585" d="M38.175,91.975v1.943l-5.4-3.809,5.4-3.809v1.943h5.488A4.545,4.545,0,0,1,48.2,92.779v6.277H44.466V94.277a2.306,2.306,0,0,0-2.3-2.3H38.175Zm-25.7,4.881h1.943l-3.809,5.4-3.81-5.4H8.743V91.368a4.545,4.545,0,0,1,4.536-4.536h6.277v3.733H14.777a2.306,2.306,0,0,0-2.3,2.3Zm4.881,25.7v-1.943l5.4,3.809-5.4,3.809v-1.943H11.869a4.545,4.545,0,0,1-4.536-4.536v-6.277h3.732v4.778a2.306,2.306,0,0,0,2.3,2.3h3.991Zm25.7-4.881H41.113l3.809-5.4,3.809,5.4H46.787v5.488a4.545,4.545,0,0,1-4.536,4.536H35.975v-3.733h4.778a2.306,2.306,0,0,0,2.3-2.3v-3.989ZM22,98.336l-1.3-1.3-.209.151a12.386,12.386,0,0,0-2.8,2.807l-.151.209,1.3,1.3a10.565,10.565,0,0,0-1.459,3.524h-1.84l-.041.255a12.42,12.42,0,0,0,0,3.967l.041.255h1.838a10.592,10.592,0,0,0,1.459,3.524l-1.3,1.3.151.209a12.36,12.36,0,0,0,2.807,2.8l.209.151,1.3-1.3a10.565,10.565,0,0,0,3.524,1.459v1.842l.255.041a12.421,12.421,0,0,0,3.967,0l.255-.041v-1.838a10.592,10.592,0,0,0,3.524-1.459l1.3,1.3.209-.151a12.386,12.386,0,0,0,2.8-2.807l.151-.209-1.3-1.3a10.565,10.565,0,0,0,1.459-3.524h1.842l.041-.255a12.457,12.457,0,0,0,0-3.967l-.041-.255H38.154A10.592,10.592,0,0,0,36.7,101.5l1.3-1.3-.151-.209a12.36,12.36,0,0,0-2.807-2.8l-.209-.151-1.3,1.3a10.565,10.565,0,0,0-3.524-1.459V95.035l-.255-.041a12.42,12.42,0,0,0-3.967,0l-.255.041v1.838A10.617,10.617,0,0,0,22,98.336Zm1.415,4.581a6.148,6.148,0,1,1,0,8.694A6.147,6.147,0,0,1,23.418,102.917Z" transform="translate(-5.927 -35.444)" fill="#d71b5a" fill-rule="evenodd"/>
      <g id="Grupo_1207467" data-name="Grupo 1207467" transform="translate(0.002 49.984)">
        <path id="Trazado_1051586" data-name="Trazado 1051586" d="M33.12,86.911v1.071a.872.872,0,0,1-1.418.68L26.35,84.883a.871.871,0,0,1,.013-1.433l5.384-3.8a.871.871,0,0,1,1.372.712h0v1.071h4.616a5.418,5.418,0,0,1,5.408,5.408v6.277a.872.872,0,0,1-.872.872q-.038,0-.077,0H38.538a.868.868,0,0,1-.868-.868h0V88.34a1.434,1.434,0,0,0-1.429-1.429Zm-1.744-.61V86.04a.872.872,0,0,1,.872-.872h3.991a3.179,3.179,0,0,1,3.173,3.173v3.91H41.4V86.843a3.673,3.673,0,0,0-3.664-3.665H32.249a.872.872,0,0,1-.872-.872v-.261l-3.015,2.128ZM7.421,90.047H8.491a.872.872,0,0,1,.68,1.418L5.394,96.817A.871.871,0,0,1,3.96,96.8L.161,91.42a.871.871,0,0,1,.712-1.372H1.943V85.432a5.418,5.418,0,0,1,5.408-5.408h6.277a.872.872,0,0,1,.872.872v3.733a.872.872,0,0,1-.872.872q-.038,0-.077,0H8.85v0A1.434,1.434,0,0,0,7.421,86.93Zm-.61,1.744H6.55a.872.872,0,0,1-.872-.872V86.929a3.179,3.179,0,0,1,3.173-3.173v0h3.906V81.766h-5.4a3.673,3.673,0,0,0-3.665,3.665v5.488a.872.872,0,0,1-.872.872H2.554l2.128,3.015Zm3.746,23.955v-1.071a.872.872,0,0,1,1.418-.68l5.352,3.778a.871.871,0,0,1-.013,1.433l-5.384,3.8a.871.871,0,0,1-1.372-.712h0v-1.071H5.942a5.418,5.418,0,0,1-5.408-5.408v-6.278a.872.872,0,0,1,.872-.872H5.137a.872.872,0,0,1,.872.872v4.778a1.434,1.434,0,0,0,1.429,1.429h3.118Zm1.744.61v.261a.872.872,0,0,1-.872.872H7.44a3.179,3.179,0,0,1-3.173-3.173V110.41H2.278v5.4a3.673,3.673,0,0,0,3.665,3.665h5.488a.872.872,0,0,1,.872.872v.261l3.015-2.128Zm23.955-3.746H35.186a.872.872,0,0,1-.68-1.418l3.778-5.352a.871.871,0,0,1,1.433.013l3.8,5.384a.871.871,0,0,1-.712,1.372H41.734v4.615a5.417,5.417,0,0,1-5.408,5.408H30.049a.872.872,0,0,1-.872-.872v-3.733a.872.872,0,0,1,.872-.872h4.778a1.434,1.434,0,0,0,1.429-1.429Zm.61-1.744h.261a.872.872,0,0,1,.872.872v3.991a3.179,3.179,0,0,1-3.173,3.173H30.92v1.989h5.4a3.673,3.673,0,0,0,3.665-3.664v-5.488a.872.872,0,0,1,.872-.872h.261l-2.128-3.015ZM16.213,91.3l-.821-.821,0,0a.87.87,0,0,0-1.122-.091l-.209.151a13.33,13.33,0,0,0-1.624,1.382,13.109,13.109,0,0,0-1.378,1.624l-.108.149a.873.873,0,0,0,.045,1.185l.82.82a11.435,11.435,0,0,0-.6,1.228,11.652,11.652,0,0,0-.447,1.291H9.641a.869.869,0,0,0-.89.733l-.041.254a13.354,13.354,0,0,0,0,4.244l.041.255h0a.868.868,0,0,0,.858.729h1.156a11.483,11.483,0,0,0,1.044,2.519l-.821.821,0,0a.87.87,0,0,0-.091,1.122l.151.209a13.33,13.33,0,0,0,1.382,1.624,13.11,13.11,0,0,0,1.624,1.378l.149.108a.873.873,0,0,0,1.185-.045l.82-.82a11.435,11.435,0,0,0,1.228.6,11.586,11.586,0,0,0,1.287.446v1.16h0a.87.87,0,0,0,.733.858l.255.041a13.353,13.353,0,0,0,4.244,0l.255-.041h0a.868.868,0,0,0,.729-.858V112.4a11.483,11.483,0,0,0,2.519-1.044l.821.821,0,0a.868.868,0,0,0,1.122.091l.209-.151a13.328,13.328,0,0,0,1.624-1.382,13.107,13.107,0,0,0,1.378-1.624l.108-.149a.873.873,0,0,0-.045-1.185l-.82-.82a11.469,11.469,0,0,0,1.042-2.515h1.159v0a.87.87,0,0,0,.858-.733l.041-.255a13.354,13.354,0,0,0,0-4.244l-.041-.255h0a.868.868,0,0,0-.858-.729H32.906a11.652,11.652,0,0,0-.447-1.291,11.434,11.434,0,0,0-.6-1.228l.821-.821,0,0a.87.87,0,0,0,.091-1.122l-.151-.209a13.329,13.329,0,0,0-1.382-1.624,13.108,13.108,0,0,0-1.624-1.378l-.149-.108a.873.873,0,0,0-1.185.045l-.82.82a11.432,11.432,0,0,0-1.228-.6,11.649,11.649,0,0,0-1.291-.447V89.129a.869.869,0,0,0-.733-.89l-.255-.041a13.354,13.354,0,0,0-4.244,0l-.255.041h0a.868.868,0,0,0-.729.858v1.156A11.275,11.275,0,0,0,16.213,91.3ZM18.1,92.315a9.553,9.553,0,0,0-1.5.78.873.873,0,0,1-1.145-.077l-.772-.772a11.5,11.5,0,0,0-1.931,1.934l.771.771h0a.87.87,0,0,1,.114,1.089A9.684,9.684,0,0,0,12.3,99.272h0a.87.87,0,0,1-.85.689H10.36a11.686,11.686,0,0,0-.081,1.369,11.493,11.493,0,0,0,.083,1.372h1.03a.87.87,0,0,1,.909.688,9.712,9.712,0,0,0,.523,1.679,9.553,9.553,0,0,0,.78,1.5.873.873,0,0,1-.077,1.145l-.772.772a11.568,11.568,0,0,0,1.935,1.931l.771-.771h0a.87.87,0,0,1,1.089-.114,9.645,9.645,0,0,0,3.184,1.325.872.872,0,0,1,.739.862v1.091a11.621,11.621,0,0,0,1.365.081,11.493,11.493,0,0,0,1.372-.083v-1.03a.87.87,0,0,1,.688-.909,9.663,9.663,0,0,0,3.176-1.3.873.873,0,0,1,1.145.077l.772.772a11.569,11.569,0,0,0,1.931-1.935l-.771-.771h0a.87.87,0,0,1-.114-1.089,9.645,9.645,0,0,0,1.325-3.184.872.872,0,0,1,.862-.739h1.091a11.62,11.62,0,0,0,.081-1.365,11.493,11.493,0,0,0-.083-1.372h-1.03a.87.87,0,0,1-.909-.688,9.664,9.664,0,0,0-1.3-3.176.873.873,0,0,1,.077-1.145l.772-.772a11.569,11.569,0,0,0-1.935-1.931l-.771.771h0a.87.87,0,0,1-1.089.114A9.684,9.684,0,0,0,23.9,91.793h0a.87.87,0,0,1-.689-.85V89.85a11.686,11.686,0,0,0-1.369-.081,11.5,11.5,0,0,0-1.372.083v1.03a.87.87,0,0,1-.688.909,9.871,9.871,0,0,0-1.676.524Zm.006,5.283a5.275,5.275,0,1,1-1.546,3.731A5.262,5.262,0,0,1,18.108,97.6Zm-3.29,3.731a7.022,7.022,0,1,1,2.057,4.964A6.994,6.994,0,0,1,14.818,101.328Z" transform="translate(-0.002 -79.492)" fill="#010101" fill-rule="evenodd"/>
        <path id="Trazado_1051587" data-name="Trazado 1051587" d="M369.842,373.664a.872.872,0,1,1,0-1.744h9.782a.872.872,0,0,1,0,1.744Z" transform="translate(-321.718 -334.47)" fill="#010101" fill-rule="evenodd"/>
        <path id="Trazado_1051588" data-name="Trazado 1051588" d="M369.842,320.254a.872.872,0,1,1,0-1.744h9.782a.872.872,0,0,1,0,1.744Z" transform="translate(-321.718 -287.9)" fill="#010101" fill-rule="evenodd"/>
        <path id="Trazado_1051589" data-name="Trazado 1051589" d="M337.862,266.854a.872.872,0,1,1,0-1.744h13.877a.872.872,0,1,1,0,1.744Z" transform="translate(-293.833 -241.339)" fill="#010101" fill-rule="evenodd"/>
        <path id="Trazado_1051590" data-name="Trazado 1051590" d="M369.842,213.454a.872.872,0,0,1,0-1.744h9.782a.872.872,0,0,1,0,1.744Z" transform="translate(-321.718 -194.777)" fill="#010101" fill-rule="evenodd"/>
        <path id="Trazado_1051591" data-name="Trazado 1051591" d="M369.842,160.054a.872.872,0,1,1,0-1.744h9.782a.872.872,0,0,1,0,1.744Z" transform="translate(-321.718 -148.216)" fill="#010101" fill-rule="evenodd"/>
      </g>
    </g>
  </g>
</svg>
