<svg xmlns="http://www.w3.org/2000/svg" xmlns:xlink="http://www.w3.org/1999/xlink" width="103" height="103" viewBox="0 0 103 103">
  <defs>
    <filter id="Trazado_982547" x="0" y="0" width="103" height="103" filterUnits="userSpaceOnUse">
      <feOffset dy="3" input="SourceAlpha"/>
      <feGaussianBlur stdDeviation="3" result="blur"/>
      <feFlood flood-opacity="0.161"/>
      <feComposite operator="in" in2="blur"/>
      <feComposite in="SourceGraphic"/>
    </filter>
  </defs>
  <g id="Grupo_1207485" data-name="Grupo 1207485" transform="translate(-191 -3663.5)">
    <g id="Grupo_1207313" data-name="Grupo 1207313" transform="translate(0 2919.5)">
      <g id="Grupo_1202212" data-name="Grupo 1202212" transform="translate(-80 -126.414)">
        <g id="Grupo_1174813" data-name="Grupo 1174813" transform="translate(280 876.414)">
          <g id="Grupo_1201680" data-name="Grupo 1201680">
            <g id="Grupo_1201330" data-name="Grupo 1201330">
              <g id="Grupo_1172010" data-name="Grupo 1172010">
                <g id="Grupo_1171046" data-name="Grupo 1171046">
                  <g id="Grupo_1148525" data-name="Grupo 1148525">
                    <g transform="matrix(1, 0, 0, 1, -9, -6)" filter="url(#Trazado_982547)">
                      <g id="Trazado_982547-2" data-name="Trazado 982547" transform="translate(9 6)" fill="#f2f7e5">
                        <path d="M 42.5 83.5 C 36.96437835693359 83.5 31.59512901306152 82.41617584228516 26.54141235351562 80.27863311767578 C 21.65934181213379 78.21369171142578 17.27447128295898 75.25723266601562 13.50862312316895 71.49137878417969 C 9.742764472961426 67.72553253173828 6.786305904388428 63.34066009521484 4.721364498138428 58.45858764648438 C 2.583823442459106 53.40486907958984 1.5 48.03562164306641 1.5 42.5 C 1.5 36.96437835693359 2.583823442459106 31.59512901306152 4.721364498138428 26.54141235351562 C 6.786305904388428 21.65934181213379 9.742764472961426 17.27448272705078 13.50862312316895 13.50862312316895 C 17.27447128295898 9.742776870727539 21.65934181213379 6.786305904388428 26.54141235351562 4.721364498138428 C 31.59512901306152 2.583823442459106 36.96437835693359 1.5 42.5 1.5 C 48.03562164306641 1.5 53.40486907958984 2.583823442459106 58.45858764648438 4.721364498138428 C 63.34066009521484 6.786305904388428 67.72553253173828 9.742776870727539 71.49137878417969 13.50862312316895 C 75.25723266601562 17.27448272705078 78.21369171142578 21.65934181213379 80.27863311767578 26.54141235351562 C 82.41617584228516 31.59512901306152 83.5 36.96437835693359 83.5 42.5 C 83.5 48.03562164306641 82.41617584228516 53.40486907958984 80.27863311767578 58.45858764648438 C 78.21369171142578 63.34066009521484 75.25723266601562 67.72553253173828 71.49137878417969 71.49137878417969 C 67.72553253173828 75.25723266601562 63.34066009521484 78.21369171142578 58.45858764648438 80.27863311767578 C 53.40486907958984 82.41617584228516 48.03562164306641 83.5 42.5 83.5 Z" stroke="none"/>
                        <path d="M 42.5 3 C 37.16621398925781 3 31.99356079101562 4.043960571289062 27.125732421875 6.102882385253906 C 22.42246627807617 8.092185974121094 18.19785308837891 10.94070434570312 14.56928253173828 14.56928253173828 C 10.94070434570312 18.19785308837891 8.092185974121094 22.42246627807617 6.102882385253906 27.125732421875 C 4.043960571289062 31.99356079101562 3 37.16621398925781 3 42.5 C 3 47.83378601074219 4.043960571289062 53.00643920898438 6.102882385253906 57.874267578125 C 8.092185974121094 62.57753372192383 10.94070434570312 66.80214691162109 14.56928253173828 70.43071746826172 C 18.19785308837891 74.05929565429688 22.42246627807617 76.90781402587891 27.125732421875 78.89711761474609 C 31.99356079101562 80.95603942871094 37.16621398925781 82 42.5 82 C 47.83378601074219 82 53.00643920898438 80.95603942871094 57.874267578125 78.89711761474609 C 62.57753372192383 76.90781402587891 66.80214691162109 74.05929565429688 70.43071746826172 70.43071746826172 C 74.05929565429688 66.80214691162109 76.90781402587891 62.57753372192383 78.89711761474609 57.874267578125 C 80.95603942871094 53.00643920898438 82 47.83378601074219 82 42.5 C 82 37.16621398925781 80.95603942871094 31.99356079101562 78.89711761474609 27.125732421875 C 76.90781402587891 22.42246627807617 74.05929565429688 18.19785308837891 70.43071746826172 14.56928253173828 C 66.80214691162109 10.94070434570312 62.57753372192383 8.092185974121094 57.874267578125 6.102882385253906 C 53.00643920898438 4.043960571289062 47.83378601074219 3 42.5 3 M 42.5 0 C 65.97210693359375 0 85 19.02789306640625 85 42.5 C 85 65.97210693359375 65.97210693359375 85 42.5 85 C 19.02789306640625 85 0 65.97210693359375 0 42.5 C 0 19.02789306640625 19.02789306640625 0 42.5 0 Z" stroke="none" fill="#1d7083"/>
                      </g>
                    </g>
                  </g>
                </g>
              </g>
            </g>
          </g>
        </g>
      </g>
    </g>
    <g id="plan_9186408" transform="translate(173.761 3675.992)">
      <g id="Grupo_1207484" data-name="Grupo 1207484" transform="translate(46.435 12.884)">
        <g id="Grupo_1207482" data-name="Grupo 1207482" transform="translate(6.262 3.066)">
          <path id="Trazado_1051707" data-name="Trazado 1051707" d="M141.227,78.412h29.15a.918.918,0,0,1,.672.279l5.339,5.339a.919.919,0,0,1,.279.672v39.925a.953.953,0,0,1-.951.951H141.227a.953.953,0,0,1-.951-.951V79.363a.953.953,0,0,1,.951-.951Z" transform="translate(-140.276 -78.412)" fill="#eceff1" fill-rule="evenodd"/>
          <path id="Trazado_1051708" data-name="Trazado 1051708" d="M141.227,78.412h1.74v47.166h-1.74a.953.953,0,0,1-.951-.951V79.363a.953.953,0,0,1,.951-.951Z" transform="translate(-140.276 -78.412)" fill="#d1d1d6" fill-rule="evenodd"/>
          <path id="Trazado_1051709" data-name="Trazado 1051709" d="M410.273,79.142a.956.956,0,0,1,.279.2l5.339,5.339a.955.955,0,0,1,.2.279h-5.338a.476.476,0,0,1-.475-.475Z" transform="translate(-379.778 -79.06)" fill="#a79ba7" fill-rule="evenodd"/>
          <path id="Trazado_1051710" data-name="Trazado 1051710" d="M181.942,425.642h3.43a.68.68,0,0,1,.678.678v3.43a.68.68,0,0,1-.678.678h-3.43a.68.68,0,0,1-.678-.678v-3.43A.68.68,0,0,1,181.942,425.642Z" transform="translate(-176.635 -386.424)" fill="#fe646f" fill-rule="evenodd"/>
          <path id="Trazado_1051711" data-name="Trazado 1051711" d="M185.264,425.642h.108a.68.68,0,0,1,.678.678v3.43a.68.68,0,0,1-.678.678h-3.43a.68.68,0,0,1-.678-.678v-.135h3.322a.68.68,0,0,0,.678-.678Z" transform="translate(-176.635 -386.424)" fill="#fd4755" fill-rule="evenodd"/>
          <path id="Trazado_1051712" data-name="Trazado 1051712" d="M181.942,360.6h3.43a.68.68,0,0,1,.678.678v3.43a.68.68,0,0,1-.678.678h-3.43a.68.68,0,0,1-.678-.678v-3.43A.68.68,0,0,1,181.942,360.6Z" transform="translate(-176.635 -328.731)" fill="#ffe177" fill-rule="evenodd"/>
          <path id="Trazado_1051713" data-name="Trazado 1051713" d="M185.264,360.6h.108a.68.68,0,0,1,.678.678v3.43a.68.68,0,0,1-.678.678h-3.43a.68.68,0,0,1-.678-.678v-.135h3.322a.68.68,0,0,0,.678-.678Z" transform="translate(-176.635 -328.731)" fill="#ffd064" fill-rule="evenodd"/>
          <path id="Trazado_1051714" data-name="Trazado 1051714" d="M181.942,295.565h3.43a.68.68,0,0,1,.678.678v3.43a.68.68,0,0,1-.678.678h-3.43a.68.68,0,0,1-.678-.678v-3.43A.68.68,0,0,1,181.942,295.565Z" transform="translate(-176.635 -271.039)" fill="#8ac9fe" fill-rule="evenodd"/>
          <path id="Trazado_1051715" data-name="Trazado 1051715" d="M185.264,295.565h.108a.68.68,0,0,1,.678.678v3.43a.68.68,0,0,1-.678.678h-3.43a.68.68,0,0,1-.678-.678v-.135h3.322a.68.68,0,0,0,.678-.678Z" transform="translate(-176.635 -271.039)" fill="#60b7ff" fill-rule="evenodd"/>
        </g>
        <g id="Grupo_1207483" data-name="Grupo 1207483" transform="translate(0)">
          <path id="Trazado_1051716" data-name="Trazado 1051716" d="M97.039,52.952a8.69,8.69,0,0,1,2.544,1.055l1.653-.734,1.949,1.949-.734,1.653a8.687,8.687,0,0,1,1.055,2.545l1.687.649v2.756l-1.687.649a8.69,8.69,0,0,1-1.055,2.544l.734,1.653-1.949,1.949-1.653-.734a8.688,8.688,0,0,1-2.545,1.055l-.649,1.687H93.634l-.649-1.687a8.69,8.69,0,0,1-2.544-1.055l-1.653.734-1.949-1.949.734-1.653a8.69,8.69,0,0,1-1.055-2.545l-1.687-.649V60.068l1.687-.649a8.687,8.687,0,0,1,1.055-2.545l-.734-1.653,1.949-1.949,1.653.734a8.689,8.689,0,0,1,2.544-1.055l.649-1.687h2.756Z" transform="translate(-84.83 -51.265)" fill="#ffe177" fill-rule="evenodd"/>
          <path id="Trazado_1051717" data-name="Trazado 1051717" d="M119.512,68.884l-1.653.734-.255-.255,1.55-.689q.177.109.358.209Zm6.6-15.934A8.69,8.69,0,0,1,128.655,54l-.47.209a11.459,11.459,0,0,0-2.9-1.264l-.649-1.687h.828Zm2.545,15.934a8.689,8.689,0,0,1-2.545,1.055l-.649,1.687h-.828l.649-1.687a11.457,11.457,0,0,0,2.9-1.264ZM117.6,53.525l.255-.255,1.653.734q-.181.1-.358.209Zm12.131,0,.573-.255,1.949,1.949-.734,1.653a8.687,8.687,0,0,1,1.055,2.545l1.687.649v2.756l-1.687.649a8.69,8.69,0,0,1-1.055,2.544l.734,1.653-1.949,1.949-.573-.255,1.694-1.694-.734-1.653a8.688,8.688,0,0,0,1.055-2.544l1.687-.649V60.066l-1.687-.649a8.689,8.689,0,0,0-1.055-2.545l.734-1.653Z" transform="translate(-113.902 -51.263)" fill="#ffd064" fill-rule="evenodd"/>
          <ellipse id="Elipse_13416" data-name="Elipse 13416" cx="4.806" cy="4.806" rx="4.806" ry="4.806" transform="translate(3.908 7.577) rotate(-22.514)" fill="#eceff1"/>
          <path id="Trazado_1051718" data-name="Trazado 1051718" d="M137.231,98.858a4.806,4.806,0,0,0,0,9.612q.193,0,.382-.015a4.806,4.806,0,0,1,0-9.581Q137.424,98.858,137.231,98.858Z" transform="translate(-127.049 -93.482)" fill="#d1d1d6" fill-rule="evenodd"/>
        </g>
      </g>
      <path id="Trazado_1051719" data-name="Trazado 1051719" d="M86.593,31.534a.9.9,0,0,1-.9.9H73.663a.9.9,0,0,1,0-1.808H85.69A.9.9,0,0,1,86.593,31.534Zm0,3.156a.9.9,0,0,1-.9.9H73.663a.9.9,0,0,1,0-1.807H85.69A.9.9,0,0,1,86.593,34.69Zm0-6.313a.9.9,0,0,1-.9.9H73.663a.9.9,0,0,1,0-1.807H85.69A.9.9,0,0,1,86.593,28.378Zm0-3.156a.9.9,0,0,1-.9.9H73.663a.9.9,0,0,1,0-1.808H85.69A.9.9,0,0,1,86.593,25.222ZM60.767,58.611h-2.1v-2.1h2.1Zm.9-3.909H57.762a.9.9,0,0,0-.9.9v3.909a.9.9,0,0,0,.9.9h3.909a.9.9,0,0,0,.9-.9V55.605A.9.9,0,0,0,61.671,54.7Zm23.25,4.347a.9.9,0,0,1-.9.9H65.978a.9.9,0,1,1,0-1.807H84.017A.9.9,0,0,1,84.921,59.049Zm0-2.978a.9.9,0,0,1-.9.9H65.978a.9.9,0,1,1,0-1.807H84.017A.9.9,0,0,1,84.921,56.071Zm0-7.345a.9.9,0,0,1-.9.9H65.978a.9.9,0,1,1,0-1.807H84.017A.9.9,0,0,1,84.921,48.725Zm0,2.978a.9.9,0,0,1-.9.9H65.978a.9.9,0,1,1,0-1.807H84.017A.9.9,0,0,1,84.921,51.7Zm0-10.323a.9.9,0,0,1-.9.9H65.978a.9.9,0,1,1,0-1.808H84.017A.9.9,0,0,1,84.921,41.38Zm0,2.978a.9.9,0,0,1-.9.9H65.978a.9.9,0,1,1,0-1.807H84.017A.9.9,0,0,1,84.921,44.357ZM60.767,51.265h-2.1v-2.1h2.1Zm.9-3.909H57.762a.9.9,0,0,0-.9.9v3.909a.9.9,0,0,0,.9.9h3.909a.9.9,0,0,0,.9-.9V48.26A.9.9,0,0,0,61.671,47.356Zm-.9-3.437h-2.1v-2.1h2.1Zm.9-3.908H57.762a.9.9,0,0,0-.9.9v3.909a.9.9,0,0,0,.9.9h3.909a.9.9,0,0,0,.9-.9V40.914a.9.9,0,0,0-.9-.9ZM56.613,19.162a3.9,3.9,0,1,1-3.9,3.9A3.907,3.907,0,0,1,56.613,19.162Zm0,9.612a5.71,5.71,0,1,0-5.709-5.71A5.717,5.717,0,0,0,56.613,28.774Zm-9.277-6.467v1.515l1.108.426a.9.9,0,0,1,.554.634,7.765,7.765,0,0,0,.945,2.281A.9.9,0,0,1,50,28l-.482,1.086,1.071,1.071,1.087-.482a.9.9,0,0,1,.84.056,7.776,7.776,0,0,0,2.28.945.9.9,0,0,1,.634.554l.427,1.108H57.37l.427-1.107a.905.905,0,0,1,.634-.555,7.771,7.771,0,0,0,2.281-.945.9.9,0,0,1,.841-.057l1.086.482,1.071-1.071L63.227,28a.9.9,0,0,1,.056-.84,7.779,7.779,0,0,0,.945-2.28.9.9,0,0,1,.554-.634l1.108-.427V22.307l-1.108-.426a.905.905,0,0,1-.554-.634,7.77,7.77,0,0,0-.945-2.281.9.9,0,0,1-.056-.84l.482-1.086-1.071-1.071-1.086.483a.906.906,0,0,1-.841-.056,7.764,7.764,0,0,0-2.28-.945A.9.9,0,0,1,57.8,14.9l-.427-1.108H55.856L55.429,14.9a.9.9,0,0,1-.634.554,7.761,7.761,0,0,0-2.28.945.906.906,0,0,1-.841.056l-1.086-.483L49.517,17.04,50,18.126a.9.9,0,0,1-.056.841A7.776,7.776,0,0,0,49,21.247a.9.9,0,0,1-.554.634Zm.825,5.384-.547,1.231a.9.9,0,0,0,.187,1.006l1.948,1.948a.9.9,0,0,0,1.006.187l1.232-.547a9.56,9.56,0,0,0,1.922.8l.484,1.257a.9.9,0,0,0,.843.579h2.755a.9.9,0,0,0,.843-.579l.484-1.257a9.551,9.551,0,0,0,1.922-.8l1.231.547a.9.9,0,0,0,1.006-.187l1.948-1.948a.9.9,0,0,0,.187-1.006l-.547-1.232a9.565,9.565,0,0,0,.8-1.921l1.257-.484a.9.9,0,0,0,.579-.843V21.687a.9.9,0,0,0-.579-.843l-1.256-.484a9.59,9.59,0,0,0-.8-1.922l.547-1.231a.9.9,0,0,0-.187-1.005l-1.948-1.949a.9.9,0,0,0-1.006-.187l-1.232.547a9.6,9.6,0,0,0-1.921-.8l-.484-1.257a.9.9,0,0,0-.843-.579H55.235a.9.9,0,0,0-.843.579l-.484,1.257a9.585,9.585,0,0,0-1.922.8l-1.232-.547a.9.9,0,0,0-1.006.187L47.8,16.2a.9.9,0,0,0-.187,1.005l.547,1.232a9.558,9.558,0,0,0-.8,1.922l-1.257.484a.9.9,0,0,0-.579.843v2.756a.9.9,0,0,0,.579.843l1.256.483A9.568,9.568,0,0,0,48.161,27.691Zm-3.011,2.033A13.26,13.26,0,0,1,63.541,11.758l-.063,0a.9.9,0,0,0,.032,1.807h.033l2.611-.094a.9.9,0,0,0,.837-1.151L66.273,9.81a.9.9,0,0,0-1.753.429,15.067,15.067,0,0,0-20.933,20.4.9.9,0,0,0,1.562-.909ZM88.134,62.212a.049.049,0,0,0,.047-.047V22.75H83.664a1.381,1.381,0,0,1-1.379-1.379V16.853H70.341A15.069,15.069,0,0,1,55.035,38.047q-.726-.077-1.438-.221V62.164a.049.049,0,0,0,.047.047H88.134Zm-4.042-44.08L86.9,20.943H84.092Zm5.354,2.8L84.106,15.59a1.817,1.817,0,0,0-1.312-.543H68.857a.9.9,0,0,0-.78,1.358A13.26,13.26,0,0,1,49.684,34.371l.064,0a.9.9,0,1,0-.065-1.806l-2.611.094a.9.9,0,0,0-.837,1.151l.717,2.512a.9.9,0,0,0,1.753-.429,14.935,14.935,0,0,0,3.085,1.45V62.164a1.857,1.857,0,0,0,1.854,1.855H88.134a1.857,1.857,0,0,0,1.855-1.855V22.24a1.822,1.822,0,0,0-.543-1.312Z" transform="translate(0 0)" fill-rule="evenodd"/>
    </g>
  </g>
</svg>
