<svg xmlns="http://www.w3.org/2000/svg" xmlns:xlink="http://www.w3.org/1999/xlink" width="103" height="103" viewBox="0 0 103 103">
  <defs>
    <filter id="Trazado_982547" x="0" y="0" width="103" height="103" filterUnits="userSpaceOnUse">
      <feOffset dy="3" input="SourceAlpha"/>
      <feGaussianBlur stdDeviation="3" result="blur"/>
      <feFlood flood-opacity="0.161"/>
      <feComposite operator="in" in2="blur"/>
      <feComposite in="SourceGraphic"/>
    </filter>
  </defs>
  <g id="Grupo_1207487" data-name="Grupo 1207487" transform="translate(-611 -3663.5)">
    <g id="Grupo_1207315" data-name="Grupo 1207315" transform="translate(0 2919.5)">
      <g id="Grupo_1202210" data-name="Grupo 1202210" transform="translate(340 -126.414)">
        <g id="Grupo_1174813" data-name="Grupo 1174813" transform="translate(280 876.414)">
          <g id="Grupo_1201680" data-name="Grupo 1201680">
            <g id="Grupo_1201330" data-name="Grupo 1201330">
              <g id="Grupo_1172010" data-name="Grupo 1172010">
                <g id="Grupo_1171046" data-name="Grupo 1171046">
                  <g id="Grupo_1148525" data-name="Grupo 1148525">
                    <g transform="matrix(1, 0, 0, 1, -9, -6)" filter="url(#Trazado_982547)">
                      <g id="Trazado_982547-2" data-name="Trazado 982547" transform="translate(9 6)" fill="#f2f7e5">
                        <path d="M 42.5 83.5 C 36.96437835693359 83.5 31.59512901306152 82.41617584228516 26.54141235351562 80.27863311767578 C 21.65934181213379 78.21369171142578 17.27447128295898 75.25723266601562 13.50862312316895 71.49137878417969 C 9.742764472961426 67.72553253173828 6.786305904388428 63.34066009521484 4.721364498138428 58.45858764648438 C 2.583823442459106 53.40486907958984 1.5 48.03562164306641 1.5 42.5 C 1.5 36.96437835693359 2.583823442459106 31.59512901306152 4.721364498138428 26.54141235351562 C 6.786305904388428 21.65934181213379 9.742764472961426 17.27448272705078 13.50862312316895 13.50862312316895 C 17.27447128295898 9.742776870727539 21.65934181213379 6.786305904388428 26.54141235351562 4.721364498138428 C 31.59512901306152 2.583823442459106 36.96437835693359 1.5 42.5 1.5 C 48.03562164306641 1.5 53.40486907958984 2.583823442459106 58.45858764648438 4.721364498138428 C 63.34066009521484 6.786305904388428 67.72553253173828 9.742776870727539 71.49137878417969 13.50862312316895 C 75.25723266601562 17.27448272705078 78.21369171142578 21.65934181213379 80.27863311767578 26.54141235351562 C 82.41617584228516 31.59512901306152 83.5 36.96437835693359 83.5 42.5 C 83.5 48.03562164306641 82.41617584228516 53.40486907958984 80.27863311767578 58.45858764648438 C 78.21369171142578 63.34066009521484 75.25723266601562 67.72553253173828 71.49137878417969 71.49137878417969 C 67.72553253173828 75.25723266601562 63.34066009521484 78.21369171142578 58.45858764648438 80.27863311767578 C 53.40486907958984 82.41617584228516 48.03562164306641 83.5 42.5 83.5 Z" stroke="none"/>
                        <path d="M 42.5 3 C 37.16621398925781 3 31.99356079101562 4.043960571289062 27.125732421875 6.102882385253906 C 22.42246627807617 8.092185974121094 18.19785308837891 10.94070434570312 14.56928253173828 14.56928253173828 C 10.94070434570312 18.19785308837891 8.092185974121094 22.42246627807617 6.102882385253906 27.125732421875 C 4.043960571289062 31.99356079101562 3 37.16621398925781 3 42.5 C 3 47.83378601074219 4.043960571289062 53.00643920898438 6.102882385253906 57.874267578125 C 8.092185974121094 62.57753372192383 10.94070434570312 66.80214691162109 14.56928253173828 70.43071746826172 C 18.19785308837891 74.05929565429688 22.42246627807617 76.90781402587891 27.125732421875 78.89711761474609 C 31.99356079101562 80.95603942871094 37.16621398925781 82 42.5 82 C 47.83378601074219 82 53.00643920898438 80.95603942871094 57.874267578125 78.89711761474609 C 62.57753372192383 76.90781402587891 66.80214691162109 74.05929565429688 70.43071746826172 70.43071746826172 C 74.05929565429688 66.80214691162109 76.90781402587891 62.57753372192383 78.89711761474609 57.874267578125 C 80.95603942871094 53.00643920898438 82 47.83378601074219 82 42.5 C 82 37.16621398925781 80.95603942871094 31.99356079101562 78.89711761474609 27.125732421875 C 76.90781402587891 22.42246627807617 74.05929565429688 18.19785308837891 70.43071746826172 14.56928253173828 C 66.80214691162109 10.94070434570312 62.57753372192383 8.092185974121094 57.874267578125 6.102882385253906 C 53.00643920898438 4.043960571289062 47.83378601074219 3 42.5 3 M 42.5 0 C 65.97210693359375 0 85 19.02789306640625 85 42.5 C 85 65.97210693359375 65.97210693359375 85 42.5 85 C 19.02789306640625 85 0 65.97210693359375 0 42.5 C 0 19.02789306640625 19.02789306640625 0 42.5 0 Z" stroke="none" fill="#1d7083"/>
                      </g>
                    </g>
                  </g>
                </g>
              </g>
            </g>
          </g>
        </g>
      </g>
    </g>
    <g id="filled_outline" data-name="filled outline" transform="translate(619.281 3647.957)">
      <path id="Trazado_1051720" data-name="Trazado 1051720" d="M88.994,132.292H69.941l-1.217,1.217a2.041,2.041,0,0,1-1.444.6H61.714a2.041,2.041,0,0,1-1.444-.6l-1.217-1.217H40V98.5A2.5,2.5,0,0,1,42.5,96h44a2.5,2.5,0,0,1,2.5,2.5Z" transform="translate(-21.278 -49.649)" fill="#cbcbcb"/>
      <path id="Trazado_1051721" data-name="Trazado 1051721" d="M72,128h41.736v37.2H72Z" transform="translate(-49.649 -78.02)" fill="#c0f5f9"/>
      <path id="Trazado_1051722" data-name="Trazado 1051722" d="M184,258.722,192.166,256l8.166,2.722-8.166,2.722Z" transform="translate(-148.947 -191.503)" fill="#ea9d2d"/>
      <path id="Trazado_1051723" data-name="Trazado 1051723" d="M225.073,196.537v.3a4.47,4.47,0,0,1-.032.538,4.542,4.542,0,0,1-.876,2.184l-1.815,2.419h-3.629l-1.815-2.419-.05-.069a4.536,4.536,0,0,1-.857-2.653v-.3a4.537,4.537,0,1,1,9.073,0Z" transform="translate(-177.318 -134.761)" fill="#fbb540"/>
      <path id="Trazado_1051724" data-name="Trazado 1051724" d="M241.815,282.722A1.815,1.815,0,0,1,240,280.907V280h3.629v.907A1.815,1.815,0,0,1,241.815,282.722Z" transform="translate(-198.596 -212.781)" fill="#e4e4e2"/>
      <path id="Trazado_1051725" data-name="Trazado 1051725" d="M237.178,224.265a.907.907,0,0,0-1.283,0l-1.173,1.173-1.173-1.173a.907.907,0,0,0-1.283,1.283l1.549,1.549v3.253h1.815V227.1l1.549-1.549A.907.907,0,0,0,237.178,224.265Z" transform="translate(-191.503 -163.132)" fill="#ea9d2d"/>
      <path id="Trazado_1051726" data-name="Trazado 1051726" d="M225.073,196.537v.3a4.47,4.47,0,0,1-.032.538,1.361,1.361,0,0,1-1.783-1.333v-1.322a3.85,3.85,0,0,0-5.444,0l-.907.907v3.554a.96.96,0,0,1-.05.308,4.536,4.536,0,0,1-.857-2.653v-.3a4.537,4.537,0,1,1,9.073,0Z" transform="translate(-177.317 -134.761)" fill="#f3af3e"/>
      <path id="Trazado_1051727" data-name="Trazado 1051727" d="M160,208h1.815v1.815H160Z" transform="translate(-127.669 -148.947)" fill="#c0f5f9"/>
      <path id="Trazado_1051728" data-name="Trazado 1051728" d="M160,152h1.815v4.537H160Z" transform="translate(-127.669 -99.298)" fill="#c0f5f9"/>
      <path id="Trazado_1051729" data-name="Trazado 1051729" d="M332.637,55.258a5.473,5.473,0,0,0-.092-.994l1.842-1.063-1.815-3.143-1.842,1.064a5.437,5.437,0,0,0-1.722-1V48h-3.629v2.126a5.4,5.4,0,0,0-.907.419,5.462,5.462,0,0,0-.814.577l-1.842-1.064L320,53.2l1.842,1.063a5.409,5.409,0,0,0,0,1.989L320,57.316l1.815,3.143,1.842-1.064a5.468,5.468,0,0,0,.814.577,5.4,5.4,0,0,0,.907.419v2.126h3.629V60.391a5.437,5.437,0,0,0,1.722-1l1.842,1.064,1.815-3.143-1.842-1.063a5.473,5.473,0,0,0,.092-.994Zm-5.444,1.815a1.815,1.815,0,1,1,1.815-1.815A1.815,1.815,0,0,1,327.193,57.073Z" transform="translate(-269.523 -7.093)" fill="#f3af3e"/>
      <g id="Grupo_1207486" data-name="Grupo 1207486" transform="translate(47.756 55.424)">
        <path id="Trazado_1051730" data-name="Trazado 1051730" d="M376,176h1.815v2.722H376Z" transform="translate(-366.927 -176)" fill="#aae5c8"/>
        <path id="Trazado_1051731" data-name="Trazado 1051731" d="M376,216h1.815v1.815H376Z" transform="translate(-366.927 -211.463)" fill="#aae5c8"/>
        <path id="Trazado_1051732" data-name="Trazado 1051732" d="M344,216h1.815v1.815H344Z" transform="translate(-338.556 -211.463)" fill="#aae5c8"/>
        <path id="Trazado_1051733" data-name="Trazado 1051733" d="M296,216h3.629v1.815H296Z" transform="translate(-296 -211.463)" fill="#aae5c8"/>
      </g>
      <path id="Trazado_1051734" data-name="Trazado 1051734" d="M192.166,291.795,184,289.073V280l8.166,2.722Z" transform="translate(-148.947 -212.781)" fill="#dc4d41"/>
      <path id="Trazado_1051735" data-name="Trazado 1051735" d="M256,291.795l8.166-2.722V280L256,282.722Z" transform="translate(-212.781 -212.781)" fill="#4799cf"/>
      <path id="Trazado_1051736" data-name="Trazado 1051736" d="M296,320h9.98v1.815H296Z" transform="translate(-248.244 -248.244)" fill="#fbb540"/>
      <circle id="Elipse_13417" data-name="Elipse 13417" cx="1.759" cy="1.759" r="1.759" transform="translate(57.289 71.078)" fill="#4799cf"/>
      <path id="Trazado_1051737" data-name="Trazado 1051737" d="M128,320h9.98v1.815H128Z" transform="translate(-99.298 -248.244)" fill="#fbb540"/>
      <circle id="Elipse_13418" data-name="Elipse 13418" cx="1.759" cy="1.759" r="1.759" transform="translate(25.633 71.078)" fill="#dc4d41"/>
      <path id="Trazado_1051738" data-name="Trazado 1051738" d="M209.98,131.629V128h-7.258v3.629l-1.815,1.815L200,137.073l.771,4.623a.982.982,0,0,0,1.951-.161V137.98l.907-.907a3.849,3.849,0,0,1,5.444,0V138.4a1.385,1.385,0,0,0,1.138,1.381,1.362,1.362,0,0,0,1.584-1.343v-3.176Z" transform="translate(-163.132 -78.02)" fill="#fdc9a6"/>
      <path id="Trazado_1051739" data-name="Trazado 1051739" d="M40,408H88.994v2.722H40Z" transform="translate(-21.278 -326.264)" fill="#a8a8a8"/>
      <path id="Trazado_1051740" data-name="Trazado 1051740" d="M72,408h41.736v2.722H72Z" transform="translate(-49.649 -326.264)" fill="#b3e4e8"/>
      <path id="Trazado_1051741" data-name="Trazado 1051741" d="M74.809,420.537H25.815A1.815,1.815,0,0,1,24,418.722V416H44.868l1.217,1.217a2.041,2.041,0,0,0,1.444.6H53.1a2.042,2.042,0,0,0,1.444-.6L55.756,416H76.623v2.722A1.815,1.815,0,0,1,74.809,420.537Z" transform="translate(-7.093 -333.357)" fill="#b9b9b9"/>
      <path id="Trazado_1051742" data-name="Trazado 1051742" d="M69.531,81.736h-.907V48.846a3.407,3.407,0,0,0-3.087-3.387l-1.7-2.948a.907.907,0,0,0-1.239-.332l-1.317.76a6.3,6.3,0,0,0-.886-.513V40.907A.907.907,0,0,0,59.485,40H55.856a.907.907,0,0,0-.907.907v1.52q-.232.11-.455.239t-.431.273l-1.318-.76a.907.907,0,0,0-1.239.332l-1.693,2.932h-28.6a3.406,3.406,0,0,0-3.4,3.4v32.89h-.907a.907.907,0,0,0-.907.907v2.722a2.725,2.725,0,0,0,2.722,2.722H67.716a2.725,2.725,0,0,0,2.722-2.722V82.643a.907.907,0,0,0-.907-.907ZM64,47.654l.685-.4h.535a1.589,1.589,0,0,1,1.588,1.588v32.89H64.994V51.812l.655-1.135a.907.907,0,0,0-.332-1.239L64,48.678q.021-.257.021-.512T64,47.654ZM53.211,49a4.5,4.5,0,0,1,0-1.659.907.907,0,0,0-.439-.951l-1.056-.61.907-1.572,1.057.61a.907.907,0,0,0,1.043-.1,4.583,4.583,0,0,1,.679-.481,4.528,4.528,0,0,1,.755-.349.907.907,0,0,0,.6-.855V41.815h1.815v1.218a.907.907,0,0,0,.6.855,4.514,4.514,0,0,1,1.434.83.907.907,0,0,0,1.043.1l1.057-.61.907,1.572-1.056.61a.907.907,0,0,0-.439.95,4.494,4.494,0,0,1,0,1.659.907.907,0,0,0,.439.95l1.056.61-.907,1.572-1.057-.61a.907.907,0,0,0-1.043.1,4.514,4.514,0,0,1-1.434.83.907.907,0,0,0-.6.855v1.218H56.763V53.3a.907.907,0,0,0-.6-.855,4.53,4.53,0,0,1-.755-.348,4.581,4.581,0,0,1-.679-.481.907.907,0,0,0-1.043-.1l-1.057.61-.907-1.572,1.056-.61A.907.907,0,0,0,53.211,49Zm-1.154,5.248a.906.906,0,0,0,.688-.091l1.317-.761q.21.145.431.273t.455.239v1.52a.907.907,0,0,0,.907.907h.973v1.815h1.815V56.331h.842a.907.907,0,0,0,.907-.907V53.9a6.3,6.3,0,0,0,.886-.513l1.317.76a.907.907,0,0,0,.584.112V81.736H48.663a.907.907,0,0,0-.642.266L46.8,83.218a1.127,1.127,0,0,1-.8.332H40.435a1.126,1.126,0,0,1-.8-.332L38.417,82a.907.907,0,0,0-.642-.266H23.258V50.888H38.682v2.346l-1.549,1.549a.907.907,0,0,0-.238.422l-.907,3.629a.906.906,0,0,0-.015.369l.77,4.623a1.883,1.883,0,0,0,1.222,1.467l-3.2,1.066-.016.007a.9.9,0,0,0-.605.854v4.537H30.361a2.722,2.722,0,1,0,0,1.815h3.785v2.722a.907.907,0,0,0,.62.861l8.166,2.722a.9.9,0,0,0,.573,0h0l8.166-2.722a.907.907,0,0,0,.62-.861V73.57h3.785a2.722,2.722,0,1,0,0-1.815H52.292V67.219a.9.9,0,0,0-.6-.854l-.016-.007-3.9-1.3a5.489,5.489,0,0,0,.887-2.83,2.074,2.074,0,0,0,.454-.454h2.271V59.961H49.57V57.239a.907.907,0,0,0-.1-.406L47.756,53.4V50.888h2.058l1.693,2.932a.907.907,0,0,0,.551.423Zm-6.021-.228,1.719,3.438v2.961a.451.451,0,0,1-.136.324.443.443,0,0,1-.327.13.486.486,0,0,1-.445-.5V59.053a.907.907,0,0,0-.266-.642,4.762,4.762,0,0,0-6.727,0l-.907.907a.907.907,0,0,0-.266.642v3.554a.075.075,0,0,1-.149.012l-.739-4.437.8-3.2,1.637-1.637a.907.907,0,0,0,.266-.642V50.888h5.444V53.61a.907.907,0,0,0,.1.406ZM50.477,73.57v2.068l-6.351,2.117v-7.16l6.351-2.117v3.278H47.756V73.57Zm-14.517,0h2.722V71.756H35.961V68.478l6.351,2.117v7.16l-6.351-2.117Zm9.13-12.7a.9.9,0,0,0-.7.263l-1.173,1.173-1.173-1.173a.907.907,0,0,0-1.549.642V60.336l.642-.641a2.947,2.947,0,0,1,3.895-.236v.91A2.323,2.323,0,0,0,45.09,60.871Zm-.51,5.441h-.454V63.966l1.549-1.549a.9.9,0,0,0,.185-.268,2.247,2.247,0,0,0,.945.477,3.66,3.66,0,0,1-.682,1.63Zm-1.361,2.673-.637-.212a.9.9,0,0,1-.27-.646h1.815a.9.9,0,0,1-.27.646ZM40.5,63.515v-1.74a.905.905,0,0,0,.266.641l1.549,1.549v2.346h-.454L40.334,64.28A1.875,1.875,0,0,0,40.5,63.515Zm-.7,3.078.7.928v.556l-2.574-.858Zm6.14,1.484v-.556l.7-.928,1.878.626ZM28.7,72.663a.907.907,0,1,1-.907-.907A.907.907,0,0,1,28.7,72.663Zm29.034,0a.907.907,0,1,1,.907.907.907.907,0,0,1-.907-.907ZM19.629,48.846a1.589,1.589,0,0,1,1.588-1.588H50.655l.685.4c-.014.171-.021.342-.021.512s.007.34.021.512l-.685.4h-28.3a.907.907,0,0,0-.907.907V81.736H19.629ZM68.623,85.365a.908.908,0,0,1-.907.907H18.722a.908.908,0,0,1-.907-.907V83.55H37.4l.951.951a2.929,2.929,0,0,0,2.085.864H46a2.93,2.93,0,0,0,2.085-.864l.951-.951H68.623Z"/>
      <path id="Trazado_1051743" data-name="Trazado 1051743" d="M160,208h1.815v1.815H160Z" transform="translate(-127.669 -148.947)"/>
      <path id="Trazado_1051744" data-name="Trazado 1051744" d="M160,152h1.815v4.537H160Z" transform="translate(-127.669 -99.298)"/>
      <path id="Trazado_1051745" data-name="Trazado 1051745" d="M362.148,93.444a2.722,2.722,0,1,0-2.722-2.722A2.722,2.722,0,0,0,362.148,93.444Zm0-3.629a.907.907,0,1,1-.907.907A.907.907,0,0,1,362.148,89.815Z" transform="translate(-304.477 -42.556)"/>
      <path id="Trazado_1051746" data-name="Trazado 1051746" d="M376,216h1.815v1.815H376Z" transform="translate(-319.171 -156.039)"/>
      <path id="Trazado_1051747" data-name="Trazado 1051747" d="M344,216h1.815v1.815H344Z" transform="translate(-290.801 -156.039)"/>
    </g>
  </g>
</svg>
