<svg xmlns="http://www.w3.org/2000/svg" xmlns:xlink="http://www.w3.org/1999/xlink" width="103" height="103" viewBox="0 0 103 103">
  <defs>
    <filter id="Trazado_982547" x="0" y="0" width="103" height="103" filterUnits="userSpaceOnUse">
      <feOffset dy="3" input="SourceAlpha"/>
      <feGaussianBlur stdDeviation="3" result="blur"/>
      <feFlood flood-opacity="0.161"/>
      <feComposite operator="in" in2="blur"/>
      <feComposite in="SourceGraphic"/>
    </filter>
  </defs>
  <g id="Grupo_1207489" data-name="Grupo 1207489" transform="translate(-1031 -3663.5)">
    <g id="Grupo_1207317" data-name="Grupo 1207317" transform="translate(0 2919.5)">
      <g id="Grupo_1202211" data-name="Grupo 1202211" transform="translate(760 -126.414)">
        <g id="Grupo_1174813" data-name="Grupo 1174813" transform="translate(280 876.414)">
          <g id="Grupo_1201680" data-name="Grupo 1201680">
            <g id="Grupo_1201330" data-name="Grupo 1201330">
              <g id="Grupo_1172010" data-name="Grupo 1172010">
                <g id="Grupo_1171046" data-name="Grupo 1171046">
                  <g id="Grupo_1148525" data-name="Grupo 1148525">
                    <g transform="matrix(1, 0, 0, 1, -9, -6)" filter="url(#Trazado_982547)">
                      <g id="Trazado_982547-2" data-name="Trazado 982547" transform="translate(9 6)" fill="#f2f7e5">
                        <path d="M 42.5 83.5 C 36.96437835693359 83.5 31.59512901306152 82.41617584228516 26.54141235351562 80.27863311767578 C 21.65934181213379 78.21369171142578 17.27447128295898 75.25723266601562 13.50862312316895 71.49137878417969 C 9.742764472961426 67.72553253173828 6.786305904388428 63.34066009521484 4.721364498138428 58.45858764648438 C 2.583823442459106 53.40486907958984 1.5 48.03562164306641 1.5 42.5 C 1.5 36.96437835693359 2.583823442459106 31.59512901306152 4.721364498138428 26.54141235351562 C 6.786305904388428 21.65934181213379 9.742764472961426 17.27448272705078 13.50862312316895 13.50862312316895 C 17.27447128295898 9.742776870727539 21.65934181213379 6.786305904388428 26.54141235351562 4.721364498138428 C 31.59512901306152 2.583823442459106 36.96437835693359 1.5 42.5 1.5 C 48.03562164306641 1.5 53.40486907958984 2.583823442459106 58.45858764648438 4.721364498138428 C 63.34066009521484 6.786305904388428 67.72553253173828 9.742776870727539 71.49137878417969 13.50862312316895 C 75.25723266601562 17.27448272705078 78.21369171142578 21.65934181213379 80.27863311767578 26.54141235351562 C 82.41617584228516 31.59512901306152 83.5 36.96437835693359 83.5 42.5 C 83.5 48.03562164306641 82.41617584228516 53.40486907958984 80.27863311767578 58.45858764648438 C 78.21369171142578 63.34066009521484 75.25723266601562 67.72553253173828 71.49137878417969 71.49137878417969 C 67.72553253173828 75.25723266601562 63.34066009521484 78.21369171142578 58.45858764648438 80.27863311767578 C 53.40486907958984 82.41617584228516 48.03562164306641 83.5 42.5 83.5 Z" stroke="none"/>
                        <path d="M 42.5 3 C 37.16621398925781 3 31.99356079101562 4.043960571289062 27.125732421875 6.102882385253906 C 22.42246627807617 8.092185974121094 18.19785308837891 10.94070434570312 14.56928253173828 14.56928253173828 C 10.94070434570312 18.19785308837891 8.092185974121094 22.42246627807617 6.102882385253906 27.125732421875 C 4.043960571289062 31.99356079101562 3 37.16621398925781 3 42.5 C 3 47.83378601074219 4.043960571289062 53.00643920898438 6.102882385253906 57.874267578125 C 8.092185974121094 62.57753372192383 10.94070434570312 66.80214691162109 14.56928253173828 70.43071746826172 C 18.19785308837891 74.05929565429688 22.42246627807617 76.90781402587891 27.125732421875 78.89711761474609 C 31.99356079101562 80.95603942871094 37.16621398925781 82 42.5 82 C 47.83378601074219 82 53.00643920898438 80.95603942871094 57.874267578125 78.89711761474609 C 62.57753372192383 76.90781402587891 66.80214691162109 74.05929565429688 70.43071746826172 70.43071746826172 C 74.05929565429688 66.80214691162109 76.90781402587891 62.57753372192383 78.89711761474609 57.874267578125 C 80.95603942871094 53.00643920898438 82 47.83378601074219 82 42.5 C 82 37.16621398925781 80.95603942871094 31.99356079101562 78.89711761474609 27.125732421875 C 76.90781402587891 22.42246627807617 74.05929565429688 18.19785308837891 70.43071746826172 14.56928253173828 C 66.80214691162109 10.94070434570312 62.57753372192383 8.092185974121094 57.874267578125 6.102882385253906 C 53.00643920898438 4.043960571289062 47.83378601074219 3 42.5 3 M 42.5 0 C 65.97210693359375 0 85 19.02789306640625 85 42.5 C 85 65.97210693359375 65.97210693359375 85 42.5 85 C 19.02789306640625 85 0 65.97210693359375 0 42.5 C 0 19.02789306640625 19.02789306640625 0 42.5 0 Z" stroke="none" fill="#1d7083"/>
                      </g>
                    </g>
                  </g>
                </g>
              </g>
            </g>
          </g>
        </g>
      </g>
    </g>
    <g id="seo_1465904" transform="translate(1055 3685)">
      <path id="Trazado_1051748" data-name="Trazado 1051748" d="M345.008,337.056a3.615,3.615,0,0,1-2.556,6.169H328V336h14.452A3.636,3.636,0,0,1,345.008,337.056Zm0,0" transform="translate(-290.968 -298.064)" fill="#cf9e76"/>
      <path id="Trazado_1051749" data-name="Trazado 1051749" d="M280,352h5.419v3.613H280Zm0,0" transform="translate(-248.387 -312.258)" fill="#aab2bd"/>
      <g id="Grupo_1207488" data-name="Grupo 1207488" transform="translate(28 11.742)">
        <path id="Trazado_1051750" data-name="Trazado 1051750" d="M299.613,180.8v7.587H296v-5.275Zm0,0" transform="translate(-290.581 -172.13)" fill="#ffeaa7"/>
        <path id="Trazado_1051751" data-name="Trazado 1051751" d="M363.613,139.84v12.212H360v-9.9Zm0,0" transform="translate(-347.355 -135.793)" fill="#ffeaa7"/>
        <path id="Trazado_1051752" data-name="Trazado 1051752" d="M331.613,160.32v9.9H328v-7.587Zm0,0" transform="translate(-318.968 -153.961)" fill="#ffeaa7"/>
        <path id="Trazado_1051753" data-name="Trazado 1051753" d="M427.613,104v16.258H424V105.734L426.71,104Zm0,0" transform="translate(-404.129 -104)" fill="#ffeaa7"/>
        <path id="Trazado_1051754" data-name="Trazado 1051754" d="M395.613,119.359v14.524H392V121.671Zm0,0" transform="translate(-375.742 -117.625)" fill="#ffeaa7"/>
        <path id="Trazado_1051755" data-name="Trazado 1051755" d="M253.419,201.281v5.275H248v-1.806Zm0,0" transform="translate(-248 -190.298)" fill="#ffeaa7"/>
      </g>
      <path id="Trazado_1051756" data-name="Trazado 1051756" d="M58.71,17.935A2.713,2.713,0,0,0,56,20.645V15.027a7.025,7.025,0,0,1,11.995-4.968l.651.651a4.768,4.768,0,0,1,3.613,4.625v5.239a2.635,2.635,0,0,0-2.637-2.637h-.072a4.362,4.362,0,0,1-3.08-1.274l-.533-.533a10.789,10.789,0,0,1-5.97,1.806Zm0,0" transform="translate(-49.678 -7.097)" fill="#b27946"/>
      <path id="Trazado_1051757" data-name="Trazado 1051757" d="M109.419,171.227l-2.71,3.613L104,171.227V169.6a5.4,5.4,0,0,0,2.71.722l2.71-.722Zm0,0" transform="translate(-92.258 -150.453)" fill="#f0d0b4"/>
      <path id="Trazado_1051758" data-name="Trazado 1051758" d="M173.661,96a2.635,2.635,0,0,1,2.637,2.637v.072a2.712,2.712,0,0,1-2.71,2.71h-.307a5.463,5.463,0,0,0,.307-1.806V96Zm0,0" transform="translate(-153.718 -85.161)" fill="#f0d0b4"/>
      <path id="Trazado_1051759" data-name="Trazado 1051759" d="M90.839,81.806v3.613a5.367,5.367,0,0,1-1.589,3.83,5.559,5.559,0,0,1-1.12.867l-2.71.722a5.4,5.4,0,0,1-2.71-.722,5.408,5.408,0,0,1-2.71-4.7V81.806h1.256A10.789,10.789,0,0,0,87.226,80l.533.533a4.362,4.362,0,0,0,3.08,1.274Zm0,0" transform="translate(-70.968 -70.968)" fill="#f0d0b4"/>
      <path id="Trazado_1051760" data-name="Trazado 1051760" d="M58.71,101.419a2.71,2.71,0,0,1,0-5.419v3.613a5.463,5.463,0,0,0,.307,1.806Zm0,0" transform="translate(-49.678 -85.162)" fill="#f0d0b4"/>
      <path id="Trazado_1051761" data-name="Trazado 1051761" d="M165.437,198.744l2.023.677a3.6,3.6,0,0,1,2.475,3.423v5.329l-2.267-2.267-2.015,1.21a11.446,11.446,0,0,0-2.375-.984l-.569-2.276H160l3.911-5.618Zm0,0" transform="translate(-141.936 -175.857)" fill="#e6e9ed"/>
      <path id="Trazado_1051762" data-name="Trazado 1051762" d="M17.935,203.857l3.613-3.613,3.613,3.613h-2.71l-.569,2.276a11.45,11.45,0,0,0-2.375.984l-2.015-1.21-1.553,1.563H8v-4.625a3.6,3.6,0,0,1,2.475-3.423l3.549-1.183Zm0,0" transform="translate(-7.097 -175.857)" fill="#e6e9ed"/>
      <path id="Trazado_1051763" data-name="Trazado 1051763" d="M135.524,185.607l-3.911,5.618L128,187.613,130.71,184Zm0,0" transform="translate(-113.549 -163.226)" fill="#b4dd7f"/>
      <path id="Trazado_1051764" data-name="Trazado 1051764" d="M66.174,184l2.71,3.613-3.613,3.613-3.911-5.618Zm0,0" transform="translate(-54.432 -163.226)" fill="#b4dd7f"/>
      <path id="Trazado_1051765" data-name="Trazado 1051765" d="M67.1,263.355v.9l-2.276.569a11.449,11.449,0,0,1-.984,2.375l1.21,2.015-3.829,3.829-2.015-1.21a11.445,11.445,0,0,1-2.375.984l-.569,2.276H50.839l-.569-2.276a11.444,11.444,0,0,1-2.375-.984l-2.015,1.21-3.829-3.829,1.21-2.015a11.447,11.447,0,0,1-.984-2.375L40,264.258v-5.419l2.276-.569a11.447,11.447,0,0,1,.984-2.375l-1.21-2.015,2.267-2.267h.009l1.553-1.563,2.015,1.21a11.448,11.448,0,0,1,2.375-.984L50.839,248h5.419l.569,2.276a11.448,11.448,0,0,1,2.375.984l2.015-1.21,2.267,2.267v.009l1.563,1.553-1.21,2.015a11.448,11.448,0,0,1,.984,2.375l2.276.569Zm-5.419-1.806a8.129,8.129,0,1,0-8.129,8.129A8.129,8.129,0,0,0,61.677,261.548Zm0,0" transform="translate(-35.484 -220)" fill="#ffc729"/>
      <path id="Trazado_1051766" data-name="Trazado 1051766" d="M96.129,296A8.129,8.129,0,1,1,88,304.129,8.129,8.129,0,0,1,96.129,296Zm4.516,8.129a4.516,4.516,0,1,0-4.516,4.516A4.518,4.518,0,0,0,100.645,304.129Zm0,0" transform="translate(-78.065 -262.581)" fill="#fcd770"/>
      <path id="Trazado_1051767" data-name="Trazado 1051767" d="M117.419,320a5.419,5.419,0,1,0,5.419,5.419A5.425,5.425,0,0,0,117.419,320Zm0,9.032a3.613,3.613,0,1,1,3.613-3.613A3.616,3.616,0,0,1,117.419,329.032Zm0,0" transform="translate(-99.355 -283.871)"/>
      <path id="Trazado_1051768" data-name="Trazado 1051768" d="M51.484,37.032H36.129v1.806H32.516v-.707l-2.471-.615a12.609,12.609,0,0,0-.657-1.594l1.309-2.18L28.9,31.95V28.9H52.387V10.839H50.316L28.376,24.881a4.5,4.5,0,0,0-2.561-2.174l-.259-.087L52.18,5.115,50.654,8.676l1.66.712,3.25-7.582H47.871V3.613h3.305l-27.8,18.28-5.31-1.77v-.49a6.345,6.345,0,0,0,2.105-2.5,3.623,3.623,0,0,0,3.307-3.582h.007V8.24a5.665,5.665,0,0,0-4.046-5.435l-.483-.483A7.929,7.929,0,0,0,5.419,7.928v5.62h0a3.605,3.605,0,0,0,3.314,3.582,6.346,6.346,0,0,0,2.105,2.5v.49L3.088,22.707A4.509,4.509,0,0,0,0,26.991v5.525h6.66L5.431,33.744l1.309,2.18a12.807,12.807,0,0,0-.657,1.593l-2.471.615v6.831l2.471.615a12.544,12.544,0,0,0,.657,1.593l-1.309,2.18,4.83,4.83,2.179-1.31a12.741,12.741,0,0,0,1.594.657L14.649,56h6.83l.617-2.472a12.459,12.459,0,0,0,2.06-.9l-.872-1.582a10.751,10.751,0,0,1-2.195.9l-.5.145-.522,2.1H16.06l-.523-2.1-.5-.144a10.825,10.825,0,0,1-2.194-.9l-.456-.251-1.85,1.112L7.705,49.073l1.11-1.849-.25-.456a10.832,10.832,0,0,1-.9-2.195l-.145-.5-2.1-.524V39.544l2.1-.523.144-.5a10.832,10.832,0,0,1,.9-2.195l.251-.456-1.11-1.849,3.332-3.333L9.761,29.413l-1.3,1.3H1.806V26.991a2.706,2.706,0,0,1,1.853-2.57l2.91-.97L10.714,29.4l3.738-3.737L15.884,27.1H14.649l-.616,2.471a12.469,12.469,0,0,0-2.06.9l.872,1.582a10.705,10.705,0,0,1,2.194-.9l.5-.144.522-2.1h4.009l.523,2.1.5.145a10.771,10.771,0,0,1,2.195.9l.456.251,1.85-1.112,2.834,2.834-1.11,1.848.25.456a10.861,10.861,0,0,1,.9,2.2l.145.5,2.1.524v4.008l-2.1.523-.144.5a10.861,10.861,0,0,1-.9,2.2l-.251.456,1.11,1.848L25.09,52.406l1.277,1.277L30.7,49.352l-1.309-2.18a12.819,12.819,0,0,0,.657-1.594l2.47-.614v-.707h3.613v1.806H51.484a4.516,4.516,0,0,0,0-9.032ZM43.355,27.1H41.548v-8.5l1.806-1.156Zm1.806-10.814,1.806-1.156V27.1H45.161ZM39.742,27.1H37.935v-6.19l1.806-1.156Zm-3.613,0H34.322V23.219l1.806-1.156ZM50.581,12.815V27.1H48.774V13.97ZM28.9,26.687l3.613-2.312V27.1H28.9ZM20.738,15.122a6.6,6.6,0,0,0,.036-.67V11.96a1.7,1.7,0,0,1,.4.287,1.762,1.762,0,0,1,.508,1.293,1.81,1.81,0,0,1-.939,1.582ZM13.348,1.806A6.082,6.082,0,0,1,17.677,3.6l.828.828.244.061A3.863,3.863,0,0,1,21.677,8.24v2.166a3.643,3.643,0,0,0-1.8-.471h0a3.485,3.485,0,0,1-2.445-1.013L16.373,7.869l-.616.411a9.813,9.813,0,0,1-5.464,1.655H9.032a3.565,3.565,0,0,0-1.806.5V7.928a6.129,6.129,0,0,1,6.122-6.122ZM7.226,13.549a1.8,1.8,0,0,1,.9-1.556v2.458a6.37,6.37,0,0,0,.037.672,1.8,1.8,0,0,1-.94-1.574Zm2.71.9v-2.71h.357a11.623,11.623,0,0,0,5.834-1.564l.022.022a5.28,5.28,0,0,0,2.819,1.452v2.8a4.516,4.516,0,0,1-9.032,0Zm6.29,6.064-1.774,2.366-1.774-2.366a6.216,6.216,0,0,0,3.548,0Zm-7.87,2.34,3.054-1.018L13.258,24.3l-2.3,2.3Zm9.137-1.018,3.054,1.018L17.94,26.6l-2.3-2.3Zm6.2,8.387a12.54,12.54,0,0,0-1.593-.656L21.479,27.1H19.793l2.539-3.646,2.91.97a2.7,2.7,0,0,1,1.855,2.57v3.152l-1.228-1.228Zm8.826,12.227V40.645h3.613v1.806Zm18.968,1.806H37.935V38.838H51.484a2.71,2.71,0,1,1,0,5.419Zm0,0" transform="translate(0)"/>
      <path id="Trazado_1051769" data-name="Trazado 1051769" d="M449.806,360.9a.9.9,0,1,1-.9-.9A.9.9,0,0,1,449.806,360.9Zm0,0" transform="translate(-397.419 -319.355)"/>
      <path id="Trazado_1051770" data-name="Trazado 1051770" d="M124.684,323.645A8.938,8.938,0,0,0,122.7,318l-1.41,1.131a7.14,7.14,0,0,1,1.589,4.514,7.234,7.234,0,0,1-7.226,7.226,7.141,7.141,0,0,1-4.513-1.589l-1.131,1.409a8.935,8.935,0,0,0,5.644,1.986,9.042,9.042,0,0,0,9.032-9.032Zm0,0" transform="translate(-97.588 -282.097)"/>
      <path id="Trazado_1051771" data-name="Trazado 1051771" d="M89.032,288A9.042,9.042,0,0,0,80,297.032a8.937,8.937,0,0,0,1.986,5.645l1.41-1.131a7.14,7.14,0,0,1-1.589-4.514,7.234,7.234,0,0,1,7.226-7.226,7.141,7.141,0,0,1,4.514,1.589l1.131-1.409A8.935,8.935,0,0,0,89.032,288Zm0,0" transform="translate(-70.968 -255.484)"/>
    </g>
  </g>
</svg>
