<svg xmlns="http://www.w3.org/2000/svg" xmlns:xlink="http://www.w3.org/1999/xlink" width="103" height="103" viewBox="0 0 103 103">
  <defs>
    <filter id="Trazado_982547" x="0" y="0" width="103" height="103" filterUnits="userSpaceOnUse">
      <feOffset dy="3" input="SourceAlpha"/>
      <feGaussianBlur stdDeviation="3" result="blur"/>
      <feFlood flood-opacity="0.161"/>
      <feComposite operator="in" in2="blur"/>
      <feComposite in="SourceGraphic"/>
    </filter>
  </defs>
  <g id="Grupo_1207495" data-name="Grupo 1207495" transform="translate(-191 -3829)">
    <g id="Grupo_1207312" data-name="Grupo 1207312" transform="translate(0 3085)">
      <g id="Grupo_1202212" data-name="Grupo 1202212" transform="translate(-80 -126.414)">
        <g id="Grupo_1174813" data-name="Grupo 1174813" transform="translate(280 876.414)">
          <g id="Grupo_1201680" data-name="Grupo 1201680">
            <g id="Grupo_1201330" data-name="Grupo 1201330">
              <g id="Grupo_1172010" data-name="Grupo 1172010">
                <g id="Grupo_1171046" data-name="Grupo 1171046">
                  <g id="Grupo_1148525" data-name="Grupo 1148525">
                    <g transform="matrix(1, 0, 0, 1, -9, -6)" filter="url(#Trazado_982547)">
                      <g id="Trazado_982547-2" data-name="Trazado 982547" transform="translate(9 6)" fill="#f2f7e5">
                        <path d="M 42.5 83.5 C 36.96437835693359 83.5 31.59512901306152 82.41617584228516 26.54141235351562 80.27863311767578 C 21.65934181213379 78.21369171142578 17.27447128295898 75.25723266601562 13.50862312316895 71.49137878417969 C 9.742764472961426 67.72553253173828 6.786305904388428 63.34066009521484 4.721364498138428 58.45858764648438 C 2.583823442459106 53.40486907958984 1.5 48.03562164306641 1.5 42.5 C 1.5 36.96437835693359 2.583823442459106 31.59512901306152 4.721364498138428 26.54141235351562 C 6.786305904388428 21.65934181213379 9.742764472961426 17.27448272705078 13.50862312316895 13.50862312316895 C 17.27447128295898 9.742776870727539 21.65934181213379 6.786305904388428 26.54141235351562 4.721364498138428 C 31.59512901306152 2.583823442459106 36.96437835693359 1.5 42.5 1.5 C 48.03562164306641 1.5 53.40486907958984 2.583823442459106 58.45858764648438 4.721364498138428 C 63.34066009521484 6.786305904388428 67.72553253173828 9.742776870727539 71.49137878417969 13.50862312316895 C 75.25723266601562 17.27448272705078 78.21369171142578 21.65934181213379 80.27863311767578 26.54141235351562 C 82.41617584228516 31.59512901306152 83.5 36.96437835693359 83.5 42.5 C 83.5 48.03562164306641 82.41617584228516 53.40486907958984 80.27863311767578 58.45858764648438 C 78.21369171142578 63.34066009521484 75.25723266601562 67.72553253173828 71.49137878417969 71.49137878417969 C 67.72553253173828 75.25723266601562 63.34066009521484 78.21369171142578 58.45858764648438 80.27863311767578 C 53.40486907958984 82.41617584228516 48.03562164306641 83.5 42.5 83.5 Z" stroke="none"/>
                        <path d="M 42.5 3 C 37.16621398925781 3 31.99356079101562 4.043960571289062 27.125732421875 6.102882385253906 C 22.42246627807617 8.092185974121094 18.19785308837891 10.94070434570312 14.56928253173828 14.56928253173828 C 10.94070434570312 18.19785308837891 8.092185974121094 22.42246627807617 6.102882385253906 27.125732421875 C 4.043960571289062 31.99356079101562 3 37.16621398925781 3 42.5 C 3 47.83378601074219 4.043960571289062 53.00643920898438 6.102882385253906 57.874267578125 C 8.092185974121094 62.57753372192383 10.94070434570312 66.80214691162109 14.56928253173828 70.43071746826172 C 18.19785308837891 74.05929565429688 22.42246627807617 76.90781402587891 27.125732421875 78.89711761474609 C 31.99356079101562 80.95603942871094 37.16621398925781 82 42.5 82 C 47.83378601074219 82 53.00643920898438 80.95603942871094 57.874267578125 78.89711761474609 C 62.57753372192383 76.90781402587891 66.80214691162109 74.05929565429688 70.43071746826172 70.43071746826172 C 74.05929565429688 66.80214691162109 76.90781402587891 62.57753372192383 78.89711761474609 57.874267578125 C 80.95603942871094 53.00643920898438 82 47.83378601074219 82 42.5 C 82 37.16621398925781 80.95603942871094 31.99356079101562 78.89711761474609 27.125732421875 C 76.90781402587891 22.42246627807617 74.05929565429688 18.19785308837891 70.43071746826172 14.56928253173828 C 66.80214691162109 10.94070434570312 62.57753372192383 8.092185974121094 57.874267578125 6.102882385253906 C 53.00643920898438 4.043960571289062 47.83378601074219 3 42.5 3 M 42.5 0 C 65.97210693359375 0 85 19.02789306640625 85 42.5 C 85 65.97210693359375 65.97210693359375 85 42.5 85 C 19.02789306640625 85 0 65.97210693359375 0 42.5 C 0 19.02789306640625 19.02789306640625 0 42.5 0 Z" stroke="none" fill="#1d7083"/>
                      </g>
                    </g>
                  </g>
                </g>
              </g>
            </g>
          </g>
        </g>
      </g>
    </g>
    <g id="business-cycle_11476402" transform="translate(205.822 3840.82)">
      <g id="Grupo_1207494" data-name="Grupo 1207494" transform="translate(14.873 14.875)">
        <g id="Grupo_1207490" data-name="Grupo 1207490">
          <path id="Trazado_1051772" data-name="Trazado 1051772" d="M92.837,70.655A18.321,18.321,0,0,1,98.2,72.879l3.486-1.548,4.109,4.109-1.548,3.485a18.319,18.319,0,0,1,2.224,5.366l3.557,1.369v5.81l-3.557,1.369a18.322,18.322,0,0,1-2.224,5.365l1.548,3.486-4.109,4.109L98.2,104.25a18.319,18.319,0,0,1-5.366,2.224l-1.369,3.557h-5.81l-1.369-3.557a18.322,18.322,0,0,1-5.365-2.224L75.438,105.8l-4.109-4.109L72.877,98.2a18.32,18.32,0,0,1-2.224-5.366L67.1,91.469v-5.81l3.557-1.369a18.322,18.322,0,0,1,2.224-5.365l-1.548-3.486,4.109-4.109,3.486,1.548a18.322,18.322,0,0,1,5.365-2.224L85.658,67.1h5.81Z" transform="translate(-67.096 -67.097)" fill="#ffe177" fill-rule="evenodd"/>
          <path id="Trazado_1051773" data-name="Trazado 1051773" d="M139.8,104.25l-3.486,1.548-.537-.537,3.268-1.452Q139.419,104.04,139.8,104.25Zm13.914-33.6a18.322,18.322,0,0,1,5.365,2.224l-.991.44a24.167,24.167,0,0,0-6.119-2.664L150.6,67.1h1.745Zm5.366,33.6a18.32,18.32,0,0,1-5.366,2.224l-1.369,3.557H150.6l1.369-3.557a24.154,24.154,0,0,0,6.12-2.665Zm-23.3-32.383.537-.537L139.8,72.88q-.382.211-.754.44Zm25.579,0,1.209-.537,4.109,4.109-1.548,3.485a18.32,18.32,0,0,1,2.224,5.366l3.557,1.369v5.81l-3.557,1.369a18.322,18.322,0,0,1-2.224,5.365l1.548,3.486-4.109,4.109-1.209-.537,3.572-3.572L163.38,98.2A18.322,18.322,0,0,0,165.6,92.84l3.557-1.369V85.66L165.6,84.291a18.316,18.316,0,0,0-2.224-5.366l1.548-3.485Z" transform="translate(-127.973 -67.098)" fill="#ffd064" fill-rule="evenodd"/>
          <circle id="Elipse_13419" data-name="Elipse 13419" cx="14.12" cy="14.12" r="14.12" transform="translate(1.495 21.467) rotate(-45)" fill="#eceff1"/>
          <path id="Trazado_1051774" data-name="Trazado 1051774" d="M145.871,131.752a14.12,14.12,0,0,0,0,28.239q.567,0,1.123-.044a14.12,14.12,0,0,1,0-28.15Q146.438,131.753,145.871,131.752Z" transform="translate(-124.404 -124.405)" fill="#d1d1d6" fill-rule="evenodd"/>
        </g>
        <g id="Grupo_1207492" data-name="Grupo 1207492" transform="translate(12.507 15.546)">
          <path id="Trazado_1051775" data-name="Trazado 1051775" d="M183.48,237.66v6.3a1.183,1.183,0,0,0,1.179,1.18H196.98a1.183,1.183,0,0,0,1.179-1.18v-6.3Z" transform="translate(-182.762 -233.823)" fill="#ecba78" fill-rule="evenodd"/>
          <path id="Trazado_1051776" data-name="Trazado 1051776" d="M183.48,237.66v6.3a1.183,1.183,0,0,0,1.179,1.18h.936a1.183,1.183,0,0,1-1.179-1.18v-6.3Z" transform="translate(-182.762 -233.823)" fill="#e3a76f" fill-rule="evenodd"/>
          <path id="Trazado_1051777" data-name="Trazado 1051777" d="M192.19,208.995a3.676,3.676,0,0,0,.367-.263,1.724,1.724,0,0,0,.718-1.354V204.5a.605.605,0,0,0-.6-.6H177.763a.605.605,0,0,0-.6.6v2.875a1.724,1.724,0,0,0,.718,1.354,3.656,3.656,0,0,0,.367.263C180.7,210.547,189.754,210.536,192.19,208.995Z" transform="translate(-177.159 -203.898)" fill="#e3a76f" fill-rule="evenodd"/>
          <g id="Grupo_1207491" data-name="Grupo 1207491" transform="translate(0)">
            <path id="Trazado_1051778" data-name="Trazado 1051778" d="M211.039,203.9h8.416v1.965a.76.76,0,0,1-.758.758h-6.9a.76.76,0,0,1-.758-.758V203.9Z" transform="translate(-207.189 -203.898)" fill="#c48958" fill-rule="evenodd"/>
            <path id="Trazado_1051779" data-name="Trazado 1051779" d="M178.814,203.9h-1.05a.606.606,0,0,0-.6.6v2.875a1.724,1.724,0,0,0,.718,1.354,3.665,3.665,0,0,0,.367.263,3.724,3.724,0,0,0,.569.287Z" transform="translate(-177.16 -203.898)" fill="#c48958" fill-rule="evenodd"/>
          </g>
        </g>
        <g id="Grupo_1207493" data-name="Grupo 1207493" transform="translate(20.249 18.457)">
          <circle id="Elipse_13420" data-name="Elipse 13420" cx="5.292" cy="5.292" r="5.292" transform="matrix(0.987, -0.16, 0.16, 0.987, 0, 1.693)" fill="#ffc338"/>
          <path id="Trazado_1051780" data-name="Trazado 1051780" d="M295.233,236.327a5.292,5.292,0,1,1,0,10.583c-.153,0-.3-.007-.453-.02a5.291,5.291,0,0,0,0-10.544C294.929,236.334,295.08,236.327,295.233,236.327Z" transform="translate(-289.155 -235.552)" fill="#f5b829" fill-rule="evenodd"/>
        </g>
      </g>
      <path id="Trazado_1051781" data-name="Trazado 1051781" d="M14.633,51.305a.909.909,0,1,1-1.5,1.033,28.318,28.318,0,0,1-1.764-29.075l-1.112.6a.909.909,0,1,1-.869-1.6l4.057-2.207a.909.909,0,0,1,1.344.822L14.676,25.5a.909.909,0,0,1-1.818-.047l.03-1.159A26.611,26.611,0,0,0,14.633,51.305Zm5.479-36.9a.909.909,0,0,1,.232-1.264A28.321,28.321,0,0,1,49.218,11.27l-.531-.9a.909.909,0,1,1,1.565-.925l2.35,3.976a.909.909,0,0,1-.772,1.371l-4.62.046H47.2a.909.909,0,0,1-.009-1.818l1.425-.015a26.66,26.66,0,0,0-27.239,1.626A.91.91,0,0,1,20.112,14.4ZM63.572,49.039a.91.91,0,0,1-.327,1.244l-3.991,2.325a.915.915,0,0,1-.458.124.911.911,0,0,1-.909-.906l-.018-4.618a.91.91,0,0,1,.906-.914h0a.909.909,0,0,1,.909.906l.005,1.39a26.31,26.31,0,0,0-1.644-27.21.909.909,0,0,1,1.5-1.033,28.321,28.321,0,0,1,1.849,28.91l.935-.546a.91.91,0,0,1,1.244.328Zm-11,9.242a.909.909,0,0,1-.232,1.265,28.041,28.041,0,0,1-15.6,4.955c-.136,0-.274,0-.411,0a28.076,28.076,0,0,1-13.005-3.163l.584,1.046a.909.909,0,1,1-1.588.886l-2.252-4.032a.909.909,0,0,1,.807-1.352l4.618.065a.909.909,0,0,1-.026,1.818l-1.248-.018A26.616,26.616,0,0,0,51.3,58.05a.908.908,0,0,1,1.264.231ZM43.792,40.527a1.91,1.91,0,0,1-.451,1.517,2.52,2.52,0,0,1-1.232.741.909.909,0,0,1-1.817-.017,2.429,2.429,0,0,1-1.67-1.727.909.909,0,1,1,1.764-.44c.123.491.787.489.863.488a1.1,1.1,0,0,0,.718-.234c.015-.018.029-.034.02-.109s-.039-.324-.929-.469c-1.917-.315-2.255-1.438-2.287-2.079a2.156,2.156,0,0,1,1.521-2.152.909.909,0,0,1,1.818-.011,2.5,2.5,0,0,1,1.486,1.4.909.909,0,0,1-1.676.7A.777.777,0,0,0,41,37.731c-.1.022-.426.117-.413.378.011.225.539.335.765.373,1.847.3,2.346,1.279,2.439,2.045ZM41.2,43.78A4.382,4.382,0,1,0,36.817,39.4,4.388,4.388,0,0,0,41.2,43.78ZM29.279,40.826a.274.274,0,0,1-.271-.271V36.767a20.925,20.925,0,0,0,6.263.818,6.162,6.162,0,0,0-.1,3.241H29.279Zm-.989-9.5h2.032v1.056a1.669,1.669,0,0,0,1.667,1.667h6.074a6.222,6.222,0,0,0-1.879,1.706c-3.171.078-6.164-.334-7.232-1.009a3,3,0,0,1-.276-.2.814.814,0,0,1-.386-.651V31.33ZM33.2,29.159a.357.357,0,0,1,.353-.353h3.768a.357.357,0,0,1,.354.353v.354H33.2ZM32.14,31.33v.9h6.6v-.9Zm10.448,2.025a6.206,6.206,0,0,0-2.285-.093,1.646,1.646,0,0,0,.253-.876V31.33h2.032Zm1.81.732c0-.061.008-.124.008-.187V31.025a1.514,1.514,0,0,0-1.514-1.513H39.5v-.354a2.174,2.174,0,0,0-2.172-2.172H33.555a2.174,2.174,0,0,0-2.171,2.172v.354h-3.4a1.515,1.515,0,0,0-1.513,1.513V33.9a2.483,2.483,0,0,0,.718,1.745v4.909a2.091,2.091,0,0,0,2.089,2.089h6.642A6.2,6.2,0,1,0,44.4,34.088ZM36.34,49.527A13.184,13.184,0,1,0,23.156,36.342,13.2,13.2,0,0,0,36.34,49.527Zm0-28.187a15,15,0,1,0,15,15,15.019,15.019,0,0,0-15-15ZM53.366,40.406a.912.912,0,0,1,.558-.638L56.9,38.622V34.061l-2.974-1.146a.9.9,0,0,1-.558-.638,17.407,17.407,0,0,0-2.115-5.1.91.91,0,0,1-.057-.845l1.294-2.915-3.225-3.225-2.916,1.294a.907.907,0,0,1-.846-.057,17.394,17.394,0,0,0-5.1-2.113.907.907,0,0,1-.637-.558l-1.146-2.973H34.059l-1.146,2.973a.9.9,0,0,1-.637.558,17.4,17.4,0,0,0-5.1,2.113.907.907,0,0,1-.846.057l-2.915-1.294-3.226,3.226,1.294,2.915a.908.908,0,0,1-.057.846,17.408,17.408,0,0,0-2.114,5.1.908.908,0,0,1-.558.638l-2.974,1.146v4.561l2.974,1.146a.908.908,0,0,1,.558.638,17.362,17.362,0,0,0,2.114,5.1.908.908,0,0,1,.057.846l-1.294,2.915,3.226,3.225L26.332,51.2a.907.907,0,0,1,.846.057,17.423,17.423,0,0,0,5.1,2.114.9.9,0,0,1,.637.557L34.059,56.9h4.561l1.146-2.975a.91.91,0,0,1,.637-.557,17.369,17.369,0,0,0,5.1-2.114.91.91,0,0,1,.846-.057l2.915,1.294,3.225-3.225L51.2,46.35a.91.91,0,0,1,.057-.845A17.4,17.4,0,0,0,53.366,40.406Zm4.768-.31a.911.911,0,0,0,.583-.849V33.437a.911.911,0,0,0-.583-.849l-3.116-1.2a19.184,19.184,0,0,0-1.969-4.749l1.357-3.054a.91.91,0,0,0-.189-1.013l-4.108-4.108a.908.908,0,0,0-1.013-.187l-3.055,1.357a19.189,19.189,0,0,0-4.748-1.969l-1.2-3.117a.907.907,0,0,0-.847-.582h-5.81a.909.909,0,0,0-.849.582l-1.2,3.117a19.189,19.189,0,0,0-4.748,1.969l-3.055-1.357a.907.907,0,0,0-1.012.187l-4.109,4.11a.906.906,0,0,0-.188,1.011l1.357,3.055a19.2,19.2,0,0,0-1.969,4.748l-3.117,1.2a.911.911,0,0,0-.581.849v5.81a.909.909,0,0,0,.581.848l3.117,1.2a19.178,19.178,0,0,0,1.968,4.749L18.276,49.1a.907.907,0,0,0,.188,1.013l4.109,4.108a.907.907,0,0,0,1.012.187l3.055-1.355a19.248,19.248,0,0,0,4.748,1.968l1.2,3.117a.908.908,0,0,0,.849.582h5.81a.906.906,0,0,0,.847-.582l1.2-3.117a19.16,19.16,0,0,0,4.749-1.968L49.1,54.406a.908.908,0,0,0,1.013-.187l4.108-4.108a.91.91,0,0,0,.189-1.013l-1.357-3.054A19.23,19.23,0,0,0,55.017,41.3Z" transform="translate(0)" fill="#242222" fill-rule="evenodd"/>
    </g>
  </g>
</svg>
